<svg width="500" height="500" viewBox="0 0 500 500" fill="none" xmlns="http://www.w3.org/2000/svg">
<path d="M157.923 256.692C205.773 269.692 241.183 339.962 296.513 319.742C344.863 302.062 311.513 237.742 368.883 235.742C403.673 234.512 473.153 243.042 447.403 176.262C431.763 135.712 389.083 100.332 347.573 87.2619C283.283 67.0019 300.003 147.152 255.293 161.862C235.193 168.472 222.913 155.302 206.203 146.862C181.623 134.452 149.033 120.782 121.073 120.272C76.5828 119.462 37.0728 166.662 39.0728 211.042C42.6028 288.492 113.823 244.722 157.923 256.692Z" fill="#7C4EFF"/>
<path opacity="0.9" d="M157.923 256.692C205.773 269.692 241.183 339.962 296.513 319.742C344.863 302.062 311.513 237.742 368.883 235.742C403.673 234.512 473.153 243.042 447.403 176.262C431.763 135.712 389.083 100.332 347.573 87.2619C283.283 67.0019 300.003 147.152 255.293 161.862C235.193 168.472 222.913 155.302 206.203 146.862C181.623 134.452 149.033 120.782 121.073 120.272C76.5828 119.462 37.0728 166.662 39.0728 211.042C42.6028 288.492 113.823 244.722 157.923 256.692Z" fill="white"/>
<path d="M250 427.56C357.082 427.56 443.89 422.492 443.89 416.24C443.89 409.988 357.082 404.92 250 404.92C142.917 404.92 56.1099 409.988 56.1099 416.24C56.1099 422.492 142.917 427.56 250 427.56Z" fill="#F5F5F5"/>
<path d="M367.9 135.37C361.9 138.65 359.9 148.37 362.71 152.6C352.31 155.72 357.71 173.6 374.71 174.6C391.71 175.6 404.65 169.39 396.3 156.13C404.56 145 400.76 132.57 393.52 133.94C385.75 118.37 359.73 118.83 367.9 135.37Z" fill="#263238"/>
<path d="M386 175.8C383.378 175.792 380.806 175.073 378.56 173.72C378.524 173.707 378.491 173.686 378.464 173.659C378.438 173.632 378.417 173.6 378.404 173.564C378.391 173.528 378.386 173.489 378.39 173.451C378.393 173.413 378.405 173.376 378.425 173.344C378.444 173.311 378.471 173.282 378.502 173.261C378.534 173.239 378.57 173.225 378.608 173.219C378.645 173.213 378.684 173.215 378.721 173.226C378.757 173.237 378.791 173.255 378.82 173.28C381.717 175.014 385.141 175.651 388.468 175.075C391.795 174.499 394.805 172.748 396.95 170.14C399.68 166.76 400.95 161.34 396.18 156.28C396.157 156.256 396.139 156.227 396.127 156.196C396.115 156.165 396.109 156.132 396.11 156.098C396.111 156.065 396.119 156.032 396.133 156.001C396.146 155.971 396.166 155.943 396.19 155.92C396.214 155.897 396.243 155.879 396.274 155.867C396.305 155.855 396.339 155.85 396.372 155.851C396.405 155.852 396.438 155.859 396.469 155.873C396.499 155.886 396.527 155.906 396.55 155.93C401.49 161.23 400.2 166.93 397.34 170.46C395.955 172.125 394.222 173.466 392.262 174.388C390.303 175.311 388.166 175.793 386 175.8Z" fill="#263238"/>
<path d="M360.83 155.92C360.779 155.919 360.73 155.902 360.689 155.871C360.647 155.841 360.617 155.799 360.6 155.75C357.94 148.13 361.5 137.9 367.79 135.1C367.852 135.078 367.919 135.079 367.98 135.103C368.04 135.127 368.09 135.172 368.12 135.23C368.133 135.26 368.141 135.293 368.141 135.326C368.142 135.359 368.136 135.391 368.124 135.422C368.112 135.453 368.094 135.481 368.071 135.504C368.048 135.528 368.021 135.547 367.99 135.56C361.91 138.26 358.48 148.18 361.07 155.56C361.081 155.592 361.086 155.625 361.084 155.658C361.081 155.691 361.073 155.724 361.058 155.754C361.043 155.784 361.022 155.81 360.997 155.832C360.971 155.853 360.942 155.87 360.91 155.88L360.83 155.92Z" fill="#263238"/>
<path d="M359.2 144.91H359.11C359.049 144.885 359 144.839 358.972 144.78C358.945 144.72 358.94 144.653 358.96 144.59C360.76 139.82 364.16 136.19 367.82 135.11C367.884 135.092 367.952 135.099 368.01 135.131C368.068 135.163 368.112 135.216 368.13 135.28C368.149 135.344 368.141 135.412 368.109 135.47C368.077 135.528 368.024 135.572 367.96 135.59C364.45 136.59 361.18 140.14 359.43 144.77C359.409 144.813 359.376 144.849 359.336 144.874C359.295 144.899 359.248 144.911 359.2 144.91Z" fill="#263238"/>
<path d="M373.2 410.91L367.42 410.92L366.45 389.21L376.18 389.45L373.2 410.91Z" fill="#FFB573"/>
<path d="M363.15 223.57C363.15 223.57 362.64 283.82 361.37 310.05C361.32 310.829 361.32 311.611 361.37 312.39C363.27 338.68 366.42 389.21 366.42 389.21L376.21 389.46C376.21 389.46 384.74 349.11 379.46 312.56C387.95 271.22 392.52 234.33 384.83 223.56L363.15 223.57Z" fill="#4C23C1"/>
<path opacity="0.2" d="M379.55 247.5C376.55 257.56 379.47 289.9 381.02 304.82C383.13 294.04 384.93 283.67 386.26 274.11L379.55 247.5Z" fill="black"/>
<path d="M366.77 408.11H374.28C374.438 408.104 374.593 408.159 374.711 408.263C374.83 408.367 374.905 408.513 374.92 408.67L375.68 414.82C375.684 415.011 375.65 415.2 375.58 415.377C375.51 415.554 375.405 415.715 375.272 415.851C375.139 415.987 374.98 416.095 374.805 416.169C374.629 416.242 374.441 416.28 374.25 416.28C370.94 416.28 369.36 416.04 365.19 416.05C362.62 416.05 361.07 416.31 357.52 416.31C353.97 416.31 353.97 412.91 355.46 412.6C362.15 411.21 363.01 410.44 365.34 408.6C365.749 408.283 366.252 408.11 366.77 408.11Z" fill="#263238"/>
<path d="M369.24 179.23C368.87 181.3 368.45 183.23 368 185.23C367.55 187.23 367.09 189.23 366.56 191.23C365.51 195.23 364.42 199.15 362.98 203.11C362.258 205.158 361.416 207.161 360.46 209.11C359.93 210.192 359.319 211.232 358.63 212.22C358.43 212.49 358.25 212.75 357.99 213.05C357.741 213.369 357.463 213.663 357.16 213.93C356.393 214.655 355.469 215.192 354.46 215.5C353.402 215.82 352.28 215.865 351.2 215.63C350.35 215.433 349.539 215.095 348.8 214.63C347.679 213.913 346.686 213.014 345.86 211.97C344.442 210.206 343.311 208.228 342.51 206.11C342.334 205.66 342.319 205.163 342.467 204.703C342.615 204.243 342.917 203.848 343.323 203.585C343.728 203.322 344.212 203.206 344.692 203.258C345.173 203.31 345.621 203.526 345.96 203.87L346.08 204C347.321 205.311 348.658 206.528 350.08 207.64C350.636 208.065 351.253 208.402 351.91 208.64C352.15 208.7 352.32 208.7 352.34 208.64C352.36 208.58 352.2 208.54 352.06 208.55C351.92 208.56 351.83 208.61 351.87 208.55C351.917 208.463 351.971 208.38 352.03 208.3C352.129 208.179 352.217 208.049 352.29 207.91C352.709 207.222 353.077 206.503 353.39 205.76C354.118 204.047 354.759 202.298 355.31 200.52C356.45 196.86 357.49 193.05 358.39 189.22C359.29 185.39 360.18 181.48 360.98 177.66C361.227 176.604 361.873 175.685 362.783 175.095C363.693 174.506 364.797 174.292 365.861 174.5C366.926 174.707 367.868 175.319 368.491 176.206C369.114 177.094 369.368 178.189 369.2 179.26L369.24 179.23Z" fill="#FFB573"/>
<path d="M360.15 215.39C360.15 217.85 398.49 218.33 398.49 215.08L378.9 210.08L360.15 215.39Z" fill="#263238"/>
<path d="M367.19 172.78C377.299 171.089 387.626 171.191 397.7 173.08C398.291 173.174 398.856 173.387 399.362 173.708C399.867 174.028 400.301 174.449 400.637 174.944C400.974 175.438 401.205 175.997 401.317 176.584C401.43 177.172 401.42 177.776 401.29 178.36C395.87 202.63 396.18 210.79 396.7 223.57H363.16C361.48 202.25 360.59 190.08 360.37 183.17C360.19 177.9 362 173.55 367.19 172.78Z" fill="#FFB573"/>
<path opacity="0.2" d="M397.6 179.83C397.389 183.217 397.837 186.614 398.92 189.83C399.35 187.52 399.85 185.04 400.42 182.33L397.6 179.83Z" fill="black"/>
<path d="M386.69 155.06C385.69 159.91 384.78 168.82 388.18 172.06C388.18 172.06 386.85 176.99 377.83 176.99C367.9 176.99 373.08 172.06 373.08 172.06C378.5 170.76 378.36 166.74 377.42 162.97L386.69 155.06Z" fill="#FFB573"/>
<path opacity="0.2" d="M382.91 158.29L377.42 163C377.653 163.878 377.81 164.775 377.89 165.68C379.96 165.38 382.8 163.11 383.02 160.94C383.143 160.057 383.106 159.16 382.91 158.29Z" fill="black"/>
<path d="M391.93 146.64C390.07 154.55 389.46 157.94 384.72 161.35C377.6 166.49 368.28 162.49 367.72 154.18C367.22 146.71 370.33 135.02 378.72 133.18C380.563 132.765 382.482 132.827 384.294 133.361C386.106 133.895 387.751 134.883 389.074 136.231C390.398 137.579 391.355 139.243 391.854 141.065C392.354 142.886 392.38 144.806 391.93 146.64Z" fill="#FFB573"/>
<path d="M388.91 134.74C380.53 135.67 383.08 151.29 389.38 152.8C396.76 149.19 401.31 135.48 388.91 134.74Z" fill="#263238"/>
<path d="M429.93 396.61L424.14 398.37L415.69 380.67L424.6 378.24L429.93 396.61Z" fill="#FFB573"/>
<path d="M422.47 396.6L429.91 393.72C430.04 393.67 430.184 393.668 430.316 393.713C430.448 393.759 430.559 393.85 430.63 393.97L433.96 399.59C434.04 399.73 434.089 399.886 434.103 400.047C434.117 400.207 434.097 400.369 434.042 400.521C433.988 400.673 433.902 400.811 433.789 400.927C433.677 401.042 433.541 401.132 433.39 401.19C430.78 402.19 429.52 402.7 426.25 403.97C424.25 404.75 421.11 407.35 418.33 408.42C415.55 409.49 414.33 406.95 415.33 406.07C418.039 403.706 420.174 400.754 421.57 397.44C421.655 397.246 421.778 397.071 421.933 396.927C422.088 396.783 422.271 396.671 422.47 396.6Z" fill="#263238"/>
<path d="M372.36 223.57C372.36 223.57 384.69 286.64 389.36 311.57C394.19 337.57 415.71 380.63 415.71 380.63L424.64 378.19C424.64 378.19 412.41 332.13 406.71 309.3C405.59 267.96 406.91 234.3 396.71 223.53L372.36 223.57Z" fill="#4C23C1"/>
<path d="M378.81 146.59C378.7 147.24 378.27 147.71 377.81 147.59C377.35 147.47 377.13 146.93 377.24 146.28C377.35 145.63 377.79 145.16 378.24 145.23C378.69 145.3 378.93 145.94 378.81 146.59Z" fill="#263238"/>
<path d="M371.46 145.34C371.35 145.99 370.91 146.46 370.46 146.34C370.01 146.22 369.78 145.69 369.89 145.03C370 144.37 370.44 143.91 370.89 144.03C371.34 144.15 371.57 144.69 371.46 145.34Z" fill="#263238"/>
<path d="M371.07 144.1L369.58 143.38C369.58 143.38 370.18 144.74 371.07 144.1Z" fill="#263238"/>
<path d="M373.52 146.9C372.694 148.283 371.685 149.548 370.52 150.66C370.811 150.952 371.163 151.177 371.549 151.32C371.936 151.464 372.349 151.522 372.76 151.49L373.52 146.9Z" fill="#ED893E"/>
<path d="M375.86 154.64C375.525 154.64 375.19 154.61 374.86 154.55C374.835 154.546 374.811 154.538 374.789 154.525C374.767 154.512 374.749 154.494 374.734 154.474C374.719 154.453 374.708 154.43 374.702 154.405C374.696 154.381 374.696 154.355 374.7 154.33C374.71 154.281 374.738 154.237 374.779 154.207C374.819 154.177 374.87 154.164 374.92 154.17C375.727 154.324 376.559 154.286 377.349 154.061C378.14 153.835 378.866 153.427 379.47 152.87C379.488 152.851 379.509 152.835 379.534 152.825C379.558 152.814 379.584 152.809 379.61 152.809C379.636 152.809 379.662 152.814 379.686 152.825C379.711 152.835 379.732 152.851 379.75 152.87C379.784 152.907 379.802 152.955 379.802 153.005C379.802 153.055 379.784 153.103 379.75 153.14C378.703 154.135 377.304 154.674 375.86 154.64Z" fill="#263238"/>
<path d="M393.07 153.46C392.273 154.814 390.977 155.802 389.46 156.21C387.46 156.72 386.46 154.91 387.08 153.03C387.61 151.34 389.31 149.03 391.32 149.34C391.757 149.42 392.166 149.607 392.513 149.884C392.859 150.161 393.131 150.52 393.305 150.929C393.478 151.337 393.548 151.782 393.507 152.224C393.466 152.666 393.316 153.091 393.07 153.46Z" fill="#FFB573"/>
<path d="M382 145.59C381.919 145.59 381.841 145.563 381.776 145.514C381.711 145.466 381.664 145.398 381.64 145.32C381.11 143.61 378.92 142.87 378.9 142.87C378.851 142.856 378.805 142.831 378.766 142.798C378.726 142.765 378.694 142.725 378.67 142.679C378.647 142.633 378.633 142.583 378.63 142.532C378.626 142.48 378.633 142.429 378.65 142.38C378.665 142.331 378.69 142.285 378.722 142.246C378.755 142.206 378.796 142.174 378.842 142.15C378.888 142.127 378.938 142.113 378.989 142.11C379.04 142.106 379.092 142.113 379.14 142.13C379.24 142.13 381.73 143 382.38 145.13C382.396 145.18 382.401 145.231 382.396 145.283C382.392 145.334 382.377 145.384 382.353 145.43C382.328 145.475 382.295 145.516 382.256 145.548C382.216 145.581 382.17 145.605 382.12 145.62L382 145.59Z" fill="#263238"/>
<path d="M369.82 141.56C369.754 141.56 369.688 141.542 369.63 141.508C369.573 141.475 369.524 141.428 369.49 141.37C369.44 141.28 369.428 141.174 369.456 141.074C369.484 140.975 369.55 140.891 369.64 140.84C370.167 140.522 370.762 140.334 371.376 140.292C371.99 140.25 372.605 140.356 373.17 140.6C373.261 140.647 373.33 140.728 373.362 140.826C373.394 140.923 373.386 141.029 373.34 141.12C373.293 141.211 373.212 141.28 373.115 141.312C373.018 141.344 372.912 141.336 372.82 141.29C372.369 141.106 371.88 141.029 371.394 141.067C370.908 141.106 370.437 141.257 370.02 141.51C369.96 141.547 369.89 141.564 369.82 141.56Z" fill="#263238"/>
<path d="M400.44 174.47C403.29 178.2 405.88 181.97 408.34 185.95C409.56 187.95 410.76 189.95 411.86 192.08C413.055 194.287 414.042 196.601 414.81 198.99C414.92 199.31 415 199.68 415.09 199.99L415.16 200.28L415.25 200.7C415.29 200.962 415.317 201.226 415.33 201.49C415.376 202.358 415.312 203.228 415.14 204.08C414.855 205.431 414.43 206.748 413.87 208.01C412.884 210.24 411.72 212.387 410.39 214.43C407.858 218.358 405.012 222.073 401.88 225.54C401.537 225.924 401.063 226.167 400.551 226.222C400.039 226.278 399.525 226.141 399.108 225.838C398.691 225.536 398.401 225.089 398.294 224.585C398.187 224.081 398.271 223.556 398.53 223.11V223.06C400.74 219.21 402.93 215.25 404.82 211.33C405.747 209.44 406.552 207.493 407.23 205.5C407.522 204.654 407.723 203.779 407.83 202.89C407.867 202.628 407.867 202.362 407.83 202.1V202.04V201.92C407.76 201.72 407.71 201.54 407.62 201.33C406.841 199.455 405.925 197.64 404.88 195.9C403.78 194.05 402.61 192.2 401.41 190.35C398.97 186.69 396.41 183.01 393.81 179.45C393.187 178.557 392.936 177.456 393.111 176.381C393.286 175.306 393.872 174.342 394.745 173.692C395.619 173.042 396.712 172.757 397.791 172.899C398.871 173.04 399.853 173.597 400.53 174.45L400.44 174.47Z" fill="#FFB573"/>
<path d="M378.43 145.35L376.94 144.63C376.94 144.63 377.53 146 378.43 145.35Z" fill="#263238"/>
<path d="M361.31 180.78C361.928 178.257 362.723 175.781 363.69 173.37C365.224 172.912 366.793 172.577 368.38 172.37C371.614 175.236 374.275 178.691 376.22 182.55C380.51 178.21 388.72 173.82 393.72 172.22C395.412 172.113 397.108 172.327 398.72 172.85C395.31 183.61 391.83 194.43 398 197.21C397.89 202.32 398.18 208.66 398.44 215.07C392.61 214.43 369.49 213.32 360.1 215.38C359.62 208.88 359.45 203.38 359.48 198.63C355.11 193.06 359.49 185.48 361.31 180.78Z" fill="#263238"/>
<g opacity="0.2">
<path opacity="0.2" d="M370.5 200.79C370.448 200.796 370.398 200.816 370.356 200.848C370.314 200.88 370.281 200.922 370.26 200.97C369.551 202.959 369.573 205.135 370.32 207.11C369.63 206.53 368.95 205.96 368.32 205.38C368.883 204.176 369.101 202.839 368.949 201.518C368.798 200.198 368.282 198.945 367.46 197.9C367.429 197.859 367.388 197.827 367.341 197.806C367.293 197.785 367.242 197.776 367.19 197.78C367.137 197.784 367.087 197.803 367.044 197.835C367.002 197.867 366.969 197.91 366.95 197.96C366.218 200.005 366.265 202.247 367.08 204.26C366.18 203.44 365.32 202.62 364.53 201.83C365.121 200.62 365.358 199.268 365.215 197.928C365.072 196.589 364.554 195.318 363.72 194.26C363.689 194.219 363.648 194.187 363.601 194.166C363.553 194.145 363.502 194.136 363.45 194.14C363.397 194.144 363.347 194.163 363.304 194.195C363.262 194.227 363.229 194.27 363.21 194.32C362.483 196.369 362.529 198.613 363.34 200.63C361.97 199.2 360.83 197.9 359.98 196.82C359.675 195.611 359.068 194.499 358.216 193.588C357.365 192.677 356.296 191.996 355.11 191.61C355.062 191.602 355.012 191.605 354.966 191.619C354.919 191.634 354.876 191.659 354.841 191.693C354.806 191.727 354.779 191.769 354.764 191.816C354.748 191.862 354.743 191.912 354.75 191.96C355.65 196.39 358.91 197.16 359.57 197.27C360.04 197.86 360.57 198.51 361.21 199.21C359.643 198.508 357.899 198.299 356.21 198.61C356.159 198.622 356.112 198.648 356.075 198.685C356.038 198.722 356.012 198.769 356 198.82C355.985 198.87 355.983 198.922 355.993 198.973C356.004 199.023 356.027 199.071 356.06 199.11C356.92 200.09 358.037 200.811 359.284 201.191C360.531 201.571 361.86 201.595 363.12 201.26C363.68 201.84 364.28 202.43 364.91 203.04C362.793 202.435 360.532 202.569 358.5 203.42C358.452 203.446 358.412 203.484 358.384 203.53C358.356 203.577 358.341 203.631 358.341 203.685C358.341 203.74 358.356 203.793 358.384 203.84C358.412 203.886 358.452 203.925 358.5 203.95C359.642 204.661 360.95 205.06 362.294 205.107C363.638 205.155 364.971 204.849 366.16 204.22C367 205.01 367.89 205.8 368.81 206.59C366.761 205.665 364.443 205.53 362.3 206.21C362.251 206.23 362.207 206.263 362.174 206.305C362.14 206.347 362.118 206.397 362.11 206.45C362.105 206.502 362.112 206.555 362.132 206.603C362.151 206.652 362.181 206.695 362.22 206.73C363.273 207.583 364.541 208.128 365.884 208.304C367.227 208.481 368.593 208.282 369.83 207.73L369.91 207.68C369.942 207.647 369.963 207.605 369.97 207.56L371.1 208.48C371.135 208.527 371.184 208.562 371.24 208.58C371.84 209.06 372.45 209.53 373.07 209.99C373.125 210.037 373.194 210.062 373.265 210.062C373.337 210.062 373.406 210.037 373.46 209.99C373.483 209.958 373.5 209.922 373.509 209.883C373.518 209.844 373.519 209.805 373.513 209.765C373.506 209.726 373.492 209.689 373.471 209.656C373.45 209.622 373.423 209.593 373.39 209.57C372.82 209.14 372.25 208.71 371.7 208.26C372.22 207.069 372.407 205.759 372.241 204.47C372.076 203.181 371.564 201.961 370.76 200.94C370.734 200.894 370.696 200.857 370.65 200.83C370.605 200.804 370.553 200.79 370.5 200.79Z" fill="white"/>
<path opacity="0.2" d="M360.64 185.3C360.693 185.294 360.742 185.274 360.784 185.242C360.826 185.21 360.86 185.168 360.88 185.12C361.589 183.131 361.568 180.955 360.82 178.98C361.51 179.56 362.19 180.13 362.82 180.71C362.257 181.914 362.039 183.251 362.191 184.572C362.343 185.892 362.858 187.145 363.68 188.19C363.712 188.231 363.753 188.263 363.8 188.284C363.847 188.305 363.899 188.314 363.95 188.31C364.003 188.306 364.054 188.287 364.096 188.255C364.139 188.223 364.171 188.18 364.19 188.13C364.922 186.085 364.876 183.843 364.06 181.83C364.96 182.65 365.82 183.47 366.61 184.26C366.02 185.47 365.782 186.822 365.926 188.161C366.069 189.5 366.587 190.772 367.42 191.83C367.452 191.871 367.493 191.903 367.54 191.924C367.587 191.945 367.639 191.954 367.69 191.95C367.743 191.946 367.794 191.927 367.836 191.895C367.879 191.863 367.911 191.82 367.93 191.77C368.657 189.721 368.611 187.477 367.8 185.46C369.17 186.89 370.31 188.19 371.16 189.27C371.466 190.479 372.073 191.591 372.924 192.502C373.776 193.413 374.844 194.094 376.03 194.48C376.079 194.488 376.128 194.485 376.175 194.471C376.222 194.456 376.264 194.431 376.3 194.397C376.335 194.363 376.361 194.321 376.377 194.274C376.393 194.228 376.397 194.178 376.39 194.13C375.49 189.7 372.23 188.93 371.57 188.82C371.1 188.23 370.57 187.58 369.93 186.88C371.497 187.585 373.243 187.791 374.93 187.47C374.981 187.461 375.028 187.437 375.066 187.402C375.103 187.366 375.129 187.32 375.14 187.27C375.155 187.22 375.158 187.168 375.147 187.117C375.137 187.067 375.114 187.019 375.08 186.98C374.22 185.999 373.104 185.279 371.857 184.899C370.609 184.519 369.28 184.495 368.02 184.83C367.46 184.25 366.86 183.66 366.23 183.05C368.348 183.655 370.609 183.521 372.64 182.67C372.688 182.644 372.729 182.606 372.757 182.559C372.785 182.513 372.8 182.459 372.8 182.405C372.8 182.35 372.785 182.297 372.757 182.25C372.729 182.204 372.688 182.165 372.64 182.14C371.499 181.429 370.19 181.03 368.846 180.982C367.502 180.935 366.169 181.241 364.98 181.87C364.14 181.08 363.25 180.29 362.33 179.5C364.379 180.425 366.698 180.56 368.84 179.88C368.889 179.858 368.932 179.825 368.965 179.783C368.998 179.741 369.02 179.692 369.03 179.64C369.035 179.588 369.028 179.535 369.009 179.487C368.99 179.438 368.959 179.394 368.92 179.36C367.868 178.507 366.6 177.962 365.256 177.786C363.913 177.609 362.547 177.808 361.31 178.36L361.23 178.41C361.199 178.443 361.178 178.485 361.17 178.53L360.04 177.61C360.005 177.563 359.956 177.528 359.9 177.51C359.3 177.03 358.69 176.56 358.07 176.1C358.016 176.053 357.947 176.028 357.875 176.028C357.804 176.028 357.735 176.053 357.68 176.1C357.635 176.164 357.616 176.244 357.627 176.322C357.638 176.4 357.679 176.471 357.74 176.52C358.32 176.95 358.89 177.38 359.44 177.83C358.921 179.021 358.734 180.331 358.899 181.62C359.065 182.909 359.577 184.129 360.38 185.15C360.407 185.195 360.445 185.233 360.49 185.26C360.536 185.286 360.588 185.3 360.64 185.3Z" fill="white"/>
<path opacity="0.2" d="M391.47 208.09C391.42 208.097 391.371 208.116 391.33 208.146C391.288 208.175 391.254 208.214 391.23 208.26C390.53 210.25 390.551 212.423 391.29 214.4C390.6 213.83 389.92 213.25 389.29 212.67C389.854 211.467 390.072 210.132 389.92 208.813C389.768 207.494 389.252 206.243 388.43 205.2C388.399 205.159 388.358 205.126 388.311 205.105C388.264 205.085 388.212 205.077 388.161 205.082C388.11 205.087 388.061 205.105 388.019 205.134C387.977 205.164 387.943 205.203 387.92 205.25C387.193 207.299 387.239 209.543 388.05 211.56C387.15 210.73 386.29 209.92 385.5 209.13C386.093 207.922 386.332 206.571 386.189 205.233C386.045 203.895 385.526 202.625 384.69 201.57C384.661 201.527 384.62 201.493 384.572 201.471C384.525 201.45 384.472 201.443 384.42 201.45C384.369 201.456 384.321 201.475 384.279 201.505C384.237 201.534 384.203 201.574 384.18 201.62C383.453 203.669 383.499 205.913 384.31 207.93C382.94 206.51 381.8 205.2 380.95 204.12C380.641 202.912 380.033 201.802 379.182 200.891C378.331 199.981 377.264 199.299 376.08 198.91C376.032 198.9 375.982 198.902 375.935 198.916C375.888 198.93 375.845 198.955 375.81 198.99C375.774 199.026 375.747 199.07 375.731 199.119C375.716 199.168 375.712 199.219 375.72 199.27C376.62 203.69 379.89 204.46 380.54 204.57C381.01 205.16 381.54 205.82 382.18 206.52C380.613 205.817 378.869 205.608 377.18 205.92C377.13 205.934 377.084 205.96 377.047 205.997C377.011 206.034 376.984 206.08 376.97 206.13C376.955 206.178 376.953 206.229 376.963 206.278C376.974 206.327 376.997 206.372 377.03 206.41C377.885 207.397 379.001 208.122 380.25 208.503C381.499 208.883 382.83 208.903 384.09 208.56C384.65 209.14 385.25 209.74 385.88 210.35C383.763 209.739 381.5 209.873 379.47 210.73C379.425 210.757 379.386 210.795 379.358 210.84C379.331 210.885 379.314 210.937 379.31 210.99C379.309 211.043 379.323 211.095 379.349 211.141C379.375 211.187 379.414 211.224 379.46 211.25C380.601 211.961 381.909 212.362 383.253 212.411C384.597 212.46 385.93 212.156 387.12 211.53C387.96 212.31 388.85 213.1 389.77 213.9C387.721 212.975 385.403 212.84 383.26 213.52C383.211 213.54 383.167 213.573 383.134 213.615C383.1 213.657 383.078 213.707 383.07 213.76C383.064 213.811 383.072 213.864 383.093 213.911C383.114 213.959 383.148 214 383.19 214.03C384.243 214.883 385.511 215.427 386.854 215.604C388.197 215.78 389.563 215.582 390.8 215.03L390.87 214.97C390.899 214.937 390.923 214.9 390.94 214.86L392.07 215.78C392.102 215.826 392.147 215.861 392.2 215.88C392.8 216.36 393.41 216.83 394.03 217.3C394.085 217.346 394.154 217.372 394.225 217.372C394.297 217.372 394.366 217.346 394.42 217.3C394.468 217.236 394.488 217.156 394.477 217.077C394.466 216.999 394.424 216.928 394.36 216.88C393.78 216.45 393.22 216.01 392.66 215.57C393.182 214.38 393.371 213.07 393.208 211.781C393.044 210.492 392.533 209.272 391.73 208.25C391.704 208.203 391.667 208.164 391.621 208.136C391.576 208.108 391.524 208.092 391.47 208.09Z" fill="white"/>
<path opacity="0.2" d="M410.7 215C410.647 215.004 410.597 215.023 410.554 215.055C410.512 215.087 410.479 215.131 410.46 215.18C409.747 217.168 409.765 219.344 410.51 221.32C409.82 220.74 409.15 220.16 408.51 219.59C409.076 218.387 409.296 217.051 409.146 215.73C408.996 214.409 408.482 213.156 407.66 212.11C407.628 212.068 407.585 212.034 407.536 212.013C407.487 211.992 407.433 211.984 407.38 211.99C407.328 211.997 407.279 212.018 407.237 212.049C407.195 212.081 407.162 212.122 407.14 212.17C406.413 214.216 406.459 216.457 407.27 218.47C406.37 217.65 405.52 216.83 404.73 216.04C405.321 214.83 405.558 213.478 405.415 212.139C405.272 210.8 404.754 209.528 403.92 208.47C403.889 208.429 403.848 208.397 403.801 208.376C403.753 208.355 403.702 208.346 403.65 208.35C403.597 208.354 403.547 208.374 403.504 208.405C403.462 208.437 403.429 208.481 403.41 208.53C402.679 210.578 402.725 212.824 403.54 214.84C402.17 213.41 401.02 212.11 400.18 211.03C399.875 209.821 399.268 208.709 398.416 207.798C397.565 206.887 396.496 206.206 395.31 205.82C395.262 205.809 395.211 205.811 395.163 205.824C395.115 205.838 395.071 205.863 395.036 205.898C395 205.933 394.973 205.976 394.959 206.023C394.944 206.071 394.941 206.121 394.95 206.17C395.85 210.6 399.11 211.37 399.77 211.48C400.23 212.07 400.77 212.72 401.41 213.42C399.843 212.72 398.099 212.511 396.41 212.82C396.361 212.836 396.316 212.863 396.28 212.899C396.243 212.936 396.216 212.981 396.2 213.03C396.187 213.081 396.186 213.134 396.198 213.184C396.21 213.235 396.235 213.282 396.27 213.32C397.129 214.299 398.244 215.018 399.489 215.398C400.735 215.778 402.062 215.803 403.32 215.47C403.89 216.05 404.48 216.64 405.11 217.25C402.996 216.645 400.738 216.779 398.71 217.63C398.662 217.654 398.622 217.692 398.593 217.737C398.565 217.783 398.55 217.836 398.55 217.89C398.549 217.943 398.562 217.996 398.586 218.043C398.611 218.09 398.646 218.13 398.69 218.16C399.835 218.868 401.144 219.265 402.489 219.313C403.835 219.36 405.169 219.056 406.36 218.43C407.2 219.217 408.08 220.007 409 220.8C406.951 219.876 404.633 219.74 402.49 220.42C402.441 220.439 402.397 220.472 402.365 220.514C402.334 220.557 402.314 220.607 402.31 220.66C402.305 220.712 402.312 220.765 402.332 220.813C402.351 220.862 402.381 220.906 402.42 220.94C403.474 221.792 404.742 222.336 406.084 222.512C407.427 222.689 408.793 222.491 410.03 221.94C410.053 221.945 410.077 221.945 410.1 221.94C410.138 221.91 410.163 221.868 410.17 221.82L411.3 222.74C411.334 222.785 411.379 222.819 411.43 222.84C412.03 223.32 412.64 223.79 413.26 224.25C413.315 224.297 413.384 224.322 413.455 224.322C413.527 224.322 413.596 224.297 413.65 224.25C413.675 224.219 413.694 224.183 413.704 224.145C413.715 224.107 413.717 224.067 413.712 224.027C413.706 223.988 413.692 223.95 413.671 223.916C413.651 223.882 413.623 223.853 413.59 223.83L411.89 222.52C412.412 221.33 412.601 220.021 412.438 218.732C412.274 217.442 411.763 216.222 410.96 215.2C410.94 215.146 410.905 215.098 410.859 215.063C410.813 215.028 410.758 215.006 410.7 215Z" fill="white"/>
<path opacity="0.2" d="M366.73 216.13C366.679 216.134 366.629 216.152 366.587 216.182C366.545 216.212 366.512 216.253 366.49 216.3C365.777 218.288 365.795 220.464 366.54 222.44C365.85 221.87 365.18 221.29 364.54 220.71C365.106 219.507 365.326 218.17 365.176 216.849C365.026 215.528 364.512 214.275 363.69 213.23C363.657 213.189 363.615 213.158 363.567 213.138C363.518 213.118 363.466 213.111 363.414 213.117C363.362 213.123 363.312 213.142 363.27 213.172C363.227 213.202 363.193 213.243 363.17 213.29C362.443 215.339 362.489 217.583 363.3 219.6C362.4 218.77 361.55 217.96 360.76 217.17C361.351 215.96 361.588 214.607 361.445 213.268C361.302 211.929 360.784 210.658 359.95 209.6C359.92 209.559 359.878 209.526 359.831 209.507C359.783 209.488 359.731 209.482 359.68 209.49C359.628 209.492 359.578 209.509 359.535 209.539C359.493 209.569 359.46 209.611 359.44 209.66C358.709 211.708 358.755 213.954 359.57 215.97C358.386 214.758 357.264 213.487 356.21 212.16C355.901 210.952 355.293 209.842 354.442 208.931C353.591 208.021 352.524 207.339 351.34 206.95C351.291 206.94 351.239 206.942 351.191 206.956C351.142 206.97 351.097 206.995 351.06 207.03C351.028 207.067 351.005 207.11 350.991 207.156C350.977 207.203 350.974 207.252 350.98 207.3C351.88 211.73 355.14 212.5 355.8 212.61C356.26 213.2 356.8 213.85 357.44 214.61C355.875 213.899 354.129 213.69 352.44 214.01C352.391 214.023 352.346 214.048 352.31 214.083C352.273 214.118 352.246 214.161 352.23 214.21C352.217 214.26 352.216 214.313 352.228 214.364C352.24 214.415 352.265 214.461 352.3 214.5C353.153 215.487 354.267 216.213 355.515 216.593C356.762 216.974 358.092 216.993 359.35 216.65C359.92 217.23 360.51 217.83 361.14 218.44C359.027 217.824 356.766 217.959 354.74 218.82C354.693 218.842 354.653 218.878 354.624 218.922C354.596 218.966 354.581 219.017 354.58 219.07C354.578 219.123 354.59 219.176 354.615 219.223C354.639 219.27 354.676 219.311 354.72 219.34C355.863 220.051 357.173 220.451 358.518 220.501C359.864 220.55 361.198 220.246 362.39 219.62C363.23 220.4 364.11 221.19 365.03 221.98C362.98 221.058 360.662 220.926 358.52 221.61C358.472 221.628 358.43 221.659 358.398 221.7C358.366 221.74 358.346 221.789 358.34 221.84C358.333 221.892 358.34 221.945 358.359 221.994C358.378 222.043 358.41 222.086 358.45 222.12C359.504 222.972 360.772 223.516 362.114 223.692C363.457 223.869 364.823 223.671 366.06 223.12C366.083 223.124 366.107 223.124 366.13 223.12C366.166 223.093 366.191 223.054 366.2 223.01L367.33 223.93C367.364 223.974 367.409 224.009 367.46 224.03C368.07 224.51 368.67 224.98 369.29 225.45C369.345 225.496 369.414 225.522 369.485 225.522C369.557 225.522 369.626 225.496 369.68 225.45C369.705 225.419 369.724 225.383 369.734 225.345C369.745 225.306 369.747 225.266 369.742 225.227C369.736 225.187 369.722 225.15 369.701 225.116C369.681 225.082 369.653 225.053 369.62 225.03L367.92 223.72C368.442 222.528 368.631 221.217 368.467 219.926C368.304 218.636 367.793 217.414 366.99 216.39C366.986 216.322 366.957 216.259 366.909 216.211C366.861 216.163 366.798 216.135 366.73 216.13Z" fill="white"/>
<path opacity="0.2" d="M390.83 174C390.778 174.007 390.729 174.028 390.687 174.059C390.645 174.091 390.612 174.132 390.59 174.18C389.89 176.17 389.911 178.344 390.65 180.32C389.96 179.74 389.28 179.17 388.65 178.59C389.214 177.386 389.431 176.049 389.279 174.728C389.128 173.408 388.612 172.155 387.79 171.11C387.759 171.069 387.718 171.037 387.671 171.016C387.623 170.995 387.572 170.986 387.52 170.99C387.467 170.994 387.417 171.013 387.374 171.045C387.332 171.077 387.299 171.12 387.28 171.17C386.553 173.215 386.599 175.456 387.41 177.47C386.51 176.65 385.65 175.83 384.86 175.04C385.451 173.83 385.688 172.477 385.545 171.138C385.402 169.799 384.884 168.528 384.05 167.47C384.02 167.428 383.978 167.396 383.931 167.374C383.884 167.353 383.832 167.345 383.78 167.35C383.727 167.354 383.677 167.373 383.634 167.405C383.592 167.437 383.559 167.48 383.54 167.53C382.813 169.579 382.86 171.823 383.67 173.84C382.3 172.41 381.16 171.11 380.31 170.03C380.005 168.821 379.398 167.709 378.546 166.798C377.695 165.887 376.626 165.206 375.44 164.82C375.392 164.812 375.343 164.815 375.296 164.829C375.249 164.844 375.206 164.869 375.171 164.903C375.136 164.937 375.109 164.979 375.094 165.026C375.078 165.072 375.073 165.122 375.08 165.17C375.98 169.6 379.25 170.37 379.9 170.48C380.37 171.07 380.9 171.72 381.54 172.42C379.973 171.717 378.229 171.508 376.54 171.82C376.491 171.835 376.446 171.863 376.41 171.899C376.373 171.936 376.346 171.981 376.33 172.03C376.315 172.08 376.313 172.132 376.324 172.183C376.334 172.233 376.357 172.281 376.39 172.32C377.25 173.3 378.367 174.021 379.614 174.401C380.861 174.781 382.19 174.805 383.45 174.47C384.01 175.05 384.61 175.64 385.24 176.25C383.123 175.644 380.862 175.779 378.83 176.63C378.785 176.657 378.746 176.695 378.719 176.74C378.691 176.786 378.674 176.837 378.67 176.89C378.67 176.944 378.683 176.998 378.709 177.045C378.736 177.092 378.774 177.132 378.82 177.16C379.962 177.871 381.27 178.27 382.614 178.317C383.958 178.365 385.291 178.059 386.48 177.43C387.32 178.22 388.21 179.01 389.13 179.8C387.081 178.875 384.763 178.74 382.62 179.42C382.571 179.44 382.527 179.473 382.494 179.515C382.46 179.557 382.439 179.607 382.43 179.66C382.425 179.713 382.433 179.767 382.454 179.816C382.475 179.865 382.508 179.908 382.55 179.94C383.601 180.792 384.868 181.336 386.209 181.513C387.551 181.689 388.915 181.491 390.15 180.94L390.23 180.89C390.262 180.857 390.283 180.815 390.29 180.77L391.42 181.69C391.457 181.735 391.506 181.77 391.56 181.79C392.16 182.27 392.77 182.74 393.39 183.2C393.445 183.247 393.514 183.272 393.585 183.272C393.657 183.272 393.726 183.247 393.78 183.2C393.828 183.136 393.849 183.056 393.837 182.978C393.826 182.899 393.784 182.828 393.72 182.78C393.14 182.35 392.58 181.92 392.02 181.47C392.542 180.28 392.731 178.971 392.568 177.681C392.404 176.392 391.893 175.172 391.09 174.15C391.062 174.106 391.024 174.07 390.978 174.044C390.933 174.018 390.882 174.003 390.83 174Z" fill="white"/>
<path opacity="0.2" d="M381.33 193C381.382 192.996 381.431 192.977 381.473 192.948C381.515 192.918 381.549 192.877 381.57 192.83C382.283 190.842 382.265 188.666 381.52 186.69C382.21 187.26 382.88 187.84 383.52 188.42C382.954 189.623 382.734 190.96 382.884 192.28C383.035 193.601 383.549 194.854 384.37 195.9C384.403 195.941 384.445 195.972 384.494 195.992C384.542 196.012 384.595 196.019 384.647 196.013C384.698 196.007 384.748 195.988 384.791 195.958C384.833 195.927 384.867 195.887 384.89 195.84C385.617 193.791 385.571 191.547 384.76 189.53C385.66 190.357 386.51 191.167 387.31 191.96C386.72 193.17 386.482 194.522 386.626 195.861C386.769 197.201 387.287 198.472 388.12 199.53C388.153 199.571 388.195 199.602 388.244 199.622C388.292 199.642 388.345 199.649 388.397 199.643C388.448 199.637 388.498 199.618 388.541 199.588C388.583 199.557 388.617 199.517 388.64 199.47C389.369 197.421 389.319 195.175 388.5 193.16C389.685 194.372 390.806 195.643 391.86 196.97C392.169 198.179 392.778 199.291 393.631 200.201C394.484 201.112 395.554 201.793 396.74 202.18C396.788 202.19 396.838 202.188 396.885 202.174C396.932 202.16 396.975 202.134 397.01 202.1C397.045 202.063 397.07 202.018 397.084 201.97C397.098 201.921 397.1 201.87 397.09 201.82C396.2 197.4 392.93 196.63 392.27 196.52C391.81 195.93 391.27 195.28 390.63 194.52C392.195 195.23 393.941 195.44 395.63 195.12C395.679 195.107 395.724 195.082 395.761 195.047C395.798 195.012 395.825 194.968 395.84 194.92C395.854 194.87 395.855 194.817 395.842 194.766C395.83 194.715 395.805 194.668 395.77 194.63C394.918 193.643 393.803 192.917 392.556 192.536C391.308 192.156 389.978 192.136 388.72 192.48C388.16 191.9 387.56 191.3 386.93 190.69C389.043 191.305 391.304 191.171 393.33 190.31C393.378 190.286 393.419 190.249 393.447 190.203C393.475 190.157 393.49 190.104 393.49 190.05C393.493 189.998 393.482 189.946 393.457 189.9C393.432 189.854 393.395 189.816 393.35 189.79C392.207 189.078 390.898 188.678 389.552 188.629C388.207 188.58 386.872 188.884 385.68 189.51C384.84 188.73 383.96 187.94 383.04 187.15C385.091 188.068 387.408 188.199 389.55 187.52C389.598 187.502 389.641 187.471 389.672 187.43C389.704 187.39 389.724 187.341 389.73 187.29C389.739 187.238 389.734 187.184 389.714 187.135C389.695 187.085 389.662 187.042 389.62 187.01C388.568 186.155 387.3 185.609 385.957 185.433C384.613 185.256 383.247 185.456 382.01 186.01C381.987 186.005 381.963 186.005 381.94 186.01C381.911 186.043 381.887 186.08 381.87 186.12L380.74 185.2C380.709 185.153 380.663 185.118 380.61 185.1C380.01 184.62 379.4 184.1 378.78 183.68C378.726 183.633 378.657 183.608 378.585 183.608C378.514 183.608 378.444 183.633 378.39 183.68C378.342 183.744 378.322 183.824 378.333 183.902C378.344 183.981 378.386 184.052 378.45 184.1L380.15 185.41C379.628 186.602 379.439 187.913 379.603 189.203C379.767 190.494 380.277 191.716 381.08 192.74C381.089 192.804 381.119 192.863 381.163 192.91C381.208 192.957 381.266 192.988 381.33 193Z" fill="white"/>
</g>
<path d="M385.72 201.6L318.72 208.36C316.933 208.542 315.291 209.426 314.155 210.817C313.019 212.208 312.481 213.993 312.66 215.78L314.96 238.69C316.705 237.454 318.744 236.696 320.873 236.494C323.002 236.291 325.147 236.65 327.094 237.535C329.041 238.421 330.722 239.801 331.968 241.539C333.215 243.276 333.985 245.311 334.2 247.439C334.415 249.566 334.068 251.713 333.194 253.666C332.32 255.618 330.95 257.306 329.22 258.563C327.489 259.82 325.459 260.602 323.333 260.829C321.206 261.057 319.057 260.723 317.1 259.86L319.41 282.77C319.595 284.557 320.478 286.198 321.869 287.335C323.259 288.472 325.042 289.013 326.83 288.84L393.83 282.09C395.618 281.903 397.259 281.017 398.396 279.626C399.533 278.234 400.074 276.449 399.9 274.66L393.15 207.66C392.961 205.875 392.074 204.236 390.682 203.101C389.291 201.966 387.507 201.427 385.72 201.6Z" fill="#7C4EFF"/>
<path opacity="0.3" d="M385.72 201.6L318.72 208.36C316.933 208.542 315.291 209.426 314.155 210.817C313.019 212.208 312.481 213.993 312.66 215.78L314.96 238.69C316.705 237.454 318.744 236.696 320.873 236.494C323.002 236.291 325.147 236.65 327.094 237.535C329.041 238.421 330.722 239.801 331.968 241.539C333.215 243.276 333.985 245.311 334.2 247.439C334.415 249.566 334.068 251.713 333.194 253.666C332.32 255.618 330.95 257.306 329.22 258.563C327.489 259.82 325.459 260.602 323.333 260.829C321.206 261.057 319.057 260.723 317.1 259.86L319.41 282.77C319.595 284.557 320.478 286.198 321.869 287.335C323.259 288.472 325.042 289.013 326.83 288.84L393.83 282.09C395.618 281.903 397.259 281.017 398.396 279.626C399.533 278.234 400.074 276.449 399.9 274.66L393.15 207.66C392.961 205.875 392.074 204.236 390.682 203.101C389.291 201.966 387.507 201.427 385.72 201.6Z" fill="black"/>
<path d="M404 222.15L400.9 220.8L393.62 222.66C392.786 222.879 392.047 223.367 391.52 224.05L389.98 226.05C389.652 226.488 389.486 227.027 389.51 227.574C389.533 228.12 389.745 228.642 390.11 229.05L391.85 230.97C392.268 231.428 392.847 231.704 393.465 231.742C394.083 231.779 394.691 231.574 395.16 231.17L399.11 227.78C399.11 227.78 403.87 225.55 404 222.15Z" fill="#FFB573"/>
<path d="M340.89 209.66L344.11 209.25C344.544 209.201 344.95 209.011 345.266 208.71C345.582 208.408 345.791 208.012 345.86 207.58L346.3 205.02C346.359 204.715 346.346 204.401 346.262 204.102C346.178 203.803 346.026 203.528 345.818 203.298C345.609 203.068 345.35 202.89 345.06 202.777C344.771 202.665 344.459 202.621 344.15 202.65L340.39 202.92C339.861 202.949 339.365 203.186 339.011 203.579C338.657 203.973 338.473 204.491 338.5 205.02L338.6 207.72C338.606 208.004 338.672 208.284 338.793 208.54C338.915 208.796 339.09 209.024 339.307 209.207C339.524 209.391 339.777 209.526 340.05 209.604C340.323 209.682 340.609 209.702 340.89 209.66Z" fill="#FFB573"/>
<path d="M391 136.17C383.06 140.17 369.11 138.33 369.11 138.33C369.11 138.33 376.89 125.61 391 136.17Z" fill="#263238"/>
<path d="M251.28 389.89L247.29 410.66L237.19 408.22L241.18 387.45L251.28 389.89Z" fill="#7F3E3B"/>
<path d="M237.51 404L248.74 406.44C248.914 406.474 249.069 406.572 249.174 406.714C249.28 406.857 249.328 407.033 249.31 407.21L248.53 415.46C248.504 415.667 248.436 415.866 248.328 416.045C248.221 416.224 248.078 416.379 247.908 416.499C247.737 416.62 247.544 416.703 247.339 416.745C247.135 416.786 246.924 416.785 246.72 416.74C243.19 415.91 242.14 415.39 237.67 414.42C232.46 413.27 230.61 413.58 224.49 412.24C220.79 411.43 220.96 407.55 222.62 407.54C227.004 407.551 231.313 406.402 235.11 404.21C235.854 403.837 236.712 403.762 237.51 404Z" fill="#263238"/>
<path opacity="0.2" d="M251.29 389.9L249.23 400.6L239.12 398.16L241.18 387.45L251.29 389.9Z" fill="black"/>
<path d="M268.86 309.9C280.71 275.04 290.09 233.9 290.09 233.9L256.29 231.76C256.29 231.76 251.29 285.14 248.71 309.76C246.01 335.34 237.62 393.09 237.62 393.09L252.87 396.18C252.87 396.18 267.17 341.8 268.86 309.9Z" fill="#263238"/>
<path opacity="0.2" d="M274.5 253.3L282.7 263.44C280.61 271.27 278.17 280.07 275.49 289.06C273.952 277.204 273.621 265.223 274.5 253.3Z" fill="#263238"/>
<path d="M237.84 395.26L251.84 398.32C252.119 398.382 252.411 398.339 252.661 398.198C252.91 398.058 253.098 397.831 253.19 397.56L254.73 393.05C254.783 392.897 254.804 392.735 254.79 392.574C254.777 392.412 254.729 392.256 254.651 392.114C254.572 391.973 254.465 391.849 254.336 391.752C254.206 391.655 254.058 391.586 253.9 391.55L238.71 388C238.55 387.962 238.384 387.959 238.223 387.99C238.062 388.021 237.909 388.086 237.775 388.18C237.641 388.275 237.528 388.397 237.445 388.538C237.361 388.679 237.308 388.837 237.29 389L236.94 394C236.909 394.284 236.983 394.57 237.149 394.802C237.315 395.035 237.561 395.198 237.84 395.26Z" fill="#263238"/>
<path opacity="0.1" d="M237.84 395.26L251.84 398.32C252.119 398.382 252.411 398.339 252.661 398.198C252.91 398.058 253.098 397.831 253.19 397.56L254.73 393.05C254.783 392.897 254.804 392.735 254.79 392.574C254.777 392.412 254.729 392.256 254.651 392.114C254.572 391.973 254.465 391.849 254.336 391.752C254.206 391.655 254.058 391.586 253.9 391.55L238.71 388C238.55 387.962 238.384 387.959 238.223 387.99C238.062 388.021 237.909 388.086 237.775 388.18C237.641 388.275 237.528 388.397 237.445 388.538C237.361 388.679 237.308 388.837 237.29 389L236.94 394C236.909 394.284 236.983 394.57 237.149 394.802C237.315 395.035 237.561 395.198 237.84 395.26Z" fill="white"/>
<path d="M306.88 389.17L307.51 410.6L297.26 410.46L296.63 389.03L306.88 389.17Z" fill="#7F3E3B"/>
<path d="M297 406.06L307.9 406.22C308.077 406.219 308.248 406.284 308.379 406.402C308.51 406.521 308.593 406.684 308.61 406.86L309.49 415.1C309.507 415.308 309.48 415.518 309.411 415.716C309.342 415.913 309.232 416.094 309.089 416.246C308.946 416.399 308.772 416.52 308.58 416.601C308.387 416.683 308.179 416.723 307.97 416.72C304.35 416.61 303.21 416.31 298.64 416.24C293.3 416.15 292.15 416.82 285.89 416.73C282.1 416.67 281.49 412.83 283.11 412.49C287.412 411.63 291.41 409.65 294.7 406.75C295.351 406.236 296.174 405.989 297 406.06Z" fill="#263238"/>
<path opacity="0.2" d="M306.89 389.18L307.21 400.22L296.95 400.08L296.63 389.03L306.89 389.18Z" fill="black"/>
<path d="M304.33 309.19C301.43 272.52 303.88 252.74 299.62 234.53L268.86 232.62C268.86 232.62 278.41 286.52 283.68 310.9C288.95 335.28 294.62 394.5 294.62 394.5L309.74 394.69C309.74 394.69 311.59 337.8 304.33 309.19Z" fill="#263238"/>
<path d="M294.66 397.22L308.97 397.44C309.266 397.443 309.552 397.333 309.77 397.133C309.987 396.932 310.12 396.655 310.14 396.36L310.45 391.64C310.463 391.484 310.443 391.327 310.392 391.179C310.342 391.031 310.262 390.895 310.157 390.779C310.052 390.663 309.925 390.569 309.783 390.504C309.641 390.439 309.487 390.404 309.33 390.4L293.76 389.92C293.587 389.914 293.415 389.947 293.256 390.017C293.098 390.086 292.957 390.191 292.844 390.323C292.732 390.454 292.651 390.61 292.607 390.777C292.563 390.945 292.557 391.12 292.59 391.29L293.59 396.29C293.644 396.54 293.777 396.766 293.97 396.934C294.163 397.101 294.405 397.202 294.66 397.22Z" fill="#263238"/>
<path opacity="0.1" d="M294.66 397.22L308.97 397.44C309.266 397.443 309.552 397.333 309.77 397.133C309.987 396.932 310.12 396.655 310.14 396.36L310.45 391.64C310.463 391.484 310.443 391.327 310.392 391.179C310.342 391.031 310.262 390.895 310.157 390.779C310.052 390.663 309.925 390.569 309.783 390.504C309.641 390.439 309.487 390.404 309.33 390.4L293.76 389.92C293.587 389.914 293.415 389.947 293.256 390.017C293.098 390.086 292.957 390.191 292.844 390.323C292.732 390.454 292.651 390.61 292.607 390.777C292.563 390.945 292.557 391.12 292.59 391.29L293.59 396.29C293.644 396.54 293.777 396.766 293.97 396.934C294.163 397.101 294.405 397.202 294.66 397.22Z" fill="white"/>
<path d="M267.87 176.21C266.69 178.76 265.46 181.02 264.12 183.35C262.78 185.68 261.37 187.94 259.81 190.16C258.233 192.452 256.509 194.64 254.65 196.71C252.587 199.093 250.169 201.144 247.48 202.79L247.13 202.99C246.532 203.342 245.867 203.563 245.177 203.639C244.488 203.715 243.79 203.644 243.13 203.43C241.18 202.8 239.29 202.09 237.44 201.33C235.59 200.57 233.79 199.73 232.02 198.85C230.25 197.97 228.52 197.04 226.82 196.04C225.12 195.04 223.46 194.04 221.82 192.83C221.233 192.414 220.81 191.805 220.623 191.11C220.437 190.415 220.499 189.677 220.799 189.022C221.098 188.368 221.617 187.839 222.266 187.526C222.914 187.214 223.651 187.137 224.35 187.31H224.46C226.25 187.74 228.1 188.26 229.9 188.73L235.31 190.16C237.1 190.65 238.9 191.06 240.67 191.5C242.44 191.94 244.21 192.28 245.95 192.64L241.64 193.29C243.137 192.048 244.48 190.632 245.64 189.07C247.01 187.31 248.33 185.37 249.64 183.37C250.95 181.37 252.14 179.28 253.32 177.16C254.5 175.04 255.7 172.85 256.76 170.83L256.82 170.72C257.617 169.393 258.885 168.414 260.371 167.979C261.858 167.544 263.453 167.685 264.84 168.374C266.227 169.062 267.304 170.248 267.856 171.694C268.408 173.141 268.395 174.743 267.82 176.18L267.87 176.21Z" fill="#7F3E3B"/>
<path d="M270.33 158.73C258.39 160.09 249.33 178.58 249.33 178.58L261.65 191.69C261.65 191.69 267.14 185.15 273.04 176.88C279.48 167.87 279.78 157.66 270.33 158.73Z" fill="#7C4EFF"/>
<path d="M268.86 161.5C273.45 159.87 294.01 162.5 294.01 162.5C290.01 167.66 286.67 210.39 286.3 234.95C281.93 235.55 265.17 234.4 261.3 233.5C261.8 223.86 265.82 178.64 268.86 161.5Z" fill="white"/>
<path d="M255.59 174.46C256.129 170.017 258.282 165.926 261.639 162.965C264.996 160.004 269.324 158.38 273.8 158.4C282.391 158.469 290.952 159.414 299.35 161.22C300.658 161.497 301.897 162.033 302.995 162.797C304.092 163.562 305.025 164.538 305.738 165.669C306.451 166.8 306.93 168.062 307.147 169.382C307.364 170.701 307.314 172.05 307 173.35C300.67 199.9 302.34 225.09 300.65 236.81C294.625 239.025 288.225 240.044 281.81 239.81C281.81 239.81 281.96 229.7 283.37 212.63C284.49 199.06 286.5 167.15 290.64 161.85C290.64 161.85 275.8 159.85 271.21 161.46C267.8 180.71 265.3 239.02 265.3 239.03C258.04 238.51 254.62 234.47 254.73 233.27C253.26 209.68 254 188.29 255.59 174.46Z" fill="#7C4EFF"/>
<path d="M291.17 144.93C289.78 148.93 288.17 156.02 290.74 160C290.87 160.185 290.958 160.397 290.997 160.62C291.036 160.842 291.024 161.071 290.964 161.289C290.904 161.507 290.796 161.709 290.648 161.881C290.501 162.052 290.317 162.188 290.11 162.28C285.979 164.663 281.205 165.691 276.46 165.22C270.01 164.7 270.46 161.79 272.12 159.9C272.512 159.464 273.055 159.192 273.64 159.14C279.73 158.41 279.79 154.74 278.91 151.14L291.17 144.93Z" fill="#7F3E3B"/>
<path opacity="0.2" d="M286.17 147.48L278.92 151.17C279.15 152.022 279.281 152.898 279.31 153.78C281.95 153.78 285.69 152.01 286.12 149.98C286.341 149.163 286.359 148.305 286.17 147.48Z" fill="black"/>
<path d="M281.502 131.027C281.774 127.419 279.812 124.33 277.119 124.127C274.426 123.923 272.022 126.683 271.75 130.29C271.477 133.897 273.439 136.986 276.132 137.19C278.825 137.393 281.229 134.634 281.502 131.027Z" fill="#263238"/>
<path d="M295.09 134C293.75 141.89 293.36 146.58 288.98 150.25C282.39 155.76 273.14 151.1 272.14 142.97C271.23 135.66 273.57 123.97 281.55 121.61C289.53 119.25 296.43 126.1 295.09 134Z" fill="#7F3E3B"/>
<path d="M293.37 140.67C293.27 140.67 293.15 140.54 293.04 140.6C289.46 142.6 288.3 138.3 288.52 135.44C288.594 134.486 288.868 133.558 289.324 132.717C289.781 131.876 290.41 131.141 291.17 130.56C287.29 131 283.53 128.5 283.47 126.17C279.18 128.06 274.01 128.17 271.68 124.17C269.35 120.17 272.68 114.94 277.12 116.33C275.32 113.11 282.93 106.67 290.9 116.17C291.15 109.28 302.29 116.17 300.46 122.94C305.62 124.72 310.04 134.52 301.29 136.61C300.71 145.69 293.37 140.67 293.37 140.67Z" fill="#263238"/>
<path d="M297.59 143.15C296.379 144.636 294.65 145.608 292.75 145.87C290.35 146.14 289.82 143.7 291.05 141.48C292.16 139.48 294.74 136.94 296.88 137.72C299.02 138.5 299.15 141.25 297.59 143.15Z" fill="#7F3E3B"/>
<path d="M283.65 134.59C283.59 135.25 283.2 135.74 282.77 135.7C282.34 135.66 282.04 135.1 282.1 134.44C282.16 133.78 282.55 133.3 282.98 133.34C283.41 133.38 283.7 133.94 283.65 134.59Z" fill="#263238"/>
<path d="M275.9 133.73C275.84 134.38 275.45 134.87 275.02 134.83C274.59 134.79 274.3 134.23 274.35 133.58C274.4 132.93 274.8 132.43 275.23 132.47C275.66 132.51 276 133.07 275.9 133.73Z" fill="#263238"/>
<path d="M278.93 134.1C277.975 136.017 276.76 137.794 275.32 139.38C275.735 139.742 276.224 140.009 276.752 140.162C277.281 140.316 277.836 140.353 278.38 140.27L278.93 134.1Z" fill="#630F0F"/>
<path d="M280.4 143.45C281.126 143.501 281.855 143.404 282.543 143.165C283.23 142.926 283.862 142.55 284.4 142.06C284.418 142.042 284.432 142.02 284.441 141.996C284.451 141.972 284.455 141.947 284.455 141.921C284.454 141.896 284.449 141.871 284.439 141.847C284.428 141.824 284.414 141.803 284.395 141.785C284.377 141.767 284.355 141.753 284.332 141.744C284.308 141.735 284.282 141.73 284.257 141.731C284.231 141.731 284.206 141.736 284.183 141.747C284.159 141.757 284.138 141.772 284.12 141.79C283.511 142.329 282.783 142.716 281.996 142.919C281.209 143.122 280.384 143.136 279.59 142.96C279.566 142.954 279.541 142.953 279.516 142.958C279.491 142.963 279.468 142.972 279.447 142.986C279.427 143 279.409 143.019 279.396 143.04C279.383 143.061 279.374 143.085 279.37 143.11C279.361 143.16 279.372 143.212 279.4 143.255C279.428 143.298 279.471 143.328 279.52 143.34C279.84 143.39 280.12 143.43 280.4 143.45Z" fill="#263238"/>
<path d="M286.21 133C286.273 133.015 286.338 133.015 286.4 133C286.447 132.98 286.489 132.95 286.523 132.913C286.558 132.876 286.585 132.833 286.603 132.785C286.621 132.738 286.629 132.687 286.626 132.637C286.624 132.586 286.612 132.536 286.59 132.49C286.355 131.925 285.99 131.422 285.525 131.024C285.059 130.626 284.506 130.344 283.91 130.2C283.81 130.186 283.707 130.211 283.625 130.271C283.543 130.331 283.487 130.42 283.47 130.52C283.456 130.621 283.481 130.723 283.541 130.805C283.601 130.887 283.69 130.943 283.79 130.96C284.26 131.081 284.694 131.311 285.059 131.63C285.424 131.95 285.709 132.351 285.89 132.8C285.924 132.857 285.97 132.904 286.026 132.939C286.082 132.974 286.145 132.995 286.21 133Z" fill="#263238"/>
<path d="M272.65 130.54C272.712 130.557 272.777 130.558 272.84 130.544C272.903 130.53 272.961 130.501 273.01 130.46C273.367 130.137 273.794 129.903 274.258 129.776C274.722 129.649 275.209 129.633 275.68 129.73C275.777 129.758 275.881 129.746 275.969 129.697C276.057 129.649 276.122 129.567 276.15 129.47C276.178 129.372 276.167 129.267 276.118 129.177C276.07 129.087 275.988 129.02 275.89 128.99C275.295 128.855 274.676 128.865 274.086 129.02C273.496 129.175 272.952 129.47 272.5 129.88C272.465 129.915 272.436 129.958 272.417 130.004C272.398 130.05 272.388 130.1 272.388 130.15C272.388 130.2 272.398 130.25 272.417 130.296C272.436 130.343 272.465 130.385 272.5 130.42C272.539 130.473 272.59 130.514 272.65 130.54Z" fill="#263238"/>
<path d="M309.38 172.81C310.03 174.08 310.56 175.18 311.08 176.37C311.6 177.56 312.08 178.71 312.6 179.89C313.6 182.25 314.47 184.65 315.29 187.08C316.958 191.995 318.235 197.034 319.11 202.15L319.38 204.15L319.52 205.15V205.39V205.83C319.52 206.15 319.57 206.47 319.57 206.83C319.532 208.653 319.169 210.454 318.5 212.15C317.505 214.74 316.238 217.217 314.72 219.54C313.343 221.714 311.851 223.814 310.25 225.83C308.682 227.836 307.013 229.762 305.25 231.6C304.744 232.136 304.062 232.473 303.328 232.548C302.594 232.624 301.857 232.434 301.252 232.013C300.646 231.591 300.212 230.967 300.028 230.252C299.845 229.538 299.923 228.781 300.25 228.12V228.04C302.32 223.73 304.51 219.37 306.25 215.12C306.7 214.06 307.1 213 307.45 211.97C307.799 211.008 308.089 210.026 308.32 209.03C308.483 208.41 308.54 207.768 308.49 207.13C308.49 207.13 308.49 207.19 308.49 207.13L308.44 206.93L308.25 206.1L307.88 204.45C306.727 199.972 305.314 195.564 303.65 191.25C302.85 189.05 301.94 186.88 301.06 184.7C300.62 183.62 300.15 182.54 299.68 181.47L298.28 178.35L298.2 178.17C297.497 176.698 297.408 175.007 297.952 173.469C298.496 171.931 299.628 170.673 301.1 169.97C302.572 169.267 304.263 169.178 305.801 169.722C307.339 170.265 308.597 171.398 309.3 172.87L309.38 172.81Z" fill="#7F3E3B"/>
<path d="M300.38 161.5C313.7 164.86 317.38 181.89 317.38 181.89L300.84 193.75C300.84 193.75 296.74 189.46 295.5 179.38C294.93 174.57 297.68 161.37 300.38 161.5Z" fill="#7C4EFF"/>
<path d="M302.43 226L294.73 228.88L300.63 236.78C300.63 236.78 307.28 233.33 306.02 229.5L302.43 226Z" fill="#7F3E3B"/>
<path d="M289 230C286.926 229.651 284.798 229.844 282.82 230.56L286.64 207.86C286.936 206.087 286.516 204.27 285.474 202.806C284.432 201.342 282.852 200.351 281.08 200.05L214.68 188.87C212.911 188.577 211.097 188.997 209.636 190.036C208.174 191.076 207.184 192.652 206.88 194.42L203 217.17C204.975 216.445 207.107 216.251 209.18 216.61C211.024 216.919 212.772 217.647 214.29 218.739C215.809 219.83 217.056 221.255 217.937 222.904C218.818 224.553 219.309 226.382 219.372 228.25C219.434 230.119 219.068 231.977 218.3 233.681C217.532 235.386 216.383 236.892 214.941 238.082C213.5 239.273 211.805 240.117 209.986 240.55C208.167 240.982 206.273 240.992 204.45 240.578C202.627 240.163 200.923 239.336 199.47 238.16L195.64 260.86C195.345 262.632 195.764 264.45 196.806 265.914C197.849 267.378 199.429 268.369 201.2 268.67L267.6 279.85C269.371 280.143 271.186 279.724 272.649 278.684C274.112 277.644 275.104 276.068 275.41 274.3L279.23 251.59C280.685 252.747 282.385 253.558 284.2 253.959C286.016 254.36 287.899 254.342 289.706 253.906C291.513 253.469 293.197 252.626 294.63 251.441C296.062 250.256 297.205 248.759 297.971 247.065C298.738 245.371 299.108 243.525 299.053 241.666C298.998 239.808 298.52 237.987 297.655 236.341C296.79 234.695 295.56 233.269 294.061 232.17C292.561 231.071 290.83 230.329 289 230Z" fill="#7C4EFF"/>
<path opacity="0.6" d="M289 230C286.926 229.651 284.798 229.844 282.82 230.56L286.64 207.86C286.936 206.087 286.516 204.27 285.474 202.806C284.432 201.342 282.852 200.351 281.08 200.05L214.68 188.87C212.911 188.577 211.097 188.997 209.636 190.036C208.174 191.076 207.184 192.652 206.88 194.42L203 217.17C204.975 216.445 207.107 216.251 209.18 216.61C211.024 216.919 212.772 217.647 214.29 218.739C215.809 219.83 217.056 221.255 217.937 222.904C218.818 224.553 219.309 226.382 219.372 228.25C219.434 230.119 219.068 231.977 218.3 233.681C217.532 235.386 216.383 236.892 214.941 238.082C213.5 239.273 211.805 240.117 209.986 240.55C208.167 240.982 206.273 240.992 204.45 240.578C202.627 240.163 200.923 239.336 199.47 238.16L195.64 260.86C195.345 262.632 195.764 264.45 196.806 265.914C197.849 267.378 199.429 268.369 201.2 268.67L267.6 279.85C269.371 280.143 271.186 279.724 272.649 278.684C274.112 277.644 275.104 276.068 275.41 274.3L279.23 251.59C280.685 252.747 282.385 253.558 284.2 253.959C286.016 254.36 287.899 254.342 289.706 253.906C291.513 253.469 293.197 252.626 294.63 251.441C296.062 250.256 297.205 248.759 297.971 247.065C298.738 245.371 299.108 243.525 299.053 241.666C298.998 239.808 298.52 237.987 297.655 236.341C296.79 234.695 295.56 233.269 294.061 232.17C292.561 231.071 290.83 230.329 289 230Z" fill="white"/>
<path d="M291.13 236.64L293.66 239.06C294.147 239.529 294.785 239.808 295.46 239.848C296.134 239.889 296.801 239.687 297.34 239.28L300.63 236.81L294.73 228.91L291.08 232.57C290.812 232.838 290.6 233.157 290.456 233.509C290.313 233.86 290.242 234.236 290.246 234.616C290.251 234.995 290.332 235.37 290.483 235.717C290.635 236.065 290.855 236.379 291.13 236.64Z" fill="#7F3E3B"/>
<path d="M217 191L217.92 187.59C218.074 187.189 218.35 186.846 218.708 186.609C219.067 186.373 219.491 186.254 219.92 186.27C221.223 186.217 222.524 186.417 223.75 186.86L228.95 188.78L228.7 190.9C228.49 192.72 226.46 194.24 224.16 194.31C222.616 194.331 221.075 194.166 219.57 193.82L219.01 193.7C218.691 193.678 218.381 193.587 218.101 193.433C217.82 193.28 217.576 193.068 217.386 192.811C217.195 192.555 217.061 192.26 216.995 191.948C216.928 191.635 216.93 191.312 217 191Z" fill="#7F3E3B"/>
<path d="M135.09 143.93C138.42 140.06 143.43 130.01 134.01 126.17C127.06 123.33 112.31 124.78 103.84 137.97C98.0499 139.97 96.3399 152.85 109.71 155.56C123.08 158.27 135.09 143.93 135.09 143.93Z" fill="#263238"/>
<path d="M165.3 392.08L150.02 393.35L152.61 411.31L165.38 410.27L165.3 392.08Z" fill="#FFC3BD"/>
<path opacity="0.2" d="M165.3 392.09L150.01 393.36L151.47 403.42L165.35 402.27L165.3 392.09Z" fill="black"/>
<path d="M136.09 339.21C130.09 316.21 114.55 288.83 124.4 266.7L167.21 266.57C167.21 266.57 168.27 312.12 168.57 333.57C168.87 356 167 398.2 167 398.2L149.49 399.53C149.49 399.53 137.49 365 136.09 339.21Z" fill="#321488"/>
<path d="M148.62 400.22L167.54 398.83C167.701 398.816 167.852 398.745 167.966 398.63C168.08 398.514 168.148 398.362 168.16 398.2L168.56 391.2C168.566 391.103 168.552 391.006 168.516 390.915C168.481 390.824 168.426 390.743 168.355 390.676C168.284 390.609 168.2 390.558 168.107 390.528C168.014 390.498 167.916 390.488 167.82 390.5L146.82 393.29C146.724 393.301 146.632 393.332 146.551 393.382C146.469 393.432 146.399 393.5 146.346 393.58C146.294 393.661 146.26 393.752 146.246 393.847C146.233 393.942 146.241 394.039 146.27 394.13L147.93 399.75C147.976 399.894 148.069 400.018 148.194 400.104C148.319 400.189 148.469 400.23 148.62 400.22Z" fill="#263238"/>
<path opacity="0.2" d="M124.25 288.47C124.084 293.902 124.304 299.339 124.91 304.74C127 311.97 129.67 319.21 132.07 326.23C135.21 306.35 135.22 283.18 124.25 288.47Z" fill="black"/>
<path d="M108.74 393.2L93.3999 393.35L93.3799 411.45L106.2 411.35L108.74 393.2Z" fill="#FFC3BD"/>
<path d="M92.1696 408.67C92.1846 408.57 92.2206 408.473 92.2752 408.387C92.3298 408.301 92.4018 408.227 92.4866 408.171C92.5714 408.114 92.667 408.076 92.7674 408.059C92.8678 408.042 92.9708 408.046 93.0696 408.07C96.9196 409.6 104.22 408.43 106.98 407.9C107.284 407.837 107.599 407.838 107.903 407.902C108.207 407.965 108.496 408.091 108.75 408.27C111.007 409.719 113.454 410.849 116.02 411.63C116.57 413.102 116.708 414.696 116.42 416.24H90.5596C91.2892 413.762 91.8275 411.231 92.1696 408.67Z" fill="#263238"/>
<path d="M150.92 408.67C150.935 408.57 150.971 408.473 151.025 408.387C151.08 408.301 151.152 408.227 151.237 408.171C151.321 408.114 151.417 408.076 151.517 408.059C151.618 408.042 151.721 408.046 151.82 408.07C155.67 409.6 162.97 408.43 165.73 407.9C166.034 407.837 166.349 407.838 166.653 407.902C166.957 407.965 167.246 408.091 167.5 408.27C170.44 410.35 178.28 411.63 178.28 411.63C178.83 413.102 178.965 414.697 178.67 416.24H149.31C150.039 413.762 150.577 411.231 150.92 408.67Z" fill="#263238"/>
<path opacity="0.2" d="M108.74 393.21L93.3899 393.35L93.3799 403.49L107.32 403.37L108.74 393.21Z" fill="black"/>
<path d="M91.2396 331.77C89.1596 308.54 82.6397 277.25 90.0397 266.57H140.14C140.14 266.57 129.93 312.89 125.74 334.33C121.39 356.62 108.88 399.42 108.88 399.42L92.2897 399.47C92.2897 399.47 85.9996 358.29 91.2396 331.77Z" fill="#321488"/>
<path opacity="0.2" d="M94.25 394.72C94.1422 394.718 94.0377 394.683 93.9515 394.618C93.8652 394.553 93.8017 394.463 93.77 394.36C92.58 390.36 92.77 344.41 95.77 331.83C95.77 330.17 95.42 326.91 95.02 322.78C93.65 308.78 91.11 282.78 94.9 268.03C94.9332 267.897 95.0176 267.783 95.1348 267.713C95.252 267.643 95.3924 267.622 95.525 267.655C95.6576 267.688 95.7716 267.773 95.8419 267.89C95.9123 268.007 95.9332 268.147 95.9 268.28C92.15 282.87 94.68 308.77 96.04 322.69C96.45 326.89 96.78 330.2 96.8 331.88C96.805 331.923 96.805 331.967 96.8 332.01C93.92 343.91 93.64 390.21 94.8 394.08C94.8375 394.206 94.824 394.342 94.7622 394.458C94.7004 394.574 94.5955 394.661 94.47 394.7C94.4001 394.728 94.3237 394.735 94.25 394.72Z" fill="white"/>
<path d="M91.1397 400.09H109.93C110.08 400.095 110.227 400.044 110.342 399.949C110.458 399.853 110.536 399.718 110.56 399.57L111.8 392.9C111.818 392.799 111.813 392.696 111.786 392.597C111.758 392.498 111.709 392.406 111.642 392.329C111.575 392.251 111.492 392.189 111.398 392.148C111.304 392.107 111.202 392.087 111.1 392.09L90.6397 393C90.5534 393.003 90.4685 393.023 90.3902 393.059C90.312 393.096 90.2421 393.148 90.1849 393.213C90.1276 393.277 90.0844 393.353 90.0577 393.435C90.031 393.517 90.0215 393.604 90.0297 393.69L90.4497 399.45C90.4646 399.624 90.5436 399.785 90.6711 399.903C90.7987 400.022 90.9658 400.088 91.1397 400.09Z" fill="#263238"/>
<path d="M157.16 185.66C158.16 189.66 159.08 193.66 159.97 197.66C160.86 201.66 161.7 205.66 162.48 209.66L163.68 215.66L164.8 221.66C165.57 225.66 166.25 229.72 166.95 233.76L165.32 230.11C165.537 230.859 166.007 231.509 166.65 231.95C167.93 232.815 169.372 233.411 170.89 233.7C172.912 234.167 174.975 234.439 177.05 234.51C178.16 234.57 179.3 234.61 180.45 234.59C181.02 234.59 181.6 234.59 182.18 234.59C182.76 234.59 183.39 234.59 183.79 234.59L185.21 234.69C186.404 234.767 187.542 235.23 188.451 236.01C189.359 236.789 189.99 237.843 190.247 239.013C190.504 240.182 190.375 241.403 189.877 242.492C189.38 243.581 188.542 244.479 187.49 245.05C186.69 245.49 186.12 245.82 185.44 246.17C184.76 246.52 184.13 246.82 183.44 247.17C182.1 247.75 180.73 248.3 179.31 248.76C177.869 249.233 176.403 249.626 174.92 249.94C173.357 250.252 171.778 250.472 170.19 250.6C168.474 250.723 166.751 250.696 165.04 250.52C163.138 250.361 161.263 249.964 159.46 249.34C157.436 248.666 155.515 247.717 153.75 246.52C151.888 245.231 150.23 243.67 148.83 241.89C148.226 241.14 147.777 240.276 147.51 239.35L147.2 238.24C146.1 234.3 144.97 230.37 143.93 226.41L142.34 220.49L140.83 214.55C139.83 210.55 138.83 206.61 137.92 202.63C137.01 198.65 136.1 194.63 135.31 190.63C134.743 187.768 135.317 184.798 136.907 182.352C138.498 179.906 140.98 178.177 143.826 177.533C146.672 176.89 149.656 177.382 152.145 178.905C154.633 180.429 156.429 182.863 157.15 185.69L157.16 185.66Z" fill="#FFC3BD"/>
<path d="M183.09 235.58L183.3 242.04C185.91 248.31 193.39 243.55 193.39 243.55L197.91 242.72C198.697 242.52 199.387 242.048 199.86 241.387C200.332 240.726 200.555 239.92 200.49 239.11L200.37 234.59C200.4 233.657 200.065 232.749 199.435 232.06C198.806 231.371 197.932 230.955 197 230.9L193 230.98C191.833 231 190.688 231.31 189.67 231.88L183.09 235.58Z" fill="#FFC3BD"/>
<path d="M149.5 174.52C158.7 179.36 164.71 196.44 164.71 196.44C162.77 204.44 154.95 219.03 147.71 218.94C147.71 218.94 137.08 205.23 135.93 195.31C134.53 183.32 130.9 164.74 149.5 174.52Z" fill="#263238"/>
<path d="M141 171.68C126.801 170.33 112.497 170.559 98.3496 172.36C90.1696 173.51 84.3496 178.6 85.3496 195.36C87.3496 229.36 84.2496 255.86 88.5696 268.08C88.5696 268.08 151.49 286.08 169.43 268.83C173.79 227.92 159.11 193.96 152.43 179.83C151.384 177.606 149.783 175.687 147.781 174.26C145.779 172.833 143.444 171.944 141 171.68Z" fill="#263238"/>
<path d="M136.27 175.4C134.64 173.8 132.93 174.73 132.14 172.32C131.792 170.428 132.11 168.474 133.04 166.79L113.63 156.31C114.01 163.45 114.3 169.09 111.13 171.93C110.21 177.25 120.13 182.56 133.34 182.64C141.75 182.69 138.62 177.7 136.27 175.4Z" fill="#FFC3BD"/>
<path opacity="0.2" d="M132.75 167.39L117.43 163.56C121.3 169.65 128.27 172.98 132.02 171.51C131.912 170.097 132.164 168.68 132.75 167.39Z" fill="black"/>
<path d="M126.41 132.45C116.27 130.2 107.51 138.62 109.47 147.8C111.43 156.98 112.98 163.18 119.33 166.3C131.95 172.52 138.11 166.52 139.14 156.93C140.07 148.29 136.7 134.72 126.41 132.45Z" fill="#FFC3BD"/>
<path opacity="0.2" d="M124.42 148.75C123.228 148.452 121.967 148.635 120.91 149.26C122.102 149.323 123.295 149.15 124.42 148.75Z" fill="black"/>
<path opacity="0.2" d="M124.49 149.6C123.929 149.574 123.37 149.672 122.851 149.886C122.333 150.1 121.868 150.426 121.49 150.84C122.568 150.65 123.592 150.227 124.49 149.6Z" fill="black"/>
<path d="M110.75 155.56C116.42 156.83 118.75 153.99 118.75 150.81C118.75 147.43 115.56 141.72 112.06 140.67C113.31 133.17 133.98 143.67 132.01 133.28C132.01 133.28 131.45 131.5 126.11 130.5C120.77 129.5 106.5 132.72 107.5 143.39C108.5 154.06 110.75 155.56 110.75 155.56Z" fill="#263238"/>
<path d="M103.53 138.5C104.918 135.715 105.309 132.539 104.64 129.5C104.64 129.5 110.86 133.61 103.53 138.5Z" fill="#263238"/>
<path d="M129.61 158.41C130.034 158.378 130.455 158.314 130.87 158.22C130.902 158.213 130.932 158.199 130.959 158.18C130.986 158.162 131.009 158.137 131.027 158.11C131.045 158.082 131.057 158.051 131.062 158.018C131.068 157.985 131.067 157.952 131.06 157.92C131.054 157.887 131.041 157.856 131.023 157.828C131.004 157.8 130.98 157.776 130.952 157.759C130.923 157.741 130.892 157.729 130.859 157.724C130.826 157.719 130.792 157.721 130.76 157.73C129.721 157.983 128.638 157.99 127.596 157.751C126.554 157.511 125.583 157.032 124.76 156.35C124.736 156.326 124.708 156.306 124.677 156.293C124.646 156.28 124.613 156.273 124.58 156.273C124.546 156.273 124.513 156.28 124.482 156.293C124.451 156.306 124.423 156.326 124.4 156.35C124.353 156.398 124.327 156.463 124.327 156.53C124.327 156.597 124.353 156.662 124.4 156.71C125.112 157.324 125.939 157.791 126.834 158.083C127.728 158.375 128.672 158.486 129.61 158.41Z" fill="#263238"/>
<path d="M107.16 156C107.808 156.88 108.625 157.622 109.562 158.185C110.499 158.748 111.538 159.12 112.62 159.28C115.53 159.68 116.62 156.99 115.5 154.45C114.5 152.16 111.78 149.2 109.02 149.96C106.26 150.72 105.58 153.81 107.16 156Z" fill="#FFC3BD"/>
<path d="M126.07 148.85C126.19 149.66 126.71 150.26 127.24 150.18C127.77 150.1 128.11 149.37 127.99 148.56C127.87 147.75 127.36 147.16 126.83 147.24C126.3 147.32 126 148 126.07 148.85Z" fill="#263238"/>
<path d="M135.6 147.57C135.72 148.39 136.24 148.98 136.77 148.9C137.3 148.82 137.64 148.1 137.52 147.29C137.4 146.48 136.89 145.88 136.36 145.96C135.83 146.04 135.49 146.76 135.6 147.57Z" fill="#263238"/>
<path d="M132 148.64L132.46 155.5C132.46 155.5 134.71 155.89 135.93 154.59C135.156 152.301 133.802 150.251 132 148.64Z" fill="#ED847E"/>
<path d="M122.93 147C122.848 147.023 122.762 147.022 122.68 146.999C122.598 146.977 122.524 146.932 122.466 146.87C122.407 146.809 122.367 146.733 122.348 146.65C122.329 146.567 122.333 146.481 122.36 146.4C122.55 145.657 122.914 144.969 123.421 144.394C123.929 143.818 124.566 143.372 125.28 143.09C125.401 143.053 125.531 143.064 125.644 143.122C125.756 143.18 125.841 143.28 125.88 143.4C125.918 143.522 125.907 143.654 125.849 143.768C125.791 143.882 125.691 143.969 125.57 144.01C125.006 144.24 124.505 144.6 124.107 145.061C123.709 145.521 123.426 146.069 123.28 146.66C123.257 146.743 123.213 146.818 123.151 146.878C123.09 146.938 123.013 146.98 122.93 147Z" fill="#263238"/>
<path d="M138.73 143.93C138.651 143.937 138.571 143.924 138.499 143.89C138.427 143.857 138.365 143.805 138.32 143.74C137.977 143.243 137.521 142.836 136.988 142.552C136.456 142.269 135.863 142.117 135.26 142.11C135.127 142.11 135 142.057 134.906 141.964C134.812 141.87 134.76 141.743 134.76 141.61C134.76 141.477 134.812 141.35 134.906 141.256C135 141.163 135.127 141.11 135.26 141.11C136.022 141.104 136.773 141.283 137.451 141.631C138.129 141.979 138.711 142.487 139.15 143.11C139.187 143.161 139.213 143.219 139.227 143.281C139.242 143.342 139.244 143.406 139.234 143.468C139.223 143.53 139.201 143.59 139.168 143.643C139.134 143.697 139.091 143.743 139.04 143.78C139.001 143.825 138.954 143.862 138.9 143.887C138.847 143.913 138.789 143.928 138.73 143.93Z" fill="#263238"/>
<path d="M197 209.33C194.906 209.478 192.887 210.167 191.14 211.33L189.33 188.33C189.182 186.541 188.332 184.883 186.966 183.718C185.601 182.553 183.83 181.975 182.04 182.11L114.91 187.4C113.121 187.551 111.465 188.401 110.3 189.766C109.136 191.131 108.557 192.901 108.69 194.69L113.99 261.82C114.132 263.611 114.981 265.273 116.347 266.439C117.714 267.605 119.488 268.181 121.28 268.04L188.4 262.74C190.19 262.595 191.851 261.746 193.018 260.38C194.186 259.014 194.765 257.242 194.63 255.45L192.81 232.5C194.715 233.393 196.822 233.773 198.92 233.6C201.933 233.093 204.646 231.476 206.526 229.067C208.405 226.658 209.314 223.632 209.073 220.586C208.832 217.54 207.459 214.695 205.224 212.612C202.989 210.528 200.055 209.357 197 209.33Z" fill="#7C4EFF"/>
<path d="M99.6598 200.15L98.6598 201.99L97.5098 204.05C96.7698 205.45 96.0098 206.85 95.3198 208.27C93.9332 211.037 92.6915 213.874 91.5998 216.77C91.0698 218.17 90.5998 219.56 90.2498 220.93C89.8505 222.242 89.5365 223.578 89.3098 224.93C88.8901 227.105 88.8192 229.333 89.0998 231.53L86.7998 227.53C87.7573 228.843 88.899 230.012 90.1898 231C91.8864 232.354 93.6666 233.6 95.5198 234.73C97.4498 235.97 99.5198 237.16 101.6 238.35L104.78 240.12C105.78 240.72 106.98 241.32 107.93 241.9L108.41 242.19C109.471 242.833 110.292 243.808 110.745 244.963C111.199 246.119 111.259 247.392 110.918 248.585C110.577 249.779 109.853 250.827 108.858 251.569C107.863 252.311 106.651 252.704 105.41 252.69C103.89 252.69 102.59 252.59 101.19 252.48C99.7898 252.37 98.4598 252.2 97.0998 251.98C94.3357 251.565 91.6003 250.977 88.9098 250.22C86.0622 249.422 83.286 248.388 80.6098 247.13C77.4462 245.673 74.5387 243.714 71.9998 241.33C71.0862 240.459 70.3996 239.377 69.9998 238.18L69.7198 237.32C68.1539 232.57 67.5687 227.552 67.9998 222.57C68.3394 218.23 69.1715 213.942 70.4798 209.79C71.698 205.888 73.209 202.084 74.9998 198.41C75.8698 196.61 76.7598 194.83 77.7598 193.1C78.2498 192.23 78.7598 191.36 79.2798 190.5L80.0998 189.2L80.5298 188.54L81.0498 187.77C82.6563 185.339 85.1477 183.631 87.9942 183.008C90.8407 182.385 93.8179 182.898 96.2926 184.436C98.7673 185.974 100.544 188.417 101.246 191.245C101.948 194.073 101.518 197.063 100.05 199.58L99.6598 200.15Z" fill="#FFC3BD"/>
<path d="M91.8498 174.52C75.2698 183.38 69.0898 203.17 69.0898 203.17C72.3698 209.42 92.1498 216.17 99.5898 214.33C99.5898 214.33 106.72 201.33 108.19 189.71C109.55 178.94 101.56 169.33 91.8498 174.52Z" fill="#263238"/>
<path d="M103.45 243L103.79 249.46C106.53 255.68 113.91 250.77 113.91 250.77L118.42 249.85C119.202 249.634 119.883 249.148 120.34 248.478C120.798 247.808 121.003 246.997 120.92 246.19L120.72 241.68C120.744 240.741 120.4 239.83 119.761 239.142C119.121 238.454 118.238 238.044 117.3 238L113.3 238.16C112.13 238.213 110.993 238.557 109.99 239.16L103.45 243Z" fill="#FFC3BD"/>
</svg>
