<svg width="714" height="634" viewBox="0 0 714 634" fill="none" xmlns="http://www.w3.org/2000/svg">
<path d="M652.56 65.8129C627.112 23.4929 569.392 -22.5071 520.484 12.9313C511.244 19.754 503.69 28.6041 498.404 38.8017C478.753 75.3441 478.716 123.295 444.547 151.189C413.451 176.563 368.629 179.893 330.173 175.698C273.851 169.552 217.271 149.938 161.077 167.565C146.655 172.058 133.004 178.729 120.597 187.345C60.3923 229.15 33.8595 312.87 57.6139 382.072C89.7219 475.599 201.815 509.603 290.429 519.023C369.899 527.469 452.349 513.503 522.361 474.863C592.373 436.223 649.119 372.615 674.86 296.935C700.602 221.256 693.812 134.261 652.56 65.8129Z" fill="#FFC100"/>
<path opacity="0.9" d="M652.56 65.8129C627.112 23.4929 569.392 -22.5071 520.484 12.9313C511.244 19.754 503.69 28.6041 498.404 38.8017C478.753 75.3441 478.716 123.295 444.547 151.189C413.451 176.563 368.629 179.893 330.173 175.698C273.851 169.552 217.271 149.938 161.077 167.565C146.655 172.058 133.004 178.729 120.597 187.345C60.3923 229.15 33.8595 312.87 57.6139 382.072C89.7219 475.599 201.815 509.603 290.429 519.023C369.899 527.469 452.349 513.503 522.361 474.863C592.373 436.223 649.119 372.615 674.86 296.935C700.602 221.256 693.812 134.261 652.56 65.8129Z" fill="white"/>
<path d="M357 633.71C554.032 633.71 713.758 624.385 713.758 612.881C713.758 601.378 554.032 592.053 357 592.053C159.968 592.053 0.242676 601.378 0.242676 612.881C0.242676 624.385 159.968 633.71 357 633.71Z" fill="#F5F5F5"/>
<path d="M82.7145 302.246L73.0527 303.928L118.137 562.784L127.799 561.101L82.7145 302.246Z" fill="#263238"/>
<path opacity="0.2" d="M82.7145 302.246L73.0527 303.928L118.137 562.784L127.799 561.101L82.7145 302.246Z" fill="white"/>
<path d="M121.018 296.676C133.626 269.736 122.008 237.676 95.0684 225.068C68.1284 212.46 36.0685 224.078 23.4603 251.018C10.8522 277.958 22.4704 310.018 49.4103 322.626C76.3503 335.234 108.41 323.616 121.018 296.676Z" fill="#FFC100"/>
<path opacity="0.6" d="M121.018 296.676C133.626 269.736 122.008 237.676 95.0684 225.068C68.1284 212.46 36.0685 224.078 23.4603 251.018C10.8522 277.958 22.4704 310.018 49.4103 322.626C76.3503 335.234 108.41 323.616 121.018 296.676Z" fill="white"/>
<path d="M112.294 303.446C128.638 281.319 123.949 250.132 101.822 233.788C79.6944 217.445 48.5077 222.134 32.1642 244.261C15.8208 266.388 20.5095 297.575 42.6368 313.918C64.764 330.262 95.9507 325.573 112.294 303.446Z" fill="#FFC100"/>
<path d="M256.775 467.356L252.598 456.316C196.735 458.892 190.479 437.916 189.891 431.145C188.842 418.725 200.066 407.409 214.933 405.919C235.412 403.821 249.065 422.166 256.02 434.255C266.563 421.559 286.969 411.071 302.351 411.071C314.127 411.071 322.499 416.591 325.296 427.815C327.541 436.812 324.358 442.387 321.285 445.847C308.295 460.567 270.814 457.659 259.553 456.5L256.775 467.356ZM263.399 445.092C280.363 446.583 305.038 445.479 311.975 437.732C313.079 436.481 314.219 435.193 313.226 431.2C311.809 425.515 308.442 423.638 302.351 423.638C288.735 423.564 269.599 435.156 263.399 445.092V445.092ZM218.098 418.246C217.483 418.251 216.869 418.288 216.258 418.357C207.831 419.203 201.979 425.275 202.384 430.151C202.863 435.671 213.148 444.963 247.685 444.099C243.343 435.487 232.965 418.246 218.098 418.246Z" fill="#263238"/>
<path d="M376.816 449.839H134.323V616.415H376.816V449.839Z" fill="#FFC100"/>
<path opacity="0.2" d="M376.816 449.839H134.323V616.415H376.816V449.839Z" fill="white"/>
<path opacity="0.2" d="M376.816 507.395H134.323V616.415H376.816V507.395Z" fill="black"/>
<path d="M315.637 449.839H295.93V616.415H315.637V449.839Z" fill="#263238"/>
<path d="M182.825 449.839H168.363V616.415H182.825V449.839Z" fill="#263238"/>
<path opacity="0.2" d="M230.665 449.839H134.323V616.415H230.665V449.839Z" fill="black"/>
<path d="M108.765 508.259C101.129 509.05 75.7921 510.982 66.9969 501.065C65.5165 499.443 64.4876 497.461 64.013 495.317C63.5383 493.173 63.6346 490.942 64.2921 488.847C66.1321 481.266 71.8361 477.495 79.8033 477.495C90.2177 477.495 104.018 484.615 111.083 493.208C115.794 485.02 125.012 472.619 138.867 474.035C148.932 475.047 156.531 482.702 155.814 491.11C155.427 495.637 151.177 509.878 113.383 508.13L110.568 515.582L108.765 508.259ZM79.8217 485.793C75.7001 485.793 73.4369 487.136 72.4617 490.982C72.1474 491.725 72.06 492.544 72.2106 493.336C72.3613 494.129 72.7431 494.859 73.3081 495.434C78.0001 500.734 94.6889 501.433 106.189 500.421C101.975 493.686 89.0217 485.793 79.8217 485.793ZM116.843 499.832C140.211 500.421 147.184 494.11 147.497 490.393C147.773 487.099 143.817 483.033 138.113 482.426C137.678 482.399 137.242 482.399 136.807 482.426C126.76 482.352 119.731 494.018 116.843 499.832Z" fill="#FFC100"/>
<path d="M29.4426 616.415H193.497V503.715H29.4426V616.415Z" fill="#FFC100"/>
<path opacity="0.6" d="M29.4426 616.415H193.497V503.715H29.4426V616.415Z" fill="white"/>
<path opacity="0.1" d="M29.4426 616.415H193.497V542.649H29.4426V616.415Z" fill="black"/>
<path opacity="0.2" d="M128.288 616.415H193.479V503.715H128.288V616.415Z" fill="white"/>
<path d="M70.8249 616.415H84.1465L84.1465 503.715H70.8249L70.8249 616.415Z" fill="#FFC100"/>
<path d="M160.672 616.415H170.461V503.715H160.672V616.415Z" fill="#FFC100"/>
<path d="M607.756 477.789C607.756 477.789 620.636 467.043 631.676 477.789C642.716 488.535 644.869 555.069 644.869 555.069" stroke="#FFC100" stroke-miterlimit="10"/>
<path d="M645.88 568.004C645.88 568.004 638.281 489.841 666.893 456.997" stroke="#FFC100" stroke-miterlimit="10"/>
<path d="M643.083 559.761C643.083 559.761 648.934 470.76 627.48 451.035" stroke="#FFC100" stroke-miterlimit="10"/>
<path d="M645.88 559.761C645.88 559.761 646.377 500.881 662.33 491.828C678.282 482.775 686.36 512.491 686.36 512.491" stroke="#FFC100" stroke-miterlimit="10"/>
<path d="M639.495 559.761C639.495 559.761 642.108 514.626 629.743 498.489C617.379 482.352 604.388 505.407 604.388 505.407" stroke="#FFC100" stroke-miterlimit="10"/>
<path d="M643.82 565.814C643.82 565.814 635.816 460.235 649.045 442.35" stroke="#FFC100" stroke-miterlimit="10"/>
<path d="M675.909 500.384C675.909 500.384 667.96 503.328 670.389 510.246C672.818 517.165 697.989 528.646 697.989 528.646C697.989 528.646 708.514 518.986 698.854 503.291C689.194 487.596 676.13 495.434 675.909 500.384Z" fill="#FFC100"/>
<path opacity="0.2" d="M675.909 500.384C675.909 500.384 667.96 503.328 670.389 510.246C672.818 517.165 697.989 528.646 697.989 528.646C697.989 528.646 708.514 518.986 698.854 503.291C689.194 487.596 676.13 495.434 675.909 500.384Z" fill="white"/>
<path d="M641.336 487.21C641.336 487.21 649.8 486.86 650.296 494.165C650.793 501.47 631.897 521.654 631.897 521.654C631.897 521.654 618.465 516.797 621.353 498.581C624.242 480.365 639.238 482.72 641.336 487.21Z" fill="#FFC100"/>
<path opacity="0.2" d="M641.336 487.21C641.336 487.21 649.8 486.86 650.296 494.165C650.793 501.47 631.897 521.654 631.897 521.654C631.897 521.654 618.465 516.797 621.353 498.581C624.242 480.365 639.238 482.72 641.336 487.21Z" fill="white"/>
<path d="M634.159 452.36C634.159 452.36 639.808 451.753 639.366 448.312C638.925 444.871 617.415 436.021 604.719 450.336C604.719 450.336 612.852 464.283 624.591 464.467C636.33 464.651 634.159 452.36 634.159 452.36Z" fill="#FFC100"/>
<path opacity="0.2" d="M634.159 452.36C634.159 452.36 639.808 451.753 639.366 448.312C638.925 444.871 617.415 436.021 604.719 450.336C604.719 450.336 612.852 464.283 624.591 464.467C636.33 464.651 634.159 452.36 634.159 452.36Z" fill="white"/>
<path d="M644.685 443.914C644.685 443.914 639.569 446.398 638.153 443.234C636.736 440.069 650.278 421.154 668.605 426.674C668.605 426.674 669.083 442.81 659.221 449.158C649.358 455.506 644.685 443.914 644.685 443.914Z" fill="#FFC100"/>
<path opacity="0.2" d="M644.685 443.914C644.685 443.914 639.569 446.398 638.153 443.234C636.736 440.069 650.278 421.154 668.605 426.674C668.605 426.674 669.083 442.81 659.221 449.158C649.358 455.506 644.685 443.914 644.685 443.914Z" fill="white"/>
<path d="M617.949 497.606C617.949 497.606 621.85 494.459 617.655 492.932C613.459 491.405 592.815 491.828 592.594 512.271C592.594 512.271 616.624 516.263 619.605 508.48C622.586 500.697 617.949 497.606 617.949 497.606Z" fill="#FFC100"/>
<path opacity="0.2" d="M617.949 497.606C617.949 497.606 621.85 494.459 617.655 492.932C613.459 491.405 592.815 491.828 592.594 512.271C592.594 512.271 616.624 516.263 619.605 508.48C622.586 500.697 617.949 497.606 617.949 497.606Z" fill="white"/>
<path d="M666.966 451.753C666.966 451.753 663.065 448.607 667.279 447.079C671.492 445.552 692.119 445.975 692.321 466.418C692.321 466.418 668.291 470.41 665.328 462.627C662.366 454.844 666.966 451.753 666.966 451.753Z" fill="#FFC100"/>
<path opacity="0.2" d="M666.966 451.753C666.966 451.753 663.065 448.607 667.279 447.079C671.492 445.552 692.119 445.975 692.321 466.418C692.321 466.418 668.291 470.41 665.328 462.627C662.366 454.844 666.966 451.753 666.966 451.753Z" fill="white"/>
<path d="M654.252 468.221C654.252 468.221 653.92 464.394 657.012 465.902C660.103 467.411 670.848 479.003 659.698 490.025C659.698 490.025 644.684 478.893 647.389 473.115C650.093 467.338 654.252 468.221 654.252 468.221Z" fill="#FFC100"/>
<path opacity="0.2" d="M654.252 468.221C654.252 468.221 653.92 464.394 657.012 465.902C660.103 467.411 670.848 479.003 659.698 490.025C659.698 490.025 644.684 478.893 647.389 473.115C650.093 467.338 654.252 468.221 654.252 468.221Z" fill="white"/>
<path d="M614.472 473.686C614.472 473.686 616.808 470.631 613.386 470.245C609.964 469.859 594.691 473.925 598.243 489.215C598.243 489.215 616.882 487.817 617.673 481.469C618.464 475.121 614.472 473.686 614.472 473.686Z" fill="#FFC100"/>
<path opacity="0.2" d="M614.472 473.686C614.472 473.686 616.808 470.631 613.386 470.245C609.964 469.859 594.691 473.925 598.243 489.215C598.243 489.215 616.882 487.817 617.673 481.469C618.464 475.121 614.472 473.686 614.472 473.686Z" fill="white"/>
<path d="M677.4 616.433H613.497L606.597 546.458H684.3L677.4 616.433Z" fill="#FFC100"/>
<path opacity="0.5" d="M677.4 616.433H613.497L606.597 546.458H684.3L677.4 616.433Z" fill="white"/>
<path d="M687.703 538.729H603.174V554.167H687.703V538.729Z" fill="#FFC100"/>
<path opacity="0.2" d="M687.703 538.729H603.174V554.167H687.703V538.729Z" fill="white"/>
<path d="M561.774 103.717C561.774 103.717 557.027 92.8057 541.755 92.8057C526.483 92.8057 513.731 101.895 514.449 113.542C515.167 125.19 506.445 124.104 504.991 135.383C503.538 146.662 508.984 149.57 509.352 154.317C509.72 159.064 503.538 157.592 499.527 165.596C495.515 173.6 490.437 184.879 507.531 199.802C524.624 214.724 573.053 212.185 583.596 203.077C594.139 193.969 593.79 176.507 583.596 171.797C573.403 167.086 582.879 167.786 583.964 157.242C585.05 146.699 575.592 142.688 576.328 134.316C577.064 125.944 579.64 104.453 561.774 103.717Z" fill="#263238"/>
<path d="M472.921 256.547L457.851 248.323C457.851 248.323 453.583 237.283 451.319 236.105C449.056 234.927 432.68 235.24 430.601 235.24C428.522 235.24 429.092 250.567 430.086 253.125C431.079 255.683 449.166 256.529 450.933 256.805L469.333 270.145L472.921 256.547Z" fill="#B97964"/>
<path d="M498.257 174.152C486.904 174.152 477.685 254.155 477.685 254.155L462.156 248.322L452.459 262.398C452.459 262.398 469.921 284.718 486.904 281.81C503.887 278.903 512.664 191.43 512.664 191.43L498.257 174.152Z" fill="#FFC100"/>
<path opacity="0.2" d="M512.627 191.43C512.627 191.43 512.406 193.711 511.946 197.575C509.591 217.521 501.164 279.382 486.904 281.81C485.55 282.049 484.172 282.123 482.801 282.031C467.216 281.277 452.459 262.398 452.459 262.398L462.156 248.341L477.685 254.155C477.685 254.155 486.885 174.078 498.257 174.152L512.627 191.43Z" fill="white"/>
<path opacity="0.2" d="M511.947 197.575C509.592 217.521 501.165 279.382 486.905 281.81C485.551 282.049 484.173 282.123 482.801 282.031C482.433 230.658 498.073 185.247 498.073 185.247L511.947 197.575Z" fill="black"/>
<path d="M506.574 292.427C506.574 292.427 486.628 398.706 481.31 442.35C474.355 499.28 445.927 582.558 445.927 582.558L457.298 585.502C457.298 585.502 497.374 514.718 505.139 451.054C536.971 385.973 539.547 305.822 539.547 305.822L506.574 292.427Z" fill="#B97964"/>
<path d="M424.767 608.318C426.609 607.498 428.586 607.024 430.6 606.92C430.6 606.92 437.592 602.798 444.51 586.827H452.312C453.627 586.846 454.905 587.266 455.974 588.033C457.044 588.799 457.852 589.875 458.292 591.114C458.42 591.463 458.494 591.829 458.513 592.2C458.439 594.082 458.236 595.957 457.906 597.812C456.764 604.032 455.247 610.176 453.361 616.212L452.036 615.862L454.446 604.252C455.238 600.296 451.079 604.105 449.165 608.098C447.252 612.09 444.289 616.083 435.678 614.114C425.669 611.575 421.621 610.122 424.767 608.318Z" fill="#263238"/>
<path d="M527.274 290.734C527.274 290.734 529.758 398.834 533.567 442.626C538.553 499.777 528.047 587.14 528.047 587.14L539.786 587.655C539.786 587.655 564.35 510.118 558.83 446.214C576.512 375.945 562.51 297.009 562.51 297.009L527.274 290.734Z" fill="#B97964"/>
<path d="M509.721 611.888C511.458 610.843 513.373 610.126 515.369 609.772C515.369 609.772 521.865 604.933 527.035 588.299L534.763 587.416C536.082 587.292 537.408 587.579 538.557 588.238C539.707 588.897 540.625 589.895 541.185 591.096C541.35 591.426 541.461 591.78 541.516 592.145C541.635 594.026 541.635 595.913 541.516 597.794C541.042 604.071 540.188 610.314 538.958 616.488L537.615 616.304L538.737 604.491C539.105 600.48 535.407 604.712 533.917 608.889C532.426 613.066 529.942 617.353 521.165 616.249C510.953 615.016 506.777 614.004 509.721 611.888Z" fill="#263238"/>
<path d="M445.927 582.559C445.927 582.559 436.12 602.909 430.6 606.92C430.6 606.92 438.107 611.391 445.927 601.4C456.029 588.52 458.513 592.2 458.513 592.2C458.312 589.978 457.906 587.779 457.298 585.631C455.771 581.344 445.927 582.559 445.927 582.559Z" fill="#B97964"/>
<path d="M529.151 582.393C529.151 582.393 526.391 589.919 522.711 598.199C521.021 602.492 518.523 606.421 515.351 609.772C515.351 609.772 521.736 611.851 525.195 607.84C528.654 603.829 534.542 589.44 541.166 591.023C540.814 589.844 540.32 588.714 539.694 587.655C538.701 586.018 529.151 582.393 529.151 582.393Z" fill="#B97964"/>
<path d="M499.748 274.69C499.748 274.69 491.854 353.368 480.115 432.249C473.232 477.195 462.684 521.503 448.577 564.729L471.872 566.679C471.872 566.679 516.51 456.022 530.108 391.971C530.108 391.971 534.947 505.518 527.182 568.611L547.569 567.636C547.569 567.636 597.249 353.939 560.192 276.916L499.748 274.69Z" fill="#FFC100"/>
<path opacity="0.4" d="M547.569 567.655L527.182 568.611C534.947 505.536 530.108 391.971 530.108 391.971C526.667 408.145 521.257 427.263 515.093 446.84C496.822 504.819 471.872 566.679 471.872 566.679L448.577 564.729C462.687 521.504 473.235 477.196 480.115 432.249C491.854 353.368 499.748 274.69 499.748 274.69L560.192 276.971C597.305 353.939 547.569 567.655 547.569 567.655Z" fill="white"/>
<path opacity="0.2" d="M530.108 391.971C526.667 408.145 521.257 427.262 515.093 446.84C512.738 410.04 522.104 343.929 522.104 343.929L530.108 391.971Z" fill="black"/>
<path d="M560.063 273.144L560.228 282.031L499.416 278.517L499.232 268.01L560.063 273.144Z" fill="#263238"/>
<path d="M512.565 280.052L525.854 280.988L526.563 270.912L513.275 269.975L512.565 280.052Z" fill="white"/>
<path d="M539.085 285.171L542.102 285.268L542.595 269.912L539.579 269.815L539.085 285.171Z" fill="#FFC100"/>
<path opacity="0.4" d="M539.085 285.171L542.102 285.268L542.595 269.912L539.579 269.815L539.085 285.171Z" fill="white"/>
<path d="M501.938 281.763L504.954 281.86L505.447 266.504L502.431 266.407L501.938 281.763Z" fill="#FFC100"/>
<path opacity="0.4" d="M501.938 281.763L504.954 281.86L505.447 266.504L502.431 266.407L501.938 281.763Z" fill="white"/>
<path d="M499.453 265.582L560.173 270.826C560.764 255.774 562.928 240.825 566.631 226.224C568.085 220.41 569.906 213.915 572.243 206.407C573.494 202.396 574.874 198.091 576.42 193.527C577.579 190.013 578.83 186.278 580.21 182.34C571.965 179.708 563.54 177.672 555.002 176.25C545.992 174.65 536.879 173.69 527.733 173.379C515.921 173.287 502.341 174.612 502.341 174.612C502.341 174.612 500.409 175.072 499.195 187.603C498.109 199.287 497.024 222.802 499.453 265.582Z" fill="#FFC100"/>
<path d="M499.343 269.133L560.063 273.144C561.02 258.056 562.105 244.219 566.65 226.224C568.104 220.41 569.925 213.915 572.262 206.407C573.513 202.396 574.893 198.091 576.439 193.527C577.598 190.013 578.849 186.278 580.229 182.34C571.984 179.708 563.559 177.672 555.021 176.25C546.011 174.65 536.899 173.69 527.753 173.379C515.94 173.287 502.361 174.612 502.361 174.612C502.361 174.612 500.429 175.072 499.214 187.603C498.11 199.287 496.841 226.353 499.343 269.133Z" fill="#263238"/>
<g opacity="0.1">
<path opacity="0.1" d="M499.453 265.582L560.173 270.826C560.764 255.774 562.928 240.825 566.631 226.224C568.085 220.41 569.906 213.915 572.243 206.407C573.494 202.396 574.874 198.091 576.42 193.527C577.579 190.013 578.83 186.278 580.21 182.34C571.965 179.708 563.54 177.672 555.002 176.25C545.992 174.65 536.879 173.69 527.733 173.379C515.921 173.287 502.341 174.612 502.341 174.612C502.341 174.612 500.409 175.072 499.195 187.603C498.109 199.287 497.024 222.802 499.453 265.582Z" fill="white"/>
</g>
<path d="M532.757 186.719C547.735 184.879 552.224 178.402 552.224 178.402C542.73 169.442 550.623 153.912 550.623 153.912L532.61 157.279C533.013 159.787 533.247 162.32 533.309 164.86C533.438 175.808 528.507 175.9 528.507 175.9C525.342 181.88 532.757 186.719 532.757 186.719Z" fill="#B97964"/>
<path opacity="0.2" d="M532.61 157.279C533.014 159.787 533.248 162.32 533.31 164.86C545.472 164.86 550.624 153.912 550.624 153.912L532.61 157.279Z" fill="black"/>
<path d="M542.564 106.9C526.906 106.054 521.404 114.149 519.362 130.231C516.822 150.324 520.521 164.897 540.338 161.658C567.257 157.261 568.6 108.28 542.564 106.9Z" fill="#B97964"/>
<path d="M529.537 129.918C528.159 132.189 526.509 134.284 524.625 136.156C525.047 136.828 525.647 137.371 526.358 137.724C527.069 138.078 527.863 138.23 528.654 138.162L529.537 129.918Z" fill="#A24E3F"/>
<path d="M539.16 129.164C539.16 130.434 539.675 131.538 540.522 131.611C541.368 131.685 542.159 130.691 542.27 129.403C542.38 128.115 541.755 127.011 540.89 126.956C540.025 126.901 539.307 127.876 539.16 129.164Z" fill="#263238"/>
<path d="M541.277 127.048L538.572 125.723C538.572 125.723 539.786 128.189 541.277 127.048Z" fill="#263238"/>
<path d="M523.245 127.637C523.153 128.925 523.76 130.011 524.606 130.084C525.453 130.158 526.244 129.164 526.446 127.876C526.649 126.588 525.931 125.503 525.066 125.429C524.201 125.355 523.355 126.349 523.245 127.637Z" fill="#263238"/>
<path d="M525.324 125.521L522.619 124.214C522.619 124.214 523.833 126.68 525.324 125.521Z" fill="#263238"/>
<path d="M539.952 118.345C541.198 118.261 542.447 118.465 543.602 118.94C544.757 119.415 545.787 120.15 546.613 121.087" stroke="#2E353A" stroke-width="0.72468" stroke-linecap="round" stroke-linejoin="round"/>
<path d="M528.598 117.057C527.542 116.732 526.426 116.65 525.334 116.816C524.241 116.981 523.2 117.391 522.287 118.014" stroke="#2E353A" stroke-width="0.72468" stroke-linecap="round" stroke-linejoin="round"/>
<path d="M530.604 144.436C531.248 146.236 531.759 148.081 532.132 149.956C532.469 149.975 532.807 149.975 533.144 149.956C537.725 149.754 539.786 148.116 540.688 146.423C541.102 145.57 541.304 144.63 541.276 143.682C541.281 143.141 541.213 142.603 541.074 142.081C538.304 143.472 535.266 144.25 532.168 144.362C531.212 144.436 530.604 144.436 530.604 144.436Z" fill="#263238"/>
<path d="M532.168 144.344L532.665 145.963C536.97 145.761 540.025 145.025 541.276 143.663C541.281 143.123 541.213 142.585 541.074 142.062C538.303 143.454 535.266 144.232 532.168 144.344V144.344Z" fill="white"/>
<path d="M533.144 149.938C537.725 149.735 539.786 148.098 540.688 146.405C538.941 146.515 537.228 146.932 535.628 147.638C534.583 148.132 533.716 148.935 533.144 149.938V149.938Z" fill="#DE5753"/>
<path d="M558.242 134.242C558.242 134.242 551.618 120.976 553.274 111.095C553.274 111.095 522.932 96.7249 519.675 128.134C519.675 128.134 518.167 100 545.123 100.846C572.079 101.693 569.815 141.087 555.261 152.054C555.261 152.054 562.327 142.541 558.242 134.242Z" fill="#263238"/>
<path d="M559.824 105.41C559.824 105.41 547.569 94.4983 536.419 96.5591C525.268 98.6199 527.219 113.303 541.939 118.878C556.659 124.454 559.658 131.63 559.658 131.63L572.391 120.222L559.824 105.41Z" fill="#263238"/>
<path d="M533.143 101.159C533.143 101.159 527.918 101.509 529.371 109.274C530.825 117.038 541.865 120.939 552.298 124.582C562.73 128.226 561.884 132.329 561.884 132.329" stroke="#263238" stroke-width="0.5" stroke-miterlimit="10"/>
<path d="M555.499 137.407C555.746 135.604 556.699 133.973 558.148 132.872C559.597 131.772 561.424 131.291 563.227 131.538C568.067 132.329 569.833 142.412 557.615 144.16C555.867 144.399 554.984 142.651 555.499 137.407Z" fill="#B97964"/>
<path d="M566.098 180.04C566.098 180.04 548.526 194.3 532.168 194.079C515.811 193.859 510.088 175.44 510.088 175.44C510.088 175.44 535.48 167.951 566.098 180.04Z" fill="#B97964"/>
<path d="M555.389 175.054C549.52 214.981 549.831 255.575 556.309 295.408L573.771 293.458L582.032 181.365L555.389 175.054Z" fill="#FFC100"/>
<path opacity="0.2" d="M582.032 181.365L581.149 193.251L576.715 253.438L573.771 293.458L556.309 295.408C556.107 294.138 555.904 292.869 555.72 291.618C552.721 271.888 551.227 251.958 551.249 232.002V229.959C551.262 211.58 552.646 193.227 555.389 175.054L563.485 176.894L582.032 181.365Z" fill="white"/>
<path d="M521.846 172.68C521.846 172.68 502.36 229.886 499.527 288.6L493.16 286.76C493.16 286.76 488.487 223.243 498.202 174.244L521.846 172.68Z" fill="#FFC100"/>
<path opacity="0.2" d="M521.846 172.68C516.333 189.8 511.757 207.208 508.138 224.826C507.145 229.591 506.169 234.578 505.268 239.73C503.575 249.261 502.103 259.344 501.017 269.666C500.355 275.941 499.84 282.289 499.527 288.674L493.161 286.76C493.161 286.76 492.553 278.609 492.241 265.876C492.02 257.136 491.928 246.225 492.241 234.338C492.584 214.179 494.571 194.081 498.184 174.244L514.357 173.195L521.846 172.68Z" fill="white"/>
<path opacity="0.2" d="M557.763 196.71L563.945 205.45L551.249 229.959C551.262 211.58 552.645 193.227 555.389 175.054L563.485 176.894L568.674 188.449L557.763 196.71Z" fill="white"/>
<path opacity="0.2" d="M521.846 172.68C516.333 189.8 511.757 207.208 508.138 224.826L503.538 199.673L512.628 191.485L506.813 182.395L514.431 173.195L521.846 172.68Z" fill="white"/>
<path opacity="0.2" d="M581.149 193.251L576.715 253.438C571.544 266.318 564.516 280.688 555.72 291.618C552.721 271.888 551.227 251.958 551.249 232.002C559.29 218.883 570.753 201.899 580.689 193.619L581.149 193.251Z" fill="black"/>
<path opacity="0.2" d="M505.268 239.675C503.575 249.206 502.103 259.289 501.017 269.611C498.129 268.379 495.166 267.072 492.296 265.784C492.075 257.044 491.983 246.133 492.296 234.247L505.268 239.675Z" fill="black"/>
<path d="M443.885 245.581C443.885 245.581 430.196 240.061 436.028 225.893C436.028 225.893 432.072 229.573 422.872 225.01C422.872 225.01 432.459 229.591 431.116 232.572C429.993 235.056 417.389 236.399 417.389 236.399C417.389 236.399 431.576 235.424 433.084 238.478C434.023 240.41 424.492 251.837 424.492 251.837C424.492 251.837 434.52 242.14 436.654 243.391C438.788 244.642 435.973 252.72 435.973 252.72C435.973 252.72 438.696 245.746 440.26 245.967C441.824 246.188 441.585 250.843 441.585 250.843C441.585 250.843 441.64 245.894 443.885 245.581Z" fill="#FFC100"/>
<path d="M454.889 214.798C454.889 214.798 443.481 205.469 433.857 217.466C433.857 217.466 435.201 212.203 426.718 206.426C426.718 206.426 435.366 212.59 437.335 209.958C438.954 207.787 434.023 196.103 434.023 196.103C434.023 196.103 440.04 208.983 443.444 208.818C445.597 208.707 450.97 194.852 450.97 194.852C450.97 194.852 447.29 208.321 449.479 209.572C451.669 210.823 457.299 204.457 457.299 204.457C457.299 204.457 452.534 210.216 453.472 211.486C454.41 212.755 458.385 210.29 458.385 210.29C458.385 210.29 454.024 212.608 454.889 214.798Z" fill="#FFC100"/>
<path opacity="0.7" d="M443.885 245.581C443.885 245.581 430.196 240.061 436.028 225.893C436.028 225.893 432.072 229.573 422.872 225.01C422.872 225.01 432.459 229.591 431.116 232.572C429.993 235.056 417.389 236.399 417.389 236.399C417.389 236.399 431.576 235.424 433.084 238.478C434.023 240.41 424.492 251.837 424.492 251.837C424.492 251.837 434.52 242.14 436.654 243.391C438.788 244.642 435.973 252.72 435.973 252.72C435.973 252.72 438.696 245.746 440.26 245.967C441.824 246.188 441.585 250.843 441.585 250.843C441.585 250.843 441.64 245.894 443.885 245.581Z" fill="white"/>
<path opacity="0.7" d="M454.889 214.798C454.889 214.798 443.481 205.469 433.857 217.466C433.857 217.466 435.201 212.203 426.718 206.426C426.718 206.426 435.366 212.59 437.335 209.958C438.954 207.787 434.023 196.103 434.023 196.103C434.023 196.103 440.04 208.983 443.444 208.818C445.597 208.707 450.97 194.852 450.97 194.852C450.97 194.852 447.29 208.321 449.479 209.572C451.669 210.823 457.299 204.457 457.299 204.457C457.299 204.457 452.534 210.216 453.472 211.486C454.41 212.755 458.385 210.29 458.385 210.29C458.385 210.29 454.024 212.608 454.889 214.798Z" fill="white"/>
<path d="M497.889 242.287L473.178 225.488C473.178 225.488 465.193 201.973 463.279 201.568C461.366 201.163 448.154 208.321 447.51 210.419C446.866 212.516 454.668 229.315 456.71 231.45C458.753 233.584 463.905 233.805 463.905 233.805L487.972 252.72L497.889 242.287Z" fill="#B97964"/>
<path d="M582.032 181.365C574.985 180.905 549.023 250.273 545.14 256.087C541.258 261.902 482.783 231.1 482.783 231.1L474.061 250.383C474.061 250.383 537.743 288.25 555.334 282.786C568.067 278.83 580.082 238.626 585.418 221.146C593.937 193.306 588.472 181.77 582.032 181.365Z" fill="#FFC100"/>
<path opacity="0.2" d="M582.032 181.365C574.985 180.905 549.023 250.273 545.14 256.087C541.258 261.902 482.783 231.1 482.783 231.1L474.061 250.383C474.061 250.383 537.743 288.25 555.334 282.786C568.067 278.83 580.082 238.626 585.418 221.146C593.937 193.306 588.472 181.77 582.032 181.365Z" fill="white"/>
<path d="M266.031 599.358H247.815C247.518 599.359 247.23 599.462 246.999 599.65C246.768 599.837 246.608 600.097 246.545 600.388L243.583 613.728C243.463 614.304 243.576 614.903 243.896 615.396C244.217 615.889 244.719 616.236 245.294 616.359C245.452 616.387 245.614 616.387 245.773 616.359C251.661 616.359 255.966 615.918 263.363 615.918C267.926 615.918 281.671 616.378 287.964 616.378C294.257 616.378 295.085 610.177 292.509 609.588C280.953 607.086 272.269 603.59 268.589 600.278C268.244 599.964 267.84 599.721 267.401 599.563C266.963 599.405 266.497 599.335 266.031 599.358V599.358Z" fill="#263238"/>
<path d="M343.274 598.879H325.058C324.76 598.881 324.473 598.984 324.242 599.171C324.011 599.359 323.851 599.619 323.788 599.91L320.826 613.25C320.706 613.825 320.818 614.425 321.139 614.918C321.459 615.411 321.962 615.757 322.537 615.881C322.696 615.9 322.856 615.9 323.015 615.881C328.922 615.77 333.209 615.421 340.606 615.421C345.169 615.421 358.914 615.899 365.207 615.899C371.499 615.899 372.327 609.68 369.751 609.11C358.196 606.589 349.511 603.093 345.831 599.781C345.132 599.154 344.212 598.83 343.274 598.879V598.879Z" fill="#263238"/>
<path d="M256.371 261.718H335.951C343.514 303.026 365.152 470.245 348.169 600.517L321.599 603.424C321.599 603.424 325.721 403.232 301.985 339.292C299.243 373.516 295.986 409.929 293.171 429.286C286.253 476.979 270.65 601.253 270.65 601.253L243.712 601.97C243.712 601.97 249.618 481.432 252.194 434.53C255.046 383.71 256.261 272.169 256.371 261.718Z" fill="#263238"/>
<path opacity="0.2" d="M256.371 261.718H335.951C343.514 303.026 365.152 470.245 348.169 600.517L321.599 603.424C321.599 603.424 325.721 403.232 301.985 339.292C299.243 373.516 295.986 409.929 293.171 429.286C286.253 476.979 270.65 601.253 270.65 601.253L243.712 601.97C243.712 601.97 249.618 481.432 252.194 434.53C255.046 383.71 256.261 272.169 256.371 261.718Z" fill="white"/>
<path opacity="0.2" d="M301.984 339.31C305.901 350.518 308.874 362.034 310.872 373.737C313.098 343.285 304.192 310.993 304.192 310.993L301.984 339.31Z" fill="black"/>
<path d="M336.613 262.674H256.518V272.206L337.644 271.212L336.613 262.674Z" fill="#263238"/>
<path d="M282.278 275.315H285.13V258.387H282.278V275.315Z" fill="#263238"/>
<path d="M322.794 275.315H325.646V258.387H322.794V275.315Z" fill="#263238"/>
<path d="M300.107 271.672H314.919V261H300.107V271.672Z" fill="white"/>
<path opacity="0.2" d="M282.278 275.315H285.13V258.387H282.278V275.315Z" fill="white"/>
<path opacity="0.2" d="M322.794 275.315H325.646V258.387H322.794V275.315Z" fill="white"/>
<path d="M419.854 165.136L426.589 158.218C426.589 158.218 429.275 147.822 430.821 145.908C432.366 143.994 444.087 138.548 444.087 138.548C444.087 138.548 448.117 138.751 448.687 139.505C449.258 140.259 447.344 157.776 445.614 160.076C443.885 162.376 435.439 164.308 434.28 164.694C433.121 165.081 421.216 177.188 421.216 177.188L419.854 165.136Z" fill="#EBB376"/>
<path d="M328.682 124.03C341.25 125.558 365.998 182.69 375.455 187.786C384.913 192.883 422.412 160.867 422.412 160.867L431.87 172.514C431.87 172.514 389.292 217.999 372.548 212.994C355.804 207.99 332.068 164.952 324.874 151.483C317.679 138.014 328.682 124.03 328.682 124.03Z" fill="#FFC100"/>
<path opacity="0.6" d="M431.87 172.514C431.87 172.514 389.292 217.999 372.548 212.994C365.188 210.768 356.614 201.329 348.628 190.289C339.924 177.861 331.997 164.908 324.892 151.502C323.341 148.431 322.499 145.051 322.429 141.612C322.359 138.172 323.062 134.761 324.488 131.63C325.562 128.956 326.979 126.432 328.701 124.122C341.268 125.65 366.016 182.8 375.474 187.897C384.932 192.994 422.431 160.959 422.431 160.959L431.87 172.514Z" fill="white"/>
<path opacity="0.2" d="M348.609 190.197C339.905 177.769 331.978 164.816 324.873 151.41C323.322 148.339 322.48 144.959 322.41 141.52C322.339 138.08 323.043 134.669 324.469 131.538C331.626 140.351 346.181 161.511 348.609 190.197Z" fill="black"/>
<path d="M328.683 124.03C328.683 124.03 278.064 121.638 240.363 131.17C240.363 131.17 256.923 214.982 256.371 262.674H336.613C336.613 262.674 341.839 173.232 328.683 124.03Z" fill="#FFC100"/>
<path opacity="0.6" d="M336.613 262.674H256.389C256.389 257.486 256.389 251.892 256.021 246.004C255.322 232.241 253.758 216.987 251.863 202.23L251.311 197.925C250.023 188.338 248.643 179.065 247.3 170.601C243.62 147.877 240.363 131.17 240.363 131.17C278.064 121.657 328.683 124.03 328.683 124.03C341.82 173.25 336.613 262.674 336.613 262.674Z" fill="white"/>
<path opacity="0.2" d="M305.223 211.817C305.223 211.817 291.368 244.845 256.021 246.004C255.322 232.241 253.758 216.987 251.863 202.23L305.223 211.817Z" fill="black"/>
<path d="M269.913 127.361C277.273 133.966 294.992 131.519 294.992 131.519C294.992 131.519 306.032 128.483 303.769 125.006C297.218 123.92 294.053 120.866 292.729 116.965C292 114.54 291.775 111.991 292.066 109.476C292.169 108.08 292.353 106.692 292.618 105.318L270.538 89.0151C273.501 99.7607 277.033 119.559 269.913 127.361Z" fill="#EBB376"/>
<path opacity="0.2" d="M275.709 99.3744C276.574 112.586 287.43 116.229 292.747 116.965C292.019 114.54 291.794 111.991 292.085 109.476L275.709 99.3744Z" fill="black"/>
<path d="M307.873 54.7728C307.873 54.7728 314.018 74.6448 304.395 84.0841C294.772 93.5233 289.104 55.6744 289.104 55.6744L307.873 54.7728Z" fill="#263238"/>
<path d="M275.489 104.95C278.254 107.956 281.929 109.972 285.951 110.69C289.972 111.408 294.118 110.788 297.753 108.924C302.5 106.598 306.184 102.552 308.057 97.608C308.314 96.9272 308.535 96.228 308.737 95.5104C312.178 82.2808 310.577 60.2928 296.244 54.1288C293.079 52.753 289.616 52.209 286.182 52.5486C282.748 52.8882 279.458 54.1 276.624 56.069C273.79 58.0381 271.507 60.6988 269.991 63.7987C268.475 66.8985 267.777 70.3344 267.963 73.78C268.533 88.5552 268.165 97.24 275.489 104.95Z" fill="#EBB376"/>
<path d="M290.301 78.3617C290.19 79.5577 290.889 80.5513 291.681 80.5697C292.472 80.5881 293.116 79.6129 293.153 78.4169C293.189 77.2209 292.545 76.2273 291.773 76.2089C291 76.1905 290.337 77.1473 290.301 78.3617Z" fill="#263238"/>
<path d="M303.898 78.6375C303.787 79.8335 304.505 80.8271 305.278 80.8455C306.05 80.8639 306.713 79.8887 306.75 78.6927C306.786 77.4967 306.142 76.5031 305.37 76.4847C304.597 76.4663 303.934 77.4967 303.898 78.6375Z" fill="#263238"/>
<path d="M299.573 79.1344C300.918 82.8464 302.776 86.3518 305.093 89.5488C304.251 90.1207 303.295 90.5025 302.291 90.6677C301.287 90.833 300.259 90.7776 299.279 90.5056L299.573 79.1344Z" fill="#D58745"/>
<path d="M286.16 73.8721C286.289 73.8933 286.421 73.8808 286.544 73.8356C286.666 73.7905 286.775 73.7143 286.859 73.6145C287.392 72.9082 288.082 72.3347 288.873 71.9389C289.665 71.5431 290.537 71.3357 291.422 71.3329C291.514 71.3431 291.607 71.3349 291.696 71.3089C291.785 71.2829 291.867 71.2396 291.939 71.1814C292.011 71.1232 292.071 71.0513 292.115 70.97C292.159 70.8886 292.186 70.7993 292.195 70.7073C292.211 70.5198 292.152 70.3337 292.031 70.1891C291.911 70.0446 291.738 69.9532 291.551 69.9345V69.9345C290.432 69.9055 289.322 70.1441 288.314 70.6306C287.306 71.117 286.429 71.8373 285.755 72.7313C285.639 72.8765 285.583 73.0613 285.6 73.2467C285.617 73.4321 285.706 73.6036 285.847 73.7249V73.7249C285.941 73.7941 286.047 73.8441 286.16 73.8721V73.8721Z" fill="#263238"/>
<path d="M309.841 74.056C309.972 74.1009 310.114 74.1009 310.245 74.056C310.418 73.9794 310.553 73.8379 310.622 73.6623C310.691 73.4867 310.688 73.291 310.613 73.1176V73.1176C310.161 72.0883 309.469 71.182 308.595 70.4746C307.722 69.7672 306.691 69.2792 305.59 69.0512C305.407 69.0249 305.221 69.072 305.073 69.1824C304.925 69.2927 304.826 69.4572 304.799 69.64V69.64C304.781 69.8236 304.831 70.0074 304.94 70.1565C305.048 70.3057 305.208 70.41 305.388 70.4496V70.4496C306.253 70.648 307.059 71.0481 307.74 71.6172C308.421 72.1864 308.958 72.9086 309.307 73.7248C309.36 73.821 309.437 73.9019 309.531 73.9599C309.624 74.0178 309.731 74.0509 309.841 74.056V74.056Z" fill="#263238"/>
<path d="M279.168 55.5641L280.143 62.0593C279.059 62.6174 278.224 63.5632 277.805 64.7086C277.385 65.854 277.412 67.1152 277.88 68.2417C280.125 73.6513 277.255 82.2257 273.151 85.7401C273.151 85.7401 272.949 83.3665 270.962 83.9921C268.975 84.6177 269.876 96.872 273.943 102.723C268.746 97.3618 265.03 90.7426 263.16 83.5137C259.756 71.6089 260.106 62.7769 262.443 58.0665L279.168 55.5641Z" fill="#263238"/>
<path d="M261.321 85.7583C262.084 87.4492 263.177 88.9709 264.536 90.2346C265.894 91.4983 267.491 92.4786 269.233 93.1183C273.869 94.7927 276.593 90.7079 275.562 86.1447C274.642 82.0967 271.165 76.2087 266.362 76.5583C261.56 76.9079 259.481 81.5999 261.321 85.7583Z" fill="#EBB376"/>
<path d="M300.402 94.1304C299.784 95.8386 299.298 97.5917 298.948 99.3744H297.991C293.649 99.172 291.699 97.6448 290.852 96.0072C290.454 95.2017 290.258 94.3111 290.282 93.4128C290.278 92.9089 290.347 92.4071 290.484 91.9224C293.11 93.2261 295.982 93.9597 298.911 94.0752L300.402 94.1304Z" fill="#263238"/>
<path d="M298.911 94.0384L298.451 95.5656C294.367 95.3632 291.515 94.6824 290.282 93.376C290.279 92.8722 290.347 92.3704 290.484 91.8856C293.11 93.1893 295.982 93.923 298.911 94.0384V94.0384Z" fill="white"/>
<path d="M297.991 99.3375C293.649 99.1351 291.698 97.6079 290.852 95.9703C292.504 96.0774 294.123 96.4761 295.636 97.1479C296.63 97.6152 297.453 98.3806 297.991 99.3375V99.3375Z" fill="#DE5753"/>
<path d="M283.676 57.7904C283.676 57.7904 284.651 65.5552 274.954 69.5664C265.257 73.5776 261.724 76.9264 261.724 76.9264C261.724 76.9264 255.174 57.8824 267.06 50.8536C267.06 50.8536 267.3 47.1736 277.493 43.696C287.687 40.2184 302.296 41.856 308.92 54.1288C313.888 63.3288 309.288 69.8976 309.288 69.8976C309.288 69.8976 308.313 64.5616 298.856 63.3472C293.451 62.6246 288.27 60.728 283.676 57.7904V57.7904Z" fill="#263238"/>
<path d="M302.242 130.452L300.108 140.922C300.108 140.922 312.307 191.779 314.828 218.202L310.393 222.654L303.401 218.202C303.401 218.202 302.776 164.474 296.612 141.915L285.572 132.862L294.275 130.047L302.242 130.452Z" fill="#263238"/>
<path d="M272.36 117.48L293.52 127.011L294.753 119.357L302.518 122.098C303.876 122.575 305.034 123.495 305.805 124.71C306.576 125.925 306.916 127.364 306.768 128.796L305.885 137.187L295.158 131.317L289.804 138.879L264.412 126.643L272.36 117.48Z" fill="#FFC100"/>
<path opacity="0.7" d="M272.36 117.48L293.52 127.011L294.753 119.357L302.518 122.098C303.876 122.575 305.034 123.495 305.805 124.71C306.576 125.925 306.916 127.364 306.768 128.796L305.885 137.187L295.158 131.317L289.804 138.879L264.412 126.643L272.36 117.48Z" fill="white"/>
<path d="M328.517 198.44L353.983 193.711C353.983 193.711 358.711 188.982 360.901 188.982C363.091 188.982 391.482 197.704 391.482 197.704C391.482 197.704 383.828 205.358 380.184 206.812C376.541 208.266 359.815 204.622 359.815 204.622L335.067 211.173L328.517 198.44Z" fill="#EBB376"/>
<path d="M240.363 131.17C251.991 126.938 269.177 195.79 272.82 201.255C276.463 206.72 344.893 193.233 344.893 193.233L350.413 209.259C350.413 209.259 292.545 229.278 268.533 225.286C244.521 221.293 239.093 186.333 233.223 165.596C227.354 144.859 231.88 134.224 240.363 131.17Z" fill="#FFC100"/>
<path opacity="0.7" d="M240.363 131.17C251.991 126.938 269.177 195.79 272.82 201.255C276.463 206.72 344.893 193.233 344.893 193.233L350.413 209.259C350.413 209.259 292.545 229.278 268.533 225.286C244.521 221.293 239.093 186.333 233.223 165.596C227.354 144.859 231.88 134.224 240.363 131.17Z" fill="white"/>
<path d="M424.197 131.114C424.722 129.965 425.485 128.94 426.437 128.108C427.389 127.277 428.507 126.658 429.717 126.294C431.946 125.635 434.323 125.68 436.525 126.422C438.743 127.143 440.675 128.547 442.045 130.434C442.398 130.897 442.7 131.397 442.947 131.924C443.209 132.441 443.419 132.984 443.572 133.543L443.812 134.353L443.922 135.126L444.125 136.671C444.471 140.869 443.148 145.034 440.445 148.263C437.886 151.307 434.556 153.608 430.803 154.924C427.221 156.205 423.438 156.828 419.634 156.764C417.787 156.764 415.942 156.629 414.114 156.359C412.447 156.029 410.753 155.857 409.054 155.844C407.542 155.826 406.066 156.312 404.859 157.224C404.323 157.587 403.916 158.109 403.694 158.717C403.473 159.325 403.449 159.987 403.626 160.61C403.853 161.172 404.277 161.632 404.819 161.903C405.362 162.174 405.984 162.238 406.57 162.082C406.911 161.951 407.211 161.731 407.437 161.444C407.663 161.157 407.807 160.815 407.854 160.452C407.901 160.09 407.85 159.722 407.705 159.387C407.56 159.052 407.327 158.762 407.03 158.549C407.53 158.663 407.98 158.937 408.312 159.328C408.643 159.719 408.839 160.208 408.87 160.72C408.903 161.298 408.781 161.874 408.515 162.389C408.25 162.903 407.851 163.337 407.361 163.646C406.85 163.961 406.268 164.145 405.668 164.184C405.069 164.222 404.469 164.113 403.921 163.866C402.814 163.431 401.922 162.578 401.437 161.493C401.028 160.413 400.967 159.232 401.264 158.117C401.562 157.001 402.201 156.007 403.093 155.274C404.69 153.913 406.684 153.106 408.778 152.974C410.659 152.886 412.544 152.972 414.409 153.231C416.115 153.4 417.831 153.431 419.542 153.323C422.914 153.186 426.235 152.451 429.349 151.152C432.354 149.967 434.994 148.013 437.004 145.485C438.927 142.926 439.772 139.716 439.359 136.542C439.266 135.711 439.008 134.906 438.599 134.176C438.191 133.445 437.64 132.804 436.98 132.29C436.32 131.776 435.563 131.398 434.755 131.181C433.947 130.963 433.104 130.909 432.275 131.022C428.816 131.63 426.295 134.702 424.768 137.646L424.197 131.114Z" fill="#FFC100"/>
<path d="M376.394 114.83C376.68 113.589 376.696 112.3 376.439 111.052C376.181 109.804 375.658 108.626 374.903 107.599C373.531 105.706 371.601 104.291 369.383 103.551C367.186 102.764 364.797 102.693 362.557 103.349C361.993 103.498 361.45 103.714 360.938 103.993C360.414 104.229 359.92 104.525 359.466 104.876L358.766 105.373L358.196 105.925L357.092 107.01C354.264 110.133 352.783 114.246 352.97 118.455C353.139 122.428 354.365 126.284 356.522 129.624C358.564 132.842 361.169 135.666 364.213 137.959C365.687 139.106 367.25 140.133 368.886 141.032C370.399 141.807 371.846 142.705 373.21 143.718C374.405 144.653 375.274 145.941 375.694 147.398C375.889 148.016 375.887 148.678 375.69 149.294C375.492 149.911 375.108 150.45 374.59 150.839C374.069 151.144 373.455 151.249 372.863 151.133C372.27 151.018 371.739 150.691 371.37 150.214C371.181 149.897 371.08 149.535 371.079 149.166C371.079 148.797 371.178 148.435 371.367 148.118C371.555 147.801 371.827 147.541 372.151 147.366C372.476 147.191 372.842 147.106 373.21 147.122C372.743 146.89 372.212 146.818 371.7 146.918C371.188 147.018 370.723 147.284 370.377 147.674C369.992 148.108 369.732 148.639 369.625 149.209C369.518 149.78 369.568 150.369 369.77 150.913C369.982 151.476 370.33 151.979 370.782 152.377C371.235 152.775 371.778 153.055 372.364 153.194C373.507 153.521 374.733 153.396 375.786 152.845C376.77 152.239 377.54 151.339 377.985 150.273C378.431 149.207 378.531 148.028 378.27 146.902C377.846 144.845 376.76 142.984 375.179 141.602C373.739 140.388 372.193 139.304 370.561 138.364C369.111 137.452 367.733 136.431 366.439 135.31C363.855 133.14 361.674 130.53 359.999 127.6C358.331 124.819 357.435 121.643 357.405 118.4C357.44 115.204 358.721 112.147 360.974 109.881C361.561 109.279 362.262 108.8 363.036 108.474C363.81 108.147 364.642 107.979 365.482 107.979C366.323 107.979 367.155 108.147 367.929 108.474C368.703 108.8 369.404 109.279 369.99 109.881C372.346 112.475 372.474 116.45 371.83 119.706L376.394 114.83Z" fill="#FFC100"/>
<g opacity="0.2">
<path opacity="0.2" d="M424.197 131.114C424.721 129.965 425.485 128.94 426.437 128.108C427.389 127.277 428.507 126.658 429.717 126.294C431.945 125.635 434.323 125.68 436.525 126.422C438.742 127.143 440.675 128.547 442.045 130.434C442.397 130.897 442.699 131.397 442.946 131.924C443.209 132.441 443.418 132.984 443.572 133.543L443.811 134.353L443.922 135.126L444.124 136.671C444.47 140.869 443.148 145.034 440.444 148.263C437.885 151.307 434.555 153.608 430.802 154.924C427.221 156.205 423.437 156.828 419.634 156.764C417.786 156.764 415.941 156.629 414.114 156.359C412.447 156.029 410.753 155.857 409.054 155.844C407.541 155.826 406.065 156.312 404.859 157.224C404.323 157.587 403.915 158.109 403.694 158.717C403.472 159.325 403.449 159.987 403.626 160.61C403.852 161.172 404.277 161.632 404.819 161.903C405.361 162.174 405.984 162.238 406.57 162.082C406.911 161.951 407.21 161.731 407.436 161.444C407.662 161.157 407.807 160.815 407.854 160.452C407.901 160.09 407.849 159.722 407.704 159.387C407.559 159.052 407.326 158.762 407.03 158.549C407.53 158.663 407.98 158.937 408.311 159.328C408.643 159.719 408.839 160.208 408.87 160.72C408.903 161.298 408.78 161.874 408.515 162.389C408.249 162.903 407.851 163.337 407.361 163.646C406.849 163.961 406.268 164.145 405.668 164.184C405.068 164.222 404.468 164.113 403.92 163.866C402.813 163.431 401.922 162.578 401.436 161.493C401.027 160.413 400.967 159.232 401.264 158.117C401.561 157.001 402.2 156.007 403.092 155.274C404.689 153.913 406.684 153.106 408.778 152.974C410.658 152.886 412.543 152.972 414.408 153.231C416.114 153.4 417.831 153.431 419.542 153.323C422.913 153.186 426.234 152.451 429.349 151.152C432.353 149.967 434.993 148.013 437.003 145.485C438.926 142.926 439.771 139.716 439.358 136.542C439.266 135.711 439.007 134.906 438.599 134.176C438.19 133.445 437.639 132.804 436.979 132.29C436.319 131.776 435.563 131.398 434.755 131.181C433.947 130.963 433.104 130.909 432.274 131.022C428.815 131.63 426.294 134.702 424.767 137.646L424.197 131.114Z" fill="black"/>
<path opacity="0.2" d="M376.394 114.83C376.68 113.589 376.696 112.3 376.439 111.052C376.181 109.804 375.658 108.626 374.903 107.599C373.531 105.706 371.601 104.291 369.383 103.551C367.186 102.764 364.797 102.693 362.557 103.349C361.993 103.498 361.45 103.714 360.938 103.993C360.414 104.229 359.92 104.525 359.466 104.876L358.766 105.373L358.196 105.925L357.092 107.01C354.264 110.133 352.783 114.246 352.97 118.455C353.139 122.428 354.365 126.284 356.522 129.624C358.564 132.842 361.169 135.666 364.213 137.959C365.687 139.106 367.25 140.133 368.886 141.032C370.399 141.807 371.846 142.705 373.21 143.718C374.405 144.653 375.274 145.941 375.694 147.398C375.889 148.016 375.887 148.678 375.69 149.294C375.492 149.911 375.108 150.45 374.59 150.839C374.069 151.144 373.455 151.249 372.863 151.133C372.27 151.018 371.739 150.691 371.37 150.214C371.181 149.897 371.08 149.535 371.079 149.166C371.079 148.797 371.178 148.435 371.367 148.118C371.555 147.801 371.827 147.541 372.151 147.366C372.476 147.191 372.842 147.106 373.21 147.122C372.743 146.89 372.212 146.818 371.7 146.918C371.188 147.018 370.723 147.284 370.377 147.674C369.992 148.108 369.732 148.639 369.625 149.209C369.518 149.78 369.568 150.369 369.77 150.913C369.982 151.476 370.33 151.979 370.782 152.377C371.235 152.775 371.778 153.055 372.364 153.194C373.507 153.521 374.733 153.396 375.786 152.845C376.77 152.239 377.54 151.339 377.985 150.273C378.431 149.207 378.531 148.028 378.27 146.902C377.846 144.845 376.76 142.984 375.179 141.602C373.739 140.388 372.193 139.304 370.561 138.364C369.111 137.452 367.733 136.431 366.439 135.31C363.855 133.14 361.674 130.53 359.999 127.6C358.331 124.819 357.435 121.643 357.405 118.4C357.44 115.204 358.721 112.147 360.974 109.881C361.561 109.279 362.262 108.8 363.036 108.474C363.81 108.147 364.642 107.979 365.482 107.979C366.323 107.979 367.155 108.147 367.929 108.474C368.703 108.8 369.404 109.279 369.99 109.881C372.346 112.475 372.474 116.45 371.83 119.706L376.394 114.83Z" fill="black"/>
</g>
<path d="M397.481 157.776C408.907 156.506 420.278 147.84 426.608 134.518L429.515 128.391L373.781 109.384L372.346 116.008C369.237 130.434 372.953 144.215 381.215 152.201C382.296 153.271 383.06 154.62 383.42 156.098C383.781 157.576 383.724 159.125 383.257 160.573L379.32 172.901C378.862 174.36 377.894 175.605 376.593 176.409C375.292 177.214 373.746 177.523 372.236 177.28C369.48 176.808 366.648 177.358 364.269 178.826L361.361 180.666L395.898 192.442L394.739 189.203C393.747 186.588 391.837 184.423 389.366 183.113C388.02 182.387 386.982 181.201 386.441 179.771C385.9 178.341 385.893 176.764 386.422 175.33L390.838 163.149C391.343 161.729 392.231 160.475 393.403 159.527C394.575 158.579 395.986 157.973 397.481 157.776V157.776Z" fill="#FFC100"/>
<path d="M360.532 177.17L398.694 190.16L395.916 203.058L354.865 189.074L360.532 177.17Z" fill="#263238"/>
<path opacity="0.2" d="M369.236 180.132L389.991 187.198L387.213 200.078L363.587 192.037L369.236 180.132Z" fill="white"/>
<path d="M384.595 189.429L372.194 185.205L370.55 190.03L382.952 194.254L384.595 189.429Z" fill="white"/>
<path opacity="0.3" d="M383.22 151.336C384.238 152.564 384.919 154.036 385.197 155.607C385.474 157.178 385.338 158.794 384.802 160.297L380.074 174.226C379.135 176.949 377.994 177.722 374.719 177.906C372.796 177.869 370.896 178.325 369.199 179.23L374.995 181.218C375.675 180.931 376.395 180.751 377.13 180.684H378.068C378.695 180.641 379.294 180.414 379.792 180.031C380.29 179.648 380.663 179.126 380.865 178.531L388.574 155.899C388.851 155.096 388.938 154.24 388.83 153.397C388.721 152.555 388.42 151.749 387.949 151.042L386.974 149.551C382.878 143.311 381.367 135.724 382.76 128.391L385.17 114.959L376.798 112.107L374.958 127.655C373.891 135.107 377.24 144.951 383.22 151.336Z" fill="white"/>
<path d="M286.27 179.267L279.794 177.482L273.538 180.463L272.139 165.67L284.89 164.474L286.27 179.267Z" fill="#FFC100"/>
<path opacity="0.2" d="M286.27 179.267L279.794 177.482L273.538 180.463L272.139 165.67L284.89 164.474L286.27 179.267Z" fill="white"/>
<path d="M277.401 152.808L278.745 153.526L280.143 152.9L281.265 153.931L282.793 153.673L283.621 154.943L285.148 155.071L285.645 156.525L287.098 157.022L287.209 158.549L288.497 159.377L288.221 160.886L289.251 162.027L288.625 163.425L289.343 164.768L288.386 165.964L288.736 167.455L287.503 168.375L287.485 169.902L286.068 170.491L285.663 171.963L284.154 172.165L283.4 173.508L281.873 173.324L280.805 174.428L279.37 173.895L278.064 174.686L276.813 173.803L275.359 174.263L274.365 173.085L272.838 173.159L272.157 171.779L270.667 171.484L270.354 169.975L268.974 169.313L269.048 167.767L267.889 166.774L268.349 165.32L267.465 164.069L268.257 162.763L267.723 161.327L268.827 160.26L268.661 158.751L269.986 157.979L270.207 156.47L271.679 156.065L272.268 154.648L273.795 154.63L274.715 153.415L276.205 153.765L277.401 152.808Z" fill="#FFC100"/>
<path opacity="0.4" d="M280.754 172.652C285.697 171.347 288.645 166.283 287.34 161.341C286.035 156.399 280.971 153.45 276.029 154.755C271.087 156.06 268.138 161.124 269.443 166.066C270.748 171.008 275.812 173.957 280.754 172.652Z" fill="white"/>
<path d="M278.672 162.983L278.561 164.639L279.886 164.529V165.854L278.524 165.964L278.396 168.043L277.089 168.172L277.236 166.093L276.114 166.203L275.967 168.264L274.679 168.393L274.808 166.314L273.538 166.443V165.118L274.826 164.989L274.955 163.333L273.667 163.462V162.137L274.955 162.008L275.12 159.635L276.408 159.524L276.243 161.879H277.365L277.531 159.506L278.837 159.377L278.672 161.751L280.015 161.622V162.947L278.672 162.983ZM277.365 163.112H276.243L276.132 164.787L277.255 164.676L277.365 163.112Z" fill="#FFC100"/>
<path d="M282.682 167.638L282.075 160.996L280.971 161.106L280.879 160.205C281.193 160.129 281.484 159.978 281.725 159.763C281.988 159.564 282.181 159.287 282.277 158.972H283.179L283.989 167.583L282.682 167.638Z" fill="#FFC100"/>
<path d="M51.1525 304.318L54.8808 298.338L66.3008 295.974L71.8195 300.039L51.1525 304.318ZM45.065 281.904L51.054 285.678L53.3994 297.006L49.3443 302.571L45.065 281.904ZM50.7729 282.458C49.5154 281.818 48.2456 281.197 46.9637 280.595L49.739 277.464L62.3611 274.851L66.1049 276.631L63.395 279.844L50.7729 282.458ZM41.3799 257.353L62.0468 253.074L58.5035 259.015L47.176 261.36L41.3799 257.353ZM63.8455 254.775L68.1247 275.442L62.2028 271.991L59.8382 260.571L63.8455 254.775Z" fill="#FFECB2"/>
<path d="M103.806 290.669L97.8268 286.941L95.4718 275.567L99.527 270.002L103.806 290.669ZM81.7014 275.429C80.4439 274.789 79.1741 274.168 77.8922 273.566L80.6675 270.436L93.2895 267.822L97.0333 269.602L94.3234 272.816L81.7014 275.429ZM75.5197 273.286L71.2405 252.619L77.1624 256.069L79.5366 267.536L75.5197 273.286ZM94.774 247.746L99.0532 268.413L93.1313 264.962L90.7667 253.542L94.774 247.746Z" fill="#FFECB2"/>
</svg>
