<svg width="574" height="574" viewBox="0 0 574 574" fill="none" xmlns="http://www.w3.org/2000/svg">
<g clip-path="url(#clip0)">
<path d="M57.6214 331.182C58.2761 368.001 78.401 419.229 123.199 414.578C131.71 413.617 139.888 410.718 147.104 406.103C173.419 389.831 191.322 358.879 223.788 353.604C253.331 348.812 283.519 363.374 306.79 380.421C340.871 405.39 370.097 439.153 412.959 448.721C423.949 451.197 435.251 451.979 446.476 451.041C500.944 446.491 549.294 402.317 559.756 348.769C573.892 276.398 514.181 212.644 460.466 173.52C412.294 138.436 353.84 116.713 294.219 115.562C234.598 114.412 174.235 134.333 129.394 173.608C84.5531 212.884 56.5014 271.597 57.6214 331.182Z" fill="#FFC100"/>
<path opacity="0.9" d="M57.6214 331.182C58.2761 368.001 78.401 419.229 123.199 414.578C131.71 413.617 139.888 410.718 147.104 406.103C173.419 389.831 191.322 358.879 223.788 353.604C253.331 348.812 283.519 363.374 306.79 380.421C340.871 405.39 370.097 439.153 412.959 448.721C423.949 451.197 435.251 451.979 446.476 451.041C500.944 446.491 549.294 402.317 559.756 348.769C573.892 276.398 514.181 212.644 460.466 173.52C412.294 138.436 353.84 116.713 294.219 115.562C234.598 114.412 174.235 134.333 129.394 173.608C84.5531 212.884 56.5014 271.597 57.6214 331.182Z" fill="white"/>
<path d="M287 490.839C409.931 490.839 509.586 485.021 509.586 477.843C509.586 470.666 409.931 464.848 287 464.848C164.07 464.848 64.4146 470.666 64.4146 477.843C64.4146 485.021 164.07 490.839 287 490.839Z" fill="#F5F5F5"/>
<path d="M115.87 284.034L109.842 285.084L137.971 446.587L143.999 445.537L115.87 284.034Z" fill="#263238"/>
<path opacity="0.2" d="M115.87 284.034L109.842 285.084L137.971 446.587L143.999 445.537L115.87 284.034Z" fill="white"/>
<path d="M139.768 280.559C147.635 263.751 140.386 243.748 123.578 235.882C106.77 228.015 86.7669 235.264 78.9005 252.072C71.0342 268.88 78.2829 288.883 95.0911 296.749C111.899 304.616 131.902 297.367 139.768 280.559Z" fill="#FFC100"/>
<path opacity="0.6" d="M139.768 280.559C147.635 263.751 140.386 243.748 123.578 235.882C106.77 228.015 86.7669 235.264 78.9005 252.072C71.0342 268.88 78.2829 288.883 95.0911 296.749C111.899 304.616 131.902 297.367 139.768 280.559Z" fill="white"/>
<path d="M134.325 284.783C144.522 270.977 141.596 251.519 127.791 241.322C113.985 231.126 94.5277 234.051 84.3308 247.856C74.1339 261.662 77.0592 281.12 90.8647 291.317C104.67 301.514 124.128 298.588 134.325 284.783Z" fill="#FFC100"/>
<path d="M224.468 387.048L221.862 380.16C187.009 381.768 183.106 368.68 182.739 364.456C182.084 356.707 189.087 349.646 198.363 348.717C211.14 347.408 219.658 358.853 223.998 366.396C230.576 358.475 243.307 351.931 252.904 351.931C260.252 351.931 265.475 355.375 267.22 362.378C268.62 367.992 266.634 371.47 264.717 373.628C256.612 382.812 233.228 380.998 226.202 380.275L224.468 387.048ZM228.601 373.157C239.186 374.087 254.58 373.399 258.908 368.565C259.597 367.785 260.309 366.981 259.689 364.49C258.805 360.943 256.704 359.772 252.904 359.772C244.409 359.726 232.47 366.958 228.601 373.157ZM200.337 356.408C199.954 356.411 199.571 356.434 199.189 356.477C193.932 357.005 190.281 360.794 190.534 363.836C190.832 367.28 197.249 373.077 218.797 372.538C216.088 367.165 209.613 356.408 200.337 356.408Z" fill="#263238"/>
<path d="M299.364 376.119H148.069V480.048H299.364V376.119Z" fill="#FFC100"/>
<path opacity="0.2" d="M299.364 376.119H148.069V480.048H299.364V376.119Z" fill="white"/>
<path opacity="0.2" d="M299.364 412.029H148.069V480.048H299.364V412.029Z" fill="black"/>
<path d="M261.193 376.119H248.898V480.048H261.193V376.119Z" fill="#263238"/>
<path d="M178.33 376.119H169.307V480.048H178.33V376.119Z" fill="#263238"/>
<path opacity="0.2" d="M208.179 376.119H148.069V480.048H208.179V376.119Z" fill="black"/>
<path d="M132.123 412.568C127.359 413.062 111.551 414.267 106.064 408.08C105.14 407.068 104.498 405.831 104.202 404.494C103.906 403.156 103.966 401.764 104.376 400.457C105.524 395.727 109.083 393.374 114.054 393.374C120.552 393.374 129.162 397.817 133.57 403.178C136.509 398.069 142.26 390.332 150.905 391.216C157.184 391.847 161.926 396.623 161.478 401.869C161.237 404.693 158.585 413.578 135.005 412.488L133.249 417.137L132.123 412.568ZM114.065 398.551C111.494 398.551 110.082 399.389 109.473 401.789C109.277 402.252 109.223 402.763 109.317 403.258C109.411 403.752 109.649 404.208 110.002 404.567C112.929 407.873 123.341 408.309 130.516 407.678C127.887 403.476 119.805 398.551 114.065 398.551ZM137.163 407.31C151.743 407.678 156.094 403.74 156.289 401.421C156.461 399.366 153.993 396.829 150.434 396.45C150.163 396.434 149.89 396.434 149.619 396.45C143.351 396.404 138.966 403.683 137.163 407.31Z" fill="#FFC100"/>
<path d="M82.6331 480.048H184.989V409.733H82.6331L82.6331 480.048Z" fill="#FFC100"/>
<path opacity="0.6" d="M82.6331 480.048H184.989V409.733H82.6331L82.6331 480.048Z" fill="white"/>
<path opacity="0.1" d="M82.6331 480.048H184.989V434.024H82.6331V480.048Z" fill="black"/>
<path opacity="0.2" d="M144.304 480.048H184.978V409.733H144.304V480.048Z" fill="white"/>
<path d="M108.452 480.048H116.764L116.764 409.733H108.452L108.452 480.048Z" fill="#FFC100"/>
<path d="M164.509 480.048H170.616V409.733H164.509V480.048Z" fill="#FFC100"/>
<path d="M443.45 393.558C443.45 393.558 451.486 386.853 458.374 393.558C465.262 400.262 466.605 441.774 466.605 441.774" stroke="#FFC100" stroke-miterlimit="10"/>
<path d="M467.236 449.844C467.236 449.844 462.495 401.077 480.346 380.585" stroke="#FFC100" stroke-miterlimit="10"/>
<path d="M465.491 444.701C465.491 444.701 469.142 389.172 455.756 376.865" stroke="#FFC100" stroke-miterlimit="10"/>
<path d="M467.236 444.701C467.236 444.701 467.546 407.965 477.499 402.317C487.453 396.668 492.492 415.209 492.492 415.209" stroke="#FFC100" stroke-miterlimit="10"/>
<path d="M463.253 444.701C463.253 444.701 464.883 416.54 457.169 406.472C449.454 396.404 441.349 410.789 441.349 410.789" stroke="#FFC100" stroke-miterlimit="10"/>
<path d="M465.951 448.478C465.951 448.478 460.957 382.605 469.211 371.447" stroke="#FFC100" stroke-miterlimit="10"/>
<path d="M485.972 407.655C485.972 407.655 481.012 409.492 482.528 413.808C484.043 418.125 499.748 425.288 499.748 425.288C499.748 425.288 506.314 419.261 500.287 409.469C494.26 399.676 486.109 404.567 485.972 407.655Z" fill="#FFC100"/>
<path opacity="0.2" d="M485.972 407.655C485.972 407.655 481.012 409.492 482.528 413.808C484.043 418.125 499.748 425.288 499.748 425.288C499.748 425.288 506.314 419.261 500.287 409.469C494.26 399.676 486.109 404.567 485.972 407.655Z" fill="white"/>
<path d="M464.401 399.435C464.401 399.435 469.682 399.217 469.992 403.775C470.302 408.332 458.512 420.926 458.512 420.926C458.512 420.926 450.131 417.895 451.934 406.53C453.736 395.165 463.092 396.634 464.401 399.435Z" fill="#FFC100"/>
<path opacity="0.2" d="M464.401 399.435C464.401 399.435 469.682 399.217 469.992 403.775C470.302 408.332 458.512 420.926 458.512 420.926C458.512 420.926 450.131 417.895 451.934 406.53C453.736 395.165 463.092 396.634 464.401 399.435Z" fill="white"/>
<path d="M459.924 377.692C459.924 377.692 463.448 377.313 463.173 375.166C462.897 373.02 449.477 367.498 441.556 376.429C441.556 376.429 446.63 385.131 453.954 385.246C461.278 385.361 459.924 377.692 459.924 377.692Z" fill="#FFC100"/>
<path opacity="0.2" d="M459.924 377.692C459.924 377.692 463.448 377.313 463.173 375.166C462.897 373.02 449.477 367.498 441.556 376.429C441.556 376.429 446.63 385.131 453.954 385.246C461.278 385.361 459.924 377.692 459.924 377.692Z" fill="white"/>
<path d="M466.49 372.423C466.49 372.423 463.299 373.973 462.415 371.998C461.531 370.023 469.98 358.222 481.415 361.666C481.415 361.666 481.713 371.734 475.56 375.695C469.406 379.655 466.49 372.423 466.49 372.423Z" fill="#FFC100"/>
<path opacity="0.2" d="M466.49 372.423C466.49 372.423 463.299 373.973 462.415 371.998C461.531 370.023 469.98 358.222 481.415 361.666C481.415 361.666 481.713 371.734 475.56 375.695C469.406 379.655 466.49 372.423 466.49 372.423Z" fill="white"/>
<path d="M449.81 405.921C449.81 405.921 452.243 403.958 449.626 403.005C447.009 402.053 434.128 402.317 433.99 415.071C433.99 415.071 448.983 417.562 450.843 412.706C452.703 407.85 449.81 405.921 449.81 405.921Z" fill="#FFC100"/>
<path opacity="0.2" d="M449.81 405.921C449.81 405.921 452.243 403.958 449.626 403.005C447.009 402.053 434.128 402.317 433.99 415.071C433.99 415.071 448.983 417.562 450.843 412.706C452.703 407.85 449.81 405.921 449.81 405.921Z" fill="white"/>
<path d="M480.392 377.313C480.392 377.313 477.958 375.35 480.587 374.397C483.216 373.445 496.085 373.709 496.212 386.463C496.212 386.463 481.219 388.954 479.37 384.098C477.522 379.242 480.392 377.313 480.392 377.313Z" fill="#FFC100"/>
<path opacity="0.2" d="M480.392 377.313C480.392 377.313 477.958 375.35 480.587 374.397C483.216 373.445 496.085 373.709 496.212 386.463C496.212 386.463 481.219 388.954 479.37 384.098C477.522 379.242 480.392 377.313 480.392 377.313Z" fill="white"/>
<path d="M472.46 387.588C472.46 387.588 472.253 385.2 474.182 386.141C476.11 387.083 482.815 394.315 475.858 401.192C475.858 401.192 466.49 394.246 468.178 390.642C469.865 387.037 472.46 387.588 472.46 387.588Z" fill="#FFC100"/>
<path opacity="0.2" d="M472.46 387.588C472.46 387.588 472.253 385.2 474.182 386.141C476.11 387.083 482.815 394.315 475.858 401.192C475.858 401.192 466.49 394.246 468.178 390.642C469.865 387.037 472.46 387.588 472.46 387.588Z" fill="white"/>
<path d="M447.64 390.997C447.64 390.997 449.098 389.092 446.963 388.851C444.827 388.61 435.299 391.147 437.514 400.687C437.514 400.687 449.144 399.814 449.637 395.853C450.131 391.893 447.64 390.997 447.64 390.997Z" fill="#FFC100"/>
<path opacity="0.2" d="M447.64 390.997C447.64 390.997 449.098 389.092 446.963 388.851C444.827 388.61 435.299 391.147 437.514 400.687C437.514 400.687 449.144 399.814 449.637 395.853C450.131 391.893 447.64 390.997 447.64 390.997Z" fill="white"/>
<path d="M486.902 480.059H447.032L442.727 436.401H491.207L486.902 480.059Z" fill="#FFC100"/>
<path opacity="0.5" d="M486.902 480.059H447.032L442.727 436.401H491.207L486.902 480.059Z" fill="white"/>
<path d="M493.33 431.579H440.591V441.211H493.33V431.579Z" fill="#FFC100"/>
<path opacity="0.2" d="M493.33 431.579H440.591V441.211H493.33V431.579Z" fill="white"/>
<path d="M414.761 160.169C414.761 160.169 411.799 153.361 402.271 153.361C392.742 153.361 384.787 159.033 385.235 166.299C385.682 173.566 380.241 172.889 379.334 179.926C378.427 186.963 381.825 188.777 382.055 191.739C382.284 194.701 378.427 193.782 375.924 198.776C373.422 203.77 370.253 210.807 380.918 220.118C391.583 229.428 421.798 227.844 428.376 222.161C434.954 216.478 434.736 205.584 428.376 202.645C422.016 199.706 427.929 200.142 428.606 193.564C429.283 186.986 423.383 184.484 423.842 179.26C424.301 174.037 425.908 160.628 414.761 160.169Z" fill="#263238"/>
<path d="M359.325 255.522L349.923 250.39C349.923 250.39 347.259 243.502 345.847 242.768C344.435 242.033 334.218 242.228 332.921 242.228C331.623 242.228 331.979 251.791 332.599 253.387C333.219 254.982 344.504 255.51 345.606 255.683L357.086 264.006L359.325 255.522Z" fill="#B97964"/>
<path d="M375.132 204.115C368.049 204.115 362.297 254.03 362.297 254.03L352.608 250.39L346.558 259.173C346.558 259.173 357.453 273.098 368.049 271.284C378.645 269.47 384.121 214.894 384.121 214.894L375.132 204.115Z" fill="#FFC100"/>
<path opacity="0.2" d="M384.098 214.894C384.098 214.894 383.96 216.318 383.673 218.729C382.203 231.173 376.946 269.769 368.049 271.284C367.204 271.433 366.344 271.479 365.489 271.422C355.765 270.951 346.558 259.173 346.558 259.173L352.608 250.402L362.297 254.03C362.297 254.03 368.037 204.069 375.132 204.115L384.098 214.894Z" fill="white"/>
<path opacity="0.2" d="M383.674 218.729C382.204 231.173 376.946 269.769 368.049 271.284C367.205 271.433 366.345 271.479 365.489 271.422C365.26 239.37 375.018 211.037 375.018 211.037L383.674 218.729Z" fill="black"/>
<path d="M380.321 277.908C380.321 277.908 367.877 344.216 364.559 371.447C360.22 406.966 342.483 458.925 342.483 458.925L349.578 460.761C349.578 460.761 374.581 416.598 379.426 376.877C399.286 336.272 400.893 286.265 400.893 286.265L380.321 277.908Z" fill="#B97964"/>
<path d="M329.281 474.997C330.43 474.485 331.663 474.189 332.92 474.124C332.92 474.124 337.282 471.553 341.599 461.588H346.466C347.287 461.599 348.084 461.862 348.751 462.34C349.418 462.818 349.923 463.489 350.197 464.263C350.277 464.48 350.324 464.709 350.335 464.94C350.289 466.115 350.162 467.284 349.956 468.442C349.244 472.322 348.297 476.156 347.121 479.922L346.294 479.703L347.798 472.46C348.292 469.991 345.697 472.368 344.503 474.859C343.309 477.35 341.461 479.841 336.088 478.613C329.843 477.029 327.318 476.122 329.281 474.997Z" fill="#263238"/>
<path d="M393.236 276.852C393.236 276.852 394.786 344.297 397.162 371.619C400.274 407.276 393.718 461.783 393.718 461.783L401.043 462.105C401.043 462.105 416.369 413.728 412.925 373.858C423.957 330.016 415.221 280.767 415.221 280.767L393.236 276.852Z" fill="#B97964"/>
<path d="M382.285 477.224C383.369 476.572 384.563 476.124 385.809 475.903C385.809 475.903 389.861 472.884 393.087 462.506L397.909 461.955C398.732 461.878 399.559 462.057 400.276 462.468C400.994 462.879 401.566 463.502 401.916 464.251C402.018 464.457 402.088 464.678 402.122 464.906C402.197 466.079 402.197 467.256 402.122 468.43C401.827 472.347 401.294 476.242 400.526 480.094L399.688 479.979L400.389 472.609C400.618 470.106 398.311 472.746 397.381 475.352C396.451 477.958 394.901 480.633 389.425 479.944C383.054 479.175 380.448 478.544 382.285 477.224Z" fill="#263238"/>
<path d="M342.483 458.925C342.483 458.925 336.364 471.621 332.92 474.124C332.92 474.124 337.604 476.914 342.483 470.68C348.786 462.644 350.336 464.94 350.336 464.94C350.21 463.553 349.957 462.181 349.578 460.842C348.625 458.167 342.483 458.925 342.483 458.925Z" fill="#B97964"/>
<path d="M394.407 458.821C394.407 458.821 392.685 463.517 390.389 468.683C389.335 471.361 387.776 473.813 385.797 475.903C385.797 475.903 389.781 477.201 391.939 474.698C394.097 472.195 397.771 463.218 401.904 464.205C401.684 463.47 401.376 462.765 400.985 462.105C400.365 461.083 394.407 458.821 394.407 458.821Z" fill="#B97964"/>
<path d="M376.063 266.841C376.063 266.841 371.138 315.93 363.813 365.144C359.519 393.187 352.938 420.831 344.137 447.8L358.67 449.017C358.67 449.017 386.521 379.977 395.005 340.015C395.005 340.015 398.024 410.858 393.179 450.223L405.899 449.614C405.899 449.614 436.895 316.286 413.774 268.23L376.063 266.841Z" fill="#FFC100"/>
<path opacity="0.4" d="M405.899 449.626L393.179 450.223C398.024 410.869 395.005 340.015 395.005 340.015C392.858 350.106 389.483 362.033 385.637 374.248C374.237 410.422 358.67 449.017 358.67 449.017L344.137 447.8C352.94 420.832 359.521 393.187 363.813 365.144C371.138 315.93 376.063 266.841 376.063 266.841L413.774 268.265C436.93 316.286 405.899 449.626 405.899 449.626Z" fill="white"/>
<path opacity="0.2" d="M395.004 340.015C392.857 350.106 389.482 362.033 385.636 374.248C384.167 351.288 390.01 310.04 390.01 310.04L395.004 340.015Z" fill="black"/>
<path d="M413.694 265.877L413.797 271.422L375.856 269.229L375.741 262.674L413.694 265.877Z" fill="#263238"/>
<path d="M384.059 270.187L392.35 270.771L392.793 264.484L384.502 263.9L384.059 270.187Z" fill="white"/>
<path d="M400.606 273.381L402.487 273.441L402.795 263.86L400.913 263.8L400.606 273.381Z" fill="#FFC100"/>
<path opacity="0.4" d="M400.606 273.381L402.487 273.441L402.795 263.86L400.913 263.8L400.606 273.381Z" fill="white"/>
<path d="M377.429 271.254L379.311 271.315L379.618 261.734L377.737 261.673L377.429 271.254Z" fill="#FFC100"/>
<path opacity="0.4" d="M377.429 271.254L379.311 271.315L379.618 261.734L377.737 261.673L377.429 271.254Z" fill="white"/>
<path d="M375.878 261.159L413.762 264.43C414.131 255.039 415.482 245.713 417.792 236.603C418.699 232.975 419.835 228.923 421.293 224.239C422.074 221.736 422.935 219.05 423.899 216.203C424.623 214.01 425.403 211.68 426.264 209.223C421.12 207.581 415.864 206.311 410.537 205.423C404.915 204.425 399.23 203.826 393.523 203.632C386.153 203.575 377.681 204.402 377.681 204.402C377.681 204.402 376.475 204.689 375.718 212.506C375.04 219.796 374.363 234.468 375.878 261.159Z" fill="#FFC100"/>
<path d="M375.81 263.374L413.694 265.877C414.291 256.463 414.968 247.83 417.804 236.603C418.71 232.975 419.847 228.923 421.305 224.239C422.086 221.736 422.947 219.05 423.911 216.203C424.634 214.01 425.415 211.68 426.276 209.223C421.131 207.581 415.875 206.311 410.548 205.423C404.927 204.425 399.241 203.826 393.535 203.632C386.165 203.575 377.692 204.402 377.692 204.402C377.692 204.402 376.487 204.689 375.729 212.506C375.041 219.796 374.248 236.683 375.81 263.374Z" fill="#263238"/>
<g opacity="0.1">
<path opacity="0.1" d="M375.878 261.159L413.762 264.43C414.131 255.039 415.482 245.713 417.792 236.603C418.699 232.975 419.835 228.923 421.293 224.239C422.074 221.736 422.935 219.05 423.899 216.203C424.623 214.01 425.403 211.68 426.264 209.223C421.12 207.581 415.864 206.311 410.537 205.423C404.915 204.425 399.23 203.826 393.523 203.632C386.153 203.575 377.681 204.402 377.681 204.402C377.681 204.402 376.475 204.689 375.718 212.506C375.04 219.796 374.363 234.468 375.878 261.159Z" fill="white"/>
</g>
<path d="M396.657 211.955C406.002 210.807 408.803 206.766 408.803 206.766C402.88 201.176 407.804 191.486 407.804 191.486L396.566 193.587C396.817 195.152 396.963 196.732 397.002 198.317C397.082 205.148 394.005 205.205 394.005 205.205C392.031 208.936 396.657 211.955 396.657 211.955Z" fill="#B97964"/>
<path opacity="0.2" d="M396.566 193.587C396.818 195.152 396.963 196.732 397.002 198.317C404.59 198.317 407.805 191.486 407.805 191.486L396.566 193.587Z" fill="black"/>
<path d="M402.776 162.155C393.007 161.627 389.574 166.678 388.3 176.712C386.715 189.248 389.023 198.34 401.387 196.319C418.182 193.576 419.02 163.016 402.776 162.155Z" fill="#B97964"/>
<path d="M394.649 176.517C393.788 177.933 392.759 179.24 391.583 180.408C391.847 180.828 392.221 181.166 392.665 181.387C393.108 181.608 393.604 181.702 394.098 181.66L394.649 176.517Z" fill="#A24E3F"/>
<path d="M400.652 176.046C400.652 176.838 400.974 177.527 401.502 177.573C402.03 177.619 402.524 176.999 402.592 176.195C402.661 175.392 402.271 174.703 401.731 174.668C401.192 174.634 400.744 175.242 400.652 176.046Z" fill="#263238"/>
<path d="M401.973 174.726L400.285 173.899C400.285 173.899 401.043 175.437 401.973 174.726Z" fill="#263238"/>
<path d="M390.723 175.093C390.665 175.897 391.044 176.574 391.572 176.62C392.1 176.666 392.594 176.046 392.72 175.242C392.846 174.439 392.399 173.761 391.859 173.715C391.32 173.67 390.791 174.289 390.723 175.093Z" fill="#263238"/>
<path d="M392.02 173.773L390.332 172.958C390.332 172.958 391.09 174.496 392.02 173.773Z" fill="#263238"/>
<path d="M401.146 169.296C401.924 169.243 402.703 169.37 403.424 169.667C404.144 169.964 404.787 170.422 405.302 171.006" stroke="#2E353A" stroke-width="0.72468" stroke-linecap="round" stroke-linejoin="round"/>
<path d="M394.063 168.492C393.404 168.29 392.707 168.238 392.026 168.341C391.344 168.445 390.694 168.7 390.125 169.089" stroke="#2E353A" stroke-width="0.72468" stroke-linecap="round" stroke-linejoin="round"/>
<path d="M395.314 185.574C395.716 186.697 396.035 187.848 396.267 189.018C396.478 189.03 396.688 189.03 396.899 189.018C399.757 188.892 401.043 187.87 401.605 186.814C401.864 186.282 401.99 185.695 401.973 185.104C401.976 184.766 401.933 184.431 401.846 184.105C400.118 184.973 398.223 185.458 396.29 185.528C395.693 185.574 395.314 185.574 395.314 185.574Z" fill="#263238"/>
<path d="M396.29 185.517L396.599 186.527C399.286 186.401 401.192 185.942 401.972 185.092C401.975 184.755 401.933 184.419 401.846 184.093C400.117 184.961 398.222 185.447 396.29 185.517Z" fill="white"/>
<path d="M396.898 189.007C399.757 188.881 401.043 187.859 401.605 186.803C400.516 186.871 399.447 187.132 398.448 187.572C397.797 187.88 397.256 188.381 396.898 189.007Z" fill="#DE5753"/>
<path d="M412.557 179.214C412.557 179.214 408.425 170.937 409.458 164.773C409.458 164.773 390.527 155.807 388.495 175.403C388.495 175.403 387.554 157.85 404.372 158.378C421.19 158.906 419.778 183.485 410.698 190.327C410.698 190.327 415.106 184.392 412.557 179.214Z" fill="#263238"/>
<path d="M413.544 161.225C413.544 161.225 405.899 154.417 398.942 155.703C391.985 156.989 393.202 166.15 402.386 169.628C411.57 173.107 413.441 177.584 413.441 177.584L421.385 170.466L413.544 161.225Z" fill="#263238"/>
<path d="M396.898 158.573C396.898 158.573 393.638 158.791 394.545 163.636C395.452 168.481 402.34 170.914 408.849 173.187C415.358 175.46 414.83 178.02 414.83 178.02" stroke="#263238" stroke-width="0.5" stroke-miterlimit="10"/>
<path d="M410.846 181.189C411 180.064 411.595 179.046 412.499 178.359C413.403 177.673 414.543 177.373 415.668 177.527C418.687 178.02 419.789 184.311 412.167 185.402C411.076 185.551 410.525 184.461 410.846 181.189Z" fill="#B97964"/>
<path d="M417.459 207.788C417.459 207.788 406.496 216.685 396.29 216.547C386.084 216.41 382.514 204.918 382.514 204.918C382.514 204.918 398.357 200.246 417.459 207.788Z" fill="#B97964"/>
<path d="M410.778 204.677C407.116 229.588 407.31 254.915 411.352 279.768L422.246 278.551L427.401 208.615L410.778 204.677Z" fill="#FFC100"/>
<path opacity="0.2" d="M427.401 208.615L426.85 216.031L424.083 253.582L422.246 278.551L411.351 279.768C411.225 278.975 411.099 278.183 410.984 277.403C409.113 265.093 408.18 252.659 408.194 240.208V238.933C408.202 227.466 409.066 216.016 410.777 204.677L415.829 205.825L427.401 208.615Z" fill="white"/>
<path d="M389.85 203.196C389.85 203.196 377.693 238.887 375.925 275.52L371.953 274.372C371.953 274.372 369.037 234.743 375.098 204.172L389.85 203.196Z" fill="#FFC100"/>
<path opacity="0.2" d="M389.85 203.196C386.41 213.877 383.555 224.738 381.297 235.73C380.677 238.704 380.069 241.815 379.506 245.029C378.45 250.976 377.532 257.267 376.855 263.707C376.441 267.622 376.12 271.582 375.925 275.566L371.953 274.372C371.953 274.372 371.574 269.286 371.379 261.342C371.241 255.889 371.184 249.082 371.379 241.666C371.593 229.088 372.833 216.548 375.087 204.172L385.178 203.517L389.85 203.196Z" fill="white"/>
<path opacity="0.2" d="M412.259 218.189L416.116 223.642L408.195 238.933C408.203 227.466 409.066 216.016 410.778 204.677L415.829 205.825L419.066 213.034L412.259 218.189Z" fill="white"/>
<path opacity="0.2" d="M389.85 203.196C386.41 213.877 383.555 224.738 381.297 235.73L378.427 220.037L384.098 214.929L380.471 209.257L385.223 203.517L389.85 203.196Z" fill="white"/>
<path opacity="0.2" d="M426.849 216.031L424.083 253.582C420.857 261.618 416.472 270.584 410.984 277.403C409.113 265.093 408.18 252.659 408.194 240.208C413.211 232.022 420.363 221.426 426.562 216.26L426.849 216.031Z" fill="black"/>
<path opacity="0.2" d="M379.506 244.995C378.45 250.941 377.532 257.233 376.854 263.673C375.052 262.904 373.204 262.089 371.413 261.285C371.275 255.832 371.218 249.024 371.413 241.608L379.506 244.995Z" fill="black"/>
<path d="M341.209 248.68C341.209 248.68 332.668 245.236 336.307 236.396C336.307 236.396 333.839 238.692 328.099 235.845C328.099 235.845 334.08 238.704 333.242 240.563C332.542 242.113 324.678 242.951 324.678 242.951C324.678 242.951 333.529 242.343 334.47 244.249C335.056 245.454 329.109 252.583 329.109 252.583C329.109 252.583 335.366 246.533 336.697 247.314C338.029 248.094 336.273 253.134 336.273 253.134C336.273 253.134 337.972 248.783 338.947 248.921C339.923 249.059 339.774 251.963 339.774 251.963C339.774 251.963 339.808 248.875 341.209 248.68Z" fill="#FFC100"/>
<path d="M348.074 229.474C348.074 229.474 340.956 223.653 334.952 231.138C334.952 231.138 335.79 227.855 330.498 224.25C330.498 224.25 335.894 228.096 337.122 226.454C338.132 225.1 335.056 217.81 335.056 217.81C335.056 217.81 338.81 225.846 340.933 225.743C342.277 225.674 345.629 217.029 345.629 217.029C345.629 217.029 343.333 225.433 344.699 226.213C346.065 226.994 349.578 223.022 349.578 223.022C349.578 223.022 346.604 226.615 347.19 227.407C347.775 228.199 350.255 226.661 350.255 226.661C350.255 226.661 347.534 228.108 348.074 229.474Z" fill="#FFC100"/>
<path opacity="0.7" d="M341.209 248.68C341.209 248.68 332.668 245.236 336.307 236.396C336.307 236.396 333.839 238.692 328.099 235.845C328.099 235.845 334.08 238.704 333.242 240.563C332.542 242.113 324.678 242.951 324.678 242.951C324.678 242.951 333.529 242.343 334.47 244.249C335.056 245.454 329.109 252.583 329.109 252.583C329.109 252.583 335.366 246.533 336.697 247.314C338.029 248.094 336.273 253.134 336.273 253.134C336.273 253.134 337.972 248.783 338.947 248.921C339.923 249.059 339.774 251.963 339.774 251.963C339.774 251.963 339.808 248.875 341.209 248.68Z" fill="white"/>
<path opacity="0.7" d="M348.074 229.474C348.074 229.474 340.956 223.653 334.952 231.138C334.952 231.138 335.79 227.855 330.498 224.25C330.498 224.25 335.894 228.096 337.122 226.454C338.132 225.1 335.056 217.81 335.056 217.81C335.056 217.81 338.81 225.846 340.933 225.743C342.277 225.674 345.629 217.029 345.629 217.029C345.629 217.029 343.333 225.433 344.699 226.213C346.065 226.994 349.578 223.022 349.578 223.022C349.578 223.022 346.604 226.615 347.19 227.407C347.775 228.199 350.255 226.661 350.255 226.661C350.255 226.661 347.534 228.108 348.074 229.474Z" fill="white"/>
<path d="M374.903 246.625L359.485 236.144C359.485 236.144 354.503 221.472 353.309 221.22C352.115 220.967 343.873 225.433 343.471 226.742C343.069 228.05 347.936 238.532 349.211 239.863C350.485 241.195 353.699 241.333 353.699 241.333L368.715 253.134L374.903 246.625Z" fill="#B97964"/>
<path d="M427.401 208.615C423.004 208.328 406.806 251.607 404.383 255.235C401.961 258.863 365.478 239.645 365.478 239.645L360.036 251.676C360.036 251.676 399.768 275.302 410.743 271.892C418.687 269.424 426.184 244.34 429.513 233.434C434.828 216.065 431.419 208.867 427.401 208.615Z" fill="#FFC100"/>
<path opacity="0.2" d="M427.401 208.615C423.004 208.328 406.806 251.607 404.383 255.235C401.961 258.863 365.478 239.645 365.478 239.645L360.036 251.676C360.036 251.676 399.768 275.302 410.743 271.892C418.687 269.424 426.184 244.34 429.513 233.434C434.828 216.065 431.419 208.867 427.401 208.615Z" fill="white"/>
<path d="M230.243 469.406H218.878C218.693 469.407 218.513 469.471 218.369 469.588C218.225 469.705 218.125 469.867 218.086 470.049L216.238 478.372C216.163 478.731 216.233 479.105 216.433 479.413C216.633 479.72 216.947 479.936 217.305 480.013C217.404 480.031 217.505 480.031 217.604 480.013C221.277 480.013 223.964 479.738 228.579 479.738C231.426 479.738 240.001 480.025 243.928 480.025C247.854 480.025 248.37 476.156 246.763 475.789C239.554 474.227 234.135 472.046 231.839 469.98C231.624 469.784 231.372 469.632 231.098 469.534C230.825 469.435 230.534 469.392 230.243 469.406Z" fill="#263238"/>
<path d="M278.436 469.107H267.071C266.886 469.108 266.706 469.173 266.562 469.29C266.418 469.406 266.318 469.569 266.279 469.75L264.431 478.073C264.356 478.432 264.426 478.807 264.626 479.114C264.826 479.422 265.14 479.638 265.498 479.715C265.597 479.727 265.698 479.727 265.797 479.715C269.482 479.646 272.157 479.428 276.772 479.428C279.619 479.428 288.194 479.726 292.12 479.726C296.047 479.726 296.563 475.846 294.956 475.49C287.747 473.917 282.328 471.736 280.032 469.67C279.595 469.279 279.022 469.076 278.436 469.107Z" fill="#263238"/>
<path d="M224.217 258.748H273.868C278.586 284.52 292.086 388.851 281.49 470.129L264.913 471.943C264.913 471.943 267.485 347.04 252.676 307.147C250.965 328.5 248.933 351.219 247.177 363.296C242.86 393.052 233.125 470.588 233.125 470.588L216.318 471.036C216.318 471.036 220.003 395.83 221.611 366.568C223.39 334.86 224.148 265.268 224.217 258.748Z" fill="#263238"/>
<path opacity="0.2" d="M224.217 258.748H273.868C278.586 284.52 292.086 388.851 281.49 470.129L264.913 471.943C264.913 471.943 267.485 347.04 252.676 307.147C250.965 328.5 248.933 351.219 247.177 363.296C242.86 393.052 233.125 470.588 233.125 470.588L216.318 471.036C216.318 471.036 220.003 395.83 221.611 366.568C223.39 334.86 224.148 265.268 224.217 258.748Z" fill="white"/>
<path opacity="0.2" d="M252.675 307.159C255.119 314.151 256.974 321.336 258.22 328.638C259.609 309.639 254.053 289.491 254.053 289.491L252.675 307.159Z" fill="black"/>
<path d="M274.281 259.345H224.308V265.291L274.923 264.671L274.281 259.345Z" fill="#263238"/>
<path d="M240.38 267.231H242.16V256.67H240.38V267.231Z" fill="#263238"/>
<path d="M265.659 267.231H267.438V256.67H265.659V267.231Z" fill="#263238"/>
<path d="M251.504 264.958H260.745V258.3H251.504V264.958Z" fill="white"/>
<path opacity="0.2" d="M240.38 267.231H242.16V256.67H240.38V267.231Z" fill="white"/>
<path opacity="0.2" d="M265.659 267.231H267.438V256.67H265.659V267.231Z" fill="white"/>
<path d="M326.216 198.489L330.417 194.173C330.417 194.173 332.094 187.687 333.058 186.493C334.022 185.299 341.335 181.901 341.335 181.901C341.335 181.901 343.849 182.027 344.205 182.498C344.561 182.968 343.367 193.897 342.288 195.332C341.209 196.767 335.939 197.973 335.216 198.214C334.493 198.455 327.065 206.009 327.065 206.009L326.216 198.489Z" fill="#EBB376"/>
<path d="M269.333 172.843C277.173 173.796 292.614 209.441 298.515 212.621C304.415 215.801 327.812 195.826 327.812 195.826L333.712 203.093C333.712 203.093 307.148 231.471 296.701 228.349C286.254 225.226 271.445 198.374 266.956 189.971C262.468 181.568 269.333 172.843 269.333 172.843Z" fill="#FFC100"/>
<path opacity="0.6" d="M333.713 203.093C333.713 203.093 307.148 231.471 296.701 228.349C292.109 226.96 286.759 221.07 281.777 214.182C276.347 206.429 271.401 198.347 266.968 189.983C266 188.067 265.474 185.958 265.431 183.812C265.387 181.666 265.826 179.538 266.715 177.584C267.386 175.916 268.27 174.342 269.344 172.9C277.185 173.853 292.626 209.51 298.526 212.69C304.427 215.87 327.823 195.883 327.823 195.883L333.713 203.093Z" fill="white"/>
<path opacity="0.2" d="M281.765 214.125C276.335 206.371 271.389 198.289 266.956 189.925C265.988 188.009 265.463 185.901 265.419 183.755C265.375 181.609 265.814 179.48 266.704 177.527C271.169 183.026 280.25 196.228 281.765 214.125Z" fill="black"/>
<path d="M269.332 172.843C269.332 172.843 237.751 171.351 214.229 177.297C214.229 177.297 224.561 229.589 224.216 259.345H274.28C274.28 259.345 277.541 203.54 269.332 172.843Z" fill="#FFC100"/>
<path opacity="0.6" d="M274.28 259.345H224.228C224.228 256.107 224.228 252.617 223.998 248.944C223.562 240.357 222.586 230.84 221.404 221.633L221.059 218.947C220.256 212.966 219.395 207.18 218.556 201.899C216.26 187.721 214.229 177.297 214.229 177.297C237.751 171.362 269.333 172.843 269.333 172.843C277.529 203.552 274.28 259.345 274.28 259.345Z" fill="white"/>
<path opacity="0.2" d="M254.695 227.614C254.695 227.614 246.051 248.221 223.998 248.944C223.562 240.357 222.586 230.84 221.403 221.633L254.695 227.614Z" fill="black"/>
<path d="M232.665 174.921C237.257 179.042 248.312 177.515 248.312 177.515C248.312 177.515 255.2 175.621 253.788 173.451C249.701 172.774 247.727 170.868 246.9 168.435C246.446 166.922 246.305 165.332 246.487 163.762C246.551 162.891 246.666 162.025 246.831 161.168L233.055 150.996C234.904 157.701 237.108 170.053 232.665 174.921Z" fill="#EBB376"/>
<path opacity="0.2" d="M236.282 157.46C236.821 165.702 243.594 167.975 246.912 168.435C246.458 166.922 246.317 165.332 246.499 163.762L236.282 157.46Z" fill="black"/>
<path d="M256.349 129.632C256.349 129.632 260.183 142.031 254.179 147.92C248.175 153.809 244.639 130.195 244.639 130.195L256.349 129.632Z" fill="#263238"/>
<path d="M236.144 160.938C237.87 162.814 240.163 164.072 242.672 164.52C245.181 164.968 247.767 164.581 250.035 163.418C252.997 161.966 255.296 159.442 256.464 156.358C256.625 155.933 256.762 155.497 256.889 155.049C259.035 146.795 258.037 133.076 249.094 129.23C247.119 128.372 244.958 128.033 242.816 128.244C240.673 128.456 238.621 129.212 236.853 130.441C235.085 131.669 233.66 133.33 232.715 135.264C231.769 137.198 231.333 139.341 231.449 141.491C231.805 150.709 231.575 156.128 236.144 160.938Z" fill="#EBB376"/>
<path d="M245.386 144.35C245.317 145.096 245.753 145.716 246.247 145.727C246.74 145.739 247.142 145.13 247.165 144.384C247.188 143.638 246.786 143.018 246.304 143.006C245.822 142.995 245.409 143.592 245.386 144.35Z" fill="#263238"/>
<path d="M253.869 144.522C253.8 145.268 254.248 145.888 254.73 145.899C255.212 145.911 255.625 145.302 255.648 144.556C255.671 143.81 255.269 143.19 254.787 143.179C254.305 143.167 253.892 143.81 253.869 144.522Z" fill="#263238"/>
<path d="M251.171 144.832C252.01 147.148 253.169 149.335 254.615 151.329C254.09 151.686 253.493 151.924 252.867 152.028C252.24 152.131 251.599 152.096 250.987 151.926L251.171 144.832Z" fill="#D58745"/>
<path d="M242.802 141.548C242.883 141.562 242.965 141.554 243.042 141.526C243.118 141.498 243.186 141.45 243.239 141.388C243.571 140.947 244.001 140.589 244.495 140.342C244.989 140.095 245.533 139.966 246.086 139.964C246.143 139.971 246.201 139.965 246.256 139.949C246.312 139.933 246.363 139.906 246.408 139.87C246.453 139.833 246.49 139.789 246.518 139.738C246.545 139.687 246.562 139.631 246.568 139.574C246.577 139.457 246.541 139.341 246.465 139.251C246.39 139.16 246.283 139.103 246.166 139.092C245.468 139.074 244.775 139.223 244.146 139.526C243.517 139.83 242.97 140.279 242.55 140.837C242.477 140.927 242.442 141.043 242.453 141.158C242.464 141.274 242.519 141.381 242.607 141.457C242.666 141.5 242.732 141.531 242.802 141.548Z" fill="#263238"/>
<path d="M257.577 141.663C257.659 141.691 257.748 141.691 257.829 141.663C257.937 141.615 258.021 141.527 258.064 141.418C258.107 141.308 258.105 141.186 258.059 141.078C257.777 140.436 257.345 139.87 256.8 139.429C256.255 138.987 255.612 138.683 254.925 138.541C254.811 138.524 254.695 138.554 254.602 138.623C254.51 138.691 254.448 138.794 254.431 138.908C254.42 139.023 254.452 139.137 254.519 139.23C254.587 139.323 254.686 139.388 254.799 139.413C255.339 139.537 255.841 139.787 256.266 140.142C256.691 140.497 257.026 140.947 257.244 141.457C257.277 141.517 257.325 141.567 257.384 141.603C257.442 141.639 257.508 141.66 257.577 141.663Z" fill="#263238"/>
<path d="M238.44 130.126L239.048 134.178C238.372 134.527 237.851 135.117 237.589 135.831C237.327 136.546 237.344 137.333 237.636 138.036C239.037 141.411 237.246 146.76 234.686 148.953C234.686 148.953 234.56 147.472 233.32 147.862C232.08 148.253 232.642 155.898 235.179 159.549C231.937 156.204 229.619 152.074 228.452 147.564C226.328 140.136 226.547 134.626 228.004 131.687L238.44 130.126Z" fill="#263238"/>
<path d="M227.305 148.964C227.781 150.019 228.463 150.969 229.311 151.757C230.158 152.546 231.154 153.157 232.241 153.556C235.134 154.601 236.833 152.053 236.19 149.206C235.616 146.68 233.446 143.006 230.45 143.224C227.454 143.443 226.157 146.37 227.305 148.964Z" fill="#EBB376"/>
<path d="M251.688 154.188C251.302 155.254 250.999 156.347 250.781 157.46H250.184C247.475 157.333 246.258 156.381 245.73 155.359C245.481 154.856 245.359 154.301 245.374 153.74C245.372 153.426 245.414 153.113 245.5 152.81C247.138 153.624 248.93 154.081 250.758 154.153L251.688 154.188Z" fill="#263238"/>
<path d="M250.758 154.131L250.471 155.083C247.923 154.957 246.143 154.532 245.374 153.717C245.372 153.403 245.415 153.09 245.5 152.787C247.139 153.601 248.93 154.059 250.758 154.131Z" fill="white"/>
<path d="M250.184 157.437C247.474 157.31 246.258 156.358 245.729 155.336C246.76 155.403 247.771 155.651 248.714 156.071C249.334 156.362 249.848 156.84 250.184 157.437Z" fill="#DE5753"/>
<path d="M241.252 131.515C241.252 131.515 241.861 136.359 235.811 138.862C229.761 141.365 227.557 143.454 227.557 143.454C227.557 143.454 223.47 131.572 230.886 127.187C230.886 127.187 231.035 124.891 237.395 122.721C243.755 120.552 252.87 121.573 257.003 129.23C260.102 134.97 257.232 139.069 257.232 139.069C257.232 139.069 256.624 135.74 250.723 134.982C247.351 134.531 244.118 133.348 241.252 131.515Z" fill="#263238"/>
<path d="M252.836 176.849L251.504 183.382C251.504 183.382 259.115 215.112 260.688 231.598L257.922 234.376L253.559 231.598C253.559 231.598 253.169 198.076 249.323 184.002L242.435 178.353L247.865 176.597L252.836 176.849Z" fill="#263238"/>
<path d="M234.193 168.756L247.395 174.703L248.164 169.927L253.008 171.638C253.856 171.935 254.578 172.509 255.059 173.267C255.541 174.025 255.752 174.923 255.66 175.816L255.109 181.051L248.416 177.389L245.076 182.107L229.233 174.473L234.193 168.756Z" fill="#FFC100"/>
<path opacity="0.7" d="M234.193 168.756L247.395 174.703L248.164 169.927L253.008 171.638C253.856 171.935 254.578 172.509 255.059 173.267C255.541 174.025 255.752 174.923 255.66 175.816L255.109 181.051L248.416 177.389L245.076 182.107L229.233 174.473L234.193 168.756Z" fill="white"/>
<path d="M269.229 219.268L285.118 216.318C285.118 216.318 288.068 213.367 289.434 213.367C290.8 213.367 308.514 218.809 308.514 218.809C308.514 218.809 303.738 223.584 301.465 224.491C299.192 225.398 288.757 223.125 288.757 223.125L273.316 227.212L269.229 219.268Z" fill="#EBB376"/>
<path d="M214.228 177.297C221.484 174.657 232.206 217.615 234.479 221.025C236.752 224.434 279.446 216.019 279.446 216.019L282.89 226.018C282.89 226.018 246.786 238.509 231.804 236.017C216.823 233.526 213.436 211.714 209.774 198.776C206.112 185.838 208.936 179.203 214.228 177.297Z" fill="#FFC100"/>
<path opacity="0.7" d="M214.228 177.297C221.484 174.657 232.206 217.615 234.479 221.025C236.752 224.434 279.446 216.019 279.446 216.019L282.89 226.018C282.89 226.018 246.786 238.509 231.804 236.017C216.823 233.526 213.436 211.714 209.774 198.776C206.112 185.838 208.936 179.203 214.228 177.297Z" fill="white"/>
<path d="M328.926 177.263C329.253 176.545 329.729 175.906 330.323 175.387C330.917 174.869 331.615 174.483 332.37 174.255C333.76 173.844 335.243 173.872 336.617 174.335C338.001 174.785 339.206 175.661 340.061 176.838C340.281 177.127 340.469 177.439 340.624 177.768C340.787 178.091 340.918 178.429 341.014 178.778L341.163 179.283L341.232 179.765L341.358 180.73C341.574 183.349 340.749 185.947 339.062 187.962C337.466 189.861 335.388 191.297 333.047 192.118C330.812 192.917 328.451 193.306 326.079 193.266C324.926 193.266 323.775 193.182 322.635 193.013C321.595 192.807 320.538 192.7 319.478 192.692C318.534 192.681 317.613 192.984 316.86 193.553C316.526 193.779 316.272 194.105 316.133 194.484C315.995 194.864 315.98 195.277 316.091 195.665C316.232 196.016 316.497 196.303 316.835 196.472C317.174 196.641 317.562 196.681 317.928 196.584C318.141 196.502 318.327 196.365 318.468 196.186C318.609 196.007 318.699 195.793 318.729 195.567C318.758 195.341 318.726 195.111 318.636 194.902C318.545 194.693 318.4 194.513 318.215 194.379C318.527 194.451 318.807 194.621 319.014 194.866C319.221 195.11 319.344 195.414 319.363 195.734C319.383 196.095 319.307 196.454 319.141 196.775C318.976 197.096 318.727 197.367 318.421 197.559C318.102 197.756 317.739 197.871 317.365 197.895C316.991 197.919 316.617 197.851 316.275 197.697C315.584 197.425 315.028 196.894 314.725 196.216C314.47 195.543 314.432 194.806 314.617 194.11C314.803 193.414 315.202 192.793 315.758 192.336C316.754 191.487 317.999 190.984 319.305 190.901C320.479 190.846 321.655 190.9 322.818 191.062C323.883 191.167 324.954 191.186 326.021 191.119C328.125 191.033 330.197 190.575 332.14 189.764C334.015 189.025 335.662 187.806 336.916 186.229C338.115 184.632 338.643 182.63 338.385 180.649C338.327 180.13 338.166 179.628 337.911 179.173C337.656 178.717 337.313 178.317 336.901 177.996C336.489 177.675 336.017 177.44 335.513 177.304C335.009 177.168 334.483 177.135 333.965 177.205C331.807 177.584 330.234 179.501 329.281 181.338L328.926 177.263Z" fill="#FFC100"/>
<path d="M299.101 167.103C299.279 166.328 299.289 165.524 299.129 164.745C298.968 163.967 298.641 163.232 298.171 162.591C297.315 161.41 296.11 160.527 294.727 160.066C293.356 159.574 291.865 159.53 290.468 159.939C290.116 160.032 289.777 160.167 289.457 160.341C289.131 160.488 288.822 160.673 288.539 160.892L288.103 161.202L287.747 161.547L287.058 162.224C285.294 164.172 284.369 166.738 284.486 169.364C284.592 171.843 285.357 174.249 286.702 176.333C287.976 178.341 289.602 180.102 291.501 181.533C292.42 182.248 293.395 182.89 294.417 183.45C295.361 183.934 296.263 184.494 297.114 185.126C297.86 185.71 298.402 186.513 298.664 187.422C298.786 187.808 298.785 188.221 298.661 188.605C298.538 188.99 298.298 189.327 297.975 189.569C297.65 189.759 297.267 189.825 296.897 189.753C296.528 189.681 296.197 189.477 295.966 189.179C295.848 188.982 295.785 188.756 295.785 188.526C295.785 188.295 295.846 188.069 295.964 187.872C296.082 187.674 296.251 187.512 296.454 187.402C296.656 187.293 296.884 187.24 297.114 187.25C296.823 187.105 296.492 187.061 296.172 187.123C295.853 187.185 295.562 187.351 295.347 187.595C295.106 187.865 294.944 188.197 294.877 188.552C294.811 188.908 294.842 189.276 294.968 189.615C295.1 189.967 295.317 190.28 295.6 190.529C295.882 190.777 296.221 190.952 296.586 191.039C297.3 191.242 298.064 191.164 298.722 190.821C299.336 190.442 299.815 189.881 300.094 189.216C300.372 188.551 300.434 187.815 300.271 187.113C300.007 185.83 299.329 184.668 298.343 183.806C297.444 183.049 296.48 182.372 295.461 181.786C294.557 181.217 293.697 180.58 292.89 179.88C291.277 178.526 289.917 176.898 288.872 175.07C287.831 173.335 287.272 171.353 287.253 169.33C287.275 167.336 288.074 165.429 289.48 164.015C289.846 163.639 290.283 163.341 290.766 163.137C291.25 162.933 291.769 162.828 292.293 162.828C292.817 162.828 293.336 162.933 293.819 163.137C294.302 163.341 294.74 163.639 295.105 164.015C296.575 165.633 296.655 168.113 296.253 170.145L299.101 167.103Z" fill="#FFC100"/>
<g opacity="0.2">
<path opacity="0.2" d="M328.926 177.263C329.253 176.545 329.729 175.906 330.323 175.387C330.917 174.869 331.615 174.483 332.37 174.255C333.76 173.844 335.243 173.872 336.617 174.335C338.001 174.785 339.206 175.661 340.061 176.838C340.281 177.127 340.469 177.439 340.624 177.768C340.787 178.091 340.918 178.429 341.014 178.778L341.163 179.283L341.232 179.765L341.358 180.73C341.574 183.349 340.749 185.947 339.062 187.962C337.466 189.861 335.388 191.297 333.047 192.118C330.812 192.917 328.451 193.306 326.079 193.266C324.926 193.266 323.775 193.182 322.635 193.013C321.595 192.807 320.538 192.7 319.478 192.692C318.534 192.681 317.613 192.984 316.86 193.553C316.526 193.779 316.272 194.105 316.133 194.484C315.995 194.864 315.98 195.277 316.091 195.665C316.232 196.016 316.497 196.303 316.835 196.472C317.174 196.641 317.562 196.681 317.928 196.584C318.141 196.502 318.327 196.365 318.468 196.186C318.609 196.007 318.699 195.793 318.729 195.567C318.758 195.341 318.726 195.111 318.636 194.902C318.545 194.693 318.4 194.513 318.215 194.379C318.527 194.451 318.807 194.621 319.014 194.866C319.221 195.11 319.344 195.414 319.363 195.734C319.383 196.095 319.307 196.454 319.141 196.775C318.976 197.096 318.727 197.367 318.421 197.559C318.102 197.756 317.739 197.871 317.365 197.895C316.991 197.919 316.617 197.851 316.275 197.697C315.584 197.425 315.028 196.894 314.725 196.216C314.47 195.543 314.432 194.806 314.617 194.11C314.803 193.414 315.202 192.793 315.758 192.336C316.754 191.487 317.999 190.984 319.305 190.901C320.479 190.846 321.655 190.9 322.818 191.062C323.883 191.167 324.954 191.186 326.021 191.119C328.125 191.033 330.197 190.575 332.14 189.764C334.015 189.025 335.662 187.806 336.916 186.229C338.115 184.632 338.643 182.63 338.385 180.649C338.327 180.13 338.166 179.628 337.911 179.173C337.656 178.717 337.313 178.317 336.901 177.996C336.489 177.675 336.017 177.44 335.513 177.304C335.009 177.168 334.483 177.135 333.965 177.205C331.807 177.584 330.234 179.501 329.281 181.338L328.926 177.263Z" fill="black"/>
<path opacity="0.2" d="M299.101 167.103C299.279 166.328 299.289 165.524 299.129 164.745C298.968 163.967 298.641 163.232 298.171 162.591C297.315 161.41 296.11 160.527 294.727 160.066C293.356 159.574 291.865 159.53 290.468 159.939C290.116 160.032 289.777 160.167 289.457 160.341C289.131 160.488 288.822 160.673 288.539 160.892L288.103 161.202L287.747 161.547L287.058 162.224C285.294 164.172 284.369 166.738 284.486 169.364C284.592 171.843 285.357 174.249 286.702 176.333C287.976 178.341 289.602 180.102 291.501 181.533C292.42 182.248 293.395 182.89 294.417 183.45C295.361 183.934 296.263 184.494 297.114 185.126C297.86 185.71 298.402 186.513 298.664 187.422C298.786 187.808 298.785 188.221 298.661 188.605C298.538 188.99 298.298 189.327 297.975 189.569C297.65 189.759 297.267 189.825 296.897 189.753C296.528 189.681 296.197 189.477 295.966 189.179C295.848 188.982 295.785 188.756 295.785 188.526C295.785 188.295 295.846 188.069 295.964 187.872C296.082 187.674 296.251 187.512 296.454 187.402C296.656 187.293 296.884 187.24 297.114 187.25C296.823 187.105 296.492 187.061 296.172 187.123C295.853 187.185 295.562 187.351 295.347 187.595C295.106 187.865 294.944 188.197 294.877 188.552C294.811 188.908 294.842 189.276 294.968 189.615C295.1 189.967 295.317 190.28 295.6 190.529C295.882 190.777 296.221 190.952 296.586 191.039C297.3 191.242 298.064 191.164 298.722 190.821C299.336 190.442 299.815 189.881 300.094 189.216C300.372 188.551 300.434 187.815 300.271 187.113C300.007 185.83 299.329 184.668 298.343 183.806C297.444 183.049 296.48 182.372 295.461 181.786C294.557 181.217 293.697 180.58 292.89 179.88C291.277 178.526 289.917 176.898 288.872 175.07C287.831 173.335 287.272 171.353 287.253 169.33C287.275 167.336 288.074 165.429 289.48 164.015C289.846 163.639 290.283 163.341 290.766 163.137C291.25 162.933 291.769 162.828 292.293 162.828C292.817 162.828 293.336 162.933 293.819 163.137C294.302 163.341 294.74 163.639 295.105 164.015C296.575 165.633 296.655 168.113 296.253 170.145L299.101 167.103Z" fill="black"/>
</g>
<path d="M312.256 193.897C319.385 193.105 326.48 187.698 330.429 179.387L332.243 175.564L297.47 163.705L296.575 167.838C294.635 176.838 296.954 185.436 302.108 190.419C302.783 191.086 303.259 191.928 303.484 192.85C303.709 193.772 303.674 194.739 303.382 195.642L300.926 203.334C300.64 204.244 300.036 205.021 299.225 205.523C298.413 206.025 297.448 206.217 296.506 206.066C294.787 205.772 293.019 206.115 291.535 207.03L289.721 208.178L311.269 215.526L310.546 213.505C309.927 211.873 308.735 210.523 307.194 209.705C306.354 209.253 305.706 208.512 305.369 207.62C305.031 206.728 305.027 205.744 305.357 204.849L308.112 197.249C308.427 196.363 308.981 195.581 309.712 194.99C310.444 194.398 311.324 194.02 312.256 193.897Z" fill="#FFC100"/>
<path d="M289.204 205.997L313.013 214.102L311.28 222.15L285.668 213.425L289.204 205.997Z" fill="#263238"/>
<path opacity="0.2" d="M294.634 207.845L307.584 212.254L305.85 220.29L291.11 215.273L294.634 207.845Z" fill="white"/>
<path d="M304.217 213.646L296.48 211.01L295.455 214.021L303.192 216.656L304.217 213.646Z" fill="white"/>
<path opacity="0.3" d="M303.359 189.879C303.994 190.646 304.419 191.564 304.592 192.544C304.765 193.524 304.681 194.532 304.346 195.47L301.396 204.16C300.811 205.859 300.099 206.342 298.055 206.456C296.856 206.433 295.67 206.718 294.611 207.283L298.228 208.523C298.652 208.344 299.101 208.231 299.559 208.19H300.145C300.536 208.163 300.91 208.021 301.22 207.782C301.531 207.543 301.764 207.218 301.89 206.847L306.7 192.726C306.872 192.225 306.927 191.691 306.859 191.165C306.791 190.64 306.603 190.137 306.309 189.696L305.701 188.766C303.146 184.872 302.203 180.139 303.072 175.564L304.576 167.183L299.353 165.404L298.205 175.104C297.539 179.754 299.628 185.896 303.359 189.879Z" fill="white"/>
<path d="M242.871 207.306L238.83 206.192L234.927 208.052L234.054 198.822L242.01 198.076L242.871 207.306Z" fill="#FFC100"/>
<path opacity="0.2" d="M242.871 207.306L238.83 206.192L234.927 208.052L234.054 198.822L242.01 198.076L242.871 207.306Z" fill="white"/>
<path d="M237.337 190.798L238.175 191.245L239.048 190.855L239.748 191.498L240.701 191.337L241.218 192.129L242.17 192.21L242.48 193.117L243.387 193.427L243.456 194.379L244.26 194.896L244.088 195.837L244.73 196.549L244.34 197.422L244.788 198.26L244.191 199.006L244.409 199.936L243.64 200.51L243.628 201.463L242.744 201.83L242.492 202.748L241.551 202.875L241.08 203.713L240.127 203.598L239.461 204.287L238.566 203.954L237.751 204.447L236.97 203.896L236.063 204.183L235.443 203.449L234.49 203.495L234.066 202.634L233.136 202.45L232.941 201.509L232.08 201.095L232.125 200.131L231.402 199.511L231.689 198.604L231.138 197.824L231.632 197.008L231.299 196.113L231.988 195.447L231.884 194.506L232.711 194.024L232.849 193.082L233.767 192.83L234.134 191.946L235.087 191.934L235.661 191.177L236.591 191.395L237.337 190.798Z" fill="#FFC100"/>
<path opacity="0.4" d="M239.429 203.178C242.513 202.364 244.352 199.205 243.538 196.121C242.724 193.038 239.565 191.198 236.481 192.012C233.398 192.826 231.558 195.986 232.372 199.069C233.186 202.153 236.346 203.993 239.429 203.178Z" fill="white"/>
<path d="M238.13 197.146L238.061 198.179L238.888 198.111V198.937L238.038 199.006L237.958 200.303L237.143 200.384L237.235 199.086L236.534 199.155L236.443 200.441L235.639 200.521L235.719 199.224L234.927 199.304V198.478L235.731 198.398L235.811 197.364L235.008 197.445V196.618L235.811 196.538L235.915 195.057L236.718 194.988L236.615 196.457H237.315L237.418 194.976L238.233 194.896L238.13 196.377L238.968 196.297V197.123L238.13 197.146ZM237.315 197.227H236.615L236.546 198.271L237.246 198.202L237.315 197.227Z" fill="#FFC100"/>
<path d="M240.632 200.05L240.254 195.906L239.565 195.975L239.507 195.413C239.703 195.365 239.885 195.271 240.035 195.137C240.199 195.013 240.32 194.84 240.38 194.643H240.942L241.447 200.016L240.632 200.05Z" fill="#FFC100"/>
<path d="M96.178 285.327L98.5041 281.596L105.629 280.121L109.072 282.657L96.178 285.327ZM92.3799 271.342L96.1165 273.697L97.5799 280.764L95.0498 284.236L92.3799 271.342ZM95.9411 271.688C95.1565 271.289 94.3643 270.901 93.5645 270.525L95.296 268.572L103.171 266.942L105.507 268.052L103.816 270.057L95.9411 271.688ZM90.0807 256.025L102.975 253.355L100.764 257.061L93.6969 258.525L90.0807 256.025ZM104.097 254.416L106.767 267.31L103.072 265.157L101.597 258.032L104.097 254.416Z" fill="#FFECB2"/>
<path d="M129.029 276.811L125.299 274.485L123.829 267.389L126.359 263.917L129.029 276.811ZM115.238 267.302C114.453 266.903 113.661 266.516 112.861 266.14L114.593 264.187L122.468 262.556L124.804 263.667L123.113 265.672L115.238 267.302ZM111.381 265.965L108.711 253.071L112.406 255.224L113.887 262.378L111.381 265.965ZM123.394 250.031L126.064 262.925L122.369 260.772L120.894 253.647L123.394 250.031Z" fill="#FFECB2"/>
</g>
<defs>
<clipPath id="clip0">
<rect width="574" height="574" fill="white"/>
</clipPath>
</defs>
</svg>
