<svg width="920" height="920" viewBox="0 0 920 920" fill="none" xmlns="http://www.w3.org/2000/svg">
<path d="M755.56 218.813C730.112 176.493 672.392 130.493 623.484 165.931C614.244 172.754 606.69 181.604 601.404 191.802C581.753 228.344 581.716 276.295 547.547 304.189C516.451 329.563 471.629 332.893 433.173 328.698C376.851 322.552 320.271 302.938 264.077 320.565C249.655 325.058 236.004 331.729 223.597 340.345C163.392 382.15 136.859 465.87 160.614 535.072C192.722 628.599 304.815 662.603 393.429 672.023C472.899 680.469 555.349 666.503 625.361 627.863C695.373 589.223 752.119 525.615 777.86 449.935C803.602 374.256 796.812 287.261 755.56 218.813Z" fill="#FFC100"/>
<path opacity="0.9" d="M755.56 218.813C730.112 176.493 672.392 130.493 623.484 165.931C614.244 172.754 606.69 181.604 601.404 191.802C581.753 228.344 581.716 276.295 547.547 304.189C516.451 329.563 471.629 332.893 433.173 328.698C376.851 322.552 320.271 302.938 264.077 320.565C249.655 325.058 236.004 331.729 223.597 340.345C163.392 382.15 136.859 465.87 160.614 535.072C192.722 628.599 304.815 662.603 393.429 672.023C472.899 680.469 555.349 666.503 625.361 627.863C695.373 589.223 752.119 525.615 777.86 449.935C803.602 374.256 796.812 287.261 755.56 218.813Z" fill="white"/>
<path d="M460 786.71C657.032 786.71 816.758 777.385 816.758 765.881C816.758 754.378 657.032 745.053 460 745.053C262.968 745.053 103.243 754.378 103.243 765.881C103.243 777.385 262.968 786.71 460 786.71Z" fill="#F5F5F5"/>
<path d="M185.714 455.246L176.053 456.929L221.137 715.784L230.799 714.101L185.714 455.246Z" fill="#263238"/>
<path opacity="0.2" d="M185.714 455.246L176.053 456.929L221.137 715.784L230.799 714.101L185.714 455.246Z" fill="white"/>
<path d="M224.018 449.676C236.626 422.736 225.008 390.676 198.068 378.068C171.128 365.46 139.068 377.078 126.46 404.018C113.852 430.958 125.47 463.018 152.41 475.626C179.35 488.234 211.41 476.616 224.018 449.676Z" fill="#FFC100"/>
<path opacity="0.6" d="M224.018 449.676C236.626 422.736 225.008 390.676 198.068 378.068C171.128 365.46 139.068 377.078 126.46 404.018C113.852 430.958 125.47 463.018 152.41 475.626C179.35 488.234 211.41 476.616 224.018 449.676Z" fill="white"/>
<path d="M215.294 456.446C231.638 434.319 226.949 403.132 204.822 386.789C182.694 370.445 151.508 375.134 135.164 397.261C118.821 419.388 123.509 450.575 145.637 466.919C167.764 483.262 198.951 478.573 215.294 456.446Z" fill="#FFC100"/>
<path d="M359.775 620.356L355.598 609.316C299.735 611.892 293.479 590.916 292.891 584.145C291.842 571.725 303.066 560.409 317.933 558.919C338.412 556.821 352.065 575.166 359.02 587.255C369.563 574.559 389.969 564.071 405.351 564.071C417.127 564.071 425.499 569.591 428.296 580.815C430.541 589.812 427.358 595.387 424.285 598.847C411.295 613.567 373.814 610.659 362.553 609.5L359.775 620.356ZM366.399 598.092C383.363 599.583 408.038 598.479 414.975 590.732C416.079 589.481 417.219 588.193 416.226 584.2C414.809 578.515 411.442 576.638 405.351 576.638C391.735 576.564 372.599 588.156 366.399 598.092ZM321.098 571.247C320.483 571.251 319.869 571.288 319.258 571.357C310.831 572.203 304.979 578.275 305.384 583.151C305.863 588.671 316.148 597.963 350.685 597.099C346.343 588.487 335.965 571.247 321.098 571.247Z" fill="#263238"/>
<path d="M479.816 602.839H237.323V769.415H479.816V602.839Z" fill="#FFC100"/>
<path opacity="0.2" d="M479.816 602.839H237.323V769.415H479.816V602.839Z" fill="white"/>
<path opacity="0.2" d="M479.816 660.395H237.323V769.415H479.816V660.395Z" fill="black"/>
<path d="M418.637 602.839H398.93V769.415H418.637V602.839Z" fill="#263238"/>
<path d="M285.825 602.839H271.363V769.415H285.825V602.839Z" fill="#263238"/>
<path opacity="0.2" d="M333.665 602.839H237.323V769.415H333.665V602.839Z" fill="black"/>
<path d="M211.765 661.259C204.129 662.05 178.792 663.982 169.997 654.065C168.517 652.443 167.488 650.461 167.013 648.317C166.538 646.173 166.635 643.942 167.292 641.847C169.132 634.266 174.836 630.495 182.803 630.495C193.218 630.495 207.018 637.615 214.083 646.208C218.794 638.02 228.012 625.619 241.867 627.035C251.932 628.047 259.531 635.702 258.814 644.11C258.427 648.637 254.177 662.878 216.383 661.13L213.568 668.582L211.765 661.259ZM182.822 638.793C178.7 638.793 176.437 640.136 175.462 643.982C175.147 644.725 175.06 645.544 175.211 646.336C175.361 647.129 175.743 647.859 176.308 648.434C181 653.734 197.689 654.433 209.189 653.421C204.975 646.686 192.022 638.793 182.822 638.793ZM219.843 652.832C243.211 653.421 250.184 647.11 250.497 643.393C250.773 640.099 246.817 636.033 241.113 635.426C240.678 635.399 240.242 635.399 239.807 635.426C229.76 635.352 222.731 647.018 219.843 652.832Z" fill="#FFC100"/>
<path d="M132.443 769.415H296.497V656.715H132.443V769.415Z" fill="#FFC100"/>
<path opacity="0.6" d="M132.443 769.415H296.497V656.715H132.443V769.415Z" fill="white"/>
<path opacity="0.1" d="M132.443 769.415H296.497V695.649H132.443V769.415Z" fill="black"/>
<path opacity="0.2" d="M231.288 769.415H296.479V656.715H231.288V769.415Z" fill="white"/>
<path d="M173.825 769.415H187.146V656.715H173.825V769.415Z" fill="#FFC100"/>
<path d="M263.672 769.415H273.461V656.715H263.672V769.415Z" fill="#FFC100"/>
<path d="M710.756 630.789C710.756 630.789 723.636 620.043 734.676 630.789C745.716 641.535 747.869 708.069 747.869 708.069" stroke="#FFC100" stroke-miterlimit="10"/>
<path d="M748.88 721.004C748.88 721.004 741.281 642.841 769.893 609.997" stroke="#FFC100" stroke-miterlimit="10"/>
<path d="M746.083 712.761C746.083 712.761 751.934 623.76 730.48 604.035" stroke="#FFC100" stroke-miterlimit="10"/>
<path d="M748.88 712.761C748.88 712.761 749.377 653.881 765.33 644.828C781.282 635.775 789.36 665.491 789.36 665.491" stroke="#FFC100" stroke-miterlimit="10"/>
<path d="M742.495 712.761C742.495 712.761 745.108 667.626 732.743 651.489C720.379 635.352 707.388 658.407 707.388 658.407" stroke="#FFC100" stroke-miterlimit="10"/>
<path d="M746.82 718.814C746.82 718.814 738.816 613.235 752.045 595.35" stroke="#FFC100" stroke-miterlimit="10"/>
<path d="M778.909 653.384C778.909 653.384 770.96 656.328 773.389 663.246C775.818 670.165 800.989 681.646 800.989 681.646C800.989 681.646 811.514 671.986 801.854 656.291C792.194 640.596 779.13 648.434 778.909 653.384Z" fill="#FFC100"/>
<path opacity="0.2" d="M778.909 653.384C778.909 653.384 770.96 656.328 773.389 663.246C775.818 670.165 800.989 681.646 800.989 681.646C800.989 681.646 811.514 671.986 801.854 656.291C792.194 640.596 779.13 648.434 778.909 653.384Z" fill="white"/>
<path d="M744.336 640.21C744.336 640.21 752.8 639.86 753.296 647.165C753.793 654.47 734.897 674.654 734.897 674.654C734.897 674.654 721.465 669.797 724.353 651.581C727.242 633.365 742.238 635.72 744.336 640.21Z" fill="#FFC100"/>
<path opacity="0.2" d="M744.336 640.21C744.336 640.21 752.8 639.86 753.296 647.165C753.793 654.47 734.897 674.654 734.897 674.654C734.897 674.654 721.465 669.797 724.353 651.581C727.242 633.365 742.238 635.72 744.336 640.21Z" fill="white"/>
<path d="M737.159 605.36C737.159 605.36 742.808 604.753 742.366 601.312C741.925 597.871 720.415 589.021 707.719 603.336C707.719 603.336 715.852 617.283 727.591 617.467C739.33 617.651 737.159 605.36 737.159 605.36Z" fill="#FFC100"/>
<path opacity="0.2" d="M737.159 605.36C737.159 605.36 742.808 604.753 742.366 601.312C741.925 597.871 720.415 589.021 707.719 603.336C707.719 603.336 715.852 617.283 727.591 617.467C739.33 617.651 737.159 605.36 737.159 605.36Z" fill="white"/>
<path d="M747.685 596.914C747.685 596.914 742.569 599.398 741.153 596.234C739.736 593.069 753.278 574.154 771.605 579.674C771.605 579.674 772.083 595.81 762.221 602.158C752.358 608.506 747.685 596.914 747.685 596.914Z" fill="#FFC100"/>
<path opacity="0.2" d="M747.685 596.914C747.685 596.914 742.569 599.398 741.153 596.234C739.736 593.069 753.278 574.154 771.605 579.674C771.605 579.674 772.083 595.81 762.221 602.158C752.358 608.506 747.685 596.914 747.685 596.914Z" fill="white"/>
<path d="M720.949 650.606C720.949 650.606 724.85 647.459 720.655 645.932C716.459 644.405 695.815 644.828 695.594 665.271C695.594 665.271 719.624 669.263 722.605 661.48C725.586 653.697 720.949 650.606 720.949 650.606Z" fill="#FFC100"/>
<path opacity="0.2" d="M720.949 650.606C720.949 650.606 724.85 647.459 720.655 645.932C716.459 644.405 695.815 644.828 695.594 665.271C695.594 665.271 719.624 669.263 722.605 661.48C725.586 653.697 720.949 650.606 720.949 650.606Z" fill="white"/>
<path d="M769.966 604.753C769.966 604.753 766.065 601.606 770.279 600.079C774.492 598.552 795.119 598.975 795.321 619.418C795.321 619.418 771.291 623.41 768.328 615.627C765.366 607.844 769.966 604.753 769.966 604.753Z" fill="#FFC100"/>
<path opacity="0.2" d="M769.966 604.753C769.966 604.753 766.065 601.606 770.279 600.079C774.492 598.552 795.119 598.975 795.321 619.418C795.321 619.418 771.291 623.41 768.328 615.627C765.366 607.844 769.966 604.753 769.966 604.753Z" fill="white"/>
<path d="M757.252 621.221C757.252 621.221 756.92 617.394 760.012 618.902C763.103 620.411 773.848 632.003 762.698 643.025C762.698 643.025 747.684 631.893 750.389 626.115C753.093 620.338 757.252 621.221 757.252 621.221Z" fill="#FFC100"/>
<path opacity="0.2" d="M757.252 621.221C757.252 621.221 756.92 617.394 760.012 618.902C763.103 620.411 773.848 632.003 762.698 643.025C762.698 643.025 747.684 631.893 750.389 626.115C753.093 620.338 757.252 621.221 757.252 621.221Z" fill="white"/>
<path d="M717.472 626.686C717.472 626.686 719.808 623.631 716.386 623.245C712.964 622.858 697.691 626.925 701.243 642.215C701.243 642.215 719.882 640.817 720.673 634.469C721.464 628.121 717.472 626.686 717.472 626.686Z" fill="#FFC100"/>
<path opacity="0.2" d="M717.472 626.686C717.472 626.686 719.808 623.631 716.386 623.245C712.964 622.858 697.691 626.925 701.243 642.215C701.243 642.215 719.882 640.817 720.673 634.469C721.464 628.121 717.472 626.686 717.472 626.686Z" fill="white"/>
<path d="M780.4 769.433H716.497L709.597 699.458H787.3L780.4 769.433Z" fill="#FFC100"/>
<path opacity="0.5" d="M780.4 769.433H716.497L709.597 699.458H787.3L780.4 769.433Z" fill="white"/>
<path d="M790.703 691.729H706.174V707.167H790.703V691.729Z" fill="#FFC100"/>
<path opacity="0.2" d="M790.703 691.729H706.174V707.167H790.703V691.729Z" fill="white"/>
<path d="M664.774 256.717C664.774 256.717 660.027 245.806 644.755 245.806C629.483 245.806 616.731 254.895 617.449 266.542C618.167 278.19 609.445 277.104 607.991 288.383C606.538 299.662 611.984 302.57 612.352 307.317C612.72 312.064 606.538 310.592 602.527 318.596C598.515 326.6 593.437 337.879 610.531 352.802C627.624 367.724 676.053 365.185 686.596 356.077C697.139 346.969 696.79 329.507 686.596 324.797C676.403 320.086 685.879 320.786 686.964 310.242C688.05 299.699 678.592 295.688 679.328 287.316C680.064 278.944 682.64 257.453 664.774 256.717Z" fill="#263238"/>
<path d="M575.921 409.547L560.851 401.322C560.851 401.322 556.583 390.282 554.319 389.105C552.056 387.927 535.68 388.24 533.601 388.24C531.522 388.24 532.092 403.567 533.086 406.125C534.079 408.682 552.166 409.529 553.933 409.805L572.333 423.145L575.921 409.547Z" fill="#B97964"/>
<path d="M601.257 327.152C589.904 327.152 580.685 407.155 580.685 407.155L565.156 401.322L555.459 415.398C555.459 415.398 572.921 437.718 589.904 434.81C606.887 431.903 615.664 344.43 615.664 344.43L601.257 327.152Z" fill="#FFC100"/>
<path opacity="0.2" d="M615.627 344.43C615.627 344.43 615.406 346.711 614.946 350.575C612.591 370.521 604.164 432.382 589.904 434.811C588.55 435.049 587.172 435.123 585.801 435.031C570.216 434.277 555.459 415.399 555.459 415.399L565.156 401.341L580.685 407.155C580.685 407.155 589.885 327.079 601.257 327.152L615.627 344.43Z" fill="white"/>
<path opacity="0.2" d="M614.947 350.575C612.592 370.521 604.165 432.382 589.905 434.811C588.551 435.049 587.173 435.123 585.801 435.031C585.433 383.659 601.073 338.247 601.073 338.247L614.947 350.575Z" fill="black"/>
<path d="M609.574 445.427C609.574 445.427 589.628 551.706 584.31 595.35C577.355 652.28 548.927 735.558 548.927 735.558L560.298 738.502C560.298 738.502 600.374 667.718 608.139 604.054C639.971 538.973 642.547 458.822 642.547 458.822L609.574 445.427Z" fill="#B97964"/>
<path d="M527.767 761.319C529.609 760.499 531.586 760.024 533.6 759.92C533.6 759.92 540.592 755.799 547.51 739.827H555.312C556.627 739.846 557.905 740.266 558.974 741.033C560.044 741.799 560.852 742.875 561.292 744.115C561.42 744.463 561.494 744.829 561.513 745.2C561.439 747.083 561.236 748.958 560.906 750.812C559.764 757.032 558.247 763.176 556.361 769.212L555.036 768.863L557.446 757.252C558.238 753.296 554.079 757.105 552.165 761.098C550.252 765.091 547.289 769.083 538.678 767.115C528.669 764.575 524.621 763.122 527.767 761.319Z" fill="#263238"/>
<path d="M630.274 443.735C630.274 443.735 632.758 551.835 636.567 595.627C641.553 652.777 631.047 740.14 631.047 740.14L642.786 740.655C642.786 740.655 667.35 663.118 661.83 599.215C679.512 528.945 665.51 450.009 665.51 450.009L630.274 443.735Z" fill="#B97964"/>
<path d="M612.721 764.888C614.458 763.843 616.373 763.126 618.369 762.772C618.369 762.772 624.865 757.933 630.035 741.299L637.763 740.416C639.082 740.292 640.408 740.579 641.557 741.238C642.707 741.897 643.625 742.895 644.185 744.096C644.35 744.426 644.461 744.78 644.516 745.145C644.635 747.026 644.635 748.913 644.516 750.794C644.042 757.071 643.188 763.314 641.958 769.488L640.615 769.304L641.737 757.491C642.105 753.48 638.407 757.712 636.917 761.889C635.426 766.066 632.942 770.353 624.165 769.249C613.953 768.016 609.777 767.004 612.721 764.888Z" fill="#263238"/>
<path d="M548.927 735.559C548.927 735.559 539.12 755.909 533.6 759.92C533.6 759.92 541.107 764.391 548.927 754.4C559.029 741.52 561.513 745.2 561.513 745.2C561.312 742.978 560.906 740.779 560.298 738.631C558.771 734.344 548.927 735.559 548.927 735.559Z" fill="#B97964"/>
<path d="M632.151 735.393C632.151 735.393 629.391 742.919 625.711 751.199C624.021 755.492 621.523 759.421 618.351 762.772C618.351 762.772 624.736 764.851 628.195 760.84C631.654 756.829 637.542 742.44 644.166 744.023C643.814 742.844 643.32 741.714 642.694 740.655C641.701 739.018 632.151 735.393 632.151 735.393Z" fill="#B97964"/>
<path d="M602.748 427.69C602.748 427.69 594.854 506.368 583.115 585.249C576.232 630.195 565.684 674.503 551.577 717.729L574.872 719.679C574.872 719.679 619.51 609.022 633.108 544.971C633.108 544.971 637.947 658.518 630.182 721.611L650.569 720.636C650.569 720.636 700.249 506.938 663.192 429.916L602.748 427.69Z" fill="#FFC100"/>
<path opacity="0.4" d="M650.569 720.655L630.182 721.611C637.947 658.536 633.108 544.971 633.108 544.971C629.667 561.145 624.257 580.263 618.093 599.84C599.822 657.819 574.872 719.679 574.872 719.679L551.577 717.729C565.687 674.503 576.235 630.195 583.115 585.249C594.854 506.368 602.748 427.69 602.748 427.69L663.192 429.971C700.305 506.938 650.569 720.655 650.569 720.655Z" fill="white"/>
<path opacity="0.2" d="M633.108 544.971C629.667 561.145 624.257 580.263 618.093 599.84C615.738 563.04 625.104 496.929 625.104 496.929L633.108 544.971Z" fill="black"/>
<path d="M663.063 426.144L663.228 435.031L602.416 431.517L602.232 421.01L663.063 426.144Z" fill="#263238"/>
<path d="M615.565 433.052L628.854 433.988L629.563 423.912L616.275 422.975L615.565 433.052Z" fill="white"/>
<path d="M642.085 438.171L645.102 438.268L645.595 422.912L642.579 422.815L642.085 438.171Z" fill="#FFC100"/>
<path opacity="0.4" d="M642.085 438.171L645.102 438.268L645.595 422.912L642.579 422.815L642.085 438.171Z" fill="white"/>
<path d="M604.938 434.763L607.954 434.86L608.447 419.504L605.431 419.407L604.938 434.763Z" fill="#FFC100"/>
<path opacity="0.4" d="M604.938 434.763L607.954 434.86L608.447 419.504L605.431 419.407L604.938 434.763Z" fill="white"/>
<path d="M602.453 418.582L663.173 423.826C663.764 408.774 665.928 393.825 669.631 379.224C671.085 373.41 672.906 366.915 675.243 359.407C676.494 355.396 677.874 351.091 679.42 346.527C680.579 343.013 681.83 339.278 683.21 335.34C674.965 332.708 666.54 330.672 658.002 329.25C648.992 327.65 639.879 326.69 630.733 326.379C618.921 326.287 605.341 327.612 605.341 327.612C605.341 327.612 603.409 328.072 602.195 340.603C601.109 352.287 600.024 375.802 602.453 418.582Z" fill="#FFC100"/>
<path d="M602.343 422.133L663.063 426.144C664.02 411.056 665.105 397.219 669.65 379.224C671.104 373.41 672.925 366.915 675.262 359.407C676.513 355.396 677.893 351.091 679.439 346.527C680.598 343.013 681.849 339.278 683.229 335.34C674.984 332.708 666.559 330.672 658.021 329.25C649.011 327.65 639.899 326.69 630.753 326.379C618.94 326.287 605.361 327.612 605.361 327.612C605.361 327.612 603.429 328.072 602.214 340.603C601.11 352.287 599.841 379.353 602.343 422.133Z" fill="#263238"/>
<g opacity="0.1">
<path opacity="0.1" d="M602.453 418.582L663.173 423.826C663.764 408.774 665.928 393.825 669.631 379.224C671.085 373.41 672.906 366.915 675.243 359.407C676.494 355.396 677.874 351.091 679.42 346.527C680.579 343.013 681.83 339.278 683.21 335.34C674.965 332.708 666.54 330.672 658.002 329.25C648.992 327.65 639.879 326.69 630.733 326.379C618.921 326.287 605.341 327.612 605.341 327.612C605.341 327.612 603.409 328.072 602.195 340.603C601.109 352.287 600.024 375.802 602.453 418.582Z" fill="white"/>
</g>
<path d="M635.757 339.719C650.735 337.879 655.224 331.402 655.224 331.402C645.73 322.442 653.623 306.912 653.623 306.912L635.61 310.279C636.013 312.788 636.247 315.32 636.309 317.86C636.438 328.808 631.507 328.9 631.507 328.9C628.342 334.88 635.757 339.719 635.757 339.719Z" fill="#B97964"/>
<path opacity="0.2" d="M635.61 310.279C636.014 312.788 636.248 315.32 636.31 317.86C648.472 317.86 653.624 306.912 653.624 306.912L635.61 310.279Z" fill="black"/>
<path d="M645.564 259.9C629.906 259.054 624.404 267.15 622.362 283.231C619.822 303.324 623.521 317.897 643.338 314.658C670.257 310.261 671.6 261.28 645.564 259.9Z" fill="#B97964"/>
<path d="M632.537 282.918C631.159 285.189 629.509 287.284 627.625 289.156C628.047 289.828 628.647 290.371 629.358 290.724C630.069 291.078 630.863 291.23 631.654 291.162L632.537 282.918Z" fill="#A24E3F"/>
<path d="M642.16 282.164C642.16 283.434 642.675 284.538 643.522 284.611C644.368 284.685 645.159 283.691 645.27 282.403C645.38 281.115 644.755 280.011 643.89 279.956C643.025 279.901 642.307 280.876 642.16 282.164Z" fill="#263238"/>
<path d="M644.277 280.048L641.572 278.723C641.572 278.723 642.786 281.189 644.277 280.048Z" fill="#263238"/>
<path d="M626.245 280.637C626.153 281.925 626.76 283.011 627.606 283.084C628.453 283.158 629.244 282.164 629.446 280.876C629.649 279.588 628.931 278.502 628.066 278.429C627.201 278.355 626.355 279.349 626.245 280.637Z" fill="#263238"/>
<path d="M628.324 278.521L625.619 277.215C625.619 277.215 626.833 279.68 628.324 278.521Z" fill="#263238"/>
<path d="M642.952 271.345C644.198 271.261 645.447 271.465 646.602 271.94C647.757 272.416 648.787 273.15 649.613 274.087" stroke="#2E353A" stroke-width="0.72468" stroke-linecap="round" stroke-linejoin="round"/>
<path d="M631.598 270.057C630.542 269.732 629.426 269.65 628.334 269.816C627.241 269.981 626.2 270.391 625.287 271.014" stroke="#2E353A" stroke-width="0.72468" stroke-linecap="round" stroke-linejoin="round"/>
<path d="M633.604 297.436C634.248 299.236 634.759 301.081 635.132 302.956C635.469 302.975 635.807 302.975 636.144 302.956C640.725 302.754 642.786 301.116 643.688 299.423C644.102 298.57 644.304 297.63 644.276 296.682C644.281 296.141 644.213 295.603 644.074 295.081C641.304 296.472 638.266 297.25 635.168 297.362C634.212 297.436 633.604 297.436 633.604 297.436Z" fill="#263238"/>
<path d="M635.168 297.344L635.665 298.963C639.97 298.761 643.025 298.025 644.276 296.663C644.281 296.123 644.213 295.585 644.074 295.062C641.303 296.454 638.266 297.232 635.168 297.344Z" fill="white"/>
<path d="M636.144 302.938C640.725 302.735 642.786 301.098 643.688 299.405C641.941 299.515 640.228 299.932 638.628 300.638C637.583 301.132 636.716 301.935 636.144 302.938Z" fill="#DE5753"/>
<path d="M661.242 287.243C661.242 287.243 654.618 273.976 656.274 264.095C656.274 264.095 625.932 249.725 622.675 281.134C622.675 281.134 621.167 253 648.123 253.847C675.079 254.693 672.815 294.087 658.261 305.054C658.261 305.054 665.327 295.541 661.242 287.243Z" fill="#263238"/>
<path d="M662.824 258.41C662.824 258.41 650.569 247.498 639.419 249.559C628.268 251.62 630.219 266.303 644.939 271.878C659.659 277.454 662.658 284.63 662.658 284.63L675.391 273.222L662.824 258.41Z" fill="#263238"/>
<path d="M636.143 254.159C636.143 254.159 630.918 254.509 632.371 262.274C633.825 270.038 644.865 273.939 655.298 277.582C665.73 281.226 664.884 285.329 664.884 285.329" stroke="#263238" stroke-width="0.5" stroke-miterlimit="10"/>
<path d="M658.499 290.407C658.746 288.604 659.699 286.973 661.148 285.872C662.597 284.771 664.424 284.291 666.227 284.537C671.067 285.329 672.833 295.412 660.615 297.16C658.867 297.399 657.984 295.651 658.499 290.407Z" fill="#B97964"/>
<path d="M669.098 333.04C669.098 333.04 651.526 347.3 635.168 347.079C618.811 346.859 613.088 328.44 613.088 328.44C613.088 328.44 638.48 320.951 669.098 333.04Z" fill="#B97964"/>
<path d="M658.389 328.054C652.52 367.982 652.831 408.575 659.309 448.408L676.771 446.458L685.032 334.365L658.389 328.054Z" fill="#FFC100"/>
<path opacity="0.2" d="M685.032 334.365L684.149 346.251L679.715 406.438L676.771 446.458L659.309 448.408C659.107 447.139 658.904 445.869 658.72 444.618C655.721 424.888 654.227 404.958 654.249 385.002V382.959C654.262 364.58 655.646 346.227 658.389 328.054L666.485 329.894L685.032 334.365Z" fill="white"/>
<path d="M624.846 325.68C624.846 325.68 605.36 382.886 602.527 441.6L596.16 439.76C596.16 439.76 591.487 376.243 601.202 327.244L624.846 325.68Z" fill="#FFC100"/>
<path opacity="0.2" d="M624.846 325.68C619.333 342.8 614.757 360.208 611.138 377.826C610.145 382.591 609.169 387.578 608.268 392.73C606.575 402.261 605.103 412.344 604.017 422.666C603.355 428.941 602.84 435.289 602.527 441.674L596.161 439.76C596.161 439.76 595.553 431.609 595.241 418.876C595.02 410.136 594.928 399.225 595.241 387.338C595.584 367.179 597.571 347.08 601.184 327.244L617.357 326.195L624.846 325.68Z" fill="white"/>
<path opacity="0.2" d="M660.763 349.711L666.945 358.451L654.249 382.959C654.262 364.58 655.645 346.227 658.389 328.054L666.485 329.894L671.674 341.449L660.763 349.711Z" fill="white"/>
<path opacity="0.2" d="M624.846 325.68C619.333 342.8 614.757 360.208 611.138 377.826L606.538 352.673L615.628 344.485L609.813 335.395L617.431 326.195L624.846 325.68Z" fill="white"/>
<path opacity="0.2" d="M684.149 346.251L679.715 406.438C674.544 419.318 667.516 433.688 658.72 444.618C655.721 424.888 654.227 404.958 654.249 385.002C662.29 371.882 673.753 354.899 683.689 346.619L684.149 346.251Z" fill="black"/>
<path opacity="0.2" d="M608.268 392.675C606.575 402.206 605.103 412.289 604.017 422.611C601.129 421.379 598.166 420.072 595.296 418.784C595.075 410.044 594.983 399.133 595.296 387.247L608.268 392.675Z" fill="black"/>
<path d="M546.885 398.581C546.885 398.581 533.196 393.061 539.028 378.893C539.028 378.893 535.072 382.573 525.872 378.01C525.872 378.01 535.459 382.591 534.116 385.572C532.993 388.056 520.389 389.399 520.389 389.399C520.389 389.399 534.576 388.424 536.084 391.479C537.023 393.411 527.492 404.837 527.492 404.837C527.492 404.837 537.52 395.14 539.654 396.391C541.788 397.643 538.973 405.72 538.973 405.72C538.973 405.72 541.696 398.747 543.26 398.967C544.824 399.188 544.585 403.843 544.585 403.843C544.585 403.843 544.64 398.894 546.885 398.581Z" fill="#FFC100"/>
<path d="M557.889 367.798C557.889 367.798 546.481 358.469 536.857 370.466C536.857 370.466 538.201 365.203 529.718 359.426C529.718 359.426 538.366 365.59 540.335 362.958C541.954 360.787 537.023 349.103 537.023 349.103C537.023 349.103 543.04 361.983 546.444 361.818C548.597 361.707 553.97 347.852 553.97 347.852C553.97 347.852 550.29 361.321 552.479 362.572C554.669 363.823 560.299 357.457 560.299 357.457C560.299 357.457 555.534 363.216 556.472 364.486C557.41 365.755 561.385 363.29 561.385 363.29C561.385 363.29 557.024 365.608 557.889 367.798Z" fill="#FFC100"/>
<path opacity="0.7" d="M546.885 398.581C546.885 398.581 533.196 393.061 539.028 378.893C539.028 378.893 535.072 382.573 525.872 378.01C525.872 378.01 535.459 382.591 534.116 385.572C532.993 388.056 520.389 389.399 520.389 389.399C520.389 389.399 534.576 388.424 536.084 391.479C537.023 393.411 527.492 404.837 527.492 404.837C527.492 404.837 537.52 395.14 539.654 396.391C541.788 397.643 538.973 405.72 538.973 405.72C538.973 405.72 541.696 398.747 543.26 398.967C544.824 399.188 544.585 403.843 544.585 403.843C544.585 403.843 544.64 398.894 546.885 398.581Z" fill="white"/>
<path opacity="0.7" d="M557.889 367.798C557.889 367.798 546.481 358.469 536.857 370.466C536.857 370.466 538.201 365.203 529.718 359.426C529.718 359.426 538.366 365.59 540.335 362.958C541.954 360.787 537.023 349.103 537.023 349.103C537.023 349.103 543.04 361.983 546.444 361.818C548.597 361.707 553.97 347.852 553.97 347.852C553.97 347.852 550.29 361.321 552.479 362.572C554.669 363.823 560.299 357.457 560.299 357.457C560.299 357.457 555.534 363.216 556.472 364.486C557.41 365.755 561.385 363.29 561.385 363.29C561.385 363.29 557.024 365.608 557.889 367.798Z" fill="white"/>
<path d="M600.889 395.287L576.178 378.488C576.178 378.488 568.193 354.973 566.279 354.568C564.366 354.163 551.154 361.321 550.51 363.418C549.866 365.516 557.668 382.315 559.71 384.45C561.753 386.584 566.905 386.805 566.905 386.805L590.972 405.72L600.889 395.287Z" fill="#B97964"/>
<path d="M685.032 334.365C677.985 333.905 652.023 403.273 648.14 409.087C644.258 414.902 585.783 384.1 585.783 384.1L577.061 403.383C577.061 403.383 640.743 441.25 658.334 435.786C671.067 431.83 683.082 391.626 688.418 374.146C696.937 346.306 691.472 334.77 685.032 334.365Z" fill="#FFC100"/>
<path opacity="0.2" d="M685.032 334.365C677.985 333.905 652.023 403.273 648.14 409.087C644.258 414.902 585.783 384.1 585.783 384.1L577.061 403.383C577.061 403.383 640.743 441.25 658.334 435.786C671.067 431.83 683.082 391.626 688.418 374.146C696.937 346.306 691.472 334.77 685.032 334.365Z" fill="white"/>
<path d="M369.031 752.358H350.815C350.518 752.359 350.23 752.462 349.999 752.65C349.768 752.837 349.608 753.097 349.545 753.388L346.583 766.728C346.463 767.304 346.576 767.903 346.896 768.396C347.217 768.889 347.719 769.236 348.294 769.359C348.452 769.387 348.614 769.387 348.773 769.359C354.661 769.359 358.966 768.918 366.363 768.918C370.926 768.918 384.671 769.378 390.964 769.378C397.257 769.378 398.085 763.177 395.509 762.588C383.953 760.086 375.269 756.59 371.589 753.278C371.244 752.964 370.84 752.721 370.401 752.563C369.963 752.405 369.497 752.335 369.031 752.358Z" fill="#263238"/>
<path d="M446.274 751.879H428.058C427.76 751.881 427.473 751.984 427.242 752.171C427.011 752.359 426.851 752.619 426.788 752.91L423.826 766.25C423.706 766.825 423.818 767.425 424.139 767.918C424.459 768.411 424.962 768.757 425.537 768.881C425.696 768.9 425.856 768.9 426.015 768.881C431.922 768.77 436.209 768.421 443.606 768.421C448.169 768.421 461.914 768.899 468.207 768.899C474.499 768.899 475.327 762.68 472.751 762.11C461.196 759.589 452.511 756.093 448.831 752.781C448.132 752.154 447.212 751.83 446.274 751.879Z" fill="#263238"/>
<path d="M359.371 414.718H438.951C446.514 456.026 468.152 623.245 451.169 753.517L424.599 756.424C424.599 756.424 428.721 556.232 404.985 492.292C402.243 526.516 398.986 562.929 396.171 582.286C389.253 629.979 373.65 754.253 373.65 754.253L346.712 754.97C346.712 754.97 352.618 634.432 355.194 587.53C358.046 536.71 359.261 425.169 359.371 414.718Z" fill="#263238"/>
<path opacity="0.2" d="M359.371 414.718H438.951C446.514 456.026 468.152 623.245 451.169 753.517L424.599 756.424C424.599 756.424 428.721 556.232 404.985 492.292C402.243 526.516 398.986 562.929 396.171 582.286C389.253 629.979 373.65 754.253 373.65 754.253L346.712 754.97C346.712 754.97 352.618 634.432 355.194 587.53C358.046 536.71 359.261 425.169 359.371 414.718Z" fill="white"/>
<path opacity="0.2" d="M404.984 492.31C408.901 503.518 411.874 515.033 413.872 526.737C416.098 496.285 407.192 463.993 407.192 463.993L404.984 492.31Z" fill="black"/>
<path d="M439.613 415.675H359.518V425.206L440.644 424.212L439.613 415.675Z" fill="#263238"/>
<path d="M385.278 428.315H388.13V411.387H385.278V428.315Z" fill="#263238"/>
<path d="M425.794 428.315H428.646V411.387H425.794V428.315Z" fill="#263238"/>
<path d="M403.107 424.672H417.919V414H403.107V424.672Z" fill="white"/>
<path opacity="0.2" d="M385.278 428.315H388.13V411.387H385.278V428.315Z" fill="white"/>
<path opacity="0.2" d="M425.794 428.315H428.646V411.387H425.794V428.315Z" fill="white"/>
<path d="M522.854 318.136L529.589 311.218C529.589 311.218 532.275 300.822 533.821 298.908C535.366 296.994 547.087 291.548 547.087 291.548C547.087 291.548 551.117 291.751 551.687 292.505C552.258 293.259 550.344 310.776 548.614 313.076C546.885 315.376 538.439 317.308 537.28 317.694C536.121 318.081 524.216 330.188 524.216 330.188L522.854 318.136Z" fill="#EBB376"/>
<path d="M431.682 277.03C444.25 278.557 468.998 335.689 478.455 340.786C487.913 345.883 525.412 313.867 525.412 313.867L534.87 325.514C534.87 325.514 492.292 370.999 475.548 365.994C458.804 360.989 435.068 317.952 427.874 304.483C420.679 291.014 431.682 277.03 431.682 277.03Z" fill="#FFC100"/>
<path opacity="0.6" d="M534.87 325.514C534.87 325.514 492.292 370.999 475.548 365.994C468.188 363.768 459.614 354.329 451.628 343.289C442.924 330.861 434.997 317.908 427.892 304.502C426.341 301.431 425.499 298.051 425.429 294.612C425.359 291.172 426.062 287.761 427.488 284.63C428.562 281.956 429.979 279.432 431.701 277.122C444.268 278.65 469.016 335.8 478.474 340.897C487.932 345.994 525.431 313.959 525.431 313.959L534.87 325.514Z" fill="white"/>
<path opacity="0.2" d="M451.609 343.197C442.905 330.769 434.978 317.816 427.873 304.41C426.322 301.339 425.48 297.959 425.41 294.52C425.339 291.08 426.043 287.669 427.469 284.538C434.626 293.351 449.181 314.511 451.609 343.197Z" fill="black"/>
<path d="M431.683 277.03C431.683 277.03 381.064 274.638 343.363 284.17C343.363 284.17 359.923 367.982 359.371 415.674H439.613C439.613 415.674 444.839 326.232 431.683 277.03Z" fill="#FFC100"/>
<path opacity="0.6" d="M439.613 415.674H359.389C359.389 410.486 359.389 404.892 359.021 399.004C358.322 385.241 356.758 369.987 354.863 355.23L354.311 350.925C353.023 341.338 351.643 332.065 350.3 323.601C346.62 300.877 343.363 284.17 343.363 284.17C381.064 274.657 431.683 277.03 431.683 277.03C444.82 326.25 439.613 415.674 439.613 415.674Z" fill="white"/>
<path opacity="0.2" d="M408.223 364.817C408.223 364.817 394.368 397.845 359.021 399.004C358.322 385.241 356.758 369.987 354.863 355.23L408.223 364.817Z" fill="black"/>
<path d="M372.913 280.361C380.273 286.966 397.992 284.519 397.992 284.519C397.992 284.519 409.032 281.483 406.769 278.006C400.218 276.92 397.053 273.866 395.729 269.965C395 267.54 394.775 264.991 395.066 262.476C395.169 261.08 395.353 259.692 395.618 258.318L373.538 242.015C376.501 252.761 380.033 272.559 372.913 280.361Z" fill="#EBB376"/>
<path opacity="0.2" d="M378.709 252.375C379.574 265.586 390.43 269.229 395.747 269.965C395.019 267.54 394.794 264.991 395.085 262.476L378.709 252.375Z" fill="black"/>
<path d="M410.873 207.773C410.873 207.773 417.018 227.645 407.395 237.084C397.772 246.523 392.104 208.675 392.104 208.675L410.873 207.773Z" fill="#263238"/>
<path d="M378.489 257.95C381.254 260.956 384.929 262.972 388.951 263.69C392.972 264.408 397.118 263.788 400.753 261.924C405.5 259.598 409.184 255.552 411.057 250.608C411.314 249.927 411.535 249.228 411.737 248.511C415.178 235.281 413.577 213.293 399.244 207.129C396.079 205.753 392.616 205.209 389.182 205.549C385.748 205.888 382.458 207.1 379.624 209.069C376.79 211.038 374.507 213.699 372.991 216.799C371.475 219.899 370.777 223.335 370.963 226.78C371.533 241.555 371.165 250.24 378.489 257.95Z" fill="#EBB376"/>
<path d="M393.301 231.362C393.19 232.558 393.889 233.551 394.681 233.57C395.472 233.588 396.116 232.613 396.153 231.417C396.189 230.221 395.545 229.227 394.773 229.209C394 229.19 393.337 230.147 393.301 231.362Z" fill="#263238"/>
<path d="M406.898 231.637C406.787 232.833 407.505 233.827 408.278 233.845C409.05 233.864 409.713 232.889 409.75 231.693C409.786 230.497 409.142 229.503 408.37 229.485C407.597 229.466 406.934 230.497 406.898 231.637Z" fill="#263238"/>
<path d="M402.573 232.135C403.918 235.846 405.776 239.352 408.093 242.549C407.251 243.121 406.295 243.503 405.291 243.668C404.287 243.833 403.259 243.778 402.279 243.506L402.573 232.135Z" fill="#D58745"/>
<path d="M389.16 226.872C389.289 226.893 389.421 226.881 389.544 226.836C389.666 226.79 389.775 226.714 389.859 226.614C390.392 225.908 391.082 225.335 391.873 224.939C392.665 224.543 393.537 224.336 394.422 224.333C394.514 224.343 394.607 224.335 394.696 224.309C394.785 224.283 394.867 224.24 394.939 224.181C395.011 224.123 395.071 224.051 395.115 223.97C395.159 223.889 395.186 223.799 395.195 223.707C395.211 223.52 395.152 223.334 395.031 223.189C394.911 223.045 394.738 222.953 394.551 222.934C393.432 222.905 392.322 223.144 391.314 223.631C390.306 224.117 389.429 224.837 388.755 225.731C388.639 225.876 388.583 226.061 388.6 226.247C388.617 226.432 388.706 226.604 388.847 226.725C388.941 226.794 389.047 226.844 389.16 226.872Z" fill="#263238"/>
<path d="M412.841 227.056C412.972 227.101 413.114 227.101 413.245 227.056C413.418 226.979 413.553 226.838 413.622 226.662C413.691 226.487 413.688 226.291 413.613 226.118C413.161 225.088 412.469 224.182 411.595 223.475C410.722 222.767 409.691 222.279 408.59 222.051C408.407 222.025 408.221 222.072 408.073 222.182C407.925 222.293 407.826 222.457 407.799 222.64C407.781 222.824 407.831 223.007 407.94 223.157C408.048 223.306 408.208 223.41 408.388 223.45C409.253 223.648 410.059 224.048 410.74 224.617C411.421 225.187 411.958 225.909 412.307 226.725C412.36 226.821 412.437 226.902 412.531 226.96C412.624 227.018 412.731 227.051 412.841 227.056Z" fill="#263238"/>
<path d="M382.168 208.564L383.143 215.059C382.059 215.617 381.224 216.563 380.805 217.708C380.385 218.854 380.412 220.115 380.88 221.242C383.125 226.651 380.255 235.226 376.151 238.74C376.151 238.74 375.949 236.366 373.962 236.992C371.975 237.618 372.876 249.872 376.943 255.723C371.746 250.362 368.03 243.742 366.16 236.514C362.756 224.609 363.106 215.777 365.443 211.066L382.168 208.564Z" fill="#263238"/>
<path d="M364.321 238.758C365.084 240.449 366.177 241.971 367.536 243.235C368.894 244.498 370.491 245.479 372.233 246.118C376.869 247.793 379.593 243.708 378.562 239.145C377.642 235.097 374.165 229.209 369.362 229.558C364.56 229.908 362.481 234.6 364.321 238.758Z" fill="#EBB376"/>
<path d="M403.402 247.13C402.784 248.839 402.298 250.592 401.948 252.374H400.991C396.649 252.172 394.699 250.645 393.852 249.007C393.454 248.202 393.258 247.311 393.282 246.413C393.278 245.909 393.347 245.407 393.484 244.922C396.11 246.226 398.982 246.96 401.911 247.075L403.402 247.13Z" fill="#263238"/>
<path d="M401.911 247.038L401.451 248.566C397.367 248.363 394.515 247.682 393.282 246.376C393.279 245.872 393.347 245.37 393.484 244.885C396.11 246.189 398.982 246.923 401.911 247.038Z" fill="white"/>
<path d="M400.991 252.337C396.649 252.135 394.698 250.608 393.852 248.97C395.504 249.077 397.123 249.476 398.636 250.148C399.63 250.615 400.453 251.38 400.991 252.337Z" fill="#DE5753"/>
<path d="M386.676 210.79C386.676 210.79 387.651 218.555 377.954 222.566C368.257 226.578 364.724 229.926 364.724 229.926C364.724 229.926 358.174 210.882 370.06 203.854C370.06 203.854 370.3 200.174 380.493 196.696C390.687 193.218 405.296 194.856 411.92 207.129C416.888 216.329 412.288 222.898 412.288 222.898C412.288 222.898 411.313 217.562 401.856 216.347C396.451 215.625 391.27 213.728 386.676 210.79Z" fill="#263238"/>
<path d="M405.242 283.452L403.108 293.922C403.108 293.922 415.307 344.779 417.828 371.201L413.393 375.654L406.401 371.201C406.401 371.201 405.776 317.474 399.612 294.915L388.572 285.862L397.275 283.047L405.242 283.452Z" fill="#263238"/>
<path d="M375.36 270.48L396.52 280.011L397.753 272.357L405.518 275.099C406.876 275.575 408.034 276.495 408.805 277.71C409.576 278.925 409.916 280.365 409.768 281.796L408.885 290.187L398.158 284.317L392.804 291.879L367.412 279.643L375.36 270.48Z" fill="#FFC100"/>
<path opacity="0.7" d="M375.36 270.48L396.52 280.011L397.753 272.357L405.518 275.099C406.876 275.575 408.034 276.495 408.805 277.71C409.576 278.925 409.916 280.365 409.768 281.796L408.885 290.187L398.158 284.317L392.804 291.879L367.412 279.643L375.36 270.48Z" fill="white"/>
<path d="M431.517 351.44L456.983 346.711C456.983 346.711 461.711 341.982 463.901 341.982C466.091 341.982 494.482 350.704 494.482 350.704C494.482 350.704 486.828 358.358 483.184 359.812C479.541 361.266 462.815 357.622 462.815 357.622L438.067 364.173L431.517 351.44Z" fill="#EBB376"/>
<path d="M343.363 284.17C354.991 279.938 372.177 348.79 375.82 354.255C379.463 359.72 447.893 346.233 447.893 346.233L453.413 362.259C453.413 362.259 395.545 382.278 371.533 378.286C347.521 374.293 342.093 339.333 336.223 318.596C330.354 297.859 334.88 287.224 343.363 284.17Z" fill="#FFC100"/>
<path opacity="0.7" d="M343.363 284.17C354.991 279.938 372.177 348.79 375.82 354.255C379.463 359.72 447.893 346.233 447.893 346.233L453.413 362.259C453.413 362.259 395.545 382.278 371.533 378.286C347.521 374.293 342.093 339.333 336.223 318.596C330.354 297.859 334.88 287.224 343.363 284.17Z" fill="white"/>
<path d="M527.197 284.114C527.722 282.965 528.485 281.94 529.437 281.108C530.389 280.277 531.507 279.658 532.717 279.294C534.946 278.635 537.323 278.68 539.525 279.422C541.743 280.143 543.675 281.547 545.045 283.434C545.398 283.897 545.7 284.397 545.947 284.924C546.209 285.441 546.419 285.984 546.572 286.543L546.812 287.353L546.922 288.126L547.125 289.671C547.471 293.869 546.148 298.034 543.445 301.263C540.886 304.307 537.556 306.608 533.803 307.924C530.221 309.205 526.438 309.828 522.634 309.764C520.787 309.764 518.942 309.629 517.114 309.359C515.447 309.029 513.753 308.857 512.054 308.844C510.542 308.826 509.066 309.312 507.859 310.224C507.323 310.587 506.916 311.109 506.694 311.717C506.473 312.325 506.449 312.987 506.626 313.61C506.853 314.172 507.277 314.632 507.819 314.903C508.362 315.174 508.984 315.238 509.57 315.082C509.911 314.951 510.211 314.731 510.437 314.444C510.663 314.157 510.807 313.815 510.854 313.452C510.901 313.09 510.85 312.722 510.705 312.387C510.56 312.052 510.327 311.762 510.03 311.549C510.53 311.663 510.98 311.937 511.312 312.328C511.643 312.719 511.839 313.208 511.87 313.72C511.903 314.298 511.781 314.874 511.515 315.389C511.25 315.903 510.851 316.337 510.361 316.646C509.85 316.961 509.268 317.145 508.668 317.184C508.069 317.222 507.469 317.113 506.921 316.866C505.814 316.431 504.922 315.578 504.437 314.493C504.028 313.413 503.967 312.232 504.264 311.117C504.562 310.001 505.201 309.007 506.093 308.274C507.69 306.913 509.684 306.106 511.778 305.974C513.659 305.886 515.544 305.972 517.409 306.231C519.115 306.4 520.831 306.431 522.542 306.323C525.914 306.186 529.235 305.451 532.349 304.152C535.354 302.967 537.994 301.013 540.004 298.485C541.927 295.926 542.772 292.716 542.359 289.542C542.266 288.711 542.008 287.906 541.599 287.176C541.191 286.445 540.64 285.804 539.98 285.29C539.32 284.776 538.563 284.398 537.755 284.181C536.947 283.963 536.104 283.909 535.275 284.022C531.816 284.63 529.295 287.702 527.768 290.646L527.197 284.114Z" fill="#FFC100"/>
<path d="M479.394 267.83C479.68 266.589 479.696 265.3 479.439 264.052C479.181 262.804 478.658 261.626 477.903 260.599C476.531 258.706 474.601 257.291 472.383 256.551C470.186 255.764 467.797 255.693 465.557 256.349C464.993 256.498 464.45 256.714 463.938 256.993C463.414 257.229 462.92 257.525 462.466 257.876L461.766 258.373L461.196 258.925L460.092 260.01C457.264 263.133 455.783 267.246 455.97 271.455C456.139 275.428 457.365 279.284 459.522 282.624C461.564 285.842 464.169 288.666 467.213 290.959C468.687 292.106 470.25 293.133 471.886 294.032C473.399 294.807 474.846 295.705 476.21 296.718C477.405 297.653 478.274 298.941 478.694 300.398C478.889 301.016 478.887 301.678 478.69 302.294C478.492 302.911 478.108 303.45 477.59 303.839C477.069 304.144 476.455 304.249 475.863 304.133C475.27 304.018 474.739 303.691 474.37 303.214C474.181 302.897 474.08 302.535 474.079 302.166C474.079 301.797 474.178 301.435 474.367 301.118C474.555 300.801 474.827 300.541 475.151 300.366C475.476 300.191 475.842 300.106 476.21 300.122C475.743 299.89 475.212 299.818 474.7 299.918C474.188 300.018 473.723 300.284 473.377 300.674C472.992 301.108 472.732 301.639 472.625 302.209C472.518 302.78 472.568 303.369 472.77 303.913C472.982 304.476 473.33 304.979 473.782 305.377C474.235 305.775 474.778 306.055 475.364 306.194C476.507 306.521 477.733 306.396 478.786 305.845C479.77 305.239 480.54 304.339 480.985 303.273C481.431 302.207 481.531 301.028 481.27 299.902C480.846 297.845 479.76 295.984 478.179 294.602C476.739 293.388 475.193 292.304 473.561 291.364C472.111 290.452 470.733 289.431 469.439 288.31C466.855 286.14 464.674 283.53 462.999 280.6C461.331 277.819 460.435 274.643 460.405 271.4C460.44 268.204 461.721 265.147 463.974 262.881C464.561 262.279 465.262 261.8 466.036 261.474C466.81 261.147 467.642 260.979 468.482 260.979C469.323 260.979 470.155 261.147 470.929 261.474C471.703 261.8 472.404 262.279 472.99 262.881C475.346 265.475 475.474 269.45 474.83 272.706L479.394 267.83Z" fill="#FFC100"/>
<g opacity="0.2">
<path opacity="0.2" d="M527.197 284.114C527.721 282.965 528.485 281.94 529.437 281.108C530.389 280.277 531.507 279.658 532.717 279.294C534.945 278.635 537.323 278.68 539.525 279.422C541.742 280.143 543.675 281.547 545.045 283.434C545.397 283.897 545.699 284.397 545.946 284.924C546.209 285.441 546.418 285.984 546.572 286.543L546.811 287.353L546.922 288.126L547.124 289.671C547.47 293.869 546.148 298.034 543.444 301.263C540.885 304.307 537.555 306.608 533.802 307.924C530.221 309.205 526.437 309.828 522.634 309.764C520.786 309.764 518.941 309.629 517.114 309.359C515.447 309.029 513.753 308.857 512.054 308.844C510.541 308.826 509.065 309.312 507.859 310.224C507.323 310.587 506.915 311.109 506.694 311.717C506.472 312.325 506.449 312.987 506.626 313.61C506.852 314.172 507.277 314.632 507.819 314.903C508.361 315.174 508.984 315.238 509.57 315.082C509.911 314.951 510.21 314.731 510.436 314.444C510.662 314.157 510.807 313.815 510.854 313.452C510.901 313.09 510.849 312.722 510.704 312.387C510.559 312.052 510.326 311.762 510.03 311.549C510.53 311.663 510.98 311.937 511.311 312.328C511.643 312.719 511.839 313.208 511.87 313.72C511.903 314.298 511.78 314.874 511.515 315.389C511.249 315.903 510.851 316.337 510.361 316.646C509.849 316.961 509.268 317.145 508.668 317.184C508.068 317.222 507.468 317.113 506.92 316.866C505.813 316.431 504.922 315.578 504.436 314.493C504.027 313.413 503.967 312.232 504.264 311.117C504.561 310.001 505.2 309.007 506.092 308.274C507.689 306.913 509.684 306.106 511.778 305.974C513.658 305.886 515.543 305.972 517.408 306.231C519.114 306.4 520.831 306.431 522.542 306.323C525.913 306.186 529.234 305.451 532.349 304.152C535.353 302.967 537.993 301.013 540.003 298.485C541.926 295.926 542.771 292.716 542.358 289.542C542.266 288.711 542.007 287.906 541.599 287.176C541.19 286.445 540.639 285.804 539.979 285.29C539.319 284.776 538.563 284.398 537.755 284.181C536.947 283.963 536.104 283.909 535.274 284.022C531.815 284.63 529.294 287.702 527.767 290.646L527.197 284.114Z" fill="black"/>
<path opacity="0.2" d="M479.394 267.83C479.68 266.589 479.696 265.3 479.439 264.052C479.181 262.804 478.658 261.626 477.903 260.599C476.531 258.706 474.601 257.291 472.383 256.551C470.186 255.764 467.797 255.693 465.557 256.349C464.993 256.498 464.45 256.714 463.938 256.993C463.414 257.229 462.92 257.525 462.466 257.876L461.766 258.373L461.196 258.925L460.092 260.01C457.264 263.133 455.783 267.246 455.97 271.455C456.139 275.428 457.365 279.284 459.522 282.624C461.564 285.842 464.169 288.666 467.213 290.959C468.687 292.106 470.25 293.133 471.886 294.032C473.399 294.807 474.846 295.705 476.21 296.718C477.405 297.653 478.274 298.941 478.694 300.398C478.889 301.016 478.887 301.678 478.69 302.294C478.492 302.911 478.108 303.45 477.59 303.839C477.069 304.144 476.455 304.249 475.863 304.133C475.27 304.018 474.739 303.691 474.37 303.214C474.181 302.897 474.08 302.535 474.079 302.166C474.079 301.797 474.178 301.435 474.367 301.118C474.555 300.801 474.827 300.541 475.151 300.366C475.476 300.191 475.842 300.106 476.21 300.122C475.743 299.89 475.212 299.818 474.7 299.918C474.188 300.018 473.723 300.284 473.377 300.674C472.992 301.108 472.732 301.639 472.625 302.209C472.518 302.78 472.568 303.369 472.77 303.913C472.982 304.476 473.33 304.979 473.782 305.377C474.235 305.775 474.778 306.055 475.364 306.194C476.507 306.521 477.733 306.396 478.786 305.845C479.77 305.239 480.54 304.339 480.985 303.273C481.431 302.207 481.531 301.028 481.27 299.902C480.846 297.845 479.76 295.984 478.179 294.602C476.739 293.388 475.193 292.304 473.561 291.364C472.111 290.452 470.733 289.431 469.439 288.31C466.855 286.14 464.674 283.53 462.999 280.6C461.331 277.819 460.435 274.643 460.405 271.4C460.44 268.204 461.721 265.147 463.974 262.881C464.561 262.279 465.262 261.8 466.036 261.474C466.81 261.147 467.642 260.979 468.482 260.979C469.323 260.979 470.155 261.147 470.929 261.474C471.703 261.8 472.404 262.279 472.99 262.881C475.346 265.475 475.474 269.45 474.83 272.706L479.394 267.83Z" fill="black"/>
</g>
<path d="M500.481 310.776C511.907 309.506 523.278 300.84 529.608 287.518L532.515 281.391L476.781 262.384L475.346 269.008C472.237 283.434 475.953 297.215 484.215 305.201C485.296 306.271 486.06 307.62 486.42 309.098C486.781 310.576 486.724 312.125 486.257 313.573L482.32 325.901C481.862 327.36 480.894 328.605 479.593 329.409C478.292 330.214 476.746 330.523 475.236 330.28C472.48 329.808 469.648 330.358 467.269 331.826L464.361 333.666L498.898 345.442L497.739 342.203C496.747 339.588 494.837 337.423 492.366 336.113C491.02 335.387 489.982 334.201 489.441 332.771C488.9 331.341 488.893 329.764 489.422 328.33L493.838 316.149C494.343 314.729 495.231 313.475 496.403 312.527C497.575 311.579 498.986 310.973 500.481 310.776Z" fill="#FFC100"/>
<path d="M463.532 330.17L501.694 343.16L498.916 356.058L457.865 342.074L463.532 330.17Z" fill="#263238"/>
<path opacity="0.2" d="M472.236 333.132L492.991 340.197L490.213 353.077L466.587 345.037L472.236 333.132Z" fill="white"/>
<path d="M487.595 342.429L475.194 338.205L473.55 343.029L485.952 347.254L487.595 342.429Z" fill="white"/>
<path opacity="0.3" d="M486.22 304.336C487.238 305.564 487.919 307.036 488.197 308.607C488.474 310.178 488.338 311.794 487.802 313.297L483.074 327.226C482.135 329.949 480.994 330.722 477.719 330.906C475.796 330.869 473.896 331.325 472.199 332.23L477.995 334.218C478.675 333.931 479.395 333.751 480.13 333.684H481.068C481.695 333.641 482.294 333.414 482.792 333.031C483.29 332.648 483.663 332.126 483.865 331.531L491.574 308.899C491.851 308.096 491.938 307.24 491.83 306.397C491.721 305.555 491.42 304.749 490.949 304.042L489.974 302.551C485.878 296.311 484.367 288.724 485.76 281.391L488.17 267.959L479.798 265.107L477.958 280.655C476.891 288.107 480.24 297.951 486.22 304.336Z" fill="white"/>
<path d="M389.27 332.267L382.794 330.482L376.538 333.463L375.139 318.67L387.89 317.474L389.27 332.267Z" fill="#FFC100"/>
<path opacity="0.2" d="M389.27 332.267L382.794 330.482L376.538 333.463L375.139 318.67L387.89 317.474L389.27 332.267Z" fill="white"/>
<path d="M380.401 305.808L381.745 306.526L383.143 305.9L384.265 306.931L385.793 306.673L386.621 307.943L388.148 308.071L388.645 309.525L390.098 310.022L390.209 311.549L391.497 312.377L391.221 313.886L392.251 315.027L391.625 316.425L392.343 317.768L391.386 318.964L391.736 320.455L390.503 321.375L390.485 322.902L389.068 323.491L388.663 324.963L387.154 325.165L386.4 326.508L384.873 326.324L383.805 327.428L382.37 326.895L381.064 327.686L379.813 326.803L378.359 327.263L377.365 326.085L375.838 326.159L375.157 324.779L373.667 324.484L373.354 322.975L371.974 322.313L372.048 320.767L370.889 319.774L371.349 318.32L370.465 317.069L371.257 315.763L370.723 314.327L371.827 313.26L371.661 311.751L372.986 310.979L373.207 309.47L374.679 309.065L375.268 307.648L376.795 307.63L377.715 306.415L379.205 306.765L380.401 305.808Z" fill="#FFC100"/>
<path opacity="0.4" d="M383.754 325.652C388.697 324.347 391.645 319.283 390.34 314.341C389.035 309.399 383.971 306.45 379.029 307.755C374.087 309.06 371.138 314.124 372.443 319.066C373.748 324.008 378.812 326.957 383.754 325.652Z" fill="white"/>
<path d="M381.672 315.983L381.561 317.639L382.886 317.529V318.854L381.524 318.964L381.396 321.043L380.089 321.172L380.236 319.093L379.114 319.203L378.967 321.264L377.679 321.393L377.808 319.314L376.538 319.443V318.118L377.826 317.989L377.955 316.333L376.667 316.462V315.137L377.955 315.008L378.12 312.635L379.408 312.524L379.243 314.879H380.365L380.531 312.506L381.837 312.377L381.672 314.751L383.015 314.622V315.947L381.672 315.983ZM380.365 316.112H379.243L379.132 317.787L380.255 317.676L380.365 316.112Z" fill="#FFC100"/>
<path d="M385.682 320.638L385.075 313.996L383.971 314.106L383.879 313.205C384.193 313.129 384.484 312.978 384.725 312.763C384.988 312.564 385.181 312.287 385.277 311.972H386.179L386.989 320.583L385.682 320.638Z" fill="#FFC100"/>
<path d="M154.153 457.318L157.881 451.338L169.301 448.974L174.819 453.039L154.153 457.318ZM148.065 434.904L154.054 438.678L156.399 450.006L152.344 455.571L148.065 434.904ZM153.773 435.458C152.515 434.818 151.246 434.197 149.964 433.595L152.739 430.464L165.361 427.851L169.105 429.631L166.395 432.844L153.773 435.458ZM144.38 410.353L165.047 406.074L161.503 412.015L150.176 414.36L144.38 410.353ZM166.845 407.775L171.125 428.442L165.203 424.991L162.838 413.571L166.845 407.775Z" fill="#FFECB2"/>
<path d="M206.806 443.669L200.827 439.941L198.472 428.567L202.527 423.002L206.806 443.669ZM184.701 428.429C183.444 427.789 182.174 427.168 180.892 426.566L183.667 423.436L196.29 420.822L200.033 422.602L197.323 425.816L184.701 428.429ZM178.52 426.286L174.24 405.619L180.162 409.069L182.537 420.536L178.52 426.286ZM197.774 400.746L202.053 421.413L196.131 417.962L193.767 406.542L197.774 400.746Z" fill="#FFECB2"/>
</svg>
