<svg width="522" height="467" viewBox="0 0 522 467" fill="none" xmlns="http://www.w3.org/2000/svg">
<path d="M444.712 423.119C342.974 480.361 178.037 480.374 76.2989 423.119C-25.4391 365.863 -25.4269 273.062 76.2989 215.819C178.025 158.577 342.974 158.577 444.712 215.819C546.45 273.062 546.438 365.889 444.712 423.119Z" fill="#F0F0F0"/>
<path d="M54.6981 311.027C54.6981 311.027 53.4232 304.122 43.0782 298.786C33.0125 293.555 27.2086 294.771 20.2998 291.776C13.391 288.781 18.3571 274.709 37.2986 280.96C54.6496 286.689 56.4102 302.866 56.4102 302.866L54.6981 311.027Z" fill="#0278B6"/>
<path opacity="0.2" d="M54.6981 311.027C54.6981 311.027 53.4232 304.122 43.0782 298.786C33.0125 293.555 27.2086 294.771 20.2998 291.776C13.391 288.781 18.3571 274.709 37.2986 280.96C54.6496 286.689 56.4102 302.866 56.4102 302.866L54.6981 311.027Z" fill="black"/>
<path d="M56.5197 308.438C56.588 308.45 56.6578 308.45 56.7261 308.438C56.809 308.407 56.8855 308.358 56.9511 308.296C57.0168 308.233 57.0703 308.157 57.1087 308.072C57.147 307.987 57.1694 307.895 57.1746 307.8C57.1798 307.706 57.1677 307.611 57.1389 307.522C54.7105 300.041 48.6395 293.136 40.7229 288.925C30.5722 283.576 23.3477 285.276 23.0441 285.355C22.8735 285.396 22.7252 285.509 22.6318 285.669C22.5384 285.828 22.5077 286.021 22.5463 286.205C22.585 286.389 22.6898 286.548 22.8379 286.649C22.9859 286.75 23.1649 286.783 23.3356 286.741C23.4084 286.741 30.4386 285.093 40.1401 290.207C47.7289 294.209 53.6177 300.852 55.9247 307.993C55.9749 308.12 56.0574 308.229 56.1627 308.308C56.2679 308.386 56.3917 308.431 56.5197 308.438Z" fill="#FAFAFA"/>
<path d="M56.1918 302.422C56.1918 302.422 54.9776 298.498 50.3029 290.822C42.2407 277.508 29.0909 271.688 23.3356 264.077C17.1432 255.864 27.8524 250.79 37.481 253.614C42.9935 255.262 48.0203 260.677 50.6551 264.325C56.2372 272.26 59.4356 281.843 59.8223 291.789L56.1918 302.422Z" fill="#0278B6"/>
<path d="M58.0009 302.735C58.1759 302.729 58.3414 302.648 58.4617 302.511C58.5821 302.374 58.6477 302.192 58.6444 302.003C58.0815 293.364 55.7998 284.956 51.9542 277.351C44.669 263.266 33.8626 258.257 33.4012 258.048C33.2475 258.009 33.0861 258.03 32.9455 258.107C32.8049 258.184 32.6942 258.313 32.6331 258.47C32.572 258.626 32.5644 258.801 32.6116 258.963C32.6589 259.126 32.7579 259.265 32.8912 259.356C40.4968 263.457 46.7487 269.976 50.8007 278.031C54.5475 285.434 56.7712 293.619 57.3209 302.029C57.3225 302.124 57.3413 302.217 57.3764 302.303C57.4114 302.39 57.4619 302.468 57.5251 302.534C57.5882 302.6 57.6628 302.651 57.7444 302.686C57.826 302.72 57.9132 302.737 58.0009 302.735Z" fill="#FAFAFA"/>
<path d="M411.066 314.192C419.796 307.875 420.185 290.874 418.922 280.189C416.918 263.188 424.993 259.264 429.109 266.771C431.1 270.42 433.602 278.345 433.322 287.578C432.873 302.042 427.057 319.345 412.972 325.622L411.066 314.192Z" fill="#0278B6"/>
<path opacity="0.2" d="M411.066 314.192C419.796 307.875 420.185 290.874 418.922 280.189C416.918 263.188 424.993 259.264 429.109 266.771C431.1 270.42 433.602 278.345 433.322 287.578C432.873 302.042 427.057 319.345 412.972 325.622L411.066 314.192Z" fill="black"/>
<path d="M412.863 324.654C413.006 324.654 413.144 324.598 413.252 324.498C428.028 310.883 430.348 286.571 426.244 269.714C426.224 269.628 426.188 269.547 426.139 269.476C426.09 269.405 426.029 269.345 425.958 269.299C425.888 269.254 425.81 269.223 425.729 269.21C425.647 269.197 425.564 269.202 425.485 269.223C425.405 269.245 425.33 269.283 425.264 269.336C425.198 269.388 425.142 269.454 425.1 269.53C425.058 269.606 425.03 269.69 425.018 269.778C425.005 269.866 425.009 269.955 425.029 270.041C429.036 286.506 426.814 310.256 412.426 323.504C412.365 323.559 412.315 323.626 412.279 323.703C412.243 323.779 412.222 323.862 412.216 323.948C412.211 324.033 412.221 324.119 412.247 324.2C412.272 324.28 412.312 324.355 412.365 324.419C412.424 324.499 412.5 324.562 412.587 324.603C412.674 324.644 412.769 324.662 412.863 324.654Z" fill="#FAFAFA"/>
<path d="M397.941 345.579C405.541 351.464 423.014 356.552 428.696 346.469C433.978 337.092 430.445 332.998 441.166 334.62C451.888 336.242 454.352 327.27 451.815 319.685C449.277 312.1 459.841 301.127 452.13 292.574C444.42 284.021 439.988 301.807 435.52 303.73C431.052 305.652 428.32 301.506 423.172 304.527C418.023 307.548 417.526 319.907 412.511 320.143C404.303 320.548 390.485 320.483 389.441 328.369C388.397 336.255 397.941 345.579 397.941 345.579Z" fill="#0278B6"/>
<path d="M394.796 342.126H394.857C434.622 337.654 450.006 300.277 450.953 294.836C450.967 294.75 450.966 294.662 450.949 294.577C450.931 294.492 450.899 294.411 450.853 294.339C450.806 294.268 450.747 294.207 450.679 294.16C450.611 294.112 450.535 294.08 450.455 294.065C450.376 294.049 450.294 294.051 450.215 294.069C450.136 294.088 450.061 294.123 449.994 294.173C449.928 294.223 449.871 294.286 449.827 294.36C449.783 294.433 449.753 294.515 449.739 294.601C448.816 299.95 433.748 336.451 394.711 340.832C394.631 340.84 394.554 340.865 394.483 340.906C394.412 340.946 394.35 341.002 394.299 341.069C394.248 341.136 394.21 341.213 394.187 341.295C394.164 341.378 394.157 341.465 394.165 341.551C394.186 341.714 394.262 341.863 394.378 341.969C394.495 342.075 394.644 342.131 394.796 342.126Z" fill="#FAFAFA"/>
<path d="M438.277 325.387C440.786 325.386 443.292 325.168 445.768 324.733C445.926 324.701 446.065 324.603 446.156 324.461C446.247 324.319 446.282 324.144 446.254 323.974C446.241 323.889 446.212 323.808 446.169 323.736C446.127 323.663 446.071 323.601 446.005 323.552C445.939 323.503 445.865 323.469 445.787 323.452C445.709 323.434 445.628 323.434 445.55 323.451C441.015 324.255 436.388 324.255 431.854 323.451C431.694 323.416 431.529 323.45 431.392 323.545C431.256 323.641 431.16 323.79 431.125 323.961C431.109 324.045 431.109 324.132 431.124 324.216C431.139 324.301 431.169 324.381 431.213 324.452C431.257 324.524 431.314 324.586 431.38 324.634C431.446 324.682 431.52 324.715 431.599 324.733C433.798 325.197 436.036 325.416 438.277 325.387Z" fill="#FAFAFA"/>
<path d="M426.414 329.297H426.547C426.703 329.259 426.838 329.157 426.925 329.013C427.011 328.869 427.041 328.693 427.009 328.525C425.782 322.702 425.491 316.695 426.147 310.765C426.172 310.592 426.133 310.415 426.037 310.272C425.942 310.13 425.798 310.035 425.637 310.007C425.476 309.979 425.311 310.021 425.179 310.124C425.047 310.227 424.958 310.383 424.932 310.556C424.229 316.667 424.525 322.864 425.807 328.865C425.851 328.998 425.934 329.112 426.044 329.19C426.153 329.268 426.283 329.305 426.414 329.297Z" fill="#FAFAFA"/>
<path d="M500.832 278.122L481.769 266.274C480.852 265.777 479.839 265.518 478.813 265.518C477.786 265.518 476.773 265.777 475.856 266.274L473.428 267.778C472.564 268.381 471.846 269.195 471.331 270.154C470.816 271.113 470.519 272.19 470.465 273.297V296.994C470.521 298.1 470.819 299.176 471.334 300.135C471.849 301.094 472.566 301.908 473.428 302.513L492.478 314.362C493.396 314.858 494.408 315.117 495.435 315.117C496.462 315.117 497.474 314.858 498.392 314.362L500.82 312.858C501.681 312.253 502.397 311.438 502.909 310.479C503.422 309.52 503.717 308.444 503.771 307.339V283.641C503.716 282.538 503.421 281.464 502.911 280.505C502.401 279.547 501.689 278.731 500.832 278.122Z" fill="#0278B6"/>
<path opacity="0.5" d="M500.832 278.122L481.769 266.274C480.852 265.777 479.839 265.518 478.813 265.518C477.786 265.518 476.773 265.777 475.856 266.274L473.428 267.778C472.564 268.381 471.846 269.195 471.331 270.154C470.816 271.113 470.519 272.19 470.465 273.297V296.994C470.521 298.1 470.819 299.176 471.334 300.135C471.849 301.094 472.566 301.908 473.428 302.513L492.478 314.362C493.396 314.858 494.408 315.117 495.435 315.117C496.462 315.117 497.474 314.858 498.392 314.362L500.82 312.858C501.681 312.253 502.397 311.438 502.909 310.479C503.422 309.52 503.717 308.444 503.771 307.339V283.641C503.716 282.538 503.421 281.464 502.911 280.505C502.401 279.547 501.689 278.731 500.832 278.122Z" fill="#FAFAFA"/>
<path d="M470.49 273.297C470.49 271.257 471.813 270.433 473.452 271.453L492.503 283.301C493.365 283.906 494.082 284.721 494.597 285.679C495.112 286.638 495.409 287.714 495.466 288.82V312.518C495.466 314.545 494.142 315.369 492.503 314.362L473.452 302.513C472.591 301.908 471.873 301.094 471.359 300.135C470.844 299.176 470.546 298.1 470.49 296.994V273.297Z" fill="#0278B6"/>
<path d="M503.783 307.339C503.734 308.449 503.44 309.53 502.928 310.494C502.415 311.458 501.697 312.277 500.833 312.884L498.404 314.388C497.571 314.839 496.659 315.094 495.727 315.137C494.796 315.179 493.867 315.009 493.001 314.637C494.397 315.212 495.429 314.362 495.429 312.544V288.821C495.397 287.71 495.096 286.628 494.555 285.682L502.885 280.451C503.414 281.401 503.711 282.481 503.747 283.589L503.783 307.339Z" fill="#0278B6"/>
<path opacity="0.1" d="M503.783 307.339C503.734 308.449 503.44 309.53 502.928 310.494C502.415 311.458 501.697 312.277 500.833 312.884L498.404 314.388C497.571 314.839 496.659 315.094 495.727 315.137C494.796 315.179 493.867 315.009 493.001 314.637C494.397 315.212 495.429 314.362 495.429 312.544V288.821C495.397 287.71 495.096 286.628 494.555 285.682L502.885 280.451C503.414 281.401 503.711 282.481 503.747 283.589L503.783 307.339Z" fill="black"/>
<path d="M491.046 290.442L474.836 280.333C474.411 280.058 474.059 280.333 474.059 280.817V292.587C474.073 292.881 474.151 293.168 474.285 293.425C474.42 293.681 474.609 293.9 474.836 294.065L491.046 304.252C491.483 304.527 491.835 304.252 491.835 303.755V291.985C491.829 291.678 491.754 291.378 491.617 291.109C491.479 290.84 491.283 290.611 491.046 290.442Z" fill="#FAFAFA"/>
<path d="M491.835 290.939L482.158 294.326L474.059 279.836L481.891 295.543L491.835 290.939Z" fill="#E0E0E0"/>
<path d="M500.833 218.317L481.77 206.468C480.854 205.965 479.841 205.703 478.813 205.703C477.785 205.703 476.772 205.965 475.857 206.468L473.428 207.972C472.569 208.577 471.855 209.393 471.344 210.352C470.833 211.311 470.541 212.387 470.49 213.491V237.188C470.544 238.293 470.841 239.368 471.356 240.325C471.871 241.282 472.59 242.094 473.452 242.694L492.503 254.543C493.419 255.046 494.432 255.308 495.46 255.308C496.488 255.308 497.501 255.046 498.416 254.543L500.845 253.052C501.706 252.44 502.421 251.618 502.932 250.652C503.442 249.686 503.734 248.604 503.783 247.494V223.836C503.727 222.731 503.431 221.656 502.918 220.698C502.406 219.739 501.691 218.924 500.833 218.317Z" fill="#0278B6"/>
<path opacity="0.5" d="M500.833 218.317L481.77 206.468C480.854 205.965 479.841 205.703 478.813 205.703C477.785 205.703 476.772 205.965 475.857 206.468L473.428 207.972C472.569 208.577 471.855 209.393 471.344 210.352C470.833 211.311 470.541 212.387 470.49 213.491V237.188C470.544 238.293 470.841 239.368 471.356 240.325C471.871 241.282 472.59 242.094 473.452 242.694L492.503 254.543C493.419 255.046 494.432 255.308 495.46 255.308C496.488 255.308 497.501 255.046 498.416 254.543L500.845 253.052C501.706 252.44 502.421 251.618 502.932 250.652C503.442 249.686 503.734 248.604 503.783 247.494V223.836C503.727 222.731 503.431 221.656 502.918 220.698C502.406 219.739 501.691 218.924 500.833 218.317Z" fill="#FAFAFA"/>
<path d="M470.49 213.491C470.49 211.451 471.813 210.627 473.452 211.647L492.503 223.496C493.366 224.099 494.084 224.913 494.599 225.872C495.114 226.831 495.411 227.908 495.466 229.015V252.725C495.466 254.752 494.142 255.576 492.503 254.556L473.452 242.707C472.59 242.107 471.871 241.295 471.356 240.338C470.841 239.381 470.544 238.306 470.49 237.201V213.491Z" fill="#0278B6"/>
<path d="M503.783 247.494C503.727 248.598 503.431 249.673 502.918 250.632C502.406 251.59 501.691 252.406 500.833 253.013L498.404 254.504C497.573 254.959 496.661 255.219 495.729 255.264C494.797 255.309 493.867 255.139 493.001 254.765C494.397 255.327 495.429 254.49 495.429 252.673V229.014C495.397 227.904 495.096 226.822 494.555 225.876L502.885 220.645C503.414 221.595 503.711 222.675 503.747 223.783L503.783 247.494Z" fill="#0278B6"/>
<path opacity="0.1" d="M503.783 247.494C503.727 248.598 503.431 249.673 502.918 250.632C502.406 251.59 501.691 252.406 500.833 253.013L498.404 254.504C497.573 254.959 496.661 255.219 495.729 255.264C494.797 255.309 493.867 255.139 493.001 254.765C494.397 255.327 495.429 254.49 495.429 252.673V229.014C495.397 227.904 495.096 226.822 494.555 225.876L502.885 220.645C503.414 221.595 503.711 222.675 503.747 223.783L503.783 247.494Z" fill="black"/>
<path d="M483.166 242.263L485.133 242.027C487.804 241.792 490.985 240.72 490.985 236.548C490.908 235.033 490.501 233.559 489.797 232.246C489.092 230.933 488.11 229.817 486.93 228.989C485.181 227.903 483.7 228.348 483.129 229.917C482.554 227.589 481.201 225.573 479.329 224.254C477.083 222.868 475.274 223.993 475.274 226.778C475.274 230.806 478.43 235.933 481.09 239.477L483.166 242.263Z" fill="#FAFAFA"/>
<path d="M500.832 158.563L481.769 146.715C480.853 146.212 479.84 145.95 478.813 145.95C477.785 145.95 476.772 146.212 475.856 146.715L473.428 148.219C472.565 148.819 471.846 149.631 471.331 150.588C470.816 151.545 470.519 152.62 470.465 153.725V177.422C470.519 178.529 470.815 179.606 471.33 180.565C471.845 181.525 472.564 182.339 473.428 182.941L492.478 194.79C493.394 195.292 494.407 195.555 495.435 195.555C496.463 195.555 497.476 195.292 498.392 194.79L500.82 193.299C501.679 192.692 502.393 191.876 502.906 190.918C503.418 189.959 503.714 188.884 503.771 187.78V164.043C503.71 162.947 503.413 161.88 502.903 160.929C502.393 159.978 501.684 159.168 500.832 158.563Z" fill="#0278B6"/>
<path opacity="0.5" d="M500.832 158.563L481.769 146.715C480.853 146.212 479.84 145.95 478.813 145.95C477.785 145.95 476.772 146.212 475.856 146.715L473.428 148.219C472.565 148.819 471.846 149.631 471.331 150.588C470.816 151.545 470.519 152.62 470.465 153.725V177.422C470.519 178.529 470.815 179.606 471.33 180.565C471.845 181.525 472.564 182.339 473.428 182.941L492.478 194.79C493.394 195.292 494.407 195.555 495.435 195.555C496.463 195.555 497.476 195.292 498.392 194.79L500.82 193.299C501.679 192.692 502.393 191.876 502.906 190.918C503.418 189.959 503.714 188.884 503.771 187.78V164.043C503.71 162.947 503.413 161.88 502.903 160.929C502.393 159.978 501.684 159.168 500.832 158.563Z" fill="#FAFAFA"/>
<path d="M492.503 194.75C494.142 195.77 495.466 194.946 495.466 192.919V169.222C495.412 168.115 495.116 167.038 494.601 166.079C494.086 165.119 493.367 164.305 492.503 163.703L473.452 151.854C471.813 150.834 470.49 151.658 470.49 153.685V177.383C470.543 178.489 470.84 179.567 471.355 180.526C471.87 181.485 472.589 182.299 473.452 182.902" fill="#0278B6"/>
<path d="M503.783 187.74C503.727 188.845 503.431 189.92 502.918 190.878C502.406 191.837 501.691 192.653 500.833 193.259L498.404 194.75C497.573 195.206 496.661 195.465 495.729 195.51C494.797 195.556 493.867 195.386 493.001 195.012C494.397 195.574 495.429 194.737 495.429 192.919V169.222C495.397 168.112 495.096 167.029 494.555 166.083L502.885 160.852C503.414 161.803 503.711 162.883 503.747 163.991L503.783 187.74Z" fill="#0278B6"/>
<path opacity="0.1" d="M503.783 187.74C503.727 188.845 503.431 189.92 502.918 190.878C502.406 191.837 501.691 192.653 500.833 193.259L498.404 194.75C497.573 195.206 496.661 195.465 495.729 195.51C494.797 195.556 493.867 195.386 493.001 195.012C494.397 195.574 495.429 194.737 495.429 192.919V169.222C495.397 168.112 495.096 167.029 494.555 166.083L502.885 160.852C503.414 161.803 503.711 162.883 503.747 163.991L503.783 187.74Z" fill="black"/>
<path d="M486.456 172.949C486.456 172.949 484.234 167.43 484.028 166.633C483.917 165.266 483.917 163.892 484.028 162.526C484.028 162.003 482 160.525 481.344 162.042C480.714 163.656 480.594 165.448 481.004 167.143L476.063 164.043C475.018 163.389 474.593 164.305 474.581 165.037C474.615 165.872 474.896 166.674 475.383 167.326C475.383 167.326 474.387 167.012 474.387 168.437C474.417 168.939 474.539 169.429 474.748 169.878C474.956 170.327 475.247 170.727 475.601 171.053C475.601 171.053 475.285 171.315 475.273 172.361C475.42 173.387 475.913 174.318 476.658 174.976C476.493 175.389 476.419 175.836 476.439 176.284C476.5 176.91 476.695 177.513 477.009 178.044C477.323 178.575 477.747 179.02 478.248 179.344L486.347 184.458L486.456 172.949Z" fill="#FAFAFA"/>
<path d="M491.142 188.983L487.585 186.746L487.633 173.407L491.203 175.643L491.142 188.983Z" fill="#FAFAFA"/>
<path d="M511.261 88.5436L482.048 70.3782C480.644 69.6109 479.092 69.2109 477.519 69.2109C475.945 69.2109 474.393 69.6109 472.99 70.3782L469.347 72.6669C468.025 73.592 466.924 74.8408 466.135 76.3113C465.345 77.7817 464.89 79.4323 464.806 81.1284V117.459C464.897 119.146 465.355 120.787 466.144 122.248C466.933 123.709 468.03 124.949 469.347 125.868L498.488 144.073C499.893 144.84 501.447 145.24 503.023 145.24C504.599 145.24 506.152 144.84 507.558 144.073L511.201 141.784C512.519 140.856 513.617 139.606 514.404 138.136C515.19 136.666 515.645 135.017 515.729 133.323V96.992C515.651 95.3052 515.206 93.6617 514.43 92.1942C513.654 90.7267 512.569 89.4762 511.261 88.5436Z" fill="#0278B6"/>
<path opacity="0.1" d="M511.261 88.5436L482.048 70.3782C480.644 69.6109 479.092 69.2109 477.519 69.2109C475.945 69.2109 474.393 69.6109 472.99 70.3782L469.347 72.6669C468.025 73.592 466.924 74.8408 466.135 76.3113C465.345 77.7817 464.89 79.4323 464.806 81.1284V117.459C464.897 119.146 465.355 120.787 466.144 122.248C466.933 123.709 468.03 124.949 469.347 125.868L498.488 144.073C499.893 144.84 501.447 145.24 503.023 145.24C504.599 145.24 506.152 144.84 507.558 144.073L511.201 141.784C512.519 140.856 513.617 139.606 514.404 138.136C515.19 136.666 515.645 135.017 515.729 133.323V96.992C515.651 95.3052 515.206 93.6617 514.43 92.1942C513.654 90.7267 512.569 89.4762 511.261 88.5436Z" fill="black"/>
<path d="M464.758 80.9061C464.758 79.0883 465.584 74.5633 469.919 77.4274C474.253 80.2915 495.55 93.2518 498.489 95.1351C500.528 96.3399 502.138 98.2397 503.066 100.536L500.747 103.047L464.758 80.9061Z" fill="#0278B6"/>
<path opacity="0.2" d="M464.758 80.9061C464.758 79.0883 465.584 74.5633 469.919 77.4274C474.253 80.2915 495.55 93.2518 498.489 95.1351C500.528 96.3399 502.138 98.2397 503.066 100.536L500.747 103.047L464.758 80.9061Z" fill="black"/>
<path d="M498.489 144.073C501.003 145.629 503.03 144.374 503.03 141.261V104.943C502.948 103.245 502.493 101.592 501.704 100.119C500.915 98.646 499.813 97.3952 498.489 96.4687L469.348 78.3034C466.835 76.7471 464.807 78.0156 464.807 81.1282V117.459C464.898 119.146 465.356 120.787 466.145 122.248C466.934 123.709 468.032 124.949 469.348 125.868" fill="#0278B6"/>
<path opacity="0.1" d="M498.489 144.073C501.003 145.629 503.03 144.374 503.03 141.261V104.943C502.948 103.245 502.493 101.592 501.704 100.119C500.915 98.646 499.813 97.3952 498.489 96.4687L469.348 78.3034C466.835 76.7471 464.807 78.0156 464.807 81.1282V117.459C464.898 119.146 465.356 120.787 466.145 122.248C466.934 123.709 468.032 124.949 469.348 125.868" fill="black"/>
<path d="M515.791 133.323C515.706 135.017 515.252 136.666 514.465 138.136C513.678 139.606 512.581 140.856 511.262 141.784L507.62 144.073C506.342 144.766 504.942 145.16 503.512 145.228C502.083 145.295 500.656 145.035 499.327 144.465C501.464 145.341 503.091 144.047 503.091 141.261V104.943C503.035 103.243 502.576 101.585 501.755 100.131L514.516 92.1924C515.334 93.6478 515.789 95.3051 515.84 97.0051L515.791 133.323Z" fill="#0278B6"/>
<path opacity="0.2" d="M515.791 133.323C515.706 135.017 515.252 136.666 514.465 138.136C513.678 139.606 512.581 140.856 511.262 141.784L507.62 144.073C506.342 144.766 504.942 145.16 503.512 145.228C502.083 145.295 500.656 145.035 499.327 144.465C501.464 145.341 503.091 144.047 503.091 141.261V104.943C503.035 103.243 502.576 101.585 501.755 100.131L514.516 92.1924C515.334 93.6478 515.789 95.3051 515.84 97.0051L515.791 133.323Z" fill="black"/>
<path d="M483.02 92.2315L479.232 99.4244L470.733 95.6841C469.931 95.331 469.603 96.3511 470.186 97.4235L476.318 108.671L474.873 118.27C474.74 119.185 475.577 120.454 476.294 120.441L483.919 120.192L491.508 129.87C492.224 130.786 493.062 130.55 492.928 129.465L491.459 118.021L497.53 114.399C498.113 114.059 497.785 112.633 496.984 111.992L488.484 105.192L484.696 93.2778C484.417 92.1923 483.385 91.5515 483.02 92.2315Z" fill="#FAFAFA"/>
<path d="M403.538 344.886C403.408 346.788 402.865 348.63 401.951 350.264C401.038 351.897 399.781 353.276 398.281 354.289L250.962 445.835C249.332 446.726 247.531 447.19 245.704 447.19C243.877 447.19 242.076 446.726 240.447 445.835L38.8891 320.483C37.3004 319.579 35.9706 318.226 35.043 316.57C34.1155 314.913 33.6253 313.014 33.6253 311.079C33.6253 309.145 34.1155 307.246 35.043 305.589C35.9706 303.932 37.3004 302.58 38.8891 301.676L186.196 210.13C187.825 209.24 189.627 208.776 191.454 208.776C193.28 208.776 195.082 209.24 196.711 210.13L398.268 335.483C399.771 336.495 401.031 337.873 401.946 339.507C402.862 341.14 403.407 342.983 403.538 344.886Z" fill="#37474F"/>
<path d="M342.756 300.957L398.281 335.483C399.87 336.386 401.2 337.739 402.127 339.396C403.055 341.053 403.545 342.951 403.545 344.886C403.545 346.821 403.055 348.719 402.127 350.376C401.2 352.033 399.87 353.386 398.281 354.289L250.962 445.835C249.342 446.747 247.532 447.197 245.705 447.143V300.957H342.756Z" fill="#263238"/>
<path d="M408.468 335.679C409.934 334.611 411.144 333.184 412.001 331.516C412.858 329.848 413.336 327.985 413.397 326.08V136.723C413.301 134.758 412.774 132.845 411.86 131.14C410.947 129.436 409.672 127.988 408.14 126.915L206.582 1.62725C205.061 0.599379 203.308 0.0374375 201.513 0.00180655C199.717 -0.0338244 197.946 0.458206 196.391 1.42502C194.835 2.39184 193.554 3.79689 192.684 5.48923C191.814 7.18157 191.389 9.09722 191.454 11.0303V200.322C191.551 202.287 192.078 204.199 192.992 205.904C193.906 207.608 195.18 209.056 196.711 210.13L398.269 335.483C399.834 336.378 401.574 336.863 403.346 336.897C405.119 336.931 406.874 336.514 408.468 335.679Z" fill="#455A64"/>
<path d="M388.737 145.485L411.807 131.1C412.749 132.786 413.276 134.704 413.337 136.671V326.08C413.4 328.011 412.974 329.924 412.105 331.615C411.236 333.305 409.956 334.708 408.402 335.675C406.848 336.641 405.08 337.134 403.286 337.1C401.492 337.066 399.741 336.507 398.22 335.483L375.235 321.189L388.737 145.485Z" fill="#263238"/>
<path d="M403.538 142.87V332.214C403.538 335.823 401.183 337.288 398.281 335.483L196.723 210.13C195.192 209.056 193.918 207.608 193.004 205.904C192.09 204.2 191.563 202.287 191.466 200.322V10.9782C191.466 7.36869 193.821 5.90395 196.723 7.70872L398.281 133.048C399.811 134.126 401.085 135.577 401.998 137.283C402.912 138.989 403.439 140.903 403.538 142.87Z" fill="#37474F"/>
<path d="M398.28 342.022L250.961 433.634C249.332 434.524 247.531 434.988 245.704 434.988C243.877 434.988 242.075 434.524 240.446 433.634L38.8886 308.281C35.9745 306.476 35.9745 303.547 38.8886 301.742L186.196 210.13C187.825 209.24 189.626 208.776 191.453 208.776C193.28 208.776 195.081 209.24 196.711 210.13L398.268 335.483C401.182 337.288 401.182 340.217 398.28 342.022Z" fill="#455A64"/>
<path d="M395.451 143.563L199.54 21.7411C197.804 20.6556 196.383 21.5318 196.383 23.7028V187.61C196.444 188.788 196.762 189.935 197.31 190.957C197.859 191.98 198.623 192.849 199.54 193.495L395.451 315.316C397.2 316.402 398.608 315.526 398.608 313.355V149.409C398.544 148.236 398.225 147.096 397.677 146.08C397.129 145.065 396.366 144.203 395.451 143.563Z" fill="#FAFAFA"/>
<path d="M381.185 337.118L194.088 220.723C193.274 220.279 192.373 220.047 191.46 220.047C190.546 220.047 189.646 220.279 188.831 220.723L179.251 226.674C178.934 226.79 178.658 227.01 178.463 227.303C178.268 227.596 178.163 227.948 178.163 228.309C178.163 228.669 178.268 229.021 178.463 229.314C178.658 229.607 178.934 229.827 179.251 229.943L366.384 346.325C367.198 346.769 368.099 347.001 369.012 347.001C369.926 347.001 370.826 346.769 371.641 346.325L381.185 340.348C381.49 340.224 381.752 340.003 381.937 339.715C382.122 339.426 382.222 339.084 382.222 338.733C382.222 338.382 382.122 338.039 381.937 337.751C381.752 337.462 381.49 337.241 381.185 337.118Z" fill="#263238"/>
<path d="M356.524 352.458L169.428 236.064C168.613 235.619 167.712 235.387 166.799 235.387C165.886 235.387 164.985 235.619 164.17 236.064L105.306 272.682C104.989 272.798 104.713 273.018 104.518 273.311C104.323 273.604 104.218 273.956 104.218 274.317C104.218 274.678 104.323 275.029 104.518 275.322C104.713 275.616 104.989 275.836 105.306 275.952L292.184 392.163C293 392.608 293.903 392.839 294.818 392.839C295.734 392.839 296.636 392.608 297.453 392.163L356.512 355.701C356.827 355.587 357.1 355.37 357.295 355.08C357.489 354.79 357.594 354.442 357.596 354.084C357.597 353.727 357.494 353.378 357.302 353.086C357.11 352.794 356.838 352.575 356.524 352.458Z" fill="#263238"/>
<path d="M188.807 288.454L182.942 284.805C182.7 284.649 182.712 284.387 182.942 284.23L189.718 280.019C189.862 279.939 190.022 279.897 190.185 279.897C190.348 279.897 190.508 279.939 190.653 280.019L196.505 283.668C196.76 283.812 196.748 284.073 196.505 284.243L189.73 288.454C189.587 288.532 189.429 288.573 189.268 288.573C189.108 288.573 188.95 288.532 188.807 288.454ZM200.366 273.977L206.219 277.573C206.474 277.73 206.462 277.992 206.219 278.162L199.443 282.373C199.298 282.45 199.138 282.49 198.976 282.49C198.814 282.49 198.654 282.45 198.508 282.373L192.644 278.724C192.401 278.567 192.413 278.306 192.644 278.149L199.419 273.925C199.57 273.853 199.734 273.821 199.898 273.83C200.063 273.839 200.223 273.889 200.366 273.977ZM219.296 285.747L229.203 291.959C229.458 292.116 229.434 292.378 229.203 292.548L222.428 296.759C222.283 296.836 222.123 296.876 221.961 296.876C221.799 296.876 221.639 296.836 221.493 296.759L211.585 290.599C211.343 290.442 211.355 290.181 211.585 290.024L218.361 285.799C218.502 285.714 218.66 285.665 218.822 285.656C218.985 285.647 219.146 285.678 219.296 285.747ZM208.926 279.3L214.791 282.948C215.034 283.092 215.022 283.354 214.791 283.524L208.016 287.735C207.871 287.815 207.711 287.857 207.548 287.857C207.386 287.857 207.225 287.815 207.081 287.735L201.228 284.086C200.973 283.929 200.985 283.668 201.228 283.511L208.004 279.3C208.147 279.222 208.305 279.181 208.465 279.181C208.625 279.181 208.783 279.222 208.926 279.3ZM231.911 293.594L237.764 297.19C238.019 297.347 237.994 297.609 237.764 297.779L230.988 301.99C230.844 302.07 230.684 302.112 230.521 302.112C230.358 302.112 230.198 302.07 230.053 301.99L224.189 298.354C223.946 298.197 223.958 297.936 224.189 297.779L230.964 293.555C231.114 293.481 231.278 293.447 231.442 293.453C231.606 293.46 231.767 293.508 231.911 293.594ZM240.471 298.917L246.324 302.552C246.579 302.709 246.567 302.971 246.324 303.141L239.548 307.352C239.403 307.429 239.243 307.469 239.081 307.469C238.919 307.469 238.759 307.429 238.614 307.352L232.749 303.703C232.506 303.546 232.518 303.285 232.749 303.128L239.524 298.904C239.672 298.826 239.835 298.787 239.999 298.789C240.164 298.792 240.325 298.835 240.471 298.917ZM213.82 316.049L207.967 312.4C207.724 312.243 207.736 311.982 207.967 311.825L214.779 307.653C214.923 307.572 215.084 307.531 215.246 307.531C215.409 307.531 215.569 307.572 215.714 307.653L221.566 311.302C221.821 311.445 221.797 311.707 221.566 311.877L214.791 316.088C214.639 316.169 214.47 316.208 214.301 316.201C214.131 316.194 213.966 316.142 213.82 316.049ZM222.392 321.372L216.527 317.723C216.284 317.566 216.297 317.317 216.527 317.147L223.339 312.884C223.483 312.804 223.644 312.762 223.806 312.762C223.969 312.762 224.129 312.804 224.274 312.884L230.151 316.559C230.406 316.703 230.381 316.964 230.151 317.134L223.375 321.345C223.227 321.439 223.059 321.49 222.887 321.495C222.715 321.499 222.544 321.457 222.392 321.372ZM230.952 326.694L225.087 323.046C224.844 322.902 224.857 322.64 225.087 322.47L231.863 318.259C232.007 318.179 232.167 318.137 232.33 318.137C232.493 318.137 232.653 318.179 232.798 318.259L238.65 321.882C238.905 322.039 238.893 322.3 238.65 322.457L231.875 326.668C231.734 326.75 231.577 326.796 231.416 326.8C231.256 326.805 231.097 326.768 230.952 326.694ZM239.451 332.017L233.587 328.368C233.344 328.225 233.356 327.963 233.587 327.793L240.362 323.582C240.507 323.502 240.667 323.46 240.829 323.46C240.992 323.46 241.152 323.502 241.297 323.582L247.246 327.27C247.501 327.427 247.489 327.688 247.246 327.845L240.471 332.056C240.321 332.135 240.154 332.173 239.987 332.166C239.82 332.159 239.657 332.108 239.512 332.017H239.451ZM197.367 293.777L191.515 290.128C191.26 289.971 191.272 289.723 191.515 289.553L198.29 285.342C198.434 285.261 198.595 285.22 198.757 285.22C198.92 285.22 199.08 285.261 199.225 285.342L205.077 288.99C205.332 289.147 205.32 289.396 205.077 289.566L198.302 293.777C198.157 293.857 197.997 293.899 197.835 293.899C197.672 293.899 197.512 293.857 197.367 293.777ZM205.259 310.778L192.195 302.644C191.952 302.487 191.964 302.225 192.195 302.068L208.647 291.841C208.792 291.761 208.952 291.719 209.115 291.719C209.277 291.719 209.437 291.761 209.582 291.841L216.333 296.039C216.588 296.196 216.576 296.458 216.333 296.628L207.615 302.042C207.348 302.212 207.336 302.474 207.615 302.618L213.018 305.992C213.261 306.136 213.249 306.397 213.018 306.567L206.243 310.778C206.087 310.856 205.917 310.892 205.745 310.883C205.574 310.874 205.407 310.82 205.259 310.726V310.778ZM249.031 304.239L254.884 307.888C255.139 308.032 255.127 308.294 254.884 308.464L248.109 312.675C247.963 312.752 247.803 312.792 247.641 312.792C247.479 312.792 247.319 312.752 247.174 312.675L241.309 309.026C241.066 308.869 241.078 308.607 241.309 308.451L248.084 304.239C248.23 304.157 248.393 304.114 248.558 304.114C248.723 304.114 248.885 304.157 249.031 304.239ZM257.531 309.562L263.395 313.211C263.638 313.368 263.626 313.616 263.395 313.786L256.62 317.997C256.476 318.078 256.315 318.12 256.153 318.12C255.99 318.12 255.83 318.078 255.685 317.997L249.833 314.349C249.578 314.192 249.59 313.93 249.833 313.773L256.608 309.562C256.759 309.473 256.928 309.426 257.1 309.426C257.272 309.426 257.441 309.473 257.592 309.562H257.531ZM300.319 369.263C300.175 369.344 300.014 369.386 299.852 369.386C299.689 369.386 299.529 369.344 299.384 369.263L293.52 365.615C293.277 365.458 293.289 365.196 293.52 365.039L300.295 360.828C300.44 360.748 300.6 360.706 300.762 360.706C300.925 360.706 301.085 360.748 301.23 360.828L307.082 364.477C307.337 364.634 307.325 364.882 307.082 365.052L300.319 369.263ZM326.072 352.118L331.937 355.767C332.18 355.911 332.168 356.172 331.937 356.342L325.162 360.553C325.016 360.631 324.856 360.671 324.694 360.671C324.532 360.671 324.372 360.631 324.227 360.553L318.374 356.905C318.119 356.748 318.132 356.486 318.374 356.329L325.15 352.118C325.293 352.04 325.451 351.999 325.611 351.999C325.771 351.999 325.929 352.04 326.072 352.118ZM312.291 364.608C312.147 364.688 311.986 364.73 311.824 364.73C311.661 364.73 311.501 364.688 311.356 364.608L305.504 360.959C305.249 360.802 305.273 360.553 305.504 360.383L312.267 356.172C312.412 356.092 312.572 356.05 312.734 356.05C312.897 356.05 313.057 356.092 313.202 356.172L319.067 359.821C319.309 359.978 319.297 360.226 319.067 360.396L312.291 364.608ZM285.251 372.454L279.386 368.806C279.144 368.649 279.156 368.387 279.386 368.23L286.162 364.006C286.307 363.929 286.467 363.889 286.629 363.889C286.791 363.889 286.951 363.929 287.097 364.006L292.949 367.655C293.204 367.799 293.192 368.06 292.949 368.23L286.174 372.441C286.037 372.528 285.884 372.578 285.726 372.59C285.568 372.601 285.409 372.573 285.263 372.507L285.251 372.454ZM294.746 377.751C294.602 377.831 294.441 377.873 294.279 377.873C294.116 377.873 293.956 377.831 293.811 377.751L287.947 374.102C287.704 373.945 287.716 373.684 287.947 373.527L294.722 369.316C294.866 369.235 295.027 369.193 295.189 369.193C295.352 369.193 295.512 369.235 295.657 369.316L301.558 373.043C301.813 373.187 301.801 373.448 301.558 373.618L294.746 377.751ZM317.573 346.887L323.438 350.523C323.681 350.679 323.668 350.941 323.438 351.111L316.662 355.322C316.517 355.399 316.357 355.44 316.195 355.44C316.033 355.44 315.873 355.399 315.727 355.322L309.875 351.673C309.62 351.516 309.632 351.255 309.875 351.098L316.59 346.887C316.741 346.801 316.91 346.756 317.081 346.756C317.253 346.756 317.421 346.801 317.573 346.887ZM274.712 320.208L280.576 323.856C280.819 324.013 280.807 324.275 280.576 324.432L273.801 328.643C273.657 328.723 273.496 328.765 273.334 328.765C273.171 328.765 273.011 328.723 272.866 328.643L267.014 324.994C266.759 324.85 266.783 324.589 267.014 324.419L273.777 320.208C273.922 320.13 274.082 320.09 274.244 320.09C274.406 320.09 274.566 320.13 274.712 320.208ZM308.964 341.512L314.817 345.147C315.072 345.304 315.06 345.566 314.817 345.736L308.042 349.947C307.896 350.024 307.736 350.065 307.574 350.065C307.412 350.065 307.252 350.024 307.107 349.947L301.242 346.311C300.999 346.154 301.011 345.893 301.242 345.723L308.017 341.512C308.164 341.432 308.326 341.391 308.491 341.391C308.655 341.391 308.817 341.432 308.964 341.512ZM266.152 314.885L272.016 318.534C272.259 318.691 272.247 318.939 272.016 319.109L265.241 323.32C265.096 323.401 264.936 323.442 264.774 323.442C264.611 323.442 264.451 323.401 264.306 323.32L258.454 319.671C258.199 319.515 258.211 319.266 258.454 319.096L265.229 314.885C265.372 314.807 265.53 314.766 265.69 314.766C265.851 314.766 266.009 314.807 266.152 314.885ZM283.284 325.53L289.136 329.179C289.391 329.336 289.367 329.598 289.136 329.755L282.361 333.979C282.216 334.056 282.056 334.096 281.894 334.096C281.732 334.096 281.572 334.056 281.426 333.979L275.574 330.343C275.319 330.186 275.343 329.925 275.574 329.755L282.361 325.557C282.503 325.477 282.66 325.434 282.82 325.429C282.98 325.425 283.138 325.459 283.284 325.53ZM291.844 330.866L297.697 334.502C297.952 334.659 297.927 334.92 297.697 335.077L290.861 339.302C290.717 339.379 290.559 339.419 290.399 339.419C290.239 339.419 290.081 339.379 289.938 339.302L284.073 335.666C283.83 335.509 283.843 335.247 284.073 335.077L290.861 330.879C291.01 330.788 291.179 330.739 291.351 330.737C291.523 330.734 291.692 330.779 291.844 330.866ZM300.404 336.189L306.257 339.825C306.512 339.982 306.487 340.243 306.257 340.413L299.481 344.624C299.336 344.702 299.176 344.742 299.014 344.742C298.852 344.742 298.692 344.702 298.547 344.624L292.682 340.989C292.439 340.832 292.451 340.57 292.682 340.4L299.457 336.189C299.604 336.11 299.766 336.068 299.931 336.068C300.095 336.068 300.257 336.11 300.404 336.189ZM256.632 342.663L250.792 339.04C250.537 338.883 250.549 338.622 250.792 338.451L257.567 334.24C257.712 334.16 257.872 334.118 258.035 334.118C258.197 334.118 258.358 334.16 258.502 334.24L264.367 337.876C264.61 338.033 264.597 338.295 264.367 338.465L257.592 342.676C257.442 342.755 257.277 342.795 257.11 342.793C256.944 342.791 256.78 342.746 256.632 342.663ZM181.437 262.207L187.301 265.803C187.544 265.947 187.532 266.209 187.301 266.379L180.526 270.59C180.381 270.667 180.221 270.707 180.059 270.707C179.897 270.707 179.737 270.667 179.591 270.59L173.739 266.941C173.484 266.784 173.496 266.522 173.739 266.365L180.514 262.154C180.661 262.084 180.821 262.052 180.981 262.061C181.142 262.071 181.298 262.12 181.437 262.207ZM191.806 268.654L197.659 272.342C197.913 272.499 197.901 272.761 197.659 272.931L190.895 277.142C190.751 277.222 190.591 277.264 190.428 277.264C190.265 277.264 190.105 277.222 189.96 277.142L184.096 273.506C183.853 273.349 183.865 273.088 184.096 272.931L190.871 268.706C191.013 268.621 191.171 268.572 191.333 268.563C191.495 268.554 191.657 268.585 191.806 268.654ZM172.877 256.884L178.741 260.572C178.984 260.729 178.972 260.99 178.741 261.16L171.966 265.372C171.821 265.449 171.661 265.489 171.499 265.489C171.336 265.489 171.176 265.449 171.031 265.372L165.179 261.723C164.924 261.566 164.936 261.304 165.179 261.147L171.954 256.923C172.095 256.842 172.251 256.796 172.411 256.789C172.571 256.782 172.73 256.815 172.877 256.884ZM217.195 306.11L211.33 302.422C211.088 302.265 211.1 302.003 211.33 301.846L218.106 297.635C218.25 297.555 218.411 297.513 218.573 297.513C218.736 297.513 218.896 297.555 219.041 297.635L224.905 301.271C225.148 301.428 225.136 301.689 224.905 301.859L218.13 306.07C217.987 306.154 217.829 306.201 217.667 306.208C217.505 306.214 217.343 306.181 217.195 306.11ZM163.369 251.574C163.515 251.497 163.675 251.457 163.837 251.457C163.999 251.457 164.159 251.497 164.304 251.574L170.157 255.21C170.412 255.367 170.4 255.628 170.157 255.798L163.382 260.01C163.237 260.09 163.077 260.132 162.914 260.132C162.751 260.132 162.591 260.09 162.447 260.01L156.582 256.374C156.339 256.217 156.351 255.955 156.582 255.785L163.369 251.574ZM248.072 337.34L242.22 333.704C241.965 333.547 241.977 333.286 242.22 333.116L248.995 328.905C249.14 328.827 249.3 328.787 249.462 328.787C249.625 328.787 249.785 328.827 249.93 328.905L255.819 332.501C256.062 332.658 256.049 332.92 255.819 333.076L249.044 337.301C248.896 337.391 248.731 337.441 248.562 337.448C248.393 337.455 248.225 337.418 248.072 337.34ZM143.08 272.054L137.216 268.406C136.973 268.249 136.985 267.987 137.216 267.83L143.991 263.619C144.135 263.539 144.296 263.497 144.458 263.497C144.621 263.497 144.781 263.539 144.926 263.619L150.79 267.268C151.033 267.412 151.021 267.673 150.79 267.843L144.015 272.054C143.871 272.135 143.71 272.177 143.548 272.177C143.385 272.177 143.225 272.135 143.08 272.054ZM161.293 271.361L155.441 267.712C155.186 267.556 155.198 267.294 155.441 267.137L162.216 262.926C162.361 262.846 162.521 262.804 162.683 262.804C162.846 262.804 163.006 262.846 163.151 262.926L169.015 266.575C169.258 266.719 169.246 266.98 169.015 267.15L162.24 271.361C162.097 271.439 161.939 271.48 161.779 271.48C161.619 271.48 161.46 271.439 161.317 271.361H161.293ZM153.656 257.59C153.801 257.513 153.961 257.473 154.123 257.473C154.285 257.473 154.445 257.513 154.591 257.59L160.443 261.239C160.698 261.383 160.686 261.644 160.443 261.814L153.668 266.025C153.523 266.103 153.363 266.143 153.201 266.143C153.038 266.143 152.878 266.103 152.733 266.025L146.868 262.377C146.626 262.22 146.638 261.958 146.868 261.801L153.656 257.59ZM151.859 256.478L135.443 266.705C135.297 266.783 135.137 266.823 134.975 266.823C134.813 266.823 134.653 266.783 134.508 266.705L128.643 263.057C128.4 262.9 128.413 262.638 128.643 262.481L145.156 252.267C145.302 252.19 145.462 252.15 145.624 252.15C145.786 252.15 145.946 252.19 146.091 252.267L151.944 255.903C152.187 256.047 152.175 256.308 151.907 256.478H151.859ZM171.711 268.249L177.576 271.897C177.818 272.041 177.806 272.303 177.576 272.473L170.8 276.684C170.656 276.764 170.496 276.806 170.333 276.806C170.17 276.806 170.01 276.764 169.865 276.684L164.013 273.035C163.758 272.878 163.77 272.617 164.013 272.46L170.788 268.249C170.935 268.158 171.101 268.108 171.271 268.103C171.44 268.098 171.608 268.14 171.76 268.223L171.711 268.249ZM236.222 308.294L242.086 311.942C242.329 312.099 242.317 312.348 242.086 312.518L235.311 316.729C235.166 316.809 235.006 316.851 234.843 316.851C234.681 316.851 234.521 316.809 234.376 316.729L228.524 313.08C228.269 312.923 228.281 312.675 228.524 312.505L235.299 308.294C235.442 308.215 235.6 308.175 235.76 308.175C235.92 308.175 236.079 308.215 236.222 308.294ZM152.6 277.351C152.455 277.431 152.295 277.473 152.132 277.473C151.969 277.473 151.809 277.431 151.665 277.351L145.812 273.702C145.557 273.545 145.569 273.297 145.812 273.127L152.587 268.916C152.732 268.835 152.892 268.794 153.055 268.794C153.217 268.794 153.378 268.835 153.522 268.916L159.387 272.564C159.63 272.721 159.618 272.97 159.387 273.14L152.6 277.351ZM227.661 302.971L233.526 306.62C233.769 306.763 233.757 307.025 233.526 307.195L226.751 311.406C226.606 311.486 226.446 311.528 226.283 311.528C226.121 311.528 225.96 311.486 225.816 311.406L219.963 307.757C219.708 307.6 219.721 307.339 219.963 307.182L226.739 302.971C226.878 302.897 227.032 302.859 227.188 302.859C227.344 302.859 227.497 302.897 227.637 302.971H227.661ZM291.82 363.888C291.674 363.966 291.515 364.006 291.352 364.006C291.19 364.006 291.03 363.966 290.885 363.888L285.02 360.239C284.777 360.083 284.79 359.821 285.02 359.664L291.796 355.453C291.94 355.373 292.1 355.331 292.263 355.331C292.426 355.331 292.586 355.373 292.73 355.453L298.583 359.102C298.838 359.246 298.826 359.507 298.583 359.677L291.82 363.888ZM304.69 350.81L310.555 354.459C310.798 354.603 310.786 354.864 310.555 355.034L303.78 359.246C303.634 359.323 303.474 359.363 303.312 359.363C303.15 359.363 302.99 359.323 302.845 359.246L296.992 355.597C296.737 355.44 296.75 355.178 296.992 355.021L303.768 350.81C303.916 350.744 304.077 350.717 304.238 350.73C304.398 350.744 304.553 350.798 304.69 350.889V350.81ZM282.361 358.657L276.497 355.008C276.254 354.851 276.266 354.59 276.497 354.433L283.272 350.222C283.416 350.141 283.577 350.1 283.739 350.1C283.902 350.1 284.062 350.141 284.207 350.222L290.059 353.857C290.314 354.014 290.29 354.276 290.059 354.446L283.284 358.657C283.141 358.734 282.983 358.774 282.823 358.774C282.662 358.774 282.504 358.734 282.361 358.657ZM273.789 353.334L267.937 349.686C267.682 349.529 267.706 349.267 267.937 349.097L274.712 344.886C274.857 344.809 275.017 344.768 275.179 344.768C275.341 344.768 275.501 344.809 275.647 344.886L281.499 348.522C281.742 348.679 281.73 348.94 281.499 349.11L274.724 353.321C274.574 353.405 274.407 353.449 274.238 353.449C274.069 353.449 273.903 353.405 273.753 353.321L273.789 353.334ZM265.29 347.998L259.437 344.363C259.182 344.206 259.206 343.944 259.437 343.774L266.2 339.563C266.346 339.486 266.506 339.446 266.668 339.446C266.83 339.446 266.99 339.486 267.135 339.563L273 343.199C273.243 343.356 273.23 343.617 273 343.787L266.224 347.998C266.066 348.092 265.888 348.139 265.707 348.137C265.526 348.135 265.349 348.082 265.192 347.985L265.29 347.998ZM296.13 345.579L301.995 349.215C302.238 349.372 302.226 349.633 301.995 349.803L295.22 354.014C295.074 354.092 294.914 354.132 294.752 354.132C294.59 354.132 294.43 354.092 294.285 354.014L288.432 350.366C288.177 350.209 288.189 349.947 288.432 349.79L295.195 345.579C295.341 345.502 295.501 345.462 295.663 345.462C295.825 345.462 295.985 345.502 296.13 345.579ZM287.57 340.256L293.435 343.892C293.678 344.049 293.665 344.31 293.435 344.48L286.659 348.692C286.515 348.772 286.355 348.814 286.192 348.814C286.029 348.814 285.869 348.772 285.725 348.692L279.86 345.056C279.617 344.899 279.629 344.637 279.86 344.467L286.635 340.256C286.78 340.177 286.939 340.135 287.101 340.132C287.263 340.13 287.424 340.168 287.57 340.243V340.256ZM253.318 318.952L259.182 322.601C259.437 322.758 259.413 323.019 259.182 323.176L252.407 327.388C252.262 327.468 252.102 327.51 251.939 327.51C251.777 327.51 251.616 327.468 251.472 327.388L245.619 323.739C245.364 323.595 245.389 323.333 245.619 323.163L252.395 318.952C252.537 318.873 252.695 318.831 252.855 318.828C253.015 318.826 253.173 318.864 253.318 318.939V318.952ZM261.89 324.288L267.791 327.911C268.046 328.068 268.022 328.329 267.791 328.486L261.028 332.71C260.882 332.788 260.722 332.828 260.56 332.828C260.398 332.828 260.238 332.788 260.093 332.71L254.228 329.075C253.985 328.918 253.997 328.656 254.228 328.486L261.003 324.275C261.142 324.203 261.293 324.166 261.447 324.166C261.6 324.166 261.752 324.203 261.89 324.275V324.288ZM244.721 313.616L250.586 317.265C250.828 317.422 250.816 317.684 250.586 317.841L243.81 322.052C243.666 322.132 243.505 322.174 243.343 322.174C243.18 322.174 243.02 322.132 242.875 322.052L237.023 318.403C236.768 318.259 236.792 317.997 237.023 317.827L243.786 313.616C243.931 313.536 244.091 313.494 244.254 313.494C244.416 313.494 244.576 313.536 244.721 313.616ZM278.974 334.92L284.826 338.556C285.081 338.713 285.069 338.975 284.826 339.145L278.051 343.356C277.905 343.433 277.745 343.473 277.583 343.473C277.421 343.473 277.261 343.433 277.116 343.356L271.251 339.72C271.008 339.563 271.021 339.302 271.251 339.132L278.027 334.92C278.178 334.835 278.347 334.79 278.518 334.79C278.69 334.79 278.858 334.835 279.01 334.92H278.974ZM270.413 329.598L276.29 333.233C276.545 333.39 276.533 333.652 276.29 333.822L269.515 338.033C269.37 338.11 269.21 338.15 269.048 338.15C268.885 338.15 268.725 338.11 268.58 338.033L262.715 334.397C262.473 334.24 262.485 333.979 262.715 333.809L269.491 329.598C269.638 329.513 269.803 329.469 269.97 329.469C270.138 329.469 270.302 329.513 270.45 329.598H270.413ZM276.667 367.184L270.802 363.535C270.559 363.378 270.571 363.117 270.802 362.96L277.577 358.736C277.723 358.658 277.883 358.618 278.045 358.618C278.207 358.618 278.367 358.658 278.512 358.736L284.365 362.371C284.62 362.528 284.595 362.79 284.365 362.96L277.602 367.171C277.462 367.244 277.309 367.283 277.154 367.285C276.998 367.288 276.844 367.253 276.703 367.184H276.667ZM326.898 361.717L333.673 357.506C333.818 357.426 333.978 357.384 334.141 357.384C334.303 357.384 334.464 357.426 334.608 357.506L340.473 361.155C340.716 361.299 340.704 361.56 340.473 361.73L333.698 365.942C333.553 366.022 333.393 366.064 333.23 366.064C333.068 366.064 332.907 366.022 332.763 365.942L326.91 362.293C326.655 362.136 326.68 361.874 326.935 361.717H326.898ZM314.076 365.772L320.851 361.56C320.996 361.48 321.156 361.438 321.319 361.438C321.482 361.438 321.642 361.48 321.786 361.56L330.796 367.171C331.039 367.328 331.026 367.576 330.796 367.746L324.02 371.957C323.876 372.038 323.716 372.08 323.553 372.08C323.39 372.08 323.23 372.038 323.086 371.957L314.076 366.347C313.821 366.19 313.845 365.942 314.113 365.772H314.076ZM337.292 353.57L344.067 349.359C344.212 349.278 344.372 349.236 344.534 349.236C344.697 349.236 344.857 349.278 345.002 349.359L352.214 353.844C352.469 354.001 352.445 354.263 352.214 354.433L345.439 358.644C345.294 358.721 345.134 358.761 344.972 358.761C344.809 358.761 344.649 358.721 344.504 358.644L337.304 354.158C337 354.001 337 353.74 337.328 353.57H337.292ZM331.767 350.13C331.623 350.21 331.462 350.252 331.3 350.252C331.137 350.252 330.977 350.21 330.832 350.13L324.98 346.481C324.725 346.324 324.737 346.076 324.98 345.906L331.755 341.695C331.899 341.615 332.06 341.573 332.222 341.573C332.385 341.573 332.545 341.615 332.69 341.695L338.554 345.344C338.797 345.501 338.785 345.749 338.554 345.919L331.767 350.13ZM302.177 370.427L308.952 366.216C309.097 366.136 309.257 366.094 309.42 366.094C309.582 366.094 309.743 366.136 309.887 366.216L321.155 373.226C321.398 373.383 321.386 373.644 321.155 373.801L314.38 378.013C314.235 378.093 314.075 378.135 313.912 378.135C313.75 378.135 313.589 378.093 313.445 378.013L302.177 371.003C301.898 370.807 301.91 370.558 302.177 370.427ZM296.555 378.967L303.33 374.756C303.475 374.676 303.635 374.634 303.798 374.634C303.961 374.634 304.121 374.676 304.265 374.756L311.502 379.176C311.745 379.333 311.733 379.595 311.502 379.752L304.727 383.976C304.581 384.053 304.421 384.094 304.259 384.094C304.097 384.094 303.937 384.053 303.792 383.976L296.58 379.49C296.276 379.346 296.288 379.098 296.555 378.928V378.967ZM268.143 310.582C268.001 310.662 267.842 310.704 267.682 310.704C267.521 310.704 267.363 310.662 267.22 310.582L261.356 306.934C261.113 306.79 261.125 306.528 261.356 306.358L268.131 302.147C268.275 302.067 268.436 302.025 268.598 302.025C268.761 302.025 268.921 302.067 269.066 302.147L274.918 305.796C275.173 305.953 275.149 306.214 274.918 306.371L268.143 310.582ZM285.275 321.241C285.13 321.318 284.97 321.358 284.808 321.358C284.646 321.358 284.486 321.318 284.34 321.241L278.476 317.592C278.233 317.448 278.245 317.187 278.476 317.017L285.251 312.806C285.396 312.728 285.556 312.688 285.718 312.688C285.881 312.688 286.041 312.728 286.186 312.806L292.075 316.402C292.33 316.559 292.318 316.82 292.075 316.977L285.275 321.241ZM323.243 344.847C323.098 344.924 322.938 344.964 322.776 344.964C322.614 344.964 322.454 344.924 322.308 344.847L316.456 341.198C316.201 341.041 316.213 340.779 316.456 340.622L323.256 336.424C323.4 336.344 323.56 336.302 323.723 336.302C323.886 336.302 324.046 336.344 324.19 336.424L330.055 340.073C330.298 340.217 330.286 340.479 330.055 340.649L323.243 344.847ZM276.715 315.905C276.571 315.985 276.41 316.027 276.248 316.027C276.085 316.027 275.925 315.985 275.78 315.905L269.916 312.256C269.673 312.112 269.685 311.851 269.916 311.681L276.691 307.47C276.835 307.389 276.996 307.348 277.158 307.348C277.321 307.348 277.481 307.389 277.626 307.47L283.478 311.118C283.733 311.275 283.709 311.537 283.478 311.694L276.715 315.905ZM293.835 326.564C293.69 326.641 293.53 326.681 293.368 326.681C293.206 326.681 293.046 326.641 292.9 326.564L287.036 322.928C286.793 322.771 286.805 322.509 287.036 322.339L293.848 318.115C293.992 318.035 294.152 317.993 294.315 317.993C294.478 317.993 294.638 318.035 294.783 318.115L300.574 321.725C300.829 321.882 300.817 322.143 300.574 322.313L293.835 326.564ZM291.856 379.582C292.001 379.502 292.161 379.46 292.324 379.46C292.486 379.46 292.647 379.502 292.791 379.582L301.788 385.192C302.031 385.349 302.019 385.611 301.788 385.781L294.989 390.044C294.844 390.122 294.684 390.162 294.521 390.162C294.359 390.162 294.199 390.122 294.054 390.044L285.045 384.447C284.802 384.29 284.814 384.028 285.045 383.858L291.856 379.582ZM306.123 334.136C305.979 334.216 305.818 334.258 305.656 334.258C305.493 334.258 305.333 334.216 305.188 334.136L299.36 330.539C299.117 330.382 299.129 330.121 299.36 329.951L306.135 325.74C306.281 325.662 306.441 325.622 306.603 325.622C306.765 325.622 306.925 325.662 307.07 325.74L312.923 329.375C313.178 329.532 313.166 329.794 312.923 329.964L306.123 334.136ZM314.683 339.459C314.538 339.536 314.378 339.576 314.216 339.576C314.054 339.576 313.894 339.536 313.748 339.459L307.884 335.81C307.641 335.653 307.653 335.391 307.884 335.234L314.659 331.023C314.804 330.943 314.964 330.901 315.126 330.901C315.289 330.901 315.449 330.943 315.594 331.023L321.459 334.659C321.701 334.816 321.689 335.077 321.459 335.247L314.683 339.459ZM133.233 280.974C133.378 280.896 133.538 280.856 133.7 280.856C133.863 280.856 134.023 280.896 134.168 280.974L148.593 289.945C148.835 290.102 148.823 290.364 148.593 290.521L141.817 294.745C141.672 294.822 141.512 294.862 141.35 294.862C141.188 294.862 141.028 294.822 140.882 294.745L126.47 285.773C126.215 285.629 126.227 285.368 126.47 285.198L133.233 280.974ZM152.162 292.744C152.307 292.664 152.467 292.622 152.63 292.622C152.792 292.622 152.953 292.664 153.097 292.744L158.95 296.393C159.205 296.55 159.193 296.811 158.95 296.968L152.175 301.179C152.03 301.259 151.87 301.301 151.707 301.301C151.544 301.301 151.384 301.259 151.24 301.179L145.375 297.53C145.132 297.387 145.144 297.125 145.375 296.955L152.162 292.744ZM268.131 361.848L262.278 358.212C262.035 358.055 262.048 357.794 262.278 357.624L269.09 353.426C269.235 353.349 269.395 353.308 269.557 353.308C269.72 353.308 269.88 353.349 270.025 353.426L275.877 357.062C276.132 357.218 276.108 357.48 275.877 357.65L269.102 361.861C268.952 361.946 268.785 361.989 268.615 361.987C268.445 361.985 268.279 361.937 268.131 361.848ZM169.283 303.389C169.427 303.309 169.587 303.267 169.75 303.267C169.913 303.267 170.073 303.309 170.218 303.389L176.082 307.025C176.325 307.182 176.313 307.444 176.082 307.614L169.307 311.825C169.162 311.902 169.002 311.942 168.839 311.942C168.677 311.942 168.517 311.902 168.372 311.825L162.52 308.189C162.265 308.032 162.277 307.77 162.52 307.6L169.283 303.389ZM124.673 275.651C124.817 275.571 124.978 275.529 125.14 275.529C125.303 275.529 125.463 275.571 125.608 275.651L131.472 279.3C131.715 279.457 131.703 279.718 131.472 279.875L124.697 284.086C124.553 284.166 124.392 284.208 124.23 284.208C124.067 284.208 123.907 284.166 123.762 284.086L117.91 280.437C117.655 280.294 117.667 280.032 117.91 279.862L124.673 275.651ZM109.337 274.539L125.729 264.312C125.874 264.232 126.034 264.19 126.197 264.19C126.359 264.19 126.52 264.232 126.664 264.312L132.517 267.961C132.772 268.105 132.759 268.366 132.517 268.536L116.064 278.763C115.92 278.844 115.759 278.886 115.597 278.886C115.434 278.886 115.274 278.844 115.129 278.763L109.265 275.115C109.058 274.958 109.07 274.709 109.337 274.539ZM201.277 323.346C201.422 323.269 201.582 323.229 201.744 323.229C201.906 323.229 202.066 323.269 202.212 323.346L209.424 327.832C209.667 327.976 209.655 328.238 209.424 328.408L202.649 332.619C202.504 332.699 202.344 332.741 202.181 332.741C202.019 332.741 201.858 332.699 201.714 332.619L194.514 328.133C194.259 327.976 194.271 327.714 194.514 327.544L201.277 323.346ZM179.652 309.902C179.797 309.825 179.957 309.785 180.119 309.785C180.282 309.785 180.441 309.825 180.587 309.902L189.596 315.513C189.839 315.67 189.827 315.931 189.596 316.088L182.797 320.208C182.652 320.288 182.492 320.33 182.329 320.33C182.167 320.33 182.006 320.288 181.862 320.208L172.852 314.597C172.61 314.453 172.622 314.192 172.852 314.022L179.652 309.902ZM221.105 335.679C221.249 335.599 221.41 335.557 221.572 335.557C221.735 335.557 221.895 335.599 222.04 335.679L270.219 365.575C270.474 365.732 270.45 365.994 270.219 366.164L263.444 370.375C263.299 370.452 263.139 370.492 262.977 370.492C262.814 370.492 262.654 370.452 262.509 370.375L214.305 340.4C214.05 340.243 214.062 339.982 214.305 339.812L221.105 335.679ZM272.028 367.341C272.174 367.264 272.334 367.223 272.496 367.223C272.658 367.223 272.818 367.264 272.963 367.341L280.176 371.735C280.419 371.892 280.406 372.141 280.176 372.311L273.4 376.522C273.256 376.602 273.096 376.644 272.933 376.644C272.77 376.644 272.61 376.602 272.465 376.522L265.253 372.036C265.01 371.879 265.022 371.617 265.253 371.46L272.028 367.341ZM211.197 329.519C211.341 329.439 211.502 329.397 211.664 329.397C211.827 329.397 211.987 329.439 212.132 329.519L219.332 334.005C219.587 334.162 219.575 334.424 219.332 334.594L212.557 338.805C212.411 338.882 212.251 338.922 212.089 338.922C211.927 338.922 211.767 338.882 211.622 338.805L204.409 334.319C204.167 334.162 204.179 333.913 204.409 333.743L211.197 329.519ZM281.936 373.514C282.081 373.433 282.241 373.392 282.404 373.392C282.566 373.392 282.727 373.433 282.871 373.514L290.084 377.999C290.339 378.156 290.314 378.418 290.084 378.588L283.308 382.799C283.163 382.876 283.003 382.917 282.841 382.917C282.679 382.917 282.519 382.876 282.373 382.799L275.076 378.274C274.821 378.117 274.833 377.869 275.076 377.699L281.936 373.514ZM191.369 317.187C191.514 317.109 191.674 317.069 191.836 317.069C191.999 317.069 192.158 317.109 192.304 317.187L199.516 321.672C199.759 321.829 199.747 322.091 199.516 322.261L192.741 326.472C192.596 326.552 192.436 326.594 192.274 326.594C192.111 326.594 191.951 326.552 191.806 326.472L184.594 321.999C184.351 321.842 184.363 321.581 184.594 321.411L191.369 317.187ZM160.723 298.132C160.868 298.055 161.028 298.015 161.19 298.015C161.352 298.015 161.512 298.055 161.657 298.132L167.522 301.781C167.765 301.938 167.753 302.199 167.522 302.356L160.747 306.58C160.601 306.658 160.441 306.698 160.279 306.698C160.117 306.698 159.957 306.658 159.812 306.58L153.947 302.945C153.704 302.788 153.717 302.526 153.947 302.356L160.723 298.132ZM141.963 283.458L136.111 279.81C135.856 279.653 135.868 279.404 136.111 279.234L142.91 274.958C143.055 274.877 143.215 274.836 143.378 274.836C143.54 274.836 143.701 274.877 143.845 274.958L149.71 278.607C149.953 278.763 149.94 279.025 149.71 279.182L142.934 283.393C142.785 283.48 142.618 283.526 142.449 283.526C142.279 283.526 142.112 283.48 141.963 283.393V283.458ZM180.247 283.197L174.382 279.548C174.139 279.391 174.152 279.13 174.382 278.973L181.158 274.762C181.302 274.681 181.462 274.639 181.625 274.639C181.788 274.639 181.948 274.681 182.092 274.762L187.945 278.41C188.2 278.554 188.188 278.816 187.945 278.986L181.17 283.197C181.021 283.262 180.861 283.29 180.701 283.279C180.541 283.267 180.386 283.217 180.247 283.131V283.197ZM199.674 319.331L182.554 308.673C182.311 308.529 182.323 308.267 182.554 308.097L189.329 303.886C189.474 303.806 189.634 303.764 189.797 303.764C189.959 303.764 190.119 303.806 190.264 303.886L207.384 314.532C207.639 314.689 207.615 314.95 207.384 315.12L200.609 319.331C200.454 319.405 200.285 319.438 200.116 319.426C199.947 319.415 199.783 319.36 199.638 319.266L199.674 319.331ZM151.495 288.755C151.35 288.835 151.19 288.877 151.027 288.877C150.864 288.877 150.704 288.835 150.56 288.755L144.707 285.119C144.452 284.962 144.476 284.701 144.707 284.531L151.482 280.32C151.628 280.242 151.788 280.202 151.95 280.202C152.112 280.202 152.272 280.242 152.417 280.32L158.282 283.969C158.525 284.125 158.513 284.387 158.282 284.544L151.495 288.755ZM160.237 282.765L154.384 279.117C154.129 278.973 154.142 278.711 154.384 278.541L161.16 274.33C161.304 274.25 161.464 274.208 161.627 274.208C161.79 274.208 161.95 274.25 162.095 274.33L167.959 277.979C168.202 278.136 168.19 278.397 167.959 278.554L161.184 282.765C161.028 282.845 160.856 282.88 160.684 282.869C160.512 282.858 160.346 282.799 160.2 282.7L160.237 282.765ZM208.246 324.615L202.382 320.966C202.139 320.809 202.151 320.548 202.382 320.391L209.157 316.18C209.302 316.099 209.462 316.057 209.624 316.057C209.787 316.057 209.947 316.099 210.092 316.18L215.944 319.828C216.199 319.972 216.175 320.234 215.944 320.404L209.181 324.615C209.034 324.705 208.869 324.755 208.7 324.762C208.531 324.769 208.363 324.732 208.21 324.654L208.246 324.615ZM170.424 300.486C170.279 300.566 170.119 300.608 169.956 300.608C169.794 300.608 169.634 300.566 169.489 300.486L163.624 296.837C163.382 296.693 163.394 296.432 163.624 296.262L170.4 292.051C170.544 291.97 170.704 291.929 170.867 291.929C171.03 291.929 171.19 291.97 171.335 292.051L177.187 295.699C177.442 295.856 177.43 296.118 177.187 296.275L170.424 300.486ZM251.047 351.229L245.195 347.593C244.94 347.436 244.964 347.175 245.195 347.005L252.006 342.767C252.152 342.69 252.312 342.65 252.474 342.65C252.636 342.65 252.796 342.69 252.941 342.767L258.806 346.416C259.049 346.573 259.036 346.835 258.806 347.005L252.03 351.216C251.873 351.306 251.697 351.353 251.519 351.351C251.341 351.348 251.166 351.297 251.011 351.203L251.047 351.229ZM242.487 345.906L236.634 342.27C236.379 342.113 236.392 341.852 236.634 341.682L243.41 337.471C243.555 337.393 243.715 337.353 243.877 337.353C244.039 337.353 244.199 337.393 244.345 337.471L250.209 341.119C250.452 341.276 250.44 341.538 250.209 341.695L243.434 345.906C243.281 345.991 243.111 346.034 242.939 346.029C242.767 346.025 242.599 345.973 242.45 345.88L242.487 345.906ZM259.607 356.552L253.755 352.916C253.5 352.759 253.524 352.497 253.755 352.327L260.506 348.09C260.65 348.01 260.81 347.968 260.973 347.968C261.136 347.968 261.296 348.01 261.441 348.09L267.305 351.726C267.548 351.883 267.536 352.144 267.305 352.314L260.53 356.525C260.381 356.607 260.217 356.649 260.05 356.649C259.884 356.649 259.719 356.607 259.571 356.525L259.607 356.552ZM225.294 335.234L219.429 331.586C219.186 331.429 219.198 331.18 219.429 331.01L226.204 326.799C226.349 326.719 226.509 326.677 226.672 326.677C226.835 326.677 226.995 326.719 227.139 326.799L232.992 330.448C233.247 330.605 233.235 330.853 232.992 331.023L226.217 335.234C226.074 335.312 225.915 335.353 225.755 335.353C225.595 335.353 225.437 335.312 225.294 335.234ZM233.854 340.557L227.989 336.908C227.746 336.764 227.759 336.503 227.989 336.333L234.765 332.122C234.909 332.041 235.069 332 235.232 332C235.395 332 235.555 332.041 235.699 332.122L241.564 335.771C241.807 335.927 241.795 336.189 241.564 336.346L234.789 340.557C234.649 340.631 234.495 340.669 234.34 340.669C234.184 340.669 234.03 340.631 233.89 340.557H233.854ZM216.794 329.885L210.93 326.237C210.687 326.08 210.699 325.831 210.93 325.661L217.705 321.45C217.85 321.37 218.01 321.328 218.172 321.328C218.335 321.328 218.495 321.37 218.64 321.45L224.492 325.099C224.747 325.256 224.723 325.504 224.492 325.674L217.717 329.885C217.574 329.964 217.416 330.004 217.256 330.004C217.095 330.004 216.937 329.964 216.794 329.885ZM177.624 251.116C177.48 251.197 177.319 251.239 177.157 251.239C176.994 251.239 176.834 251.197 176.689 251.116L170.825 247.468C170.582 247.311 170.594 247.062 170.825 246.892L172.634 245.768C172.778 245.687 172.939 245.645 173.101 245.645C173.264 245.645 173.424 245.687 173.569 245.768L179.421 249.403C179.664 249.56 179.652 249.822 179.421 249.992L177.624 251.116ZM219.745 280.411C219.599 280.489 219.44 280.529 219.277 280.529C219.115 280.529 218.955 280.489 218.81 280.411L212.957 276.776C212.702 276.619 212.715 276.357 212.957 276.187L219.733 271.976C219.877 271.896 220.038 271.854 220.2 271.854C220.363 271.854 220.523 271.896 220.668 271.976L226.508 275.638C226.751 275.795 226.739 276.056 226.508 276.226L219.745 280.411ZM202.625 269.753C202.48 269.833 202.32 269.875 202.157 269.875C201.995 269.875 201.834 269.833 201.69 269.753L195.825 266.117C195.582 265.96 195.594 265.698 195.825 265.528L202.6 261.317C202.746 261.24 202.906 261.2 203.068 261.2C203.23 261.2 203.39 261.24 203.535 261.317L209.4 264.966C209.643 265.123 209.631 265.385 209.4 265.542L202.625 269.753ZM230.151 286.937C230.006 287.017 229.846 287.059 229.683 287.059C229.52 287.059 229.36 287.017 229.216 286.937L223.363 283.302C223.108 283.145 223.12 282.883 223.363 282.713L230.151 278.515C230.296 278.438 230.456 278.397 230.618 278.397C230.78 278.397 230.94 278.438 231.085 278.515L236.95 282.151C237.193 282.308 237.181 282.569 236.95 282.739L230.151 286.937ZM211.136 275.167C210.991 275.244 210.831 275.284 210.669 275.284C210.507 275.284 210.347 275.244 210.201 275.167L204.349 271.531C204.094 271.374 204.106 271.113 204.349 270.943L211.124 266.732C211.269 266.651 211.429 266.609 211.591 266.609C211.754 266.609 211.914 266.651 212.059 266.732L218.009 270.315C218.251 270.472 218.239 270.734 218.009 270.89L211.136 275.167ZM247.295 297.583C247.15 297.66 246.99 297.7 246.828 297.7C246.665 297.7 246.506 297.66 246.36 297.583L240.508 293.934C240.265 293.777 240.277 293.515 240.508 293.359L247.283 289.147C247.427 289.067 247.588 289.025 247.75 289.025C247.913 289.025 248.073 289.067 248.218 289.147L254.07 292.783C254.325 292.94 254.301 293.202 254.07 293.372L247.295 297.583ZM238.735 292.26C238.59 292.34 238.43 292.382 238.267 292.382C238.105 292.382 237.945 292.34 237.8 292.26L231.948 288.624C231.693 288.467 231.717 288.206 231.948 288.036L238.711 283.825C238.856 283.747 239.016 283.707 239.178 283.707C239.34 283.707 239.5 283.747 239.646 283.825L245.51 287.46C245.753 287.617 245.741 287.879 245.51 288.049L238.735 292.26ZM194.72 261.788C194.576 261.868 194.415 261.91 194.253 261.91C194.09 261.91 193.93 261.868 193.785 261.788L187.933 258.152C187.678 257.996 187.69 257.734 187.933 257.564L189.742 256.439C189.887 256.362 190.047 256.322 190.209 256.322C190.372 256.322 190.531 256.362 190.677 256.439L196.529 260.075C196.784 260.232 196.772 260.493 196.529 260.663L194.72 261.788ZM169.04 245.82C168.895 245.9 168.735 245.942 168.572 245.942C168.41 245.942 168.249 245.9 168.105 245.82L162.24 242.171C161.997 242.014 162.01 241.753 162.24 241.596L164.037 240.471C164.183 240.394 164.343 240.354 164.505 240.354C164.667 240.354 164.827 240.394 164.972 240.471L170.837 244.12C171.08 244.277 171.067 244.538 170.837 244.695L169.04 245.82ZM154.809 254.674C154.664 254.751 154.504 254.791 154.342 254.791C154.18 254.791 154.02 254.751 153.874 254.674L148.01 251.038C147.767 250.881 147.779 250.62 148.01 250.45L154.87 246.251C155.015 246.174 155.175 246.134 155.338 246.134C155.5 246.134 155.66 246.174 155.805 246.251L161.657 249.887C161.912 250.044 161.9 250.306 161.657 250.476L154.809 254.674ZM133.403 278.07L127.551 274.422C127.296 274.265 127.308 274.016 127.551 273.846L134.326 269.635C134.47 269.555 134.631 269.513 134.793 269.513C134.956 269.513 135.116 269.555 135.261 269.635L141.125 273.284C141.368 273.441 141.356 273.689 141.125 273.859L134.35 278.07C134.204 278.153 134.041 278.196 133.876 278.196C133.712 278.196 133.549 278.153 133.403 278.07ZM186.16 256.465C186.015 256.546 185.855 256.588 185.693 256.588C185.53 256.588 185.37 256.546 185.225 256.465L179.361 252.817C179.118 252.673 179.13 252.411 179.361 252.241L181.17 251.116C181.315 251.039 181.475 250.999 181.637 250.999C181.799 250.999 181.959 251.039 182.105 251.116L187.957 254.752C188.212 254.909 188.188 255.171 187.957 255.341L186.16 256.465ZM255.867 302.905C255.722 302.983 255.562 303.023 255.4 303.023C255.238 303.023 255.078 302.983 254.932 302.905L249.068 299.257C248.825 299.1 248.837 298.838 249.068 298.681L255.843 294.47C255.988 294.39 256.148 294.348 256.311 294.348C256.473 294.348 256.633 294.39 256.778 294.47L262.63 298.119C262.885 298.263 262.861 298.524 262.63 298.694L255.867 302.905Z" fill="#E0E0E0"/>
<path d="M221.056 360.226L156.934 320.352L117.472 344.886L181.594 384.761L221.056 360.226Z" fill="#263238"/>
<path d="M349.847 123.763L158.792 4.94894C155.052 2.62105 151.992 4.53043 151.992 9.17313V168.568C152.057 169.746 152.375 170.892 152.923 171.914C153.472 172.935 154.234 173.805 155.149 174.453L351.061 296.275C352.797 297.347 354.218 296.471 354.218 294.313V131.91C354.131 130.279 353.69 128.692 352.931 127.277C352.172 125.862 351.115 124.659 349.847 123.763Z" fill="#F5F5F5"/>
<path d="M151.992 12.9916V9.17277C151.992 4.53007 155.052 2.63376 158.792 4.94857L349.847 123.762C351.115 124.658 352.172 125.862 352.931 127.277C353.69 128.692 354.131 130.279 354.218 131.91V138.75L151.992 12.9916Z" fill="#263238"/>
<path d="M180.49 21.689C181.163 22.1738 181.722 22.8211 182.123 23.5793C182.523 24.3376 182.754 25.186 182.797 26.0571C182.797 27.6657 181.741 28.3196 180.454 27.5088C179.77 27.035 179.201 26.393 178.794 25.6358C178.387 24.8786 178.152 24.0278 178.11 23.1538C178.147 21.5452 179.154 20.8913 180.49 21.689Z" fill="#E0E0E0"/>
<path d="M171.202 15.9214C171.885 16.398 172.454 17.0425 172.861 17.8018C173.268 18.5611 173.503 19.4137 173.545 20.2895C173.545 21.8981 172.501 22.5389 171.202 21.7411C170.514 21.257 169.942 20.6038 169.535 19.8353C169.128 19.0667 168.896 18.2049 168.858 17.3208C168.858 15.7645 169.914 15.1106 171.202 15.9214Z" fill="#E0E0E0"/>
<path d="M161.912 10.1407C162.595 10.6189 163.162 11.2637 163.569 12.0227C163.977 12.7817 164.212 13.6334 164.256 14.5087C164.256 16.1173 163.212 16.7712 161.912 15.9604C161.233 15.4836 160.667 14.8406 160.262 14.0838C159.857 13.327 159.624 12.4778 159.581 11.6054C159.581 9.99684 160.625 9.34294 161.912 10.1407Z" fill="#E0E0E0"/>
<path d="M354.218 138.75V169.418L152.005 43.6727V12.9917L354.218 138.75Z" fill="#0278B6"/>
<path opacity="0.1" d="M354.218 138.75V169.418L152.005 43.6727V12.9917L354.218 138.75Z" fill="black"/>
<path d="M319.698 161.519V269.321C319.698 270.04 319.346 270.407 318.921 270.132C318.675 269.91 318.477 269.631 318.343 269.317C318.209 269.003 318.141 268.66 318.144 268.314V160.512C318.144 159.793 318.496 159.44 318.921 159.714C319.168 159.933 319.366 160.208 319.501 160.521C319.636 160.833 319.703 161.174 319.698 161.519Z" fill="#0278B6"/>
<path d="M378.878 203.342L334.815 175.879C333.358 174.976 332.18 175.709 332.18 177.513V210.901C332.23 211.885 332.494 212.841 332.952 213.694C333.41 214.546 334.048 215.27 334.815 215.806L378.878 243.204C380.323 244.107 381.501 243.374 381.501 241.569V208.26C381.453 207.276 381.19 206.318 380.735 205.464C380.279 204.61 379.643 203.883 378.878 203.342Z" fill="#E0E0E0"/>
<path d="M332.144 177.566C332.144 175.761 333.358 175.028 334.779 175.931L378.842 203.395C379.605 203.934 380.24 204.659 380.696 205.51C381.151 206.362 381.415 207.317 381.465 208.299V211.137L332.144 180.417V177.566Z" fill="#0278B6"/>
<path d="M376.583 214.158L356.852 201.891V223.365L376.583 235.632V214.158Z" fill="#FAFAFA"/>
<path d="M376.571 232.506L369.177 218.356C369.119 218.213 369.026 218.089 368.91 217.997C368.793 217.904 368.656 217.847 368.512 217.83C368.368 217.812 368.222 217.836 368.09 217.899C367.957 217.961 367.842 218.06 367.756 218.186L365.17 221.246L360.714 210.169C360.447 209.502 359.925 209.437 359.5 210.038L356.804 214.158V223.312L376.535 235.58L376.571 232.506Z" fill="#0278B6"/>
<path d="M351.911 200.675C351.911 201.695 351.207 202.087 350.333 201.538L338.701 194.306C338.25 193.999 337.872 193.582 337.598 193.089C337.324 192.596 337.161 192.041 337.122 191.468C337.122 190.448 337.826 190.055 338.688 190.605L350.357 197.798C350.81 198.109 351.187 198.533 351.458 199.033C351.728 199.534 351.883 200.097 351.911 200.675Z" fill="#FAFAFA"/>
<path d="M351.911 209.567C351.911 210.587 351.207 210.98 350.333 210.444L338.701 203.198C338.248 202.893 337.87 202.476 337.596 201.983C337.321 201.49 337.159 200.934 337.122 200.36C337.122 199.34 337.826 198.961 338.688 199.497L350.357 206.664C350.811 206.981 351.189 207.409 351.459 207.914C351.729 208.419 351.884 208.985 351.911 209.567Z" fill="#FAFAFA"/>
<path d="M351.911 218.33C351.911 219.363 351.207 219.742 350.333 219.206L338.701 211.961C338.249 211.658 337.87 211.244 337.596 210.753C337.321 210.262 337.159 209.708 337.122 209.136C337.122 208.116 337.826 207.723 338.688 208.26L350.357 215.505C350.804 215.811 351.178 216.226 351.448 216.717C351.718 217.208 351.877 217.76 351.911 218.33Z" fill="#FAFAFA"/>
<path d="M378.878 255.027L334.815 227.629C333.358 226.726 332.18 227.459 332.18 229.263V262.651C332.23 263.635 332.494 264.591 332.952 265.444C333.41 266.296 334.048 267.02 334.815 267.556L378.878 295.02C380.323 295.922 381.501 295.19 381.501 293.385V259.931C381.451 258.95 381.187 257.995 380.732 257.143C380.276 256.291 379.641 255.566 378.878 255.027Z" fill="#E0E0E0"/>
<path d="M332.144 229.263C332.144 227.459 333.358 226.726 334.779 227.629L378.842 255.027C379.605 255.566 380.24 256.291 380.696 257.143C381.151 257.995 381.415 258.95 381.465 259.931V262.782L332.144 232.101V229.263Z" fill="#0278B6"/>
<path d="M376.583 265.842L356.852 253.575V275.049L376.583 287.316V265.842Z" fill="#FAFAFA"/>
<path d="M376.571 284.204L369.177 270.054C369.119 269.911 369.026 269.787 368.91 269.695C368.793 269.602 368.656 269.545 368.512 269.527C368.368 269.51 368.222 269.534 368.09 269.596C367.957 269.659 367.842 269.758 367.756 269.884L365.17 272.931L360.714 261.854C360.447 261.187 359.925 261.134 359.5 261.723L356.804 265.842V274.997L376.535 287.264L376.571 284.204Z" fill="#0278B6"/>
<path d="M351.911 252.359C351.911 253.379 351.207 253.772 350.333 253.235L338.701 245.99C338.249 245.687 337.87 245.273 337.596 244.782C337.321 244.291 337.159 243.737 337.122 243.165C337.122 242.132 337.826 241.753 338.688 242.289L350.357 249.534C350.804 249.84 351.178 250.255 351.448 250.746C351.718 251.237 351.877 251.79 351.911 252.359Z" fill="#FAFAFA"/>
<path d="M351.911 261.187C351.911 262.22 351.207 262.599 350.333 262.063L338.701 254.818C338.249 254.515 337.87 254.101 337.596 253.61C337.321 253.119 337.159 252.565 337.122 251.993C337.122 250.973 337.826 250.58 338.688 251.116L350.357 258.362C350.804 258.667 351.178 259.083 351.448 259.574C351.718 260.064 351.877 260.617 351.911 261.187Z" fill="#FAFAFA"/>
<path d="M351.911 270.027C351.911 271.047 351.207 271.44 350.333 270.89L338.701 263.658C338.25 263.351 337.872 262.934 337.598 262.441C337.324 261.949 337.161 261.393 337.122 260.82C337.122 259.8 337.826 259.408 338.688 259.957L350.357 267.189C350.803 267.5 351.176 267.918 351.446 268.41C351.716 268.903 351.875 269.457 351.911 270.027Z" fill="#FAFAFA"/>
<path d="M302.263 204.585L166.794 120.349C165.349 119.447 164.171 120.179 164.171 121.984V164.527C164.222 165.508 164.485 166.463 164.941 167.315C165.396 168.167 166.031 168.892 166.794 169.431L302.263 253.667C303.72 254.569 304.897 253.837 304.897 252.032V209.489C304.848 208.506 304.583 207.549 304.126 206.697C303.668 205.845 303.029 205.121 302.263 204.585Z" fill="#E0E0E0"/>
<path d="M164.171 121.945C164.171 120.14 165.386 119.408 166.794 120.31L302.263 204.585C303.029 205.121 303.668 205.845 304.126 206.697C304.583 207.549 304.848 208.506 304.897 209.489V212.327L164.171 124.822V121.945Z" fill="#0278B6"/>
<path d="M271.434 195.744L298.802 212.745C299.411 213.178 299.919 213.758 300.283 214.439C300.648 215.12 300.86 215.884 300.902 216.669V245.807C300.902 247.245 299.955 247.834 298.802 247.114L271.434 230.113C270.823 229.681 270.315 229.101 269.951 228.42C269.586 227.739 269.374 226.975 269.333 226.19V197.052C269.382 195.613 270.329 195.025 271.434 195.744Z" fill="#FAFAFA"/>
<path d="M291.298 221.338L300.951 243.57V245.872C300.951 247.311 300.004 247.899 298.851 247.18L271.482 230.178C270.872 229.747 270.364 229.167 269.999 228.485C269.635 227.804 269.423 227.04 269.382 226.255V216.106L274.554 205.644C275.186 204.336 276.121 204.402 276.643 205.736L284.79 226.333L288.748 221.024C288.88 220.763 289.081 220.55 289.326 220.413C289.571 220.276 289.848 220.221 290.122 220.255C290.396 220.289 290.654 220.41 290.864 220.603C291.073 220.795 291.225 221.051 291.298 221.338Z" fill="#0278B6"/>
<path d="M297.782 221.076C296.407 220.11 295.262 218.809 294.442 217.277C293.621 215.746 293.147 214.027 293.059 212.262C293.024 211.329 293.276 210.409 293.775 209.646L298.851 212.798C299.46 213.23 299.968 213.81 300.332 214.492C300.697 215.173 300.909 215.936 300.951 216.721V221.573C300.425 221.773 299.862 221.832 299.31 221.745C298.758 221.658 298.234 221.429 297.782 221.076Z" fill="#0278B6"/>
<path d="M257.021 189.336L172.439 136.749C171.225 136.017 170.339 136.514 170.339 137.848C170.395 138.601 170.614 139.329 170.979 139.974C171.343 140.619 171.844 141.163 172.439 141.562L257.021 194.162C258.235 194.881 259.121 194.384 259.121 193.05C259.065 192.297 258.846 191.569 258.481 190.923C258.116 190.278 257.616 189.735 257.021 189.336Z" fill="#FAFAFA"/>
<path d="M257.021 201.603L172.439 149.016C171.225 148.284 170.339 148.781 170.339 150.115C170.395 150.868 170.614 151.596 170.979 152.241C171.343 152.886 171.844 153.43 172.439 153.829L257.021 206.429C258.235 207.148 259.121 206.651 259.121 205.317C259.064 204.564 258.845 203.836 258.48 203.191C258.115 202.547 257.615 202.002 257.021 201.603Z" fill="#FAFAFA"/>
<path d="M257.021 213.87L172.439 161.284C171.225 160.551 170.339 161.048 170.339 162.382C170.396 163.137 170.615 163.866 170.98 164.514C171.344 165.161 171.844 165.707 172.439 166.11L257.021 218.722C258.235 219.442 259.121 218.945 259.121 217.611C259.068 216.854 258.85 216.12 258.485 215.471C258.12 214.821 257.619 214.273 257.021 213.87Z" fill="#FAFAFA"/>
<path d="M277.371 130.805L141.639 46.3629C140.191 45.4583 139.011 46.1924 139.011 48.0016V90.6617C139.062 91.6454 139.326 92.6025 139.783 93.4562C140.239 94.31 140.875 95.0366 141.639 95.5779L277.371 180.02C278.831 180.924 280.011 180.19 280.011 178.381V135.721C279.961 134.735 279.696 133.776 279.237 132.922C278.779 132.068 278.139 131.342 277.371 130.805Z" fill="#E0E0E0"/>
<path d="M139.011 47.9994C139.011 46.1922 140.227 45.4588 141.639 46.3624L277.371 130.712C278.139 131.249 278.779 131.973 279.237 132.827C279.696 133.68 279.961 134.638 280.011 135.623V138.464L139.011 50.8412V47.9994Z" fill="#0278B6"/>
<path d="M247.073 121.571L273.948 138.809C274.549 139.245 275.048 139.833 275.407 140.524C275.765 141.215 275.972 141.99 276.011 142.787V172.317C276.011 173.776 275.081 174.372 273.948 173.643L247.073 156.405C246.473 155.969 245.973 155.381 245.615 154.69C245.256 153.999 245.049 153.224 245.011 152.427V122.897C245.011 121.425 245.941 120.842 247.073 121.571Z" fill="#FAFAFA"/>
<path d="M266.472 147.672L276.011 170.008V172.327C276.011 173.777 275.081 174.37 273.948 173.645L247.073 156.514C246.473 156.08 245.973 155.497 245.615 154.81C245.256 154.123 245.049 153.352 245.011 152.561V142.427L250.09 131.885C250.71 130.567 251.628 130.646 252.141 131.977L260.141 152.772L264.028 147.408C264.163 147.169 264.356 146.976 264.585 146.852C264.814 146.727 265.07 146.675 265.324 146.703C265.578 146.73 265.82 146.835 266.023 147.007C266.226 147.178 266.381 147.408 266.472 147.672Z" fill="#0278B6"/>
<path d="M272.8 147.463C271.407 146.518 270.248 145.247 269.416 143.753C268.585 142.259 268.104 140.584 268.014 138.862C267.981 137.953 268.235 137.058 268.739 136.313L273.882 139.397C274.502 139.816 275.018 140.381 275.388 141.045C275.757 141.709 275.971 142.454 276.011 143.22V147.934C275.479 148.13 274.908 148.19 274.349 148.108C273.79 148.025 273.258 147.804 272.8 147.463Z" fill="#0278B6"/>
<path d="M231.929 116.086L148.093 63.5157C146.889 62.7965 146.011 63.2803 146.011 64.6142C146.066 65.3689 146.283 66.099 146.645 66.7461C147.006 67.3933 147.502 67.9396 148.093 68.3412L231.929 120.925C233.072 121.644 234.011 121.16 234.011 119.826C233.956 119.07 233.74 118.337 233.378 117.688C233.017 117.038 232.52 116.49 231.929 116.086Z" fill="#FAFAFA"/>
<path d="M231.929 127.923L148.093 75.3426C146.889 74.6234 146.011 75.1204 146.011 76.4411C146.066 77.1957 146.283 77.9258 146.645 78.5729C147.006 79.22 147.502 79.7663 148.093 80.1679L231.929 132.749C233.072 133.481 234.011 132.984 234.011 131.65C233.954 130.896 233.737 130.166 233.375 129.519C233.014 128.872 232.519 128.326 231.929 127.923Z" fill="#FAFAFA"/>
<path d="M231.929 139.753L148.093 87.1727C146.889 86.4535 146.011 86.9504 146.011 88.2712C146.066 89.0258 146.283 89.7559 146.645 90.403C147.006 91.0501 147.502 91.5963 148.093 91.998L231.929 144.579C233.072 145.311 234.011 144.814 234.011 143.48C233.954 142.726 233.737 141.996 233.375 141.349C233.014 140.702 232.519 140.156 231.929 139.753Z" fill="#FAFAFA"/>
</svg>
