<svg width="142" height="142" viewBox="0 0 142 142" fill="none" xmlns="http://www.w3.org/2000/svg">
<g clip-path="url(#clip0)">
<path d="M66.2667 30.7667C59.7421 30.7667 54.4333 36.0754 54.4333 42.6C54.4333 46.5151 51.2484 49.7 47.3333 49.7C40.8087 49.7 35.5 55.0087 35.5 61.5333C35.5 68.0579 40.8087 73.3667 47.3333 73.3667H56.8V68.6333H47.3333C43.4183 68.6333 40.2333 65.4484 40.2333 61.5333C40.2333 57.6183 43.4183 54.4333 47.3333 54.4333C53.8579 54.4333 59.1667 49.1246 59.1667 42.6C59.1667 38.6849 62.3516 35.5 66.2667 35.5H73.3667V30.7667H66.2667Z" fill="black"/>
<path d="M137.266 17.75C137.266 7.96206 129.304 0 119.516 0H111.233V4.73333H119.516C126.694 4.73333 132.533 10.5725 132.533 17.75C132.533 24.9275 126.694 30.7667 119.516 30.7667H111.233C109.926 30.7667 108.866 31.8263 108.866 33.1333C108.866 34.4403 109.926 35.5 111.233 35.5H117.15C121.717 35.5 125.433 39.2166 125.433 43.7833C125.433 48.3501 121.717 52.0667 117.15 52.0667H111.233C98.183 52.0667 87.5664 62.6832 87.5664 75.7333H92.2997C92.2997 65.2937 100.793 56.8 111.233 56.8H117.15C124.327 56.8 130.166 50.9608 130.166 43.7833C130.166 40.0298 128.57 36.644 126.021 34.2658C132.6 31.6657 137.266 25.2429 137.266 17.75Z" fill="black"/>
<path d="M99.3995 11.8333C92.8749 11.8333 87.5661 17.1421 87.5661 23.6667V35.5C87.5661 39.4151 84.3812 42.6 80.4661 42.6C73.9415 42.6 68.6328 47.9087 68.6328 54.4333V75.7334H73.3661V54.4333C73.3661 50.5183 76.5511 47.3333 80.4661 47.3333C86.9908 47.3333 92.2995 42.0246 92.2995 35.5V23.6667C92.2995 19.7516 95.4844 16.5667 99.3995 16.5667H113.599V11.8333H99.3995Z" fill="black"/>
<path d="M82.834 106.5H49.7007C48.3937 106.5 47.334 107.56 47.334 108.867V118.333C47.334 119.64 48.3937 120.7 49.7007 120.7H82.834C84.141 120.7 85.2006 119.64 85.2006 118.333V108.867C85.2006 107.56 84.141 106.5 82.834 106.5ZM80.4673 115.967H52.0673V111.233H80.4673V115.967Z" fill="black"/>
<path d="M127.799 74.55C127.799 69.9829 124.083 66.2666 119.516 66.2666H113.599C112.768 66.2666 111.997 66.7024 111.57 67.4154L104.47 79.2487C104.031 79.9803 104.019 80.8909 104.44 81.6328C104.45 81.6509 104.466 81.6636 104.476 81.681L104.47 81.6849L109.419 89.9333H23.1125L28.0615 81.6846L28.0553 81.6807C28.066 81.6633 28.0817 81.6506 28.0917 81.6325C28.3671 81.1468 28.4381 80.5912 28.3444 80.0584L28.363 80.0551L23.3915 51.8862C22.3804 46.1556 25.7824 40.4445 31.3039 38.6039L48.0809 33.012L46.5831 28.5213L29.8061 34.1131C22.0762 36.6913 17.3139 44.6856 18.7298 52.7089L21.4769 68.2745L20.9612 67.4151C20.5341 66.7024 19.7634 66.2666 18.9324 66.2666H13.0158C8.44868 66.2666 4.73242 69.9832 4.73242 74.55C4.73242 79.1167 8.44898 82.8333 13.0158 82.8333H21.8523L16.9033 91.082L16.9169 91.09C16.7542 91.3604 16.6308 91.6568 16.5868 91.9867L15.465 100.4H15.4647L14.6635 106.41L11.8531 127.487C11.8389 127.593 11.878 127.694 11.8783 127.8H11.8324V137.267C11.8324 139.877 13.9553 142 16.5658 142H26.0324C28.6429 142 30.7658 139.877 30.7658 137.267V130.167H101.766V137.267C101.766 139.877 103.889 142 106.499 142H115.966C118.576 142 120.699 139.877 120.699 137.267V127.8H120.653C120.654 127.694 120.693 127.593 120.678 127.487L115.945 91.987C115.901 91.6571 115.778 91.3604 115.615 91.0903L115.629 91.0823L110.679 82.8333H119.516C124.083 82.8333 127.799 79.117 127.799 74.55ZM13.0158 78.1C11.0582 78.1 9.46576 76.5075 9.46576 74.55C9.46576 72.5924 11.0582 71 13.0158 71H17.592L21.8526 78.1H13.0158ZM19.6232 105.025L19.7676 103.943L37.8658 110.524V115.498L18.6922 112.012L19.6232 105.025ZM26.0324 137.267H16.5658V130.167H26.0324V137.267ZM115.966 130.167V137.267H106.499V130.167H115.966ZM113.84 112.011L94.6658 115.497V110.524L112.764 103.943L113.84 112.011ZM111.527 94.6666L112.123 99.1387L91.4903 106.642C90.5555 106.983 89.9324 107.872 89.9324 108.867V118.334C89.9324 119.035 90.2445 119.701 90.7829 120.15C91.2116 120.509 91.7491 120.7 92.2991 120.7C92.4402 120.7 92.5822 120.688 92.7221 120.662L114.466 116.708L115.629 125.433H16.9021L18.0656 116.709L39.8097 120.662C39.9508 120.687 40.0916 120.7 40.2327 120.7C40.7827 120.7 41.3202 120.508 41.7489 120.15C42.2873 119.7 42.5994 119.035 42.5994 118.333V108.867C42.5994 107.872 41.9767 106.983 41.0415 106.642L20.4083 99.1385L21.0044 94.6666H111.527ZM110.679 78.1L114.94 71H119.516C121.473 71 123.066 72.5924 123.066 74.55C123.066 76.5075 121.473 78.1 119.516 78.1H110.679Z" fill="black"/>
<path d="M44.9661 82.8333H33.1328V87.5667H44.9661V82.8333Z" fill="black"/>
<path d="M99.3997 82.8333H52.0664V87.5667H99.3997V82.8333Z" fill="black"/>
</g>
<defs>
<clipPath id="clip0">
<rect width="142" height="142" fill="white"/>
</clipPath>
</defs>
</svg>
