<svg width="122" height="122" viewBox="0 0 122 122" fill="none" xmlns="http://www.w3.org/2000/svg">
<path d="M11.4375 57.1875H15.25V61H11.4375V57.1875Z" fill="black"/>
<path d="M11.4375 64.8125H15.25V80.0625H11.4375V64.8125Z" fill="black"/>
<path d="M112.469 3.8125H108.656V10.2042C105.764 8.5151 102.475 7.62501 99.125 7.62501C95.7755 7.62501 92.4862 8.5151 89.5938 10.2042V3.8125H85.7813V13.0969C83.0772 15.7474 81.2237 19.1432 80.4572 22.8512C79.6907 26.5592 80.0458 30.4116 81.4773 33.917C82.9088 37.4224 85.3518 40.4221 88.4949 42.5336C91.6379 44.6451 95.3386 45.7727 99.125 45.7727C102.911 45.7727 106.612 44.6451 109.755 42.5336C112.898 40.4221 115.341 37.4224 116.773 33.917C118.204 30.4116 118.559 26.5592 117.793 22.8512C117.026 19.1432 115.173 15.7474 112.469 13.0969V3.8125ZM114.375 26.6875C114.375 29.7037 113.481 32.6521 111.805 35.1599C110.129 37.6678 107.748 39.6224 104.961 40.7767C102.174 41.9309 99.1081 42.2329 96.1499 41.6445C93.1917 41.0561 90.4744 39.6036 88.3416 37.4709C86.2089 35.3381 84.7565 32.6208 84.168 29.6626C83.5796 26.7044 83.8816 23.6382 85.0358 20.8516C86.1901 18.065 88.1447 15.6833 90.6526 14.0076C93.1604 12.3319 96.1088 11.4375 99.125 11.4375C103.168 11.4421 107.044 13.0503 109.903 15.9092C112.762 18.7681 114.37 22.6444 114.375 26.6875Z" fill="black"/>
<path d="M99.087 24.2768L92.643 19.4437L90.3555 22.4937L97.9805 28.2124C98.3185 28.4664 98.7315 28.6007 99.1542 28.5942C99.577 28.5876 99.9856 28.4406 100.316 28.1762L109.847 20.5512L107.464 17.5741L99.087 24.2768Z" fill="black"/>
<path d="M47.6562 57.1875H51.4688V61H47.6562V57.1875Z" fill="black"/>
<path d="M115.68 107.87L112.246 105.581L107.043 83.458C106.598 81.5157 105.748 79.6889 104.55 78.0966C103.352 76.5042 101.832 75.1821 100.089 74.2161C98.3461 73.2502 96.4192 72.6621 94.4339 72.4902C92.4486 72.3183 90.4494 72.5664 88.5663 73.2183L93.1754 59.3906C93.4017 58.703 93.4619 57.9715 93.351 57.2561C93.2402 56.5407 92.9614 55.8618 92.5376 55.2748C92.1138 54.6879 91.557 54.2098 90.9127 53.8796C90.2685 53.5493 89.5552 53.3764 88.8313 53.375H80.0244C78.8248 53.3736 77.6554 53.7515 76.6835 54.4546C75.7116 55.1577 74.9868 56.1501 74.6128 57.29L69.0337 74.0302C68.7853 74.7577 68.7264 75.5365 68.8624 76.2931C68.9984 77.0498 69.325 77.7593 69.8112 78.3547L67.6519 82.3135L65.6567 79.437C64.4757 77.7273 62.94 76.2923 61.1543 75.2297C59.3686 74.167 57.3749 73.5017 55.3089 73.2791C56.4576 72.6113 57.4115 71.6542 58.0755 70.5033C58.7395 69.3523 59.0906 68.0475 59.0938 66.7187V65.3477L61.4625 64.7558C61.7174 64.6921 61.9563 64.5764 62.1644 64.416C62.3724 64.2556 62.545 64.0539 62.6714 63.8236C62.7978 63.5933 62.8752 63.3393 62.8988 63.0777C62.9224 62.8161 62.8917 62.5524 62.8086 62.3032L59.6692 52.8849C61.1081 52.3095 62.3016 51.2508 63.0444 49.8907C63.7871 48.5307 64.0327 46.9543 63.739 45.4327C63.4452 43.9111 62.6304 42.5395 61.4347 41.5537C60.239 40.5679 58.7372 40.0295 57.1875 40.0312H45.75C42.8616 40.0357 40.0816 41.1323 37.968 43.101C35.8544 45.0697 34.5635 47.7649 34.3542 50.6457C33.1906 49.944 31.8589 49.5697 30.5 49.5625H22.875V39.68C24.1469 39.2303 25.2189 38.3455 25.9014 37.1819C26.584 36.0183 26.8333 34.6509 26.6052 33.3213C26.377 31.9917 25.6862 30.7855 24.6548 29.916C23.6234 29.0465 22.3178 28.5696 20.9688 28.5696C19.6197 28.5696 18.3141 29.0465 17.2827 29.916C16.2513 30.7855 15.5605 31.9917 15.3324 33.3213C15.1042 34.6509 15.3535 36.0183 16.0361 37.1819C16.7187 38.3455 17.7906 39.2303 19.0625 39.68V49.5625H11.4375C9.41594 49.5648 7.47781 50.3688 6.04833 51.7983C4.61886 53.2278 3.81479 55.1659 3.81252 57.1875V112.469C3.80929 113.816 4.28331 115.122 5.15055 116.153C6.0178 117.185 7.22226 117.876 8.55047 118.105C9.87869 118.333 11.2449 118.084 12.4069 117.401C13.5689 116.718 14.4517 115.646 14.8988 114.375H27.039C27.486 115.646 28.3687 116.719 29.5307 117.401C30.6928 118.084 32.059 118.333 33.3873 118.105C34.7155 117.877 35.9201 117.185 36.7873 116.154C37.6545 115.122 38.1284 113.817 38.125 112.469V78.5137C38.8606 80.8688 39.5016 82.7024 39.8211 83.5891C39.2151 85.5923 39.0531 87.7036 39.3464 89.7759C39.6398 91.8482 40.3814 93.8316 41.5196 95.588L50.0753 108.793C51.716 111.339 53.9015 113.49 56.4739 115.089C59.0464 116.689 61.9417 117.697 64.9512 118.042H64.9671H64.9698C65.7529 118.133 66.5404 118.182 67.3288 118.187C70.9524 118.179 74.5103 117.218 77.6448 115.4C80.7793 113.582 83.38 110.971 85.1856 107.829L92.8151 94.4702L96.4713 107.273C96.4727 107.278 96.4763 107.282 96.4777 107.287L99.1986 116.805C99.3125 117.204 99.553 117.554 99.8836 117.803C100.214 118.053 100.617 118.187 101.031 118.188H112.556C113.765 118.188 114.942 117.799 115.913 117.079C116.884 116.359 117.597 115.345 117.947 114.188C118.297 113.031 118.266 111.792 117.858 110.654C117.45 109.516 116.686 108.54 115.68 107.87ZM11.4375 112.469C11.4375 112.974 11.2367 113.459 10.8792 113.817C10.5217 114.174 10.0368 114.375 9.53127 114.375C9.0257 114.375 8.54083 114.174 8.18334 113.817C7.82585 113.459 7.62502 112.974 7.62502 112.469V106.75C7.62502 106.244 7.82585 105.76 8.18334 105.402C8.54083 105.045 9.0257 104.844 9.53127 104.844C10.0368 104.844 10.5217 105.045 10.8792 105.402C11.2367 105.76 11.4375 106.244 11.4375 106.75V112.469ZM19.0625 110.562H15.25V106.75C15.2483 105.234 14.6453 103.78 13.5732 102.708C12.501 101.636 11.0474 101.033 9.53127 101.031C8.88037 101.038 8.23548 101.157 7.62502 101.382V57.1875C7.62603 56.1767 8.02802 55.2075 8.74279 54.4928C9.45755 53.778 10.4267 53.376 11.4375 53.375H19.0625V110.562ZM20.9688 36.2187C20.5917 36.2187 20.2232 36.1069 19.9097 35.8975C19.5962 35.688 19.3519 35.3903 19.2076 35.042C19.0633 34.6937 19.0256 34.3104 19.0991 33.9406C19.1727 33.5708 19.3542 33.2312 19.6208 32.9646C19.8874 32.698 20.2271 32.5164 20.5969 32.4429C20.9667 32.3693 21.3499 32.4071 21.6983 32.5514C22.0466 32.6956 22.3443 32.94 22.5538 33.2534C22.7632 33.5669 22.875 33.9355 22.875 34.3125C22.8743 34.8179 22.6733 35.3023 22.3159 35.6597C21.9586 36.017 21.4741 36.2181 20.9688 36.2187ZM34.3125 112.469C34.3125 112.974 34.1117 113.459 33.7542 113.817C33.3967 114.174 32.9118 114.375 32.4063 114.375C31.9007 114.375 31.4158 114.174 31.0583 113.817C30.7008 113.459 30.5 112.974 30.5 112.469V106.75C30.5 106.244 30.7008 105.76 31.0583 105.402C31.4158 105.045 31.9007 104.844 32.4063 104.844C32.9118 104.844 33.3967 105.045 33.7542 105.402C34.1117 105.76 34.3125 106.244 34.3125 106.75V112.469ZM34.3125 59.0937V101.382C33.702 101.157 33.0572 101.038 32.4063 101.031C30.8901 101.033 29.4365 101.636 28.3644 102.708C27.2923 103.78 26.6892 105.234 26.6875 106.75V110.562H22.875V53.375H30.5C31.5108 53.376 32.48 53.778 33.1947 54.4928C33.9095 55.2075 34.3115 56.1767 34.3125 57.1875V59.0937ZM78.2316 58.4888C78.3551 58.1106 78.595 57.7812 78.917 57.5475C79.239 57.3138 79.6265 57.1878 80.0244 57.1875H88.8313C88.9525 57.1874 89.072 57.2166 89.1794 57.2727C89.2869 57.3288 89.3792 57.4101 89.4484 57.5097C89.5199 57.6051 89.5672 57.7164 89.5863 57.834C89.6055 57.9517 89.5958 58.0723 89.5583 58.1854L84.3492 73.8136C83.7402 72.9926 82.9685 72.3061 82.0822 71.7969C81.1959 71.2878 80.2141 70.9669 79.1982 70.8543C78.1822 70.7418 77.154 70.84 76.1777 71.1428C75.2015 71.4456 74.2982 71.9466 73.5243 72.6143L78.2316 58.4888ZM66.486 92.4131L75.146 76.5359C75.6087 75.6823 76.3915 75.0474 77.3222 74.7709C78.253 74.4944 79.2554 74.5989 80.1091 75.0616C80.9627 75.5242 81.5976 76.307 81.8741 77.2377C82.1506 78.1685 82.0461 79.171 81.5835 80.0246L74.8863 92.4617C73.4659 95.0625 71.1854 97.0887 68.4355 98.1932C65.6856 99.2978 62.6373 99.412 59.8124 98.5164C57.7155 97.8585 55.7242 96.5163 54.0546 94.6351L53.5278 94.0432L59.0938 88.4767L63.4648 92.8477C63.6743 93.0572 63.9297 93.215 64.2108 93.3085C64.4919 93.4021 64.7909 93.4288 65.0842 93.3866C65.3774 93.3445 65.6568 93.2345 65.9001 93.0655C66.1434 92.8965 66.344 92.6731 66.486 92.4131ZM50.9903 91.1902L46.839 86.5199C46.2106 85.8112 45.8829 84.8858 45.9251 83.9396C45.9674 82.9934 46.3764 82.1009 47.0654 81.451C47.7544 80.8012 48.6693 80.4452 49.6164 80.4583C50.5634 80.4715 51.4681 80.8528 52.1388 81.5215L56.3983 85.7812L50.9903 91.1902ZM62.5231 81.6077L65.6105 86.0593L64.3605 88.3514L54.8357 78.8275C54.0606 78.0594 53.1247 77.4729 52.0954 77.1104C52.1934 77.0954 52.2887 77.0697 52.3873 77.0573C54.3311 76.8167 56.3036 77.1136 58.0904 77.9157C59.8772 78.7177 61.4099 79.9943 62.5219 81.6066L62.5231 81.6077ZM38.125 51.4687C38.1273 49.4472 38.9314 47.509 40.3608 46.0796C41.7903 44.6501 43.7284 43.846 45.75 43.8437H57.1875C57.9459 43.8437 58.6732 44.145 59.2094 44.6812C59.7456 45.2175 60.0469 45.9448 60.0469 46.7031C60.0469 47.4615 59.7456 48.1888 59.2094 48.725C58.6732 49.2612 57.9459 49.5625 57.1875 49.5625H43.8438C43.5579 49.5623 43.2758 49.6265 43.0181 49.7503C42.7605 49.874 42.534 50.0542 42.3555 50.2773L39.8645 53.3919C39.2755 53.4113 38.6931 53.5228 38.1386 53.7222L38.125 51.4687ZM38.6104 64.6123C39.0674 64.7303 41.9375 64.8125 41.9375 64.8125V61H40.0313C39.5707 60.9958 39.1275 60.8234 38.7852 60.5153C38.4429 60.2071 38.225 59.7844 38.1727 59.3268L38.17 58.8741C38.2196 58.4136 38.4365 57.9875 38.7797 57.6765C39.1228 57.3656 39.5682 57.1916 40.0313 57.1875H41.9375L44.7597 53.375H55.8136L58.5409 61.5566L56.725 62.0094C56.3125 62.1125 55.9463 62.3507 55.6847 62.6859C55.4231 63.0211 55.2811 63.4342 55.2813 63.8594V66.7187C55.2803 67.7296 54.8783 68.6987 54.1635 69.4135C53.4487 70.1282 52.4796 70.5302 51.4688 70.5312H43.8438V74.3437H48.0523C47.3147 74.6526 46.6032 75.0205 45.9249 75.4439C44.5039 76.3535 43.2522 77.5036 42.2256 78.8425C41.0444 75.2254 39.4163 69.7113 38.6104 64.6123ZM64.0224 114.035C61.8325 113.6 59.7528 112.728 57.9069 111.471C56.0611 110.215 54.487 108.6 53.2783 106.723L44.724 93.5199C43.5878 91.7619 42.9927 89.7089 43.0126 87.6158C43.2806 88.1316 43.6085 88.614 43.9896 89.0529L51.2052 97.1685C53.3328 99.5653 55.9149 101.289 58.6711 102.155C62.1686 103.266 65.9383 103.17 69.3744 101.881L64.0224 114.035ZM99.7431 104.844L95.2396 89.0707C95.1365 88.7102 94.9295 88.388 94.6442 88.1446C94.359 87.9012 94.0084 87.7473 93.6361 87.7022C93.2639 87.6571 92.8866 87.7227 92.5515 87.891C92.2164 88.0592 91.9383 88.3225 91.7521 88.648L81.8792 105.935C80.4684 108.389 78.461 110.448 76.0429 111.921C73.6248 113.394 70.8741 114.232 68.0457 114.359L75.0989 98.3406C76.3567 97.1592 77.4184 95.7852 78.2442 94.27L84.9413 81.8329C85.3537 81.056 85.6252 80.2122 85.7431 79.3405C87.0575 78.0149 88.7031 77.0659 90.5087 76.5921C92.3143 76.1183 94.2139 76.1371 96.0098 76.6465C97.8056 77.1559 99.4321 78.1374 100.72 79.4887C102.008 80.84 102.91 82.5118 103.333 84.3301L108.156 104.844H99.7431ZM112.556 114.375H102.469L100.835 108.656H109.985L113.565 111.043C113.89 111.259 114.136 111.575 114.268 111.942C114.4 112.309 114.41 112.71 114.297 113.083C114.184 113.457 113.953 113.784 113.64 114.017C113.326 114.249 112.947 114.375 112.556 114.375Z" fill="black"/>
</svg>
