<svg width="120" height="120" viewBox="0 0 120 120" fill="none" xmlns="http://www.w3.org/2000/svg">
<path d="M103.125 37.5H99.3752C96.2739 37.5 93.7502 40.0238 93.7502 43.125V43.4456C91.5677 44.22 90.0002 46.305 90.0002 48.75V50.9456C90.0002 52.4475 90.5852 53.8612 91.6483 54.9244L93.6564 56.9325L91.6352 74.1131C86.1527 65.2631 77.3027 58.8656 67.0652 56.5163L66.227 54C68.9627 53.2444 71.207 51.3112 72.3302 48.75H73.1252C77.2614 48.75 80.6252 45.3862 80.6252 41.25V31.875C82.6933 31.875 84.3752 30.1931 84.3752 28.125V24.375C84.3752 22.3069 82.6933 20.625 80.6252 20.625H80.2989C78.5064 9.825 69.2683 1.875 58.1252 1.875C46.982 1.875 37.7439 9.825 35.9514 20.625H35.6252C33.557 20.625 31.8752 22.3069 31.8752 24.375V28.125C31.8752 30.1931 33.557 31.875 35.6252 31.875V41.25C35.6252 45.3862 38.9889 48.75 43.1252 48.75H43.9202C45.0452 51.3112 47.2895 53.2463 50.0233 54L49.1833 56.5181C44.9439 57.4894 40.9033 59.2856 37.3314 61.7494L33.6377 50.28C33.6264 50.2181 33.6283 50.1562 33.6152 50.0944C32.6739 46.1437 27.0845 44.0775 20.8595 45.3975C16.9952 46.2169 13.7664 48.165 12.2214 50.6044C11.3383 51.9994 11.0495 53.4844 11.387 54.9019C11.5802 55.7156 11.9795 56.445 12.5327 57.0844L25.3802 76.3275C23.4958 80.6588 22.5002 85.2431 22.5002 90C22.5002 97.995 27.0827 104.927 33.7502 108.349V110.625C33.7502 114.761 37.1139 118.125 41.2502 118.125H46.8752H52.5002H82.5002V93.5756C85.2302 97.1925 89.4714 99.375 94.127 99.375C102.19 99.375 108.75 92.8144 108.75 84.7537V43.125C108.75 40.0238 106.226 37.5 103.125 37.5ZM93.7502 48.75C93.7502 47.7169 94.5902 46.875 95.6252 46.875H97.5002V43.125C97.5002 42.0919 98.3402 41.25 99.3752 41.25H103.125C104.16 41.25 105 42.0919 105 43.125V54.375H96.4014L94.2995 52.2731C93.9452 51.9188 93.7502 51.4463 93.7502 50.9456V48.75ZM63.7502 110.625V114.375H58.9577C59.6027 113.267 60.0002 111.997 60.0002 110.625H63.7502ZM65.6252 106.875H54.3752V98.2763L56.477 96.1744C56.8277 95.8256 57.3095 95.625 57.8027 95.625H60.0002C61.0352 95.625 61.8752 96.4669 61.8752 97.5V99.375H65.6252C66.6602 99.375 67.5002 100.217 67.5002 101.25V105C67.5002 106.033 66.6602 106.875 65.6252 106.875ZM62.3983 54.375L63.5233 57.75L58.1252 64.4981L52.7252 57.7481L53.8502 54.3731H62.3983V54.375ZM52.7439 63.7744C52.6614 63.7725 52.5827 63.75 52.5002 63.75H41.2502C41.2314 63.75 41.2145 63.7556 41.1958 63.7556C43.8995 62.1469 46.8395 60.945 49.9089 60.2306L52.7439 63.7744ZM41.2502 67.5H46.007C45.3658 68.6044 45.0002 69.885 45.0002 71.25V73.125H48.7502V71.25C48.7502 69.1819 50.432 67.5 52.5002 67.5C54.5683 67.5 56.2502 69.1819 56.2502 71.25C56.2502 73.3181 54.5683 75 52.5002 75H41.2502C39.182 75 37.5002 73.3181 37.5002 71.25C37.5002 69.1819 39.182 67.5 41.2502 67.5ZM37.5002 77.7075C38.6083 78.3525 39.8777 78.75 41.2502 78.75H52.5002C53.8727 78.75 55.142 78.3525 56.2502 77.7075V92.1188C55.3464 92.3794 54.5083 92.8388 53.8258 93.5231L51.7239 95.625H45.0002C42.3752 95.625 39.8083 94.9987 37.5002 93.8531V77.7075ZM63.7502 93.3281C62.7527 92.4319 61.4439 91.875 60.0002 91.875V71.25C60.0002 70.365 59.8183 69.5269 59.5352 68.7375L63.7502 63.4706V93.3281ZM73.1252 45V37.5C75.1933 37.5 76.8752 39.1819 76.8752 41.25C76.8752 43.3181 75.1933 45 73.1252 45ZM76.8752 34.7925C75.767 34.1475 74.4977 33.75 73.1252 33.75V31.875H76.8752V34.7925ZM76.4927 20.625H63.7502V6.48375C70.1908 8.47875 75.1314 13.8225 76.4927 20.625ZM60.0002 5.71875V20.625H56.2502V5.71875C56.867 5.65875 57.4914 5.625 58.1252 5.625C58.7589 5.625 59.3833 5.65875 60.0002 5.71875ZM52.5002 6.48375V20.625H39.7577C41.1189 13.8225 46.0595 8.47875 52.5002 6.48375ZM35.6233 24.375H80.6252V28.125H35.6252L35.6233 24.375ZM43.1252 31.875V33.75C41.7527 33.75 40.4833 34.1475 39.3752 34.7925V31.875H43.1252ZM39.3752 41.25C39.3752 39.1819 41.057 37.5 43.1252 37.5V45C41.057 45 39.3752 43.3181 39.3752 41.25ZM46.8752 45V31.875H69.3752V45C69.3752 48.1012 66.8514 50.625 63.7502 50.625H52.5002C49.3989 50.625 46.8752 48.1012 46.8752 45ZM15.3883 52.6125C16.3745 51.0562 18.827 49.665 21.6395 49.0669C22.7102 48.84 23.7114 48.7406 24.6227 48.7406C27.2758 48.7406 29.1658 49.5806 29.7808 50.5406L29.9645 51.1106C30.0095 51.495 29.9102 51.9188 29.612 52.3894C28.6258 53.9456 26.1733 55.3369 23.3608 55.935C19.4908 56.7544 16.5677 55.9012 15.482 54.7556L15.1145 54.2044C15.092 54.1481 15.047 54.0956 15.032 54.0394C14.9345 53.6194 15.0545 53.1413 15.3883 52.6125ZM20.447 59.9981C21.6283 59.9981 22.8714 59.8706 24.1408 59.6006C27.1539 58.9613 29.7695 57.6319 31.5133 55.9219L35.0814 67.0013C34.2452 68.2106 33.7502 69.6712 33.7502 71.25V82.1137L18.9302 59.9175C19.4233 59.9662 19.9277 59.9981 20.447 59.9981ZM26.2502 90C26.2502 86.5894 26.8033 83.2706 27.8927 80.0962L33.7502 88.8694V91.29C32.9327 90.5587 32.1677 89.7638 31.5002 88.875L28.5002 91.125C32.3739 96.2906 38.5427 99.375 45.0002 99.375H50.6252V106.875H43.1252C33.8195 106.875 26.2502 99.3037 26.2502 90ZM46.8752 114.375H41.2502C39.182 114.375 37.5002 112.693 37.5002 110.625V109.826C39.2908 110.334 41.1733 110.625 43.1252 110.625H56.2502C56.2502 112.693 54.5683 114.375 52.5002 114.375H46.8752ZM94.127 95.625C89.9833 95.625 86.2577 93.3225 84.4033 89.6156L82.5002 85.8075V78.75H78.7502V114.375H67.5002V110.28C69.677 109.504 71.2502 107.441 71.2502 105V101.25C71.2502 98.8087 69.677 96.7462 67.5002 95.97V60.495C77.6683 63.2325 86.1939 70.41 90.5814 80.0606L90.8645 80.6812L90.0152 87.9075L93.7389 88.3444L97.292 58.125H105V84.7537C105 90.7481 100.121 95.625 94.127 95.625Z" fill="black"/>
</svg>
