<svg width="500" height="500" viewBox="0 0 500 500" fill="none" xmlns="http://www.w3.org/2000/svg">
<path d="M449.9 391.92H359V392.17H449.9V391.92Z" fill="#EBEBEB"/>
<path d="M331.22 389.21H306.33V389.46H331.22V389.21Z" fill="#EBEBEB"/>
<path d="M388.11 401.21H349.52V401.46H388.11V401.21Z" fill="#EBEBEB"/>
<path d="M75.1 399.53H52.46V399.78H75.1V399.53Z" fill="#EBEBEB"/>
<path d="M110.89 399.53H84V399.78H110.89V399.53Z" fill="#EBEBEB"/>
<path d="M225.15 395.31H178.31V395.56H225.15V395.31Z" fill="#EBEBEB"/>
<path d="M426.2 376.72H444.95V272.7H426.2V376.72Z" fill="#F0F0F0"/>
<path d="M234.82 382.4H441.35V376.71H234.82V382.4Z" fill="#F0F0F0"/>
<path d="M426.2 272.69H231.22V376.71H426.2V272.69Z" fill="#F5F5F5"/>
<path d="M428.15 272.69H447.31V267.73H428.15V272.69Z" fill="#F0F0F0"/>
<path d="M428.15 267.73H228.86V272.69H428.15V267.73Z" fill="#FAFAFA"/>
<path d="M419.47 310.23H238V283.11H419.47V310.23ZM239.22 309H418.22V284.4H239.22V309Z" fill="#E0E0E0"/>
<path d="M419.47 366.3H238V317.75H419.47V366.3ZM239.22 365H418.22V319H239.22V365Z" fill="#E0E0E0"/>
<path d="M264.07 287.77H393.35C394.267 287.77 395.01 287.027 395.01 286.11V285.39C395.01 284.473 394.267 283.73 393.35 283.73H264.07C263.153 283.73 262.41 284.473 262.41 285.39V286.11C262.41 287.027 263.153 287.77 264.07 287.77Z" fill="#E0E0E0"/>
<path d="M264.07 322.42H393.35C394.267 322.42 395.01 321.677 395.01 320.76V320.04C395.01 319.123 394.267 318.38 393.35 318.38H264.07C263.153 318.38 262.41 319.123 262.41 320.04V320.76C262.41 321.677 263.153 322.42 264.07 322.42Z" fill="#E0E0E0"/>
<path d="M57.1001 382.4H64.8901L64.8901 250H57.1001L57.1001 382.4Z" fill="#E6E6E6"/>
<path d="M54.6501 382.4H60.0601L60.0601 250H54.6501L54.6501 382.4Z" fill="#F0F0F0"/>
<path d="M145.65 250H52.9697V259.57H145.65V250Z" fill="#F0F0F0"/>
<path d="M149.14 382.4H156.93L156.93 259.58H149.14L149.14 382.4Z" fill="#E6E6E6"/>
<path d="M146.69 382.4H152.1L152.1 259.58H146.69L146.69 382.4Z" fill="#F0F0F0"/>
<path d="M198.45 382.4H206.24L206.24 259.58H198.45L198.45 382.4Z" fill="#E6E6E6"/>
<path d="M195.98 382.4H201.39L201.39 259.58H195.98L195.98 382.4Z" fill="#F0F0F0"/>
<path d="M106.41 382.4H114.2L114.2 259.58H106.41L106.41 382.4Z" fill="#E6E6E6"/>
<path d="M103.95 382.4H109.36L109.36 259.58H103.95L103.95 382.4Z" fill="#F0F0F0"/>
<path d="M145.66 259.57H206.24V250H145.66V259.57Z" fill="#E6E6E6"/>
<path d="M137.8 175.97H62.9102L69.5402 118H131.17L137.8 175.97Z" fill="#EBEBEB"/>
<path d="M104.43 175.97H96.2798V250H104.43V175.97Z" fill="#F5F5F5"/>
<path d="M117 250H83.7397C83.7397 249.061 84.1127 248.161 84.7766 247.497C85.4405 246.833 86.3409 246.46 87.2797 246.46H113.43C113.897 246.456 114.361 246.545 114.794 246.721C115.227 246.897 115.62 247.157 115.952 247.486C116.284 247.815 116.548 248.207 116.727 248.638C116.907 249.07 117 249.533 117 250Z" fill="#F0F0F0"/>
<path d="M104.43 182.38L96.2798 178.49V175.97H104.43V182.38Z" fill="#E0E0E0"/>
<path d="M135.39 249.79H170.56L174.91 202.02H139.74L135.39 249.79Z" fill="#E6E6E6"/>
<path d="M133.57 249.79H168.74L173.09 202.02H137.92L133.57 249.79Z" fill="#F0F0F0"/>
<path d="M163.93 244.5L167.32 207.31H142.73L139.34 244.5H163.93Z" fill="white"/>
<path d="M424.79 215.53H353.4L339.51 265H410.9L424.79 215.53Z" fill="#E6E6E6"/>
<path d="M410.9 265L410.62 267.73H339.21L339.5 265H410.9Z" fill="#E6E6E6"/>
<path d="M422.6 215.53H351.2L337.31 265H408.71L422.6 215.53Z" fill="#F0F0F0"/>
<path d="M407.9 261.77L419.39 218.93C419.55 218.32 419.24 217.79 418.72 217.79H353.08C352.817 217.821 352.571 217.935 352.377 218.114C352.183 218.294 352.051 218.531 352 218.79L340.52 261.6C340.35 262.21 340.66 262.74 341.18 262.74H406.82C407.08 262.714 407.324 262.606 407.518 262.431C407.712 262.257 407.846 262.025 407.9 261.77Z" fill="white"/>
<path d="M390.1 265L389.81 267.73H311.19L311.48 265H390.1Z" fill="#F0F0F0"/>
<path d="M439.58 86.4399H266.36V193.35H439.58V86.4399Z" fill="#F0F0F0"/>
<path d="M434.66 91.3599H271.28V188.44H434.66V91.3599Z" fill="white"/>
<path d="M439.58 193.36H441.35V86.4499H439.58V193.36Z" fill="#E6E6E6"/>
<path d="M250 427.56C357.082 427.56 443.89 422.492 443.89 416.24C443.89 409.988 357.082 404.92 250 404.92C142.917 404.92 56.1099 409.988 56.1099 416.24C56.1099 422.492 142.917 427.56 250 427.56Z" fill="#F5F5F5"/>
<path d="M210.43 69.9998C215.097 65.8465 221.14 63.1265 228.56 61.8398C235.98 60.5532 243.823 61.3698 252.09 64.2898C260.33 67.2098 267.867 72.4832 274.7 80.1098C281.053 87.2032 285.347 94.6332 287.58 102.4C289.808 109.582 290.012 117.239 288.17 124.53C286.42 131.288 282.695 137.37 277.47 142C273.752 145.486 269.216 147.979 264.28 149.25C259.873 150.347 255.324 150.766 250.79 150.49C246.437 150.21 238.883 149.466 228.13 148.26C225.613 147.986 223.082 147.846 220.55 147.84C218.816 147.828 217.087 148.026 215.4 148.43C214.062 148.771 212.762 149.247 211.52 149.85C210.32 150.44 208.29 151.53 205.41 153.14C199.49 156.76 194.343 156.127 189.97 151.24C188.884 150.084 188.037 148.725 187.479 147.24C186.921 145.755 186.663 144.175 186.72 142.59C186.833 139.37 188.527 136.293 191.8 133.36C198.467 126.971 207.398 123.489 216.63 123.68C221.886 123.855 227.129 124.296 232.34 125C237.88 125.67 241.97 126.09 244.61 126.23C247.231 126.38 249.86 126.161 252.42 125.58C254.974 125.014 257.335 123.79 259.27 122.03C261.163 120.386 262.679 118.353 263.715 116.07C264.75 113.787 265.281 111.307 265.27 108.8C265.35 103.466 263.35 98.5098 259.27 93.9298C254.45 88.5498 249.547 85.8065 244.56 85.6998C239.573 85.5932 233.637 87.0265 226.75 89.9998C219.743 93.2865 214.16 92.6198 210 87.9998C208.816 86.7307 207.91 85.2284 207.34 83.5891C206.77 81.9499 206.549 80.2096 206.69 78.4798C206.72 76.889 207.066 75.32 207.708 73.8642C208.35 72.4084 209.276 71.0948 210.43 69.9998ZM162.09 177.69C159.477 174.851 158.018 171.138 158 167.28C157.94 163.333 159.643 159.803 163.11 156.69C164.537 155.37 166.222 154.361 168.058 153.726C169.895 153.091 171.843 152.844 173.78 153C175.742 153.118 177.66 153.631 179.419 154.507C181.179 155.384 182.743 156.605 184.02 158.1C185.333 159.521 186.347 161.192 187.001 163.012C187.656 164.833 187.938 166.767 187.831 168.698C187.723 170.63 187.229 172.521 186.377 174.258C185.525 175.995 184.332 177.543 182.87 178.81C179.45 181.87 175.783 183.176 171.87 182.73C168.089 182.349 164.594 180.548 162.09 177.69Z" fill="white"/>
<g opacity="0.5">
<path opacity="0.5" d="M299.85 137.05C301.254 133.714 303.582 130.848 306.56 128.79C310.06 126.297 314.146 124.753 318.42 124.31C323.399 123.774 328.433 124.511 333.05 126.45C337.411 128.064 341.35 130.645 344.57 134C347.36 136.903 349.298 140.519 350.17 144.45C350.974 148.124 350.661 151.955 349.27 155.45C348.326 158.014 346.751 160.297 344.69 162.09C342.844 163.676 340.767 164.971 338.53 165.93C336.383 166.843 332.587 168.303 327.14 170.31C325.866 170.777 324.621 171.318 323.41 171.93C322.577 172.339 321.797 172.849 321.09 173.45C320.528 173.931 320.018 174.471 319.57 175.06C319.14 175.63 318.43 176.64 317.44 178.06C315.44 181.22 312.823 182.153 309.59 180.86C308.792 180.567 308.059 180.12 307.435 179.543C306.81 178.967 306.305 178.272 305.95 177.5C305.593 176.596 305.428 175.628 305.466 174.657C305.504 173.686 305.744 172.733 306.17 171.86C307.828 167.2 311.266 163.388 315.73 161.26C318.285 160.07 320.898 159.009 323.56 158.08C326.37 157.08 328.43 156.29 329.73 155.73C331.02 155.17 332.225 154.433 333.31 153.54C334.397 152.653 335.234 151.498 335.74 150.19C336.252 148.949 336.49 147.612 336.436 146.271C336.383 144.93 336.039 143.616 335.43 142.42C334.092 139.788 331.788 137.774 329 136.8C325.4 135.38 322.4 135.243 320 136.39C317.086 137.941 314.536 140.096 312.52 142.71C309.947 145.97 307.107 146.97 304 145.71C303.129 145.384 302.335 144.881 301.669 144.232C301.003 143.583 300.479 142.802 300.13 141.94C299.761 141.184 299.547 140.363 299.499 139.523C299.451 138.684 299.57 137.843 299.85 137.05ZM302.58 200.25C300.648 199.518 299.058 198.092 298.12 196.25C297.64 195.282 297.38 194.219 297.359 193.138C297.339 192.058 297.557 190.986 298 190C298.36 189.022 298.921 188.13 299.646 187.381C300.371 186.632 301.244 186.042 302.21 185.65C303.179 185.237 304.222 185.023 305.275 185.023C306.328 185.023 307.371 185.237 308.34 185.65C309.31 186.015 310.196 186.571 310.947 187.286C311.698 188 312.298 188.857 312.711 189.808C313.124 190.758 313.342 191.782 313.352 192.818C313.363 193.854 313.164 194.882 312.77 195.84C312.424 196.867 311.856 197.804 311.106 198.586C310.356 199.367 309.442 199.973 308.43 200.36C306.536 201.063 304.446 201.024 302.58 200.25Z" fill="#FF4E59"/>
</g>
<g opacity="0.1">
<path opacity="0.1" d="M367.11 131.16C366.205 129.737 365.723 128.086 365.72 126.4C365.686 124.402 366.176 122.43 367.14 120.68C368.252 118.641 369.867 116.92 371.83 115.68C373.601 114.433 375.632 113.606 377.77 113.26C379.622 112.96 381.521 113.174 383.26 113.88C384.888 114.539 386.281 115.671 387.26 117.13C387.994 118.169 388.455 119.376 388.6 120.64C388.714 121.765 388.66 122.901 388.44 124.01C388.22 125.083 387.773 126.923 387.1 129.53C386.948 130.143 386.828 130.764 386.74 131.39C386.623 132.16 386.685 132.947 386.92 133.69C387.03 134.01 387.23 134.55 387.53 135.31C387.712 135.621 387.831 135.966 387.88 136.323C387.928 136.681 387.905 137.045 387.812 137.394C387.719 137.742 387.558 138.069 387.338 138.355C387.118 138.641 386.843 138.881 386.53 139.06C385.879 139.517 385.073 139.697 384.29 139.56C383.848 139.46 383.432 139.269 383.068 138.999C382.705 138.728 382.402 138.385 382.18 137.99C381.476 136.992 380.979 135.863 380.72 134.67C380.513 133.635 380.489 132.573 380.65 131.53C380.866 130.236 381.15 128.954 381.5 127.69C381.86 126.34 382.1 125.35 382.23 124.69C382.356 124.031 382.393 123.358 382.34 122.69C382.283 122.038 382.059 121.411 381.69 120.87C381.349 120.347 380.899 119.904 380.371 119.571C379.842 119.238 379.249 119.023 378.63 118.94C377.256 118.753 375.863 119.112 374.75 119.94C374.118 120.291 373.567 120.768 373.129 121.343C372.692 121.918 372.379 122.578 372.21 123.28C372.036 124.808 372.19 126.356 372.66 127.82C373.23 129.67 372.86 131.02 371.57 131.89C371.216 132.137 370.814 132.308 370.391 132.392C369.968 132.476 369.532 132.472 369.11 132.38C368.712 132.321 368.329 132.183 367.986 131.973C367.642 131.764 367.344 131.487 367.11 131.16ZM392.06 146.82C391.267 147.362 390.302 147.593 389.35 147.47C388.847 147.398 388.367 147.215 387.944 146.933C387.522 146.65 387.168 146.277 386.91 145.84C386.63 145.444 386.436 144.994 386.34 144.519C386.244 144.044 386.247 143.554 386.35 143.08C386.447 142.599 386.639 142.142 386.916 141.737C387.192 141.331 387.547 140.986 387.96 140.72C388.356 140.444 388.804 140.251 389.276 140.153C389.749 140.055 390.237 140.054 390.71 140.15C391.185 140.238 391.637 140.422 392.038 140.692C392.439 140.962 392.78 141.312 393.04 141.72C393.341 142.124 393.55 142.59 393.652 143.084C393.754 143.579 393.747 144.089 393.63 144.58C393.405 145.497 392.845 146.296 392.06 146.82Z" fill="#FF4E59"/>
</g>
<path d="M185.79 409.62L178.23 407.66L182.74 390.37L190.3 392.33L185.79 409.62Z" fill="#FFC3BD"/>
<path d="M178.15 405.66L186.59 408.33C186.661 408.347 186.727 408.379 186.784 408.422C186.842 408.466 186.891 408.52 186.927 408.583C186.964 408.645 186.987 408.714 186.996 408.786C187.005 408.858 187 408.93 186.98 409L185.2 415.55C185.076 415.894 184.823 416.176 184.495 416.338C184.167 416.5 183.789 416.53 183.44 416.42C180.52 415.42 179.17 414.84 175.44 413.66C173.15 412.94 167.63 411.31 164.44 410.31C161.25 409.31 162.44 406.31 163.83 406.5C170.25 407.17 173.98 406.63 176.65 405.7C177.132 405.522 177.66 405.508 178.15 405.66Z" fill="#263238"/>
<path opacity="0.2" d="M190.3 392.34L182.74 390.38L180.42 399.29L187.98 401.25L190.3 392.34Z" fill="black"/>
<path d="M209.35 215.53C209.35 215.53 195.51 281.3 191.83 302.83C187.83 326.41 179.04 393.92 179.04 393.92L191.89 398.59C191.89 398.59 212 327 215.05 304.33C221.44 282.17 237.63 215.53 237.63 215.53H209.35Z" fill="#FF9BA1"/>
<path opacity="0.3" d="M227.12 237C222.63 247.78 221 267.41 221.78 279.15C225.34 265.29 229.29 249.46 232.35 237.06C231.36 233.65 230 230.07 227.12 237Z" fill="black"/>
<path d="M191.63 400.11L177.85 396.13L178.37 390.3L194.77 394.91L191.63 400.11Z" fill="#263238"/>
<path d="M175.05 406.08C175.732 406.275 176.433 406.399 177.14 406.45C177.176 406.456 177.213 406.45 177.245 406.434C177.277 406.418 177.304 406.392 177.32 406.36C177.339 406.332 177.349 406.299 177.349 406.265C177.349 406.231 177.339 406.198 177.32 406.17C177.13 405.93 175.48 403.86 174.45 403.92C174.332 403.924 174.216 403.959 174.115 404.02C174.014 404.081 173.929 404.167 173.87 404.27C173.768 404.414 173.706 404.582 173.691 404.758C173.675 404.933 173.706 405.11 173.78 405.27C174.09 405.686 174.542 405.974 175.05 406.08ZM176.75 406.08C175.31 405.91 174.34 405.56 174.1 405.08C174.053 404.976 174.036 404.861 174.05 404.749C174.064 404.636 174.109 404.529 174.18 404.44C174.208 404.389 174.248 404.346 174.297 404.314C174.346 404.283 174.402 404.264 174.46 404.26C175 404.24 176.06 405.25 176.75 406.06V406.08Z" fill="#FF4E59"/>
<path d="M177.1 406.45H177.19C177.22 406.445 177.248 406.434 177.272 406.416C177.296 406.399 177.316 406.376 177.33 406.35C177.33 406.26 178.25 404.23 177.73 403.29C177.659 403.17 177.564 403.066 177.45 402.985C177.336 402.904 177.207 402.848 177.07 402.82C176.92 402.776 176.759 402.783 176.613 402.839C176.467 402.895 176.343 402.997 176.26 403.13C175.81 403.87 176.42 405.73 177.02 406.39C177.04 406.418 177.068 406.439 177.1 406.45ZM177.1 403.19C177.169 403.211 177.233 403.245 177.288 403.292C177.343 403.338 177.388 403.395 177.42 403.46C177.601 404.286 177.499 405.149 177.13 405.91C176.66 405.17 176.3 403.79 176.6 403.31C176.6 403.22 176.75 403.12 177.01 403.17L177.1 403.19Z" fill="#FF4E59"/>
<path d="M220.06 159.2C219.39 160.82 218.75 162.26 218.06 163.74C217.37 165.22 216.63 166.67 215.88 168.12C214.36 171.01 212.76 173.86 211 176.64C207.498 182.418 203.263 187.719 198.4 192.41L198.22 192.59C197.965 192.82 197.683 193.018 197.38 193.18C196.548 193.629 195.633 193.904 194.69 193.99C194.151 194.028 193.61 194.028 193.07 193.99C192.263 193.938 191.461 193.828 190.67 193.66C189.25 193.36 187.99 192.99 186.75 192.6C184.29 191.82 182 190.87 179.75 189.91C177.5 188.95 175.28 187.91 173.1 186.78C170.92 185.65 168.78 184.52 166.66 183.24C166.169 182.94 165.8 182.474 165.621 181.927C165.442 181.379 165.464 180.786 165.684 180.253C165.903 179.72 166.305 179.284 166.818 179.021C167.33 178.758 167.92 178.687 168.48 178.82C173.12 179.94 177.75 181.19 182.31 182.3C184.58 182.87 186.85 183.37 189.03 183.79C190.058 183.998 191.096 184.148 192.14 184.24C192.533 184.263 192.927 184.263 193.32 184.24C193.47 184.24 193.53 184.24 193.49 184.24C193.135 184.25 192.789 184.357 192.49 184.55L191.49 185.32C193.425 183.178 195.219 180.914 196.86 178.54C198.54 176.11 200.13 173.54 201.66 170.96C203.19 168.38 204.66 165.67 206.05 162.96C207.44 160.25 208.82 157.46 210.05 154.85L210.11 154.72C210.7 153.394 211.793 152.356 213.148 151.836C214.503 151.316 216.009 151.355 217.335 151.945C218.661 152.535 219.699 153.628 220.219 154.983C220.74 156.338 220.7 157.844 220.11 159.17L220.06 159.2Z" fill="#FFC3BD"/>
<path d="M218.52 148.62C212.08 148.8 207.66 155.79 203.44 164.5C206.675 170.092 211.311 174.744 216.89 178C216.89 178 233.81 148.19 218.52 148.62Z" fill="#E0E0E0"/>
<path d="M166.34 183.28L160.54 181.8L165.06 175.99C165.06 175.99 170.06 176.78 171.96 180.99L169.9 182.46C169.4 182.844 168.824 183.116 168.209 183.258C167.595 183.399 166.958 183.407 166.34 183.28Z" fill="#FFC3BD"/>
<path d="M159.13 175.86L160.25 174.86C160.708 174.459 161.293 174.232 161.902 174.219C162.511 174.206 163.106 174.408 163.58 174.79L165.06 175.98L160.54 181.79L158.69 178.91C158.384 178.434 158.26 177.863 158.34 177.303C158.421 176.743 158.702 176.23 159.13 175.86Z" fill="#FFC3BD"/>
<path d="M253.46 408.72H245.55L243.66 391.1H251.57L253.46 408.72Z" fill="#FFC3BD"/>
<path d="M244.86 407.84H253.75C253.897 407.832 254.041 407.881 254.152 407.979C254.262 408.076 254.33 408.213 254.34 408.36L254.77 415.12C254.762 415.483 254.612 415.829 254.352 416.083C254.093 416.337 253.743 416.48 253.38 416.48C250.29 416.42 248.81 416.25 244.9 416.25C242.5 416.25 235.9 416.49 232.55 416.49C229.2 416.49 229.32 413.33 230.73 413.05C237.04 411.76 241.26 409.99 243.5 408.31C243.889 408.008 244.367 407.843 244.86 407.84Z" fill="#263238"/>
<path opacity="0.2" d="M251.57 391.1H243.66L244.64 400.19H252.55L251.57 391.1Z" fill="black"/>
<path d="M224.81 215.53C224.81 215.53 226.56 281.65 227.81 303.44C229.21 327.3 241.06 397.99 241.06 397.99H255.56C255.56 397.99 252.38 326.4 249.98 302.99C250.98 277.35 251.64 215.51 251.64 215.51L224.81 215.53Z" fill="#FF9BA1"/>
<path d="M256.14 397.99H239.7L238.92 392.7L256.58 393L256.14 397.99Z" fill="#263238"/>
<path d="M242.06 409.16C242.771 409.144 243.478 409.054 244.17 408.89C244.204 408.884 244.235 408.867 244.258 408.841C244.282 408.816 244.296 408.784 244.3 408.75C244.31 408.716 244.308 408.681 244.295 408.648C244.283 408.616 244.26 408.588 244.23 408.57C243.98 408.41 241.74 406.93 240.77 407.3C240.662 407.34 240.566 407.407 240.49 407.494C240.415 407.582 240.363 407.687 240.34 407.8C240.277 407.971 240.266 408.157 240.307 408.334C240.347 408.512 240.439 408.673 240.57 408.8C241.008 409.094 241.536 409.222 242.06 409.16ZM243.66 408.64C242.24 408.91 241.2 408.86 240.83 408.51C240.754 408.426 240.702 408.324 240.679 408.213C240.656 408.102 240.663 407.987 240.7 407.88C240.709 407.825 240.733 407.773 240.768 407.729C240.803 407.685 240.848 407.651 240.9 407.63C241.42 407.43 242.74 408.07 243.66 408.64Z" fill="#FF4E59"/>
<path d="M244.12 408.9H244.21C244.237 408.884 244.26 408.862 244.277 408.836C244.294 408.81 244.306 408.781 244.31 408.75C244.31 408.66 244.49 406.47 243.69 405.75C243.588 405.652 243.464 405.579 243.328 405.537C243.193 405.496 243.05 405.486 242.91 405.51C242.756 405.512 242.606 405.565 242.485 405.661C242.364 405.756 242.278 405.89 242.24 406.04C242.06 406.87 243.24 408.46 244.03 408.91L244.12 408.9ZM243 405.81C243.074 405.807 243.148 405.821 243.217 405.848C243.286 405.876 243.348 405.917 243.4 405.97C243.838 406.696 244.021 407.548 243.92 408.39C243.23 407.83 242.44 406.62 242.56 406.08C242.56 405.97 242.65 405.85 242.92 405.82L243 405.81Z" fill="#FF4E59"/>
<path d="M212.68 153.71C213.107 152.415 213.874 151.259 214.902 150.364C215.93 149.468 217.18 148.866 218.52 148.62C220.474 148.164 222.455 147.83 224.45 147.62C230.446 147.289 236.455 147.289 242.45 147.62C245.59 147.76 248.79 148.13 251.34 148.49H251.43C252.085 148.566 252.718 148.775 253.29 149.103C253.862 149.432 254.361 149.874 254.757 150.401C255.152 150.929 255.437 151.532 255.592 152.173C255.747 152.814 255.771 153.48 255.66 154.13C253.664 164.32 252.358 174.634 251.75 185C251.13 200.06 251.97 211.88 251.67 215.51H209.35C206.78 178.78 210.1 162.08 212.68 153.71Z" fill="#E0E0E0"/>
<path d="M245.32 125.21C246.058 125.743 246.645 126.458 247.024 127.287C247.403 128.115 247.56 129.027 247.48 129.934C247.401 130.841 247.087 131.712 246.57 132.461C246.053 133.211 245.35 133.813 244.53 134.21C246.24 137.04 241.69 142.04 237.11 138.9C232.53 135.76 239 122.54 245.32 125.21Z" fill="#263238"/>
<path d="M226.38 122.17C225.752 122.189 225.13 122.044 224.574 121.749C224.019 121.455 223.549 121.022 223.211 120.492C222.874 119.961 222.679 119.353 222.648 118.725C222.616 118.097 222.748 117.472 223.03 116.91C220.9 116.08 221.28 111.43 225.12 111.23C228.96 111.03 230.94 121 226.38 122.17Z" fill="#263238"/>
<path d="M225.13 151.55C224.844 151.287 224.631 150.954 224.512 150.584C224.393 150.215 224.373 149.82 224.452 149.44C224.532 149.06 224.709 148.707 224.967 148.416C225.224 148.124 225.553 147.905 225.92 147.78C229.78 146.36 230.48 143.56 230.17 140.51C230.082 139.652 229.941 138.8 229.75 137.96L236.3 132.73L241.12 128.89C239.92 133.89 238.58 142.6 241.12 147.01C241.405 147.471 241.515 148.019 241.431 148.555C241.346 149.09 241.073 149.578 240.66 149.93C239 151.4 235.6 153.3 230 153C227.43 152.87 226 152.28 225.13 151.55Z" fill="#FFC3BD"/>
<path d="M210.51 153.89C210.987 152.45 211.828 151.158 212.951 150.138C214.074 149.119 215.441 148.406 216.92 148.07C218.818 147.769 220.731 147.568 222.65 147.47C222.851 147.441 223.055 147.463 223.245 147.533C223.435 147.602 223.605 147.719 223.739 147.87C223.872 148.022 223.967 148.205 224.012 148.402C224.058 148.599 224.054 148.805 224 149C220.65 161.44 215.87 186.33 217.35 217.16C217.357 217.352 217.325 217.543 217.255 217.722C217.185 217.901 217.08 218.064 216.945 218.2C216.81 218.337 216.649 218.445 216.471 218.517C216.293 218.589 216.102 218.624 215.91 218.62H207.51C207.146 218.626 206.793 218.493 206.524 218.248C206.254 218.002 206.088 217.663 206.06 217.3C203.53 179.63 208 160.86 210.51 153.89Z" fill="#263238"/>
<path d="M251.11 147.74C248.421 147.355 245.715 147.108 243 147C242.509 146.964 242.021 147.103 241.622 147.392C241.223 147.681 240.939 148.102 240.82 148.58C237.71 162.28 234.94 192.72 234.82 217.21C234.824 217.396 234.865 217.58 234.94 217.751C235.015 217.922 235.123 218.076 235.257 218.205C235.392 218.334 235.551 218.435 235.725 218.503C235.898 218.571 236.084 218.604 236.27 218.6H251.27C251.642 218.608 252.002 218.47 252.273 218.216C252.544 217.961 252.705 217.611 252.72 217.24C252.82 212.31 252.14 200.76 252.72 186.42C253.275 176.201 254.558 166.035 256.56 156C257.08 153.19 254.08 148.16 251.11 147.74Z" fill="#263238"/>
<path d="M256.38 152.09C259.59 156.93 262.51 161.78 265.27 166.87C266.63 169.42 267.97 172.01 269.18 174.73C269.78 176.09 270.37 177.48 270.92 178.95C271.526 180.54 271.995 182.179 272.32 183.85C272.567 185.067 272.62 186.316 272.48 187.55C272.317 188.549 272.059 189.53 271.71 190.48C271.14 192.029 270.44 193.527 269.62 194.96C268.148 197.557 266.508 200.056 264.71 202.44C261.251 207.056 257.468 211.42 253.39 215.5C252.919 215.972 252.291 216.255 251.625 216.294C250.959 216.333 250.302 216.126 249.778 215.713C249.255 215.299 248.902 214.708 248.786 214.051C248.67 213.394 248.8 212.717 249.15 212.15V212.09C252.06 207.4 255 202.62 257.66 197.88C258.98 195.52 260.24 193.12 261.25 190.8C262.26 188.48 263 185.94 262.48 185.87C262.161 184.806 261.774 183.764 261.32 182.75C260.82 181.61 260.25 180.43 259.65 179.26C258.43 176.91 257.12 174.52 255.75 172.17C253.01 167.45 250.09 162.69 247.2 158.08V158.02C246.414 156.802 246.143 155.322 246.448 153.906C246.753 152.489 247.608 151.251 248.825 150.465C250.042 149.678 251.522 149.408 252.939 149.713C254.356 150.017 255.594 150.872 256.38 152.09Z" fill="#FFC3BD"/>
<path d="M250.16 147.61C256.6 147.49 260.01 152.94 264.23 161.61C259.45 170.46 250.33 174.29 250.33 174.29C250.33 174.29 237.5 147.83 250.16 147.61Z" fill="#E0E0E0"/>
<path d="M246.86 211.89L243.15 213.07L250.02 218.29C250.02 218.29 255.64 215.37 253.88 212.72L252.74 212.21C250.885 211.391 248.794 211.277 246.86 211.89Z" fill="#FFC3BD"/>
<path d="M241.07 217.65L245.24 221.84C245.375 221.971 245.536 222.073 245.712 222.139C245.888 222.206 246.076 222.234 246.264 222.224C246.452 222.214 246.636 222.164 246.804 222.079C246.972 221.994 247.121 221.875 247.24 221.73L250.01 218.29L243.14 213.07L241 216C240.803 216.234 240.701 216.533 240.713 216.838C240.726 217.144 240.854 217.434 241.07 217.65Z" fill="#FFC3BD"/>
<path opacity="0.2" d="M229.75 138C229.941 138.841 230.081 139.692 230.17 140.55C232.65 141.18 236.17 138.34 236.5 135.93C236.542 134.873 236.475 133.814 236.3 132.77L229.75 138Z" fill="black"/>
<path d="M245.23 121.79C243.54 129.17 242.94 133.57 238.4 136.86C236.915 137.946 235.169 138.619 233.339 138.811C231.509 139.003 229.66 138.706 227.983 137.951C226.305 137.195 224.857 136.009 223.787 134.512C222.716 133.016 222.062 131.262 221.89 129.43C221.31 122.51 224.17 111.6 232.25 109.66C240.33 107.72 246.92 114.4 245.23 121.79Z" fill="#FFC3BD"/>
<path d="M241.81 128.25C239.67 128.36 237.39 120.81 242.11 117.17C241.36 117.58 239.31 116.83 239.67 115.42C238.28 116 232.2 115.75 233.67 113.28C230.58 114.08 223.84 112.74 223.12 109.79C222.4 106.84 225.88 106.74 226.42 107.13C224.89 104.99 224.92 101.85 228.98 100.71C233.04 99.5699 239.16 105.44 239.16 105.44C238.52 103.89 240.77 102.64 243.1 103.97C245.43 105.3 246.52 109.08 246.52 109.08C246.52 107.94 251.96 109.47 249.38 114.25C252.05 115.25 253.27 116.67 253.1 119.14C252.93 121.61 251.24 121.75 251.24 121.75C251.598 122.639 251.647 123.623 251.381 124.543C251.115 125.464 250.547 126.269 249.77 126.83C247 129.06 244.58 126.44 241.81 128.25Z" fill="#263238"/>
<path d="M246.05 128.82C245.11 130.196 243.721 131.203 242.12 131.67C240.06 132.22 239.36 130.38 240.2 128.46C240.96 126.73 242.94 124.35 244.88 124.65C246.82 124.95 247.21 127.1 246.05 128.82Z" fill="#FFC3BD"/>
<path d="M233 121.49C232.9 122.09 232.48 122.54 232.07 122.49C231.66 122.44 231.4 121.9 231.5 121.29C231.6 120.68 232.02 120.29 232.43 120.29C232.84 120.29 233.05 120.88 233 121.49Z" fill="#263238"/>
<path d="M225.68 120.16C225.58 120.77 225.17 121.22 224.76 121.16C224.35 121.1 224.09 120.57 224.19 119.96C224.29 119.35 224.7 118.96 225.11 118.96C225.52 118.96 225.78 119.56 225.68 120.16Z" fill="#263238"/>
<path d="M228.57 121.52C227.505 123.28 226.203 124.885 224.7 126.29C225.089 126.656 225.552 126.934 226.057 127.107C226.562 127.279 227.099 127.342 227.63 127.29L228.57 121.52Z" fill="#ED847E"/>
<path d="M228.93 130.27C229.657 130.352 230.394 130.288 231.096 130.082C231.798 129.876 232.453 129.532 233.02 129.07C233.053 129.035 233.072 128.988 233.072 128.94C233.072 128.891 233.053 128.845 233.02 128.81C232.984 128.779 232.938 128.762 232.89 128.762C232.842 128.762 232.796 128.779 232.76 128.81C232.136 129.305 231.408 129.652 230.63 129.825C229.852 129.999 229.045 129.993 228.27 129.81C228.246 129.804 228.222 129.803 228.198 129.807C228.174 129.811 228.151 129.819 228.13 129.833C228.11 129.846 228.092 129.863 228.078 129.883C228.064 129.903 228.055 129.926 228.05 129.95C228.044 129.973 228.043 129.997 228.047 130.02C228.051 130.044 228.06 130.066 228.073 130.086C228.087 130.106 228.104 130.122 228.124 130.135C228.144 130.148 228.167 130.156 228.19 130.16C228.434 130.214 228.681 130.251 228.93 130.27Z" fill="#263238"/>
<path d="M233.3 117.33C233.24 117.346 233.185 117.377 233.14 117.42C233.105 117.453 233.077 117.492 233.059 117.536C233.04 117.58 233.03 117.627 233.03 117.675C233.03 117.723 233.04 117.77 233.059 117.814C233.077 117.858 233.105 117.897 233.14 117.93C233.529 118.365 234.018 118.7 234.565 118.906C235.112 119.111 235.7 119.181 236.28 119.11C236.328 119.105 236.375 119.091 236.417 119.067C236.459 119.043 236.496 119.011 236.525 118.973C236.554 118.934 236.575 118.89 236.586 118.843C236.597 118.796 236.599 118.747 236.59 118.7C236.582 118.652 236.564 118.606 236.538 118.565C236.511 118.524 236.477 118.489 236.437 118.461C236.397 118.433 236.352 118.413 236.305 118.403C236.257 118.392 236.208 118.391 236.16 118.4C235.702 118.44 235.24 118.371 234.814 118.197C234.388 118.023 234.009 117.75 233.71 117.4C233.655 117.352 233.587 117.32 233.515 117.307C233.443 117.295 233.368 117.303 233.3 117.33Z" fill="#263238"/>
<path d="M223.61 115.52C223.665 115.544 223.725 115.557 223.785 115.557C223.845 115.557 223.905 115.544 223.96 115.52C224.387 115.307 224.855 115.19 225.332 115.178C225.809 115.166 226.283 115.259 226.72 115.45C226.805 115.498 226.906 115.512 227.001 115.487C227.096 115.463 227.178 115.403 227.23 115.32C227.274 115.233 227.282 115.133 227.254 115.04C227.227 114.947 227.164 114.868 227.08 114.82C226.54 114.561 225.949 114.426 225.35 114.426C224.751 114.426 224.16 114.561 223.62 114.82C223.576 114.839 223.537 114.867 223.505 114.902C223.473 114.937 223.448 114.979 223.433 115.024C223.418 115.069 223.412 115.117 223.417 115.165C223.422 115.212 223.436 115.258 223.46 115.3C223.483 115.388 223.536 115.466 223.61 115.52Z" fill="#263238"/>
</svg>
