<svg id="Layer_1" data-name="Layer 1" xmlns="http://www.w3.org/2000/svg" viewBox="0 0 270.38 275.56"><defs><style>.cls-1{fill:none;stroke:#fff;stroke-width:3px;}.cls-2{fill:#fff;}</style></defs><path class="cls-1" d="M134.91,277.81a108,108,0,1,0-108-108A108,108,0,0,0,134.91,277.81Z" transform="translate(0 -31.82)"/><path class="cls-2" d="M266.35,161.86a21.36,21.36,0,0,0-5.28-30.11,13.22,13.22,0,0,1-5.26-14.56,21.29,21.29,0,0,0-2-16.48,21,21,0,0,0-13.18-10,13.17,13.17,0,0,1-9.9-11.87,21.1,21.1,0,0,0-7.5-14.78,20.86,20.86,0,0,0-15.77-4.87,13.09,13.09,0,0,1-13.34-7.74A21.08,21.08,0,0,0,165.55,41a13.05,13.05,0,0,1-15.17-2.69,21,21,0,0,0-30.38,0A13,13,0,0,1,104.83,41,21.09,21.09,0,0,0,76.28,51.44a13.08,13.08,0,0,1-13.34,7.75,20.86,20.86,0,0,0-15.77,4.87,21.15,21.15,0,0,0-7.51,14.78,13.15,13.15,0,0,1-9.89,11.87,21,21,0,0,0-13.18,10,21.29,21.29,0,0,0-2,16.48A13.21,13.21,0,0,1,9.3,131.75,21.36,21.36,0,0,0,4,161.85a13.24,13.24,0,0,1,0,15.5A21.37,21.37,0,0,0,9.3,207.46,13.2,13.2,0,0,1,14.57,222a21.26,21.26,0,0,0,2,16.47,21,21,0,0,0,13.18,10,13.16,13.16,0,0,1,9.89,11.87,21.19,21.19,0,0,0,7.51,14.79A20.89,20.89,0,0,0,62.94,280a13.1,13.1,0,0,1,13.34,7.75,21.1,21.1,0,0,0,28.55,10.46A13,13,0,0,1,120,300.91a21.07,21.07,0,0,0,30.38,0,13,13,0,0,1,15.17-2.69,21.1,21.1,0,0,0,28.55-10.46A13.1,13.1,0,0,1,207.44,280a20.88,20.88,0,0,0,15.78-4.86,21.18,21.18,0,0,0,7.5-14.79,13.16,13.16,0,0,1,9.9-11.87,21,21,0,0,0,13.17-10,21.22,21.22,0,0,0,2-16.47,13.22,13.22,0,0,1,5.27-14.56,21.37,21.37,0,0,0,5.27-30.11A13.26,13.26,0,0,1,266.35,161.86Zm-6.5,20.23a13.25,13.25,0,0,1-3.27,18.68,21.31,21.31,0,0,0-8.49,23.46,13.17,13.17,0,0,1-1.25,10.23,13,13,0,0,1-8.18,6.2,21.23,21.23,0,0,0-15.95,19.13,13.13,13.13,0,0,1-4.65,9.18,13,13,0,0,1-9.79,3,21.06,21.06,0,0,0-21.49,12.48,13.08,13.08,0,0,1-7.5,7,12.93,12.93,0,0,1-10.22-.53,21,21,0,0,0-24.44,4.33,13.07,13.07,0,0,1-18.86,0A21,21,0,0,0,101.32,291a12.93,12.93,0,0,1-10.22.53,13.08,13.08,0,0,1-7.5-7A21.06,21.06,0,0,0,62.11,272a13,13,0,0,1-9.79-3,13.13,13.13,0,0,1-4.65-9.18,21.2,21.2,0,0,0-16-19.13,13,13,0,0,1-8.18-6.2,13.17,13.17,0,0,1-1.25-10.23,21.31,21.31,0,0,0-8.49-23.46,13.25,13.25,0,0,1-3.27-18.68,21.37,21.37,0,0,0,0-25,13.25,13.25,0,0,1,3.27-18.68A21.31,21.31,0,0,0,22.29,115a13.2,13.2,0,0,1,1.25-10.23,13,13,0,0,1,8.18-6.21,21.19,21.19,0,0,0,16-19.12,13.13,13.13,0,0,1,4.65-9.18,13,13,0,0,1,9.79-3A21.06,21.06,0,0,0,83.6,54.74a13,13,0,0,1,7.5-7,12.89,12.89,0,0,1,10.22.53,21,21,0,0,0,24.44-4.34,13.07,13.07,0,0,1,18.86,0,21,21,0,0,0,24.44,4.34,13.1,13.1,0,0,1,17.72,6.49,21.06,21.06,0,0,0,21.49,12.48,13,13,0,0,1,9.79,3,13.13,13.13,0,0,1,4.65,9.18,21.22,21.22,0,0,0,15.95,19.12A13.21,13.21,0,0,1,248.09,115a21.31,21.31,0,0,0,8.49,23.46,13.25,13.25,0,0,1,3.27,18.68A21.37,21.37,0,0,0,259.85,182.09Z" transform="translate(0 -31.82)"/><path class="cls-2" d="M90.67,173.77H72.6v18.62H63.19V146.81H92.93v7.61H72.6v11.77H90.67Z" transform="translate(0 -31.82)"/><path class="cls-2" d="M115.29,175.71h-7.5v16.68H98.38V146.81h17q8.1,0,12.49,3.6t4.39,10.18a14,14,0,0,1-2,7.79,13.72,13.72,0,0,1-6.12,5L134,192v.43h-10.1Zm-7.5-7.61h7.59a7.8,7.8,0,0,0,5.49-1.78,6.47,6.47,0,0,0,1.95-5,6.85,6.85,0,0,0-1.85-5.07q-1.83-1.85-5.62-1.85h-7.56Z" transform="translate(0 -31.82)"/><path class="cls-2" d="M166.88,172.64H148.82v12.21H170v7.54H139.41V146.81H170v7.61H148.82v10.86h18.06Z" transform="translate(0 -31.82)"/><path class="cls-2" d="M203,172.64H185v12.21h21.2v7.54H175.54V146.81h30.55v7.61H185v10.86H203Z" transform="translate(0 -31.82)"/></svg>