<svg width="453" height="453" viewBox="0 0 453 453" fill="none" xmlns="http://www.w3.org/2000/svg">
<path d="M338.258 338.258C399.977 276.539 399.977 176.472 338.258 114.753C276.539 53.0333 176.472 53.0334 114.753 114.753C53.0334 176.472 53.0334 276.539 114.753 338.258C176.472 399.977 276.539 399.977 338.258 338.258Z" stroke="white" stroke-width="3"/>
<path d="M359.265 225.33C359.265 225.33 359.265 224.613 359.162 223.193C359.06 221.774 359.162 219.651 358.884 216.885C358.361 208.814 357.097 200.808 355.106 192.968C353.671 187.31 351.856 181.755 349.674 176.341C347.108 169.885 344.023 163.649 340.449 157.693C331.704 143.142 320.275 130.382 306.77 120.091C290.379 107.625 271.299 99.1645 251.054 95.3837C233.895 92.2277 216.286 92.4315 199.204 95.9838C193.206 97.2854 187.297 98.9721 181.516 101.034C156.914 109.992 135.515 126.03 120.016 147.125C115.972 152.619 112.368 158.423 109.239 164.485C107.614 167.514 106.223 170.661 104.846 173.823C103.47 176.985 102.24 180.263 101.2 183.6C98.953 190.279 97.2681 197.133 96.1632 204.092C95.0518 211.128 94.4693 218.237 94.4207 225.36C94.4723 232.486 95.0498 239.6 96.1485 246.642C97.2699 253.597 98.9545 260.45 101.186 267.133C102.24 270.456 103.558 273.676 104.832 276.896C106.106 280.116 107.643 283.219 109.225 286.249C112.353 292.314 115.962 298.119 120.016 303.609C135.511 324.712 156.91 340.755 181.516 349.715C187.297 351.776 193.206 353.463 199.204 354.765C205.053 355.986 210.977 356.813 216.937 357.238C228.342 358.1 239.812 357.47 251.054 355.365C271.299 351.584 290.379 343.123 306.77 330.658C320.279 320.371 331.708 307.61 340.449 293.055C344.02 287.098 347.105 280.862 349.674 274.408C354.874 261.467 357.983 247.781 358.884 233.864C359.133 231.097 359.089 228.975 359.162 227.555C359.235 226.135 359.265 225.404 359.265 225.404C359.265 225.404 359.265 226.135 359.265 227.555C359.265 228.975 359.264 231.097 359.059 233.864C358.258 247.82 355.207 261.555 350.025 274.54C347.475 281.024 344.399 287.29 340.829 293.275C332.105 307.899 320.675 320.73 307.151 331.082C290.702 343.623 271.547 352.145 251.216 355.965C239.922 358.098 228.398 358.748 216.937 357.897C210.948 357.472 204.994 356.646 199.117 355.423C193.082 354.126 187.139 352.434 181.326 350.359C156.577 341.367 135.05 325.246 119.46 304.033C115.391 298.514 111.768 292.68 108.624 286.586C106.984 283.541 105.578 280.351 104.143 277.174C102.708 273.998 101.537 270.705 100.483 267.353C98.2365 260.642 96.5421 253.76 95.4164 246.773C93.093 232.602 93.093 218.147 95.4164 203.975C96.5479 197.019 98.2422 190.166 100.483 183.483C101.552 180.131 102.87 176.897 104.158 173.662C105.447 170.427 106.984 167.31 108.624 164.265C111.778 158.174 115.406 152.34 119.474 146.818C135.057 125.607 156.581 109.491 181.326 100.507C187.134 98.4335 193.072 96.7418 199.102 95.4422C204.985 94.2205 210.943 93.3941 216.937 92.9686C228.394 92.1179 239.912 92.7675 251.201 94.9006C271.537 98.7042 290.697 107.227 307.136 119.783C320.66 130.142 332.09 142.977 340.815 157.605C347.374 168.647 352.305 180.577 355.457 193.027C357.411 200.894 358.632 208.925 359.103 217.017C359.323 219.783 359.25 221.905 359.308 223.325C359.367 224.745 359.265 225.33 359.265 225.33Z" stroke="white" stroke-width="3"/>
<path d="M307.459 197.516H289.034C282.455 197.523 275.998 195.739 270.357 192.354C264.715 188.969 260.102 184.111 257.012 178.303L253.596 171.898C250.152 165.424 244.5 160.399 237.668 157.736V152.85C237.668 149.888 236.491 147.048 234.397 144.953C232.303 142.859 229.462 141.683 226.501 141.683C223.539 141.683 220.699 142.859 218.605 144.953C216.511 147.048 215.334 149.888 215.334 152.85V157.736C208.502 160.399 202.85 165.424 199.405 171.898L195.99 178.303C192.9 184.111 188.287 188.969 182.645 192.354C177.004 195.739 170.547 197.523 163.968 197.516H145.543C144.802 197.516 144.092 197.81 143.569 198.334C143.045 198.857 142.751 199.567 142.751 200.308V211.474C142.751 212.215 143.045 212.925 143.569 213.448C144.092 213.972 144.802 214.266 145.543 214.266H163.89L154.754 239.391H151.126C150.386 239.391 149.676 239.685 149.152 240.209C148.628 240.732 148.334 241.442 148.334 242.183C148.334 248.106 150.687 253.787 154.876 257.975C159.064 262.163 164.744 264.516 170.668 264.516C176.591 264.516 182.271 262.163 186.46 257.975C190.648 253.787 193.001 248.106 193.001 242.183C193.001 241.442 192.707 240.732 192.183 240.209C191.66 239.685 190.95 239.391 190.209 239.391H186.581L177.445 214.266H184.254C192.369 214.267 200.208 211.322 206.314 205.977L213.661 199.549C214.195 199.084 214.753 198.648 215.334 198.244V272.232L210.817 281.266H204.168C203.734 281.266 203.307 281.367 202.919 281.561C202.531 281.755 202.194 282.036 201.934 282.383L194.397 292.433H181.834C181.094 292.433 180.384 292.727 179.86 293.25C179.337 293.774 179.043 294.484 179.043 295.224V306.391C179.043 307.131 179.337 307.842 179.86 308.365C180.384 308.889 181.094 309.183 181.834 309.183H271.168C271.908 309.183 272.618 308.889 273.142 308.365C273.665 307.842 273.959 307.131 273.959 306.391V295.224C273.959 294.484 273.665 293.774 273.142 293.25C272.618 292.727 271.908 292.433 271.168 292.433H258.605L251.068 282.383C250.808 282.036 250.47 281.755 250.083 281.561C249.695 281.367 249.268 281.266 248.834 281.266H242.185L237.668 272.232V198.244C238.249 198.648 238.807 199.084 239.341 199.549H239.34L246.688 205.977C252.794 211.322 260.633 214.267 268.747 214.266H275.557L266.42 239.391H262.793C262.052 239.391 261.342 239.685 260.819 240.209C260.295 240.732 260.001 241.442 260.001 242.183C260.001 248.106 262.354 253.787 266.542 257.975C270.73 262.163 276.411 264.516 282.334 264.516C288.257 264.516 293.938 262.163 298.126 257.975C302.315 253.787 304.668 248.106 304.668 242.183C304.668 241.442 304.373 240.732 303.85 240.209C303.326 239.685 302.616 239.391 301.876 239.391H298.248L289.112 214.266H307.459C308.2 214.266 308.91 213.972 309.433 213.448C309.957 212.925 310.251 212.215 310.251 211.474V200.308C310.251 199.567 309.957 198.857 309.433 198.334C308.91 197.81 308.2 197.516 307.459 197.516V197.516ZM220.918 152.85C220.918 151.369 221.506 149.949 222.553 148.902C223.6 147.854 225.02 147.266 226.501 147.266C227.982 147.266 229.402 147.854 230.449 148.902C231.496 149.949 232.084 151.369 232.084 152.85V156.153C228.393 155.47 224.608 155.47 220.918 156.153V152.85ZM170.668 258.933C166.71 258.928 162.882 257.524 159.86 254.97C156.838 252.416 154.815 248.875 154.15 244.974H187.185C186.52 248.875 184.498 252.416 181.475 254.97C178.453 257.524 174.625 258.928 170.668 258.933V258.933ZM180.64 239.391H160.695L169.831 214.266H171.504L180.64 239.391ZM268.376 303.599H184.626V298.016H268.376V303.599ZM251.626 292.433H201.376L205.563 286.849H247.438L251.626 292.433ZM232.379 274.14L235.942 281.266H217.06L220.623 274.14C220.817 273.752 220.918 273.325 220.918 272.891V195.546C224.559 194.451 228.443 194.451 232.084 195.546V272.891C232.084 273.325 232.185 273.752 232.379 274.14V274.14ZM282.334 258.933C278.377 258.928 274.549 257.524 271.527 254.97C268.504 252.416 266.482 248.875 265.817 244.974H298.852C298.187 248.875 296.164 252.416 293.142 254.97C290.119 257.524 286.291 258.928 282.334 258.933V258.933ZM292.307 239.391H272.362L281.498 214.266H283.17L292.307 239.391ZM304.668 208.683H268.747C261.985 208.684 255.453 206.229 250.364 201.776L243.017 195.347H243.017C238.445 191.346 232.576 189.141 226.501 189.141C220.426 189.141 214.557 191.346 209.985 195.347L202.638 201.776C197.549 206.229 191.017 208.684 184.254 208.683H148.334V203.099H163.968C171.559 203.108 179.009 201.049 185.519 197.143C192.028 193.237 197.351 187.632 200.916 180.93L204.332 174.526C206.475 170.508 209.669 167.148 213.574 164.805C217.479 162.462 221.947 161.225 226.501 161.225C231.055 161.225 235.523 162.462 239.428 164.805C243.332 167.148 246.527 170.508 248.67 174.526L252.086 180.93C255.651 187.633 260.974 193.237 267.483 197.143C273.993 201.049 281.443 203.108 289.034 203.099H304.668V208.683Z" fill="white"/>
<path d="M226.501 167.288C224.918 167.288 223.371 167.757 222.055 168.636C220.739 169.516 219.714 170.765 219.108 172.227C218.502 173.689 218.344 175.298 218.653 176.85C218.962 178.403 219.724 179.828 220.843 180.947C221.962 182.066 223.387 182.829 224.94 183.137C226.492 183.446 228.101 183.288 229.563 182.682C231.025 182.076 232.274 181.051 233.154 179.735C234.033 178.419 234.502 176.872 234.502 175.289C234.5 173.168 233.656 171.134 232.156 169.634C230.656 168.134 228.622 167.29 226.501 167.288V167.288ZM226.501 177.957C225.973 177.957 225.457 177.8 225.019 177.507C224.58 177.214 224.238 176.797 224.036 176.31C223.835 175.823 223.782 175.286 223.885 174.769C223.988 174.252 224.242 173.776 224.615 173.403C224.988 173.03 225.463 172.776 225.98 172.673C226.498 172.571 227.034 172.623 227.521 172.825C228.009 173.027 228.425 173.369 228.718 173.808C229.011 174.246 229.168 174.762 229.168 175.289C229.167 175.997 228.886 176.675 228.386 177.175C227.886 177.675 227.208 177.956 226.501 177.957V177.957Z" fill="white"/>
</svg>
