<svg width="301" height="308" viewBox="0 0 301 308" fill="none" xmlns="http://www.w3.org/2000/svg">
<path d="M150.183 274.458C216.566 274.458 270.381 220.643 270.381 154.26C270.381 87.8759 216.566 34.0613 150.183 34.0613C83.799 34.0613 29.9844 87.8759 29.9844 154.26C29.9844 220.643 83.799 274.458 150.183 274.458Z" stroke="white" stroke-width="3"/>
<path d="M296.514 145.375C300.288 140.134 301.751 133.739 300.634 127.365C299.517 120.992 295.967 115.486 290.64 111.86C285.396 108.291 283.04 101.776 284.776 95.6504C286.54 89.4276 285.741 82.9142 282.525 77.3097C279.309 71.7052 274.102 67.7514 267.863 66.1769C261.722 64.6268 257.293 59.316 256.842 52.9625C256.385 46.5073 253.419 40.6619 248.492 36.5026C243.564 32.3433 237.327 30.42 230.93 31.0869C224.632 31.7447 218.666 28.278 216.083 22.4621C213.459 16.5538 208.684 12.0811 202.641 9.86786C196.596 7.65519 190.081 7.99312 184.297 10.8223C178.604 13.6048 171.818 12.4035 167.413 7.82715C162.938 3.17712 156.932 0.616943 150.5 0.616943C144.068 0.616943 138.062 3.17712 133.586 7.82535C129.182 12.4017 122.397 13.6054 116.702 10.8199C110.917 7.99132 104.403 7.6528 98.3587 9.86607C92.3149 12.0793 87.5402 16.552 84.9158 22.4603C82.3325 28.2762 76.3643 31.7405 70.0686 31.0851C63.6705 30.4194 57.4338 32.3415 52.5072 36.5008C47.58 40.6601 44.6143 46.5055 44.1564 52.9607C43.7056 59.3142 39.2768 64.6251 33.136 66.1751C26.8969 67.7496 21.6904 71.7034 18.474 77.3079C15.2577 82.9124 14.4585 89.4252 16.2224 95.6486C17.9583 101.775 15.6025 108.289 10.3585 111.858C5.0311 115.484 1.48248 120.991 0.365309 127.364C-0.751263 133.737 0.711298 140.133 4.48502 145.374C8.19919 150.533 8.19919 157.465 4.48502 162.624C0.711298 167.865 -0.751263 174.261 0.365309 180.634C1.48188 187.007 5.03169 192.514 10.3585 196.14C15.6025 199.709 17.9583 206.223 16.2224 212.349C14.4585 218.572 15.2577 225.085 18.474 230.69C21.6898 236.294 26.8969 240.248 33.136 241.823C39.2768 243.373 43.7056 248.684 44.1564 255.037C44.6138 261.492 47.58 267.338 52.5072 271.497C57.435 275.656 63.6711 277.58 70.0686 276.913C76.3679 276.256 82.3331 279.722 84.9158 285.538C87.5402 291.446 92.3149 295.918 98.3581 298.132C104.402 300.345 110.917 300.006 116.702 297.177C122.396 294.394 129.181 295.597 133.586 300.172C138.062 304.823 144.068 307.383 150.5 307.383C156.932 307.383 162.938 304.823 167.414 300.175C171.818 295.599 178.603 294.395 184.298 297.18C190.083 300.009 196.597 300.347 202.641 298.134C208.685 295.921 213.46 291.448 216.084 285.54C218.668 279.725 224.636 276.257 230.931 276.915C237.331 277.582 243.566 275.659 248.493 271.499C253.42 267.34 256.386 261.495 256.844 255.039C257.294 248.686 261.723 243.375 267.864 241.825C274.103 240.251 279.31 236.297 282.526 230.692C285.742 225.088 286.541 218.575 284.778 212.352C283.042 206.225 285.397 199.711 290.642 196.142C295.969 192.516 299.518 187.009 300.635 180.637C301.751 174.263 300.289 167.868 296.516 162.627C292.8 157.466 292.8 150.534 296.514 145.375ZM289.281 167.897C291.622 171.15 292.53 175.119 291.838 179.075C291.144 183.03 288.943 186.448 285.635 188.699C277.187 194.451 273.39 204.946 276.187 214.816C277.282 218.678 276.786 222.721 274.79 226.199C272.794 229.678 269.562 232.131 265.691 233.109C255.796 235.606 248.661 244.162 247.934 254.4C247.65 258.406 245.809 262.034 242.752 264.616C239.694 267.198 235.822 268.39 231.853 267.978C221.705 266.917 212.092 272.505 207.929 281.874C206.3 285.542 203.337 288.317 199.586 289.691C195.835 291.065 191.792 290.854 188.201 289.1C179.026 284.613 168.094 286.552 160.997 293.925C158.22 296.81 154.492 298.399 150.5 298.399C146.508 298.399 142.78 296.81 140.003 293.925C135.455 289.2 129.33 286.706 123.102 286.706C119.614 286.706 116.092 287.489 112.799 289.1C109.209 290.854 105.165 291.065 101.414 289.691C97.6626 288.318 94.6999 285.542 93.0706 281.875C88.9086 272.505 79.2942 266.917 69.1474 267.978C65.1754 268.392 61.3064 267.199 58.2484 264.617C55.1905 262.035 53.3498 258.407 53.0658 254.4C52.3392 244.162 45.2039 235.607 35.309 233.109C31.437 232.131 28.2052 229.678 26.2097 226.2C24.2135 222.721 23.7175 218.68 24.8126 214.817C27.6109 204.947 23.8133 194.451 15.3649 188.699C12.0587 186.449 9.85648 183.031 9.16271 179.076C8.46954 175.12 9.37769 171.151 11.7192 167.897C17.7035 159.585 17.7035 148.417 11.7192 140.105C9.37769 136.852 8.46954 132.883 9.16271 128.927C9.85648 124.972 12.0581 121.554 15.3655 119.303C23.8139 113.551 27.6109 103.056 24.8132 93.1861C23.7187 89.3239 24.2147 85.2814 26.2103 81.8028C28.2058 78.3241 31.4382 75.8706 35.3096 74.8933C45.2045 72.3961 52.3398 63.8402 53.0664 53.6024C53.3504 49.5959 55.1911 45.968 58.249 43.3857C61.307 40.8039 65.1807 39.6104 69.148 40.0244C79.2978 41.0879 88.9087 35.4978 93.0712 26.1277C94.7005 22.4603 97.6632 19.685 101.414 18.3111C105.165 16.9367 109.209 17.1476 112.799 18.9025C121.975 23.3889 132.906 21.4501 140.004 14.0769C142.78 11.192 146.509 9.60304 150.501 9.60304C154.493 9.60304 158.221 11.192 160.998 14.0769C168.094 21.4489 179.025 23.3872 188.202 18.9031C191.792 17.1476 195.836 16.9367 199.586 18.3111C203.338 19.685 206.301 22.4603 207.93 26.1277C212.092 35.4978 221.708 41.0867 231.853 40.0244C235.822 39.6104 239.694 40.8033 242.752 43.3857C245.809 45.968 247.65 49.5959 247.934 53.6024C248.661 63.8402 255.796 72.3961 265.691 74.8933C269.563 75.8712 272.795 78.3247 274.79 81.8028C276.786 85.2814 277.283 89.3233 276.187 93.1861C273.389 103.056 277.187 113.552 285.635 119.303C288.941 121.554 291.144 124.972 291.837 128.927C292.53 132.882 291.622 136.852 289.28 140.105C283.296 148.415 283.296 159.585 289.281 167.897Z" fill="white"/>
<path d="M100.935 158.635H80.8236V179.372H70.3486V128.628H103.449V137.097H80.8236V150.201H100.935V158.635Z" fill="white"/>
<path d="M128.345 160.796H120V179.372H109.525V128.628H128.415C134.42 128.628 139.053 129.964 142.312 132.636C145.57 135.308 147.2 139.084 147.2 143.963C147.2 147.425 146.443 150.317 144.93 152.641C143.441 154.941 141.171 156.777 138.122 158.147L149.12 178.884V179.372H137.877L128.345 160.796ZM120 152.327H128.45C131.08 152.327 133.117 151.665 134.56 150.341C136.003 148.993 136.725 147.146 136.725 144.799C136.725 142.406 136.038 140.524 134.665 139.153C133.315 137.783 131.231 137.097 128.415 137.097H120V152.327Z" fill="white"/>
<path d="M185.783 157.381H165.671V170.973H189.274V179.372H155.196V128.628H189.204V137.097H165.671V149.191H185.783V157.381Z" fill="white"/>
<path d="M226.006 157.381H205.895V170.973H229.498V179.372H195.42V128.628H229.428V137.097H205.895V149.191H226.006V157.381Z" fill="white"/>
</svg>
