<svg width="535" height="512" viewBox="0 0 535 512" fill="none" xmlns="http://www.w3.org/2000/svg">
<path d="M392.847 47.9557C325.48 30.0464 287.871 65.865 245.591 126.109C196.561 195.955 169.188 171.915 104.191 185.609C78.3601 191.051 46.7433 203.518 34.9921 233.826C24.6322 260.511 32.7052 288.849 41.9904 310.657C54.4856 339.973 73.0561 365.074 93.8171 387.171C137.158 433.294 202.733 468.92 272.758 449.895C297.278 443.289 319.162 429.28 335.427 409.778C349.203 393.15 357.469 374.483 364.991 354.562C370.708 339.312 377.032 323.607 387.956 311.47C400.727 297.308 413.952 295.489 429.106 296.743C444.508 298.011 458.85 299.237 474.982 294.346C596.613 257.522 464.884 67.1875 392.847 47.9557Z" fill="#0278B6"/>
<path opacity="0.9" d="M392.847 47.9557C325.48 30.0464 287.871 65.865 245.591 126.109C196.561 195.955 169.188 171.915 104.191 185.609C78.3601 191.051 46.7433 203.518 34.9921 233.826C24.6322 260.511 32.7052 288.849 41.9904 310.657C54.4856 339.973 73.0561 365.074 93.8171 387.171C137.158 433.294 202.733 468.92 272.758 449.895C297.278 443.289 319.162 429.28 335.427 409.778C349.203 393.15 357.469 374.483 364.991 354.562C370.708 339.312 377.032 323.607 387.956 311.47C400.727 297.308 413.952 295.489 429.106 296.743C444.508 298.011 458.85 299.237 474.982 294.346C596.613 257.522 464.884 67.1875 392.847 47.9557Z" fill="white"/>
<path d="M267.11 511.337C414.631 511.337 534.22 504.355 534.22 495.742C534.22 487.129 414.631 480.147 267.11 480.147C119.589 480.147 0 487.129 0 495.742C0 504.355 119.589 511.337 267.11 511.337Z" fill="#F5F5F5"/>
<path d="M192.966 30.2116H191.588C191.578 26.088 192.422 22.007 194.068 18.2261C196.407 12.8132 200.279 8.20326 205.207 4.96458C210.135 1.72591 215.903 0.000120219 221.8 0V1.37764C216.175 1.38599 210.675 3.03365 205.972 6.119C201.27 9.20435 197.568 13.5936 195.321 18.7496C193.753 22.3667 192.951 26.2693 192.966 30.2116Z" fill="#0278B6"/>
<path d="M192.966 38.8081H191.588V57.296H192.966V38.8081Z" fill="#0278B6"/>
<path d="M311.305 4.82178H221.814C207.784 4.82178 196.41 16.1954 196.41 30.2254V57.2822C196.41 71.3122 207.784 82.6858 221.814 82.6858H311.305C325.335 82.6858 336.709 71.3122 336.709 57.2822V30.2254C336.709 16.1954 325.335 4.82178 311.305 4.82178Z" fill="#0278B6"/>
<path d="M282.678 76.8858C291.371 97.3988 315.025 105.334 328.746 107.111C315.286 88.389 315.879 71.9263 315.879 71.9263L282.678 76.8858Z" fill="#0278B6"/>
<path d="M239.915 26.6711L227.64 23.6816L218.92 32.8154L222.46 44.9386L234.749 47.928L243.469 38.7943L239.915 26.6711Z" fill="#E0E0E0"/>
<path d="M235.616 25.6242L223.328 22.6348L214.607 31.7685L218.162 43.8917L230.436 46.8812L239.157 37.7474L235.616 25.6242Z" fill="white"/>
<path d="M307.654 46.8396L264.135 36.2593C263.572 33.0372 262.17 30.0204 260.069 27.5133C257.968 25.0061 255.243 23.0974 252.17 21.9796C249.096 20.8618 245.781 20.5745 242.561 21.1466C239.34 21.7187 236.328 23.1301 233.827 25.2382L248.388 28.7788L251.929 40.902L243.208 50.0495L228.605 46.4401C229.852 49.4776 231.881 52.131 234.485 54.1306C237.089 56.1302 240.177 57.4046 243.433 57.8244C246.689 58.2443 249.999 57.7945 253.025 56.5208C256.052 55.2472 258.687 53.1951 260.663 50.573L304.183 61.1532C306.075 61.6064 308.069 61.293 309.731 60.2813C311.393 59.2697 312.588 57.6418 313.055 55.7529C313.287 54.813 313.332 53.8365 313.186 52.8793C313.04 51.9221 312.707 51.0032 312.205 50.1751C311.703 49.347 311.043 48.6261 310.262 48.0537C309.481 47.4813 308.595 47.0688 307.654 46.8396Z" fill="white"/>
<path d="M305.712 58.77C308.36 58.77 310.506 56.6236 310.506 53.9758C310.506 51.3281 308.36 49.1816 305.712 49.1816C303.064 49.1816 300.918 51.3281 300.918 53.9758C300.918 56.6236 303.064 58.77 305.712 58.77Z" fill="#0278B6"/>
<path d="M350.181 426.323H337.094V459.4H350.181V426.323Z" fill="#E0E0E0"/>
<path d="M352.77 448.021H334.503L333.236 479.872C333.202 480.683 333.333 481.493 333.621 482.252C333.908 483.011 334.346 483.705 334.909 484.29C335.471 484.876 336.146 485.341 336.893 485.659C337.64 485.977 338.444 486.141 339.256 486.14H348.087C348.897 486.139 349.699 485.974 350.445 485.655C351.19 485.337 351.864 484.871 352.425 484.285C352.986 483.7 353.422 483.007 353.709 482.249C353.996 481.49 354.126 480.682 354.093 479.872L352.77 448.021Z" fill="#263238"/>
<path d="M389.113 485.272C388.728 485.271 388.349 485.175 388.01 484.992C387.671 484.809 387.383 484.546 387.17 484.225C385.358 481.46 382.884 479.191 379.974 477.622C377.063 476.054 373.807 475.236 370.501 475.243H316.773C313.467 475.236 310.211 476.054 307.3 477.622C304.389 479.191 301.916 481.46 300.103 484.225C299.754 484.719 299.227 485.057 298.633 485.168C298.04 485.28 297.426 485.156 296.921 484.824C296.417 484.491 296.062 483.975 295.931 483.386C295.799 482.796 295.903 482.178 296.219 481.663C298.462 478.266 301.515 475.48 305.103 473.556C308.691 471.632 312.702 470.631 316.773 470.642H370.501C374.576 470.621 378.593 471.615 382.189 473.534C385.785 475.453 388.846 478.237 391.096 481.635C391.328 481.986 391.46 482.393 391.478 482.813C391.497 483.233 391.402 483.65 391.203 484.02C391.003 484.39 390.708 484.699 390.347 484.915C389.986 485.131 389.574 485.245 389.154 485.245L389.113 485.272Z" fill="#263238"/>
<path d="M365.693 428.637H321.609C319.225 428.638 316.914 427.816 315.067 426.31C313.219 424.804 311.949 422.706 311.469 420.372L310.092 413.621H377.265L375.888 420.372C375.407 422.716 374.128 424.821 372.269 426.328C370.41 427.835 368.086 428.651 365.693 428.637Z" fill="#263238"/>
<path d="M247.176 410.825H300.022C320.052 410.761 339.388 403.486 354.492 390.33C369.596 377.175 379.456 359.019 382.267 339.188L396.76 237.132H490.136L475.643 339.188C472.832 359.019 462.972 377.175 447.868 390.33C432.765 403.486 413.428 410.761 393.398 410.825H247.176Z" fill="#263238"/>
<path d="M247.175 418.567C246.13 418.611 245.086 418.443 244.108 418.074C243.129 417.704 242.235 417.141 241.48 416.417C240.725 415.693 240.124 414.824 239.714 413.861C239.303 412.899 239.092 411.864 239.092 410.818C239.092 409.772 239.303 408.737 239.714 407.774C240.124 406.812 240.725 405.943 241.48 405.219C242.235 404.495 243.129 403.932 244.108 403.562C245.086 403.192 246.13 403.025 247.175 403.069H300.172C318.299 402.923 335.772 396.283 349.421 384.355C363.07 372.427 371.991 356.001 374.565 338.058L389.057 236.003C389.322 234.155 390.243 232.464 391.652 231.24C393.062 230.015 394.864 229.339 396.731 229.335H490.107C491.217 229.336 492.314 229.575 493.324 230.036C494.333 230.497 495.232 231.17 495.96 232.008C496.687 232.847 497.226 233.831 497.54 234.896C497.854 235.961 497.936 237.08 497.781 238.179L483.288 340.235C476.951 384.884 438.294 418.567 393.369 418.567H247.175ZM403.495 244.847L389.939 340.235C388.125 352.895 383.674 365.033 376.872 375.864C370.071 386.695 361.071 395.977 350.456 403.11H393.397C411.552 403.007 429.067 396.389 442.753 384.46C456.439 372.531 465.387 356.084 467.969 338.113L481.208 244.888L403.495 244.847Z" fill="#263238"/>
<path opacity="0.2" d="M340.538 418.567C339.493 418.611 338.45 418.443 337.471 418.074C336.492 417.704 335.599 417.141 334.844 416.417C334.088 415.693 333.488 414.824 333.077 413.861C332.667 412.899 332.455 411.864 332.455 410.818C332.455 409.772 332.667 408.737 333.077 407.775C333.488 406.812 334.088 405.943 334.844 405.219C335.599 404.495 336.492 403.932 337.471 403.562C338.45 403.193 339.493 403.025 340.538 403.069H393.398C411.553 402.966 429.068 396.348 442.754 384.419C456.44 372.49 465.388 356.043 467.969 338.072L482.462 236.017C482.568 234.978 482.883 233.972 483.388 233.058C483.892 232.144 484.576 231.341 485.398 230.698C486.221 230.055 487.164 229.584 488.173 229.314C489.181 229.044 490.233 228.981 491.267 229.127C492.301 229.274 493.294 229.627 494.188 230.167C495.081 230.707 495.857 231.421 496.467 232.268C497.078 233.114 497.512 234.076 497.743 235.094C497.973 236.112 497.996 237.166 497.809 238.193L483.316 340.249C476.979 384.898 438.323 418.581 393.398 418.581L340.538 418.567Z" fill="white"/>
<path d="M304.953 485.066C304.953 483.747 304.562 482.458 303.829 481.361C303.096 480.265 302.055 479.41 300.837 478.906C299.618 478.401 298.278 478.269 296.984 478.526C295.691 478.783 294.503 479.418 293.57 480.351C292.638 481.283 292.003 482.471 291.745 483.765C291.488 485.058 291.62 486.399 292.125 487.617C292.629 488.836 293.484 489.877 294.581 490.61C295.677 491.342 296.966 491.733 298.285 491.733C300.053 491.733 301.749 491.031 303 489.78C304.25 488.53 304.953 486.834 304.953 485.066Z" fill="#263238"/>
<path d="M395.658 485.066C395.658 483.747 395.267 482.458 394.534 481.361C393.801 480.265 392.76 479.41 391.542 478.906C390.323 478.401 388.983 478.269 387.689 478.526C386.396 478.783 385.208 479.418 384.275 480.351C383.343 481.283 382.708 482.471 382.45 483.765C382.193 485.058 382.325 486.399 382.83 487.617C383.334 488.836 384.189 489.877 385.286 490.61C386.382 491.342 387.671 491.733 388.99 491.733C390.758 491.733 392.454 491.031 393.705 489.78C394.955 488.53 395.658 486.834 395.658 485.066Z" fill="#263238"/>
<path d="M389.113 485.272C388.728 485.271 388.349 485.175 388.01 484.992C387.671 484.809 387.383 484.546 387.17 484.225C385.358 481.46 382.884 479.191 379.974 477.622C377.063 476.054 373.807 475.236 370.501 475.243H316.773C313.467 475.236 310.211 476.054 307.3 477.622C304.389 479.191 301.916 481.46 300.103 484.225C299.754 484.719 299.227 485.057 298.633 485.168C298.04 485.28 297.426 485.156 296.921 484.824C296.417 484.491 296.062 483.975 295.931 483.386C295.799 482.796 295.903 482.178 296.219 481.663C298.462 478.266 301.515 475.48 305.103 473.556C308.691 471.632 312.702 470.631 316.773 470.642H370.501C374.576 470.621 378.593 471.615 382.189 473.534C385.785 475.453 388.846 478.237 391.096 481.635C391.328 481.986 391.46 482.393 391.478 482.813C391.497 483.233 391.402 483.65 391.203 484.02C391.003 484.39 390.708 484.699 390.347 484.915C389.986 485.131 389.574 485.245 389.154 485.245L389.113 485.272Z" fill="#263238"/>
<path d="M366.382 489.198C365.89 489.195 365.412 489.037 365.014 488.748C364.617 488.459 364.319 488.053 364.164 487.586C362.483 482.475 359.7 479.155 357.069 479.155H330.205C327.574 479.155 324.791 482.475 323.11 487.586C322.901 488.15 322.481 488.611 321.94 488.873C321.398 489.134 320.776 489.176 320.204 488.989C319.632 488.802 319.155 488.401 318.872 487.87C318.59 487.339 318.524 486.719 318.688 486.14C321.085 478.852 325.383 474.513 330.205 474.513H357.069C361.891 474.513 366.189 478.852 368.586 486.14C368.777 486.726 368.728 487.365 368.449 487.915C368.17 488.465 367.684 488.882 367.098 489.074C366.868 489.156 366.626 489.197 366.382 489.198Z" fill="#263238"/>
<path d="M327.56 488.992C327.56 487.673 327.169 486.384 326.436 485.288C325.704 484.191 324.662 483.336 323.444 482.832C322.226 482.327 320.885 482.195 319.592 482.452C318.298 482.71 317.11 483.345 316.178 484.277C315.245 485.21 314.61 486.398 314.353 487.691C314.095 488.985 314.227 490.325 314.732 491.544C315.237 492.762 316.091 493.803 317.188 494.536C318.284 495.269 319.574 495.66 320.892 495.66C322.661 495.66 324.357 494.957 325.607 493.707C326.858 492.456 327.56 490.76 327.56 488.992Z" fill="#263238"/>
<path d="M373.05 488.992C373.05 487.673 372.659 486.384 371.927 485.288C371.194 484.191 370.153 483.336 368.934 482.832C367.716 482.327 366.375 482.195 365.082 482.452C363.788 482.71 362.6 483.345 361.668 484.277C360.735 485.21 360.1 486.398 359.843 487.691C359.586 488.985 359.718 490.325 360.222 491.544C360.727 492.762 361.582 493.803 362.678 494.536C363.775 495.269 365.064 495.66 366.383 495.66C368.151 495.66 369.847 494.957 371.097 493.707C372.348 492.456 373.05 490.76 373.05 488.992Z" fill="#263238"/>
<path d="M200.129 397.489L223.591 407.67L210.145 423.361L190.527 414.861L200.129 397.489Z" fill="#FFB573"/>
<path opacity="0.2" d="M200.142 397.489L223.604 407.684L216.068 416.473L194.756 407.229L200.142 397.489Z" fill="black"/>
<path d="M213.479 431.531L210.833 430.924C210.056 430.748 209.334 430.383 208.731 429.861C208.128 429.34 207.663 428.678 207.376 427.935L205.681 428.72C204.702 429.183 203.596 429.305 202.54 429.065L166.35 420.799C166.446 417.548 169.312 413.911 169.312 413.911C169.312 413.911 185.416 416.666 190.073 412.822C190.256 412.693 190.472 412.618 190.696 412.606C190.92 412.594 191.143 412.645 191.34 412.753C194.261 414.131 205.778 419.104 213.162 418.402C213.39 418.384 213.62 418.419 213.833 418.506C214.045 418.592 214.234 418.727 214.386 418.9C214.537 419.073 214.646 419.278 214.703 419.5C214.761 419.722 214.766 419.954 214.718 420.179C214.031 423.928 213.617 427.722 213.479 431.531Z" fill="#263238"/>
<path d="M190.707 413.87C190.655 413.869 190.603 413.858 190.556 413.837C190.508 413.815 190.466 413.784 190.431 413.746C190.279 413.58 186.601 409.613 186.711 407.367C186.717 407.142 186.769 406.921 186.864 406.717C186.959 406.514 187.094 406.332 187.262 406.182C187.452 405.992 187.696 405.867 187.961 405.825C188.226 405.783 188.498 405.826 188.737 405.948C190.321 406.747 191.313 411.169 191.106 413.525C191.096 413.599 191.067 413.668 191.021 413.726C190.974 413.785 190.914 413.829 190.844 413.856L190.707 413.87ZM188.172 406.582C188.096 406.586 188.021 406.605 187.953 406.638C187.884 406.672 187.823 406.718 187.772 406.775C187.681 406.852 187.609 406.95 187.561 407.06C187.513 407.17 187.491 407.289 187.497 407.408C187.428 408.786 189.177 411.114 190.348 412.492C190.266 410.219 189.398 407.147 188.392 406.637C188.323 406.604 188.248 406.585 188.172 406.582Z" fill="#263238"/>
<path d="M187.855 414.035C186.318 414.163 184.777 413.843 183.419 413.112C183.24 412.979 183.091 412.809 182.982 412.615C182.873 412.42 182.806 412.204 182.786 411.982C182.732 411.71 182.769 411.428 182.891 411.18C183.013 410.931 183.213 410.729 183.461 410.604C185.031 409.805 189.192 411.61 190.969 413.167C191.025 413.216 191.067 413.28 191.087 413.352C191.108 413.424 191.107 413.5 191.086 413.572C191.064 413.643 191.021 413.707 190.964 413.755C190.907 413.803 190.836 413.833 190.762 413.842C189.797 413.959 188.827 414.024 187.855 414.035ZM184.453 411.197C184.217 411.189 183.982 411.231 183.764 411.321C183.626 411.403 183.474 411.528 183.516 411.913C183.53 412.03 183.568 412.143 183.627 412.245C183.686 412.347 183.766 412.435 183.86 412.506C184.907 413.346 187.855 413.332 189.66 413.194C188.112 412.115 186.325 411.429 184.453 411.197Z" fill="#263238"/>
<path d="M410.839 323.675L400.741 344.712C385.918 375.764 349.397 391.372 320.232 379.153C303.205 372.017 284.62 356.931 272.015 350.029C261.2 373.739 240.949 399.886 225.451 418.085L194.096 402.311C205.806 375.433 224.032 333.429 235.604 306.207C237.664 301.38 241.044 297.231 245.354 294.236C249.664 291.242 254.732 289.522 259.974 289.276C312.104 287.87 410.839 323.675 410.839 323.675Z" fill="#0278B6"/>
<path d="M378.464 105.926C372.581 103.984 365.872 107.717 365.789 120.86C365.707 134.002 377.651 141.042 382.693 124.056C385.724 113.806 382.831 107.345 378.464 105.926Z" fill="#E0E0E0"/>
<path d="M258.458 466.302L284 465.104L278.861 485.107L257.508 486.126L258.458 466.302Z" fill="#FFB573"/>
<path opacity="0.2" d="M258.473 466.302L284.014 465.104L281.135 476.317L257.936 477.42L258.473 466.302Z" fill="black"/>
<path d="M282.773 495.659H280.018C279.221 495.658 278.437 495.46 277.735 495.083C277.033 494.706 276.436 494.161 275.995 493.497L274.521 494.654C273.664 495.314 272.613 495.672 271.532 495.673H234.446C233.812 492.491 235.823 488.33 235.823 488.33C235.823 488.33 252.135 487.463 255.813 482.682C255.946 482.499 256.127 482.357 256.337 482.272C256.546 482.187 256.775 482.162 256.998 482.2C260.152 482.861 272.496 485.203 279.536 482.875C279.753 482.806 279.984 482.789 280.21 482.826C280.435 482.862 280.649 482.951 280.834 483.085C281.018 483.219 281.169 483.394 281.274 483.597C281.379 483.8 281.435 484.024 281.437 484.253C281.606 488.082 282.053 491.894 282.773 495.659Z" fill="#263238"/>
<path d="M256.57 483.495C256.491 483.499 256.412 483.475 256.35 483.426C256.157 483.302 251.707 480.299 251.308 478.026C251.263 477.807 251.265 477.581 251.312 477.363C251.36 477.145 251.452 476.939 251.583 476.758C251.724 476.531 251.933 476.354 252.18 476.252C252.428 476.151 252.701 476.13 252.961 476.194C254.669 476.634 256.625 480.712 256.942 483.082C256.95 483.158 256.936 483.235 256.902 483.303C256.868 483.371 256.815 483.428 256.749 483.468C256.693 483.494 256.631 483.504 256.57 483.495ZM252.644 476.924C252.553 476.934 252.465 476.965 252.389 477.015C252.312 477.066 252.248 477.133 252.203 477.213C252.134 477.312 252.087 477.425 252.066 477.544C252.044 477.663 252.049 477.785 252.079 477.902C252.313 479.28 254.531 481.139 255.991 482.228C255.413 480.023 253.87 477.227 252.782 476.951L252.644 476.924Z" fill="#263238"/>
<path d="M251.047 484.666C250.471 484.69 249.897 484.587 249.366 484.363C249.162 484.271 248.98 484.138 248.831 483.972C248.681 483.806 248.568 483.61 248.498 483.398C248.398 483.148 248.379 482.873 248.444 482.611C248.508 482.349 248.652 482.114 248.856 481.938C250.234 480.808 254.67 481.649 256.75 482.765C256.814 482.803 256.867 482.858 256.903 482.923C256.939 482.988 256.958 483.062 256.957 483.137C256.952 483.212 256.924 483.284 256.877 483.343C256.831 483.402 256.767 483.445 256.695 483.467C254.88 484.139 252.978 484.543 251.047 484.666ZM251.047 482.159C250.462 482.111 249.876 482.24 249.366 482.53C249.242 482.641 249.132 482.792 249.242 483.164C249.283 483.276 249.348 483.378 249.431 483.463C249.514 483.549 249.614 483.616 249.724 483.66C250.936 484.253 253.788 483.591 255.524 483.054C254.089 482.5 252.57 482.197 251.033 482.159H251.047Z" fill="#263238"/>
<path d="M425.441 315.341L425.276 337.562C425.014 370.336 397.227 399.556 364.053 402.063C344.684 403.441 318.509 403.937 303.437 403.634C301.247 426.585 294.069 453.628 286.906 473.218L254.283 470.945C253.429 443.13 252.175 403.689 251.128 377.527C250.715 367.333 257.039 357.304 266.765 352.509C315.602 328.428 425.441 315.341 425.441 315.341Z" fill="#0278B6"/>
<path opacity="0.1" d="M279.882 473.507C279.809 473.521 279.734 473.521 279.661 473.507C279.466 473.447 279.302 473.311 279.207 473.13C279.111 472.95 279.091 472.738 279.151 472.543C284.083 456.328 292.928 405.714 293.355 382.473C293.368 382.252 293.467 382.044 293.63 381.894C293.714 381.825 293.811 381.773 293.915 381.742C294.019 381.711 294.129 381.702 294.237 381.715C341.889 388.052 374.139 385.848 387.571 375.488C411.115 357.193 410.771 327.574 404.806 312.117C404.731 311.925 404.735 311.711 404.818 311.523C404.9 311.334 405.055 311.186 405.246 311.111C405.438 311.036 405.652 311.041 405.841 311.123C406.029 311.206 406.177 311.36 406.252 311.552C412.383 327.423 412.727 357.868 388.522 376.687C374.663 387.446 343.17 389.692 294.843 383.341C294.25 407.05 285.475 456.879 280.584 472.956C280.54 473.11 280.449 473.247 280.323 473.346C280.196 473.445 280.042 473.501 279.882 473.507Z" fill="black"/>
<path opacity="0.2" d="M270.747 352.757C265.149 363.976 258.663 374.728 251.35 384.911C251.515 389.499 251.694 394.362 251.873 399.418C263.418 381.191 270.761 352.729 270.761 352.729L270.747 352.757Z" fill="black"/>
<path d="M338.017 217.129L336.791 217.914L335.799 218.52L333.87 219.636C332.589 220.366 331.308 221.014 330.041 221.647C327.492 222.942 324.874 224.058 322.216 225.119C316.818 227.258 311.233 228.89 305.532 229.996C302.626 230.561 299.636 230.96 296.605 231.25C293.507 231.487 290.397 231.537 287.293 231.401C284.077 231.272 280.877 230.899 277.718 230.285C274.471 229.627 271.283 228.705 268.185 227.53L266.917 227.062C265 226.357 263.27 225.221 261.861 223.741C258.861 220.588 256.569 216.831 255.139 212.72C254.007 209.467 253.326 206.074 253.113 202.636C252.774 197.088 253.238 191.52 254.491 186.104C255.583 181.312 257.067 176.616 258.927 172.066C259.836 169.848 260.828 167.685 261.875 165.564L263.515 162.395C264.121 161.335 264.672 160.384 265.374 159.185C266.38 157.491 267.917 156.177 269.747 155.446C271.577 154.715 273.597 154.61 275.493 155.145C277.39 155.681 279.056 156.828 280.233 158.408C281.41 159.988 282.032 161.913 282.002 163.883V165.261C282.002 166.101 281.865 167.217 281.81 168.209L281.575 171.281C281.41 173.32 281.314 175.414 281.217 177.37C281.121 179.326 281.079 181.365 281.066 183.294C281.052 185.223 281.066 187.138 281.19 188.956C281.28 192.165 281.776 195.35 282.664 198.434C282.915 199.332 283.336 200.174 283.904 200.914C284.289 201.314 284.468 201.121 284.262 200.666L277.938 196.878C281.046 197.439 284.213 197.601 287.361 197.36C289.087 197.234 290.803 197.004 292.5 196.671C294.25 196.368 296.041 195.996 297.845 195.5C299.65 195.004 301.455 194.425 303.287 193.819C305.119 193.213 306.938 192.442 308.797 191.725C310.657 191.009 312.421 190.141 314.225 189.314C315.107 188.901 315.989 188.46 316.829 188.033L318.069 187.399L318.648 187.11C318.772 187.041 319.061 186.876 318.964 186.959C322.965 184.432 327.806 183.598 332.421 184.641C337.037 185.683 341.049 188.517 343.576 192.517C346.102 196.518 346.936 201.359 345.894 205.974C344.851 210.59 342.018 214.602 338.017 217.129Z" fill="#FFB573"/>
<path d="M267.951 168.664L278.228 169.146C288.519 165.798 281.92 153.317 281.92 153.317L281.163 146.043C280.937 144.773 280.273 143.622 279.286 142.792C278.299 141.961 277.052 141.503 275.762 141.497L268.585 141.097C265.306 140.918 262.468 143.109 262.303 145.946L261.903 152.311C261.791 154.166 262.137 156.021 262.909 157.711L267.951 168.664Z" fill="#FFB573"/>
<path d="M355.278 171.86C350.939 166.046 336.873 167.41 328.745 176.599C325.384 176.461 312.214 188.378 302.129 190.926C292.045 193.475 284.771 205.667 287.581 212.542C292.775 225.23 296.302 231.305 305.684 232.324C315.065 233.344 327.409 227.268 337.369 219.815C347.33 212.362 362.938 182.178 355.278 171.86Z" fill="#E0E0E0"/>
<path d="M297.803 190.679C289.965 185.636 282.264 194.095 282.264 204.73C282.264 215.366 284.757 224.431 288.573 230.671C292.389 236.912 299.126 236.389 305.408 236.099C310.836 235.837 313.508 233.881 310.918 228.949C308.329 224.017 298.782 216.881 297.363 203.022C296.577 196.01 301.427 193.007 297.803 190.679Z" fill="#FAFAFA"/>
<path d="M295.793 289.248C294.112 290.984 292.9 297.707 296.317 307.777C298.672 314.762 307.944 311.276 307.944 311.276C307.944 311.276 309.569 323.937 321.114 326.651C340.139 331.114 411.9 329.916 424.092 320.452C385.849 320.052 295.793 289.248 295.793 289.248Z" fill="#FAFAFA"/>
<path d="M360.156 167.231C378.931 167.337 397.657 169.154 416.102 172.659C419.144 173.295 422.025 174.545 424.567 176.332C427.11 178.12 429.262 180.407 430.89 183.054C432.519 185.702 433.59 188.653 434.039 191.729C434.488 194.805 434.305 197.939 433.501 200.942C419.725 253.416 427.495 311.042 426.406 321.554C426.406 321.554 316.292 337.41 299.416 304.678C276.754 267.647 315.328 243.456 328.511 191.436C331.997 177.687 345.98 167.148 360.156 167.231Z" fill="#263238"/>
<path opacity="0.1" d="M360.156 167.231C378.931 167.337 397.657 169.154 416.102 172.659C419.144 173.295 422.025 174.545 424.567 176.332C427.11 178.12 429.262 180.407 430.89 183.054C432.519 185.702 433.59 188.653 434.039 191.729C434.488 194.805 434.305 197.939 433.501 200.942C419.725 253.416 427.495 311.042 426.406 321.554C426.406 321.554 316.292 337.41 299.416 304.678C276.754 267.647 315.328 243.456 328.511 191.436C331.997 177.687 345.98 167.148 360.156 167.231Z" fill="white"/>
<path opacity="0.4" d="M396.979 169.67L396.787 169.587L396.18 169.38L396.015 169.504C386.771 168.402 377.141 167.686 367.953 167.397C365.707 167.314 363.489 167.273 361.312 167.245C358.436 168.864 356.222 171.444 355.058 174.533C352.303 181.504 354.259 189.274 360.472 195.308L360.982 195.804L361.712 195.735C375.213 194.426 400.451 183.611 401.512 175.277C401.691 173.872 401.333 171.254 396.979 169.67Z" fill="#FAFAFA"/>
<path d="M436.117 208.175L437.123 210.103L438.019 211.867C438.611 213.038 439.134 214.209 439.685 215.38C440.774 217.708 441.738 220.064 442.716 222.433C444.59 227.172 446.34 231.98 447.8 236.912C448.557 239.364 449.177 241.844 449.921 244.351C450.665 246.859 451.12 249.393 451.643 251.97C452.734 257.164 453.525 262.417 454.013 267.702L454.151 269.08C454.342 271.115 454.098 273.167 453.434 275.1C452.38 278.125 450.773 280.928 448.695 283.366C446.931 285.437 444.864 287.23 442.565 288.684C439.109 290.84 435.312 292.396 431.337 293.285C425.376 294.601 419.258 295.065 413.166 294.663C407.767 294.348 402.398 293.639 397.103 292.541C394.513 292.031 391.964 291.398 389.429 290.723C386.894 290.048 384.47 289.345 381.797 288.353C379.864 287.667 378.224 286.339 377.15 284.592C376.076 282.844 375.632 280.781 375.893 278.747C376.154 276.712 377.103 274.828 378.583 273.408C380.064 271.987 381.985 271.116 384.029 270.94H384.552L391.441 270.361C393.796 270.196 396.125 269.962 398.425 269.727C400.726 269.493 403.013 269.231 405.245 268.942C407.476 268.653 409.653 268.308 411.761 267.895C415.482 267.297 419.118 266.251 422.589 264.782C423.856 264.162 424.752 263.404 424.669 263.253C424.587 263.101 424.339 263.253 423.912 263.611C423.385 264.126 422.964 264.739 422.672 265.415L422.093 272.772C421.06 268.749 419.972 264.727 418.649 260.663C418.002 258.637 417.271 256.53 416.541 254.573C415.811 252.617 415.164 250.44 414.309 248.47C412.711 244.42 411.127 240.342 409.405 236.306L406.815 230.286L404.308 224.624L403.991 223.88C402.149 219.657 402.013 214.885 403.613 210.565C405.212 206.244 408.421 202.71 412.569 200.704C416.716 198.698 421.479 198.376 425.859 199.805C430.239 201.233 433.895 204.302 436.062 208.367L436.117 208.175Z" fill="#FFB573"/>
<path d="M352.647 258.899H332.093C331.043 258.899 330.191 259.75 330.191 260.8V287.333C330.191 288.383 331.043 289.234 332.093 289.234H352.647C353.697 289.234 354.548 288.383 354.548 287.333V260.8C354.548 259.75 353.697 258.899 352.647 258.899Z" fill="#0278B6"/>
<path d="M352.647 264.782C353.898 264.734 355.145 264.938 356.314 265.384C357.484 265.829 358.551 266.506 359.453 267.373C360.354 268.241 361.072 269.281 361.562 270.433C362.052 271.584 362.304 272.823 362.304 274.074C362.304 275.325 362.052 276.564 361.562 277.715C361.072 278.866 360.354 279.907 359.453 280.775C358.551 281.642 357.484 282.319 356.314 282.764C355.145 283.209 353.898 283.414 352.647 283.366H352.523C351.273 283.414 350.026 283.209 348.856 282.764C347.687 282.319 346.619 281.642 345.718 280.775C344.816 279.907 344.099 278.866 343.609 277.715C343.119 276.564 342.866 275.325 342.866 274.074C342.866 272.823 343.119 271.584 343.609 270.433C344.099 269.281 344.816 268.241 345.718 267.373C346.619 266.506 347.687 265.829 348.856 265.384C350.026 264.938 351.273 264.734 352.523 264.782H352.689H352.647ZM352.689 262.026H352.523C350.901 261.972 349.285 262.244 347.771 262.827C346.256 263.41 344.874 264.291 343.708 265.419C342.541 266.547 341.613 267.898 340.98 269.392C340.346 270.886 340.02 272.492 340.02 274.115C340.02 275.738 340.346 277.344 340.98 278.838C341.613 280.332 342.541 281.683 343.708 282.811C344.874 283.939 346.256 284.821 347.771 285.404C349.285 285.987 350.901 286.259 352.523 286.204H352.689C354.31 286.259 355.927 285.987 357.441 285.404C358.956 284.821 360.337 283.939 361.504 282.811C362.671 281.683 363.599 280.332 364.232 278.838C364.866 277.344 365.192 275.738 365.192 274.115C365.192 272.492 364.866 270.886 364.232 269.392C363.599 267.898 362.671 266.547 361.504 265.419C360.337 264.291 358.956 263.41 357.441 262.827C355.927 262.244 354.31 261.972 352.689 262.026Z" fill="#0278B6"/>
<path d="M384.911 275.734L384.828 282.236C380.874 292.307 368.806 284.991 368.806 284.991L361.587 283.807C360.333 283.505 359.224 282.774 358.454 281.739C357.684 280.704 357.301 279.432 357.372 278.144V270.953C357.291 269.474 357.79 268.021 358.762 266.902C359.734 265.783 361.103 265.087 362.579 264.96H369.054C370.913 264.973 372.74 265.446 374.372 266.338L381.659 270.223C382.649 270.761 383.474 271.558 384.047 272.529C384.62 273.499 384.918 274.607 384.911 275.734Z" fill="#FFB573"/>
<path d="M420.385 178.101C427.521 176.723 436.917 187.29 436.724 199.564C439.286 201.727 443.722 219.76 449.398 228.495C455.074 237.229 452.153 251.088 445.486 254.243C433.087 260.07 426.364 262.164 418.759 256.571C411.155 250.978 402.421 237.959 401.153 225.602C399.362 207.486 407.725 180.484 420.385 178.101Z" fill="#E0E0E0"/>
<path d="M410.562 249.462C406.044 257.618 414.985 264.768 425.537 264.148C436.09 263.528 445.017 260.373 451.01 256.158C457.003 251.942 456.038 245.274 455.322 239.006C454.716 233.606 452.567 231.071 447.841 233.978C443.116 236.885 436.586 246.872 422.851 249.132C415.963 250.344 412.643 245.701 410.562 249.462Z" fill="#FAFAFA"/>
<path d="M358.282 173.913C359.944 171.132 362.498 168.996 365.528 167.851C366.8 165.061 367.072 161.919 366.3 158.951L400.355 150.355C396.98 161.238 394.335 169.835 398.109 175.442C391.304 179.051 378.822 185.512 365.735 184.341C352.647 183.17 355.871 178.417 358.282 173.913Z" fill="#FFB573"/>
<path opacity="0.2" d="M366.506 159.999L391.661 160.067C383.313 167.961 371.231 170.386 366.023 166.653C366.742 164.511 366.908 162.222 366.506 159.999Z" fill="black"/>
<path d="M407.904 133.727C403.055 149.032 399.431 159.309 388.769 163.622C367.594 172.163 358.956 161.004 359.136 144.527C359.301 129.69 367.208 107.166 383.933 104.934C387.643 104.437 391.418 104.89 394.906 106.249C398.393 107.608 401.479 109.83 403.874 112.707C406.269 115.584 407.895 119.021 408.6 122.697C409.304 126.373 409.065 130.168 407.904 133.727Z" fill="#FFB573"/>
<path d="M397.779 145.767C391.484 143.012 393.385 141.097 393.385 141.097C393.385 141.097 398.482 135.421 399.295 132.115C400.108 128.809 395.162 121.741 396.912 118.036C398.661 114.33 417.149 112.525 424.988 121.989C423.151 122.394 421.275 122.597 419.395 122.595C420.975 124.338 421.993 126.516 422.315 128.847C422.637 131.177 422.248 133.55 421.199 135.655C417.59 143.274 404.489 148.784 397.779 145.767Z" fill="#E0E0E0"/>
<path d="M363.545 147.365L379.815 147.613C379.815 147.613 377.514 151.539 370.681 152.146C363.848 152.752 363.545 147.365 363.545 147.365Z" fill="#263238"/>
<path d="M363.875 147.365C364.385 148.412 365.928 149.983 370.598 149.569C373.145 149.409 375.634 148.734 377.913 147.586C375.034 147.558 369.262 147.462 363.875 147.365Z" fill="white"/>
<path opacity="0.2" d="M386.744 131.633C388.654 131.257 390.636 131.653 392.255 132.735C390.364 132.726 388.493 132.352 386.744 131.633Z" fill="black"/>
<path opacity="0.2" d="M386.564 132.969C387.448 132.983 388.319 133.188 389.116 133.571C389.913 133.954 390.617 134.505 391.18 135.187C389.501 134.785 387.928 134.028 386.564 132.969Z" fill="black"/>
<path opacity="0.2" d="M365.294 126.481C365.294 126.481 364.233 124.758 363.145 125.447C363.417 125.752 363.747 126.001 364.116 126.178C364.485 126.355 364.885 126.458 365.294 126.481Z" fill="black"/>
<path opacity="0.2" d="M364.921 127.679C364.921 127.679 364.081 126.136 363.199 127.348C363.414 127.579 363.697 127.735 364.006 127.794C364.316 127.854 364.636 127.813 364.921 127.679Z" fill="black"/>
<path opacity="0.2" d="M373.752 113.255C378.502 113.298 383.217 114.088 387.721 115.597C383.024 115.08 378.361 114.298 373.752 113.255Z" fill="black"/>
<path opacity="0.2" d="M371.562 115.404C371.562 115.404 382.336 116.617 387.309 119.854C381.934 118.86 376.663 117.37 371.562 115.404Z" fill="black"/>
<path d="M409.93 149.818C408.674 151.362 407.126 152.643 405.374 153.588C403.622 154.534 401.702 155.125 399.722 155.328C394.39 155.838 392.627 150.837 394.859 146.305C396.856 142.172 402.05 137.033 407.023 138.631C411.996 140.229 412.988 145.947 409.93 149.818Z" fill="#FFB573"/>
<path d="M382.418 131.413C382.102 132.68 381.178 133.534 380.352 133.328C379.525 133.121 379.112 131.95 379.429 130.641C379.746 129.332 380.669 128.52 381.495 128.74C382.322 128.96 382.735 130.159 382.418 131.413Z" fill="#263238"/>
<path d="M368.959 128.23C368.642 129.498 367.719 130.352 366.893 130.131C366.066 129.911 365.653 128.754 365.97 127.459C366.287 126.164 367.21 125.337 368.036 125.557C368.863 125.778 369.276 126.963 368.959 128.23Z" fill="#263238"/>
<path d="M373.063 130.338L370.432 140.987C370.432 140.987 366.134 140.987 364.191 138.521C366.974 133.382 373.063 130.338 373.063 130.338Z" fill="#ED893E"/>
<path d="M387.639 128.313C387.76 128.346 387.889 128.346 388.011 128.313C388.105 128.275 388.19 128.219 388.262 128.148C388.334 128.076 388.391 127.991 388.43 127.897C388.468 127.804 388.488 127.703 388.487 127.602C388.486 127.5 388.464 127.4 388.424 127.307C387.976 126.17 387.264 125.156 386.346 124.349C385.429 123.542 384.332 122.964 383.148 122.665C383.045 122.64 382.939 122.636 382.836 122.653C382.732 122.671 382.633 122.71 382.545 122.767C382.456 122.824 382.381 122.899 382.323 122.987C382.264 123.074 382.225 123.173 382.206 123.276C382.187 123.38 382.19 123.486 382.213 123.588C382.237 123.691 382.281 123.787 382.344 123.872C382.406 123.956 382.485 124.027 382.576 124.08C382.667 124.133 382.768 124.167 382.872 124.18C383.803 124.434 384.662 124.903 385.38 125.549C386.098 126.195 386.654 127 387.005 127.9C387.065 128.018 387.155 128.118 387.267 128.191C387.378 128.264 387.506 128.306 387.639 128.313Z" fill="#E0E0E0"/>
<path d="M362.635 122.568C362.758 122.598 362.887 122.597 363.009 122.566C363.132 122.535 363.245 122.474 363.338 122.389C364.02 121.712 364.852 121.206 365.766 120.912C366.681 120.617 367.652 120.543 368.601 120.694C368.697 120.719 368.798 120.723 368.897 120.708C368.996 120.693 369.09 120.658 369.175 120.605C369.26 120.552 369.333 120.483 369.391 120.401C369.448 120.32 369.489 120.227 369.51 120.13C369.556 119.932 369.522 119.725 369.416 119.552C369.311 119.38 369.141 119.255 368.945 119.207C367.753 118.991 366.526 119.064 365.368 119.422C364.21 119.779 363.155 120.409 362.291 121.259C362.147 121.404 362.066 121.599 362.066 121.803C362.066 122.007 362.147 122.203 362.291 122.348C362.384 122.45 362.503 122.526 362.635 122.568Z" fill="#E0E0E0"/>
<path d="M280.804 169.945C288.312 165.288 287.54 157.381 288.863 151.085C289.097 150.01 286.645 148.44 285.198 149.79C284.241 150.546 283.446 151.487 282.859 152.557C282.272 153.627 281.906 154.803 281.782 156.017C279.027 156.43 272.014 160.232 273.116 167.961C275.35 169.54 278.085 170.246 280.804 169.945Z" fill="#FFB573"/>
<path d="M368.944 142.627C368.944 142.627 368.2 145.382 370.39 145.974C372.581 146.567 378.257 143.398 382.927 146.429C381.288 144.114 376.149 140.808 368.944 142.627Z" fill="#E0E0E0"/>
<path d="M366.589 142.172C366.589 142.172 366.217 144.72 364.302 144.927C362.387 145.134 359.067 141.703 354.383 143.894C356.032 142.455 358.063 141.527 360.23 141.221C362.397 140.915 364.606 141.246 366.589 142.172Z" fill="#E0E0E0"/>
<path d="M361.561 194.191C379.47 192.442 410.481 176.282 396.457 171.13C387.626 178.142 372.789 180.938 365.804 180.952C363.214 178.459 362.401 171.502 365.529 167.851C358.213 167.231 349.024 181.999 361.561 194.191Z" fill="#FAFAFA"/>
<path d="M365.805 180.952C372.307 176.475 392.903 165.605 398.675 165.702C399.353 167.936 399.462 170.303 398.992 172.59C398.992 172.59 391.387 180.911 365.805 180.952Z" fill="#E0E0E0"/>
<path d="M365.805 180.952C365.805 180.952 366.81 166.914 365.543 163.952C364.477 164.367 363.536 165.051 362.812 165.937C362.088 166.823 361.605 167.881 361.41 169.008C361.41 169.008 362.76 178.803 365.805 180.952Z" fill="#E0E0E0"/>
<path d="M414.655 117.622C405.328 118.738 377.693 116.134 368.655 105.72C359.618 95.3046 366.203 88.2373 375.874 94.2576C375.874 94.2576 369.455 85.5234 379.773 87.7138C389.513 89.7803 401.044 106.698 415.688 105.981C428.156 105.361 423.871 116.562 414.655 117.622Z" fill="#E0E0E0"/>
<path d="M410.301 155.053C405.961 158.566 400.244 158.69 397.53 155.342C394.816 151.994 396.153 146.429 400.465 142.943C404.777 139.458 410.521 139.306 413.235 142.654C415.949 146.001 414.627 151.54 410.301 155.053Z" fill="#263238"/>
<path d="M374.373 160.426C373.878 160.237 373.445 159.914 373.124 159.492C372.802 159.071 372.605 158.567 372.556 158.04C372.506 157.512 372.605 156.981 372.841 156.506C373.078 156.032 373.442 155.633 373.894 155.355C374.346 155.078 374.866 154.932 375.396 154.935C375.926 154.937 376.445 155.089 376.894 155.371C377.342 155.654 377.703 156.056 377.934 156.533C378.166 157.01 378.259 157.543 378.203 158.07C377.997 158.884 377.482 159.586 376.767 160.026C376.052 160.466 375.193 160.609 374.373 160.426Z" fill="#263238"/>
<path d="M410.013 145.823C409.773 145.821 409.536 145.764 409.321 145.657C409.106 145.549 408.918 145.394 408.773 145.203C408.65 145.042 408.56 144.858 408.508 144.662C408.456 144.466 408.443 144.262 408.47 144.061C408.497 143.861 408.563 143.667 408.664 143.492C408.766 143.316 408.901 143.163 409.062 143.04C412.548 140.381 414.669 133.768 414.366 126.508C414.173 121.907 412.561 110.459 401.967 103.695C401.796 103.586 401.647 103.445 401.53 103.279C401.412 103.113 401.329 102.925 401.284 102.727C401.239 102.528 401.234 102.323 401.269 102.123C401.303 101.923 401.377 101.731 401.485 101.559C401.594 101.387 401.735 101.239 401.901 101.121C402.067 101.004 402.255 100.921 402.453 100.876C402.651 100.831 402.857 100.826 403.057 100.86C403.257 100.895 403.449 100.969 403.621 101.077C411.969 106.395 417.025 115.625 417.48 126.384C417.824 134.65 415.275 142.144 410.963 145.437C410.7 145.671 410.365 145.807 410.013 145.823Z" fill="#263238"/>
<path d="M382.046 160.425C379.783 160.422 377.524 160.27 375.281 159.971C375.18 159.959 375.082 159.927 374.992 159.877C374.903 159.826 374.825 159.759 374.762 159.678C374.699 159.597 374.653 159.505 374.626 159.406C374.6 159.307 374.593 159.204 374.606 159.103C374.637 158.902 374.745 158.72 374.907 158.597C375.069 158.473 375.272 158.418 375.474 158.441C392.006 160.604 401.884 153.813 401.98 153.744C402.148 153.625 402.356 153.578 402.559 153.613C402.762 153.648 402.943 153.762 403.061 153.93C403.18 154.098 403.227 154.306 403.192 154.509C403.158 154.712 403.043 154.892 402.875 155.011C402.517 155.273 395.05 160.425 382.046 160.425Z" fill="#263238"/>
<path d="M337.369 272.992V270.568H336.253L336.832 267.44H334.614L334.049 270.568H332.272L332.85 267.44H330.577L330.191 269.576V280.707H330.481L331.046 277.635H332.809L332.244 280.707H334.49L335.054 277.635H337.369V275.21H335.413L335.826 272.992H337.369ZM333.236 275.21H331.486L331.9 272.992H333.635L333.236 275.21Z" fill="white"/>
<path d="M345.91 267.427V280.501H342.631V271.932C342.161 272.347 341.648 272.711 341.102 273.02C340.501 273.334 339.874 273.597 339.229 273.805V270.857C340.168 270.568 341.042 270.1 341.805 269.479C342.406 268.907 342.876 268.212 343.182 267.441L345.91 267.427Z" fill="white"/>
<path d="M463.892 289.249H69.4199V299.98H463.892V289.249Z" fill="#0278B6"/>
<path opacity="0.5" d="M463.892 289.249H69.4199V299.98H463.892V289.249Z" fill="white"/>
<path opacity="0.5" d="M463.892 289.249H374.07V299.98H463.892V289.249Z" fill="white"/>
<path d="M372.486 299.966H374.057V289.235H372.486V299.966Z" fill="white"/>
<path d="M457.183 299.98L469.086 499.779H464.361L450.075 307.117H387.875L373.602 499.779H368.877L380.766 299.98H457.183Z" fill="#0278B6"/>
<path opacity="0.5" d="M457.183 299.98L469.086 499.779H464.361L450.075 307.117H387.875L373.602 499.779H368.877L380.766 299.98H457.183Z" fill="white"/>
<path d="M152.863 299.98L164.766 499.779H160.041L145.768 307.117H83.5543L69.2819 499.779H64.5566L76.4594 299.98H152.863Z" fill="#0278B6"/>
<path opacity="0.2" d="M152.863 299.98L164.766 499.779H160.041L145.768 307.117H83.5543L69.2819 499.779H64.5566L76.4594 299.98H152.863Z" fill="white"/>
<path d="M247.768 261.448H102.483L89.2988 173.32H234.598L247.768 261.448Z" fill="#0278B6"/>
<path opacity="0.3" d="M166.887 261.448H186.876L182.096 220.835L175.924 237.945L166.887 261.448Z" fill="black"/>
<path opacity="0.3" d="M247.769 261.448H246.102L232.932 173.32H234.599L247.769 261.448Z" fill="black"/>
<path d="M195.073 285.515H155.535V289.249H198.49L195.073 285.515Z" fill="#0278B6"/>
<path opacity="0.3" d="M195.073 285.515H155.535V289.249H198.49L195.073 285.515Z" fill="black"/>
<path d="M160.66 235.41L160.109 239.474H158.456C157.637 239.476 156.844 239.767 156.219 240.296C155.594 240.826 155.176 241.559 155.039 242.367L151.637 263.128C151.555 263.623 151.581 264.129 151.715 264.612C151.848 265.095 152.084 265.544 152.408 265.926C152.732 266.309 153.135 266.617 153.589 266.828C154.043 267.039 154.538 267.15 155.039 267.151H156.417V268.818H147.256V235.41H160.66Z" fill="#0278B6"/>
<path opacity="0.3" d="M160.66 235.41L160.109 239.474H158.456C157.637 239.476 156.844 239.767 156.219 240.296C155.594 240.826 155.176 241.559 155.039 242.367L151.637 263.128C151.555 263.623 151.581 264.129 151.715 264.612C151.848 265.095 152.084 265.544 152.408 265.926C152.732 266.309 153.135 266.617 153.589 266.828C154.043 267.039 154.538 267.15 155.039 267.151H156.417V268.818H147.256V235.41H160.66Z" fill="black"/>
<path d="M147.256 217.391L135.449 289.249H171.915L183.722 217.391H147.256ZM167.466 243.497L164.049 264.245C163.918 265.054 163.504 265.79 162.881 266.323C162.258 266.855 161.466 267.149 160.646 267.151H153.606C153.105 267.15 152.61 267.039 152.155 266.828C151.7 266.617 151.296 266.309 150.971 265.927C150.647 265.545 150.409 265.097 150.274 264.614C150.139 264.13 150.11 263.624 150.19 263.129L153.606 242.368C153.74 241.559 154.158 240.824 154.783 240.294C155.409 239.764 156.203 239.473 157.023 239.475H164.049C164.555 239.468 165.056 239.572 165.517 239.78C165.978 239.988 166.388 240.295 166.718 240.678C167.047 241.062 167.289 241.513 167.425 242C167.562 242.487 167.59 242.998 167.507 243.497H167.466Z" fill="#0278B6"/>
<path opacity="0.3" d="M171.957 289.249L170.193 289.014L181.958 217.391H183.763L171.957 289.249Z" fill="black"/>
<path opacity="0.3" d="M166.957 199.757H164.849L162.107 181.435H164.215L166.957 199.757Z" fill="black"/>
<path opacity="0.3" d="M170.882 199.757H168.761L166.033 181.435H168.141L170.882 199.757Z" fill="black"/>
<path opacity="0.3" d="M174.808 199.757H172.687L169.945 181.435H172.067L174.808 199.757Z" fill="black"/>
<path opacity="0.3" d="M178.736 199.757H176.615L173.873 181.435H175.995L178.736 199.757Z" fill="black"/>
<path opacity="0.3" d="M182.648 199.757H180.54L177.799 181.435H179.92L182.648 199.757Z" fill="black"/>
<path opacity="0.3" d="M163.031 199.757H160.923L158.182 181.435H160.289L163.031 199.757Z" fill="black"/>
<path opacity="0.3" d="M159.103 199.757H156.995L154.254 181.435H156.375L159.103 199.757Z" fill="black"/>
<path opacity="0.3" d="M155.177 199.757H153.07L150.328 181.435H152.45L155.177 199.757Z" fill="black"/>
<path opacity="0.3" d="M151.265 199.757H149.144L146.402 181.435H148.524L151.265 199.757Z" fill="black"/>
</svg>
