<svg width="638" height="572" viewBox="0 0 638 572" fill="none" xmlns="http://www.w3.org/2000/svg">
<path d="M318.51 571.451C494.417 571.451 637.019 493.063 637.019 396.367C637.019 299.671 494.417 221.283 318.51 221.283C142.602 221.283 0 299.671 0 396.367C0 493.063 142.602 571.451 318.51 571.451Z" fill="#F0F0F0"/>
<path d="M337.625 471.903C372.343 471.903 400.486 455.655 400.486 435.612C400.486 415.57 372.343 399.322 337.625 399.322C302.908 399.322 274.765 415.57 274.765 435.612C274.765 455.655 302.908 471.903 337.625 471.903Z" fill="#E0E0E0"/>
<path d="M419.528 430.687C454.245 430.687 482.389 414.439 482.389 394.397C482.389 374.354 454.245 358.106 419.528 358.106C384.811 358.106 356.667 374.354 356.667 394.397C356.667 414.439 384.811 430.687 419.528 430.687Z" fill="#E0E0E0"/>
<path d="M142.646 489.592C169.011 504.811 240.989 487.136 303.423 450.126L424.954 378.075C487.374 341.049 517.664 299.304 492.594 284.835C467.523 270.366 396.339 288.04 333.434 324.331L208.727 396.382C145.867 432.613 116.296 474.373 142.646 489.592Z" fill="#E0E0E0"/>
<path d="M465.597 268.748C460.303 251.471 438.703 237.178 418.543 242.825C415.354 243.714 412.295 245.014 409.441 246.692C389.855 257.999 373.989 285.496 373.989 308.126C373.936 311.925 374.467 315.708 375.562 319.346C380.856 336.623 402.456 350.842 422.616 345.196C425.797 344.304 428.847 342.999 431.689 341.314C451.275 330.006 467.155 302.509 467.155 279.894C467.196 276.122 466.671 272.365 465.597 268.748Z" fill="#455A64"/>
<path d="M431.63 341.314C451.216 330.007 467.097 302.51 467.097 279.894C467.097 257.279 451.216 248.104 431.63 259.411C412.044 270.719 396.163 298.201 396.163 320.831C396.163 343.461 412.103 352.622 431.63 341.314Z" fill="#37474F"/>
<path d="M415.852 339.329C403.868 339.329 402.941 325.081 402.941 320.713C402.941 300.598 417.646 275.13 435.041 265.102C438.792 262.744 443.085 261.388 447.51 261.161C459.509 261.161 460.435 275.41 460.435 279.777C460.435 299.863 445.731 325.36 428.336 335.388C424.579 337.747 420.281 339.103 415.852 339.329Z" fill="#F5F5F5"/>
<path d="M420.204 329.33C410.823 329.33 410.103 318.42 410.103 315.082C410.103 300.275 420.925 281.512 433.747 274.116C436.586 272.347 439.831 271.335 443.173 271.175C452.539 271.175 453.274 282.071 453.274 285.409C453.274 300.216 442.437 318.978 429.615 326.375C426.785 328.153 423.543 329.171 420.204 329.33ZM443.173 272.631C440.087 272.793 437.094 273.745 434.482 275.395C422.072 282.556 411.573 300.73 411.573 315.096C411.573 318.037 412.191 327.875 420.204 327.875C423.286 327.713 426.273 326.761 428.88 325.11C441.305 317.934 451.804 299.76 451.804 285.409C451.804 282.409 451.172 272.631 443.173 272.631Z" fill="#E0E0E0"/>
<path d="M431.63 284.526C439.159 280.115 445.261 283.703 445.261 292.393C445.261 301.083 439.159 311.67 431.63 316.023C424.101 320.375 417.984 316.846 417.984 308.141C417.984 299.436 424.16 288.849 431.63 284.526Z" fill="#455A64"/>
<path d="M431.63 294.819C434.203 293.349 436.306 294.54 436.306 297.51C436.222 299.134 435.754 300.715 434.942 302.123C434.129 303.531 432.994 304.727 431.63 305.612C429.042 307.083 426.954 305.892 426.954 302.907C427.04 301.285 427.509 299.707 428.322 298.302C429.134 296.896 430.268 295.703 431.63 294.819Z" fill="#37474F"/>
<path d="M391.826 335.991L331.817 301.348C331.817 301.348 279.382 352.563 254.443 344.814C254.443 344.814 248.106 411.262 277.573 416.982C307.041 422.702 345.61 386.632 359.741 372.061C373.872 357.489 391.826 335.991 391.826 335.991Z" fill="#CFD8DC"/>
<path opacity="0.4" d="M391.826 335.991L331.817 301.348C331.817 301.348 279.382 352.563 254.443 344.814C254.443 344.814 248.106 411.262 277.573 416.982C307.041 422.702 345.61 386.632 359.741 372.061C373.872 357.489 391.826 335.991 391.826 335.991Z" fill="black"/>
<path d="M453.892 229.312C448.186 225.959 426.542 213.519 420.895 210.196C414.823 206.654 407.92 204.788 400.89 204.788C393.86 204.788 386.957 206.654 380.885 210.196L347.491 229.165C333.111 237.473 304.687 253.647 302.805 270.16C300.35 291.643 318.833 324.022 299.085 345.373L331.817 364.268L473.669 276.042V263.852C473.704 256.864 471.894 249.989 468.421 243.925C464.949 237.86 459.937 232.819 453.892 229.312Z" fill="#CFD8DC"/>
<path opacity="0.2" d="M336.846 307.744C335.066 297.451 328.244 284.85 319.201 279.659L319.039 279.556C310.04 274.366 302.291 278.615 304.07 288.849C307.349 307.818 313.628 329.61 299.041 345.373L331.773 364.268C346.345 348.505 340.125 326.728 336.846 307.744Z" fill="black"/>
<path opacity="0.1" d="M413.587 229.179L380.164 248.119C365.784 256.412 337.36 272.572 335.478 289.055C333.022 310.538 351.506 342.932 331.758 364.268L473.61 276.042V263.852C473.595 233.061 440.261 213.769 413.587 229.179Z" fill="black"/>
<path d="M454.274 232.635C444.584 227.15 431.306 225.68 413.587 235.046C413.19 235.252 412.764 235.458 412.367 235.693L411.014 236.443C386.825 250.398 367.21 284.35 367.21 312.303C367.21 312.817 367.21 313.347 367.21 313.891C367.329 316.869 368.2 319.769 369.743 322.32C371.286 324.871 373.45 326.989 376.033 328.477C378.724 330.04 381.78 330.863 384.892 330.863C388.004 330.863 391.06 330.04 393.751 328.477L413.176 317.273L469.861 284.526L492.873 271.292C492.873 271.292 486.815 251.5 471.037 242.325C468.39 240.781 457.303 234.34 454.274 232.635Z" fill="#CFD8DC"/>
<path d="M384.384 330.801C386.899 330.888 389.403 330.447 391.737 329.507C389.106 330.588 386.253 331.023 383.419 330.772C380.586 330.522 377.853 329.595 375.453 328.069C373.052 326.543 371.053 324.463 369.623 322.003C368.194 319.543 367.376 316.776 367.239 313.935C367.239 313.391 367.239 312.861 367.239 312.332C367.239 296.775 373.342 279.321 382.914 264.528L399.28 273.939C389.693 288.746 383.62 306.186 383.62 321.743C383.605 324.779 383.861 327.81 384.384 330.801Z" fill="#CFD8DC"/>
<path opacity="0.1" d="M492.858 271.292V271.175C492.858 271.175 492.858 271.042 492.784 270.969C492.711 270.748 492.608 270.484 492.49 270.16C492.49 270.013 492.358 269.837 492.299 269.66V269.587L492.079 269.028C491.814 268.366 491.49 267.557 491.123 266.719C490.99 266.44 490.873 266.146 490.741 265.866C490.314 264.925 489.829 263.911 489.27 262.837L488.682 261.749C487.873 260.279 486.932 258.705 485.873 257.117C484.769 255.452 483.576 253.847 482.3 252.309C480.935 250.673 479.461 249.131 477.889 247.692C476.264 246.197 474.518 244.839 472.669 243.634C472.213 243.325 471.743 243.045 471.272 242.766L471.096 242.663L470.713 242.443C461.038 237.031 447.804 235.62 430.174 244.942C429.762 245.133 429.35 245.354 428.938 245.575L427.586 246.339C403.397 260.294 383.796 294.246 383.796 322.184C383.784 325.221 384.05 328.253 384.59 331.242C387.889 331.359 391.154 330.549 394.016 328.904L413.44 317.699L469.86 284.526L492.873 271.292H492.858Z" fill="black"/>
<path opacity="0.4" d="M470.361 241.884C460.7 236.546 447.51 235.179 429.983 244.457C429.571 244.648 429.159 244.869 428.747 245.089L427.395 245.854C416.675 252.03 406.809 262.132 399.265 273.895L382.885 264.44C390.472 252.677 400.295 242.575 411.014 236.399L412.367 235.635C412.764 235.414 413.19 235.193 413.587 235.002C431.232 225.636 444.584 227.106 454.274 232.591C457.083 234.238 466.92 239.899 470.361 241.884Z" fill="white"/>
<path d="M293.63 256.971V254.603C293.685 253.581 293.961 252.582 294.438 251.676C294.915 250.77 295.582 249.978 296.394 249.354L350.8 212.196C351.652 211.68 352.622 211.39 353.617 211.351C354.612 211.313 355.601 211.527 356.491 211.975L394.31 233.826C395.164 234.371 395.876 235.111 396.388 235.985C396.899 236.86 397.195 237.843 397.251 238.855V247.516C397.195 248.529 396.899 249.515 396.388 250.392C395.877 251.268 395.165 252.011 394.31 252.559L340.125 283.85C339.215 284.317 338.207 284.561 337.184 284.561C336.161 284.561 335.153 284.317 334.243 283.85L296.409 261.999C295.586 261.435 294.907 260.687 294.425 259.814C293.942 258.941 293.67 257.967 293.63 256.971Z" fill="#CFD8DC"/>
<path opacity="0.55" d="M293.63 256.971V254.603C293.685 253.581 293.961 252.582 294.438 251.676C294.915 250.77 295.582 249.978 296.394 249.354L350.8 212.196C351.652 211.68 352.622 211.39 353.617 211.351C354.612 211.313 355.601 211.527 356.491 211.975L394.31 233.826C395.164 234.371 395.876 235.111 396.388 235.985C396.899 236.86 397.195 237.843 397.251 238.855V247.516C397.195 248.529 396.899 249.515 396.388 250.392C395.877 251.268 395.165 252.011 394.31 252.559L340.125 283.85C339.215 284.317 338.207 284.561 337.184 284.561C336.161 284.561 335.153 284.317 334.243 283.85L296.409 261.999C295.586 261.435 294.907 260.687 294.425 259.814C293.942 258.941 293.67 257.967 293.63 256.971Z" fill="black"/>
<path d="M296.526 252.927L334.36 274.777C335.248 275.223 336.234 275.436 337.227 275.398C338.219 275.359 339.186 275.07 340.036 274.557L394.442 237.399C394.788 237.238 395.078 236.978 395.277 236.652C395.476 236.327 395.575 235.95 395.56 235.569C395.546 235.187 395.42 234.819 395.198 234.509C394.975 234.199 394.666 233.961 394.31 233.826L356.49 211.975C355.601 211.527 354.612 211.313 353.617 211.351C352.621 211.39 351.652 211.68 350.8 212.196L296.394 249.354C296.048 249.515 295.758 249.775 295.559 250.1C295.36 250.426 295.262 250.803 295.276 251.184C295.29 251.565 295.416 251.934 295.638 252.244C295.861 252.554 296.17 252.791 296.526 252.927Z" fill="#CFD8DC"/>
<path opacity="0.45" d="M296.526 252.927L334.36 274.777C335.248 275.223 336.234 275.436 337.227 275.398C338.219 275.359 339.186 275.07 340.036 274.557L394.442 237.399C394.788 237.238 395.078 236.978 395.277 236.652C395.476 236.327 395.575 235.95 395.56 235.569C395.546 235.187 395.42 234.819 395.198 234.509C394.975 234.199 394.666 233.961 394.31 233.826L356.49 211.975C355.601 211.527 354.612 211.313 353.617 211.351C352.621 211.39 351.652 211.68 350.8 212.196L296.394 249.354C296.048 249.515 295.758 249.775 295.559 250.1C295.36 250.426 295.262 250.803 295.276 251.184C295.29 251.565 295.416 251.934 295.638 252.244C295.861 252.554 296.17 252.791 296.526 252.927Z" fill="black"/>
<path opacity="0.2" d="M337.272 275.38V284.526C336.249 284.556 335.235 284.318 334.332 283.835L296.497 261.999C295.646 261.449 294.935 260.705 294.424 259.829C293.913 258.953 293.616 257.968 293.557 256.956V254.588C293.614 253.625 293.865 252.683 294.294 251.819C294.724 250.955 295.323 250.187 296.056 249.56C295.767 249.755 295.537 250.027 295.393 250.345C295.248 250.663 295.194 251.015 295.237 251.362C295.279 251.709 295.417 252.037 295.634 252.31C295.851 252.584 296.14 252.792 296.468 252.912L334.302 274.748C335.21 275.244 336.242 275.463 337.272 275.38Z" fill="black"/>
<path d="M370.004 212.872V210.52C370.062 209.493 370.344 208.492 370.829 207.585C371.314 206.678 371.991 205.888 372.812 205.27L405.441 180.729C406.293 180.213 407.263 179.922 408.258 179.884C409.253 179.845 410.242 180.06 411.132 180.508L448.966 202.359C449.818 202.905 450.529 203.646 451.041 204.52C451.552 205.394 451.849 206.377 451.907 207.388V216.048C451.847 217.061 451.55 218.045 451.039 218.922C450.528 219.798 449.818 220.541 448.966 221.092L416.617 239.752C415.717 240.209 414.722 240.447 413.712 240.447C412.703 240.447 411.708 240.209 410.808 239.752L372.915 217.916C372.069 217.362 371.364 216.617 370.859 215.741C370.353 214.865 370.06 213.882 370.004 212.872Z" fill="#CFD8DC"/>
<path opacity="0.55" d="M370.004 212.872V210.52C370.062 209.493 370.344 208.492 370.829 207.585C371.314 206.678 371.991 205.888 372.812 205.27L405.441 180.729C406.293 180.213 407.263 179.922 408.258 179.884C409.253 179.845 410.242 180.06 411.132 180.508L448.966 202.359C449.818 202.905 450.529 203.646 451.041 204.52C451.552 205.394 451.849 206.377 451.907 207.388V216.048C451.847 217.061 451.55 218.045 451.039 218.922C450.528 219.798 449.818 220.541 448.966 221.092L416.617 239.752C415.717 240.209 414.722 240.447 413.712 240.447C412.703 240.447 411.708 240.209 410.808 239.752L372.915 217.916C372.069 217.362 371.364 216.617 370.859 215.741C370.353 214.865 370.06 213.882 370.004 212.872Z" fill="black"/>
<path d="M372.916 208.843L410.75 230.679C411.635 231.133 412.622 231.351 413.616 231.312C414.611 231.274 415.578 230.98 416.426 230.459L449.069 205.917C449.41 205.754 449.696 205.494 449.892 205.17C450.087 204.846 450.184 204.473 450.17 204.095C450.156 203.716 450.032 203.351 449.813 203.042C449.594 202.734 449.289 202.496 448.937 202.359L411.044 180.508C410.154 180.06 409.165 179.845 408.17 179.884C407.175 179.922 406.205 180.213 405.353 180.729L372.813 205.27C372.466 205.429 372.174 205.686 371.972 206.01C371.771 206.334 371.67 206.71 371.68 207.091C371.691 207.472 371.814 207.841 372.034 208.153C372.254 208.465 372.56 208.705 372.916 208.843Z" fill="#CFD8DC"/>
<path opacity="0.45" d="M372.916 208.843L410.75 230.679C411.635 231.133 412.622 231.351 413.616 231.312C414.611 231.274 415.578 230.98 416.426 230.459L449.069 205.917C449.41 205.754 449.696 205.494 449.892 205.17C450.087 204.846 450.184 204.473 450.17 204.095C450.156 203.716 450.032 203.351 449.813 203.042C449.594 202.734 449.289 202.496 448.937 202.359L411.044 180.508C410.154 180.06 409.165 179.845 408.17 179.884C407.175 179.922 406.205 180.213 405.353 180.729L372.813 205.27C372.466 205.429 372.174 205.686 371.972 206.01C371.771 206.334 371.67 206.71 371.68 207.091C371.691 207.472 371.814 207.841 372.034 208.153C372.254 208.465 372.56 208.705 372.916 208.843Z" fill="black"/>
<path opacity="0.2" d="M413.646 231.297V240.413C412.621 240.439 411.607 240.195 410.705 239.708L372.915 217.916C372.061 217.368 371.349 216.625 370.838 215.748C370.326 214.871 370.031 213.886 369.975 212.872V210.52C370.033 209.555 370.284 208.611 370.714 207.745C371.143 206.878 371.742 206.107 372.474 205.476C372.185 205.672 371.955 205.944 371.811 206.262C371.666 206.58 371.612 206.932 371.655 207.278C371.697 207.625 371.835 207.953 372.052 208.227C372.269 208.5 372.558 208.709 372.886 208.829L410.705 230.679C411.609 231.156 412.628 231.37 413.646 231.297Z" fill="black"/>
<path d="M436.79 355.254C437.624 359.885 438.072 364.577 438.129 369.282C438.29 377.796 439.864 380.81 440.07 387.809C440.305 395.794 438.599 405.675 435.394 410.16C432.188 414.644 422.91 417.012 419.307 409.424C415.705 401.837 416.175 391.956 417.337 384.118C418.513 376.016 418.675 371.546 419.351 365.37C419.969 359.93 420.689 355.798 420.689 355.798C421.172 358.868 421.432 361.969 421.469 365.076C420.748 383.339 420.557 394.132 429.1 393.514C432.894 393.235 436.614 384.28 436.364 364.268C436.302 361.257 436.445 358.245 436.79 355.254Z" fill="#37474F"/>
<path d="M419.66 342.726C419.969 345.975 420.719 353.666 420.689 355.798C420.689 358.489 419.219 382.265 419.807 388.324C420.763 397.293 433.762 397.97 435.629 387.75C436.879 380.942 436.702 358.562 436.791 355.254C436.864 352.857 437.247 345.564 437.394 342.726H419.66Z" fill="#F2DAC5"/>
<path d="M420.205 348.519C414.323 305.083 408.441 267.749 407.088 252.941C405.486 230.282 411.132 191.595 414.764 176.332C418.955 158.687 457.539 166.039 457.539 166.039C467.832 194.962 443.437 232.032 436.879 251.647C437.247 256.059 439.335 261.22 440.585 275.557C442.526 297.848 437.306 346.005 437.144 347.608C437.144 347.563 430.292 356.783 420.205 348.519Z" fill="#F2DAC5"/>
<path d="M414.382 0.46883C405.405 0.488301 396.803 4.0678 390.463 10.4219C384.123 16.7761 380.562 25.3858 380.562 34.3622V38.2C380.542 39.7937 379.968 41.3307 378.937 42.5465C377.907 43.7622 376.484 44.5807 374.916 44.8611H374.798C373.25 45.1892 371.817 45.9215 370.645 46.9834C369.472 48.0453 368.602 49.3988 368.122 50.9064C367.642 52.4139 367.571 54.0216 367.914 55.5658C368.258 57.11 369.004 58.5357 370.078 59.6977C368.02 60.3481 366.208 61.608 364.881 63.3106C363.555 65.0132 362.776 67.0784 362.649 69.233C362.521 71.3876 363.051 73.5302 364.167 75.3773C365.284 77.2245 366.934 78.6892 368.901 79.5779C367.953 80.932 367.334 82.4885 367.093 84.1238C366.852 85.7591 366.995 87.4282 367.512 88.9983C368.029 90.5685 368.905 91.9965 370.07 93.169C371.235 94.3415 372.657 95.2261 374.224 95.7526C376.266 96.4767 378.483 96.5385 380.562 95.929V100.576H399.089C412.154 100.576 424.683 95.3858 433.921 86.1479C443.159 76.9099 448.349 64.3806 448.349 51.3162V34.3622C448.349 29.9051 447.47 25.4917 445.762 21.3748C444.054 17.2578 441.551 13.5182 438.396 10.3699C435.24 7.22168 431.495 4.72665 427.375 3.02767C423.254 1.3287 418.839 0.459161 414.382 0.46883Z" fill="#263238"/>
<path d="M396.428 5.67405C393.377 5.53541 390.335 6.09367 387.532 7.30644C384.73 8.51921 382.24 10.3546 380.253 12.6733C372.901 20.7606 373.474 38.4499 385.591 40.6114C397.707 42.773 396.428 5.67405 396.428 5.67405Z" fill="#263238"/>
<path d="M429.292 38.0236C429.292 38.0236 431.997 23.8193 424.88 13.3057C420.851 7.424 407.559 0.468875 396.472 5.67419C396.472 5.67419 402.486 -1.35445 415.793 0.233611C415.793 0.233611 438.57 2.71864 432.835 35.5239" fill="#CFD8DC"/>
<path d="M315.466 172.126C319.083 172.935 361.799 156.231 367.225 151.614C372.651 146.997 398.03 98.8697 398.03 98.8697C404.089 81.9451 404.427 74.6812 404.427 74.6812C404.427 74.6812 391.899 72.4608 382.9 88.2091C378.091 96.6494 354.476 135.88 354.476 135.88C354.476 135.88 320.112 154.658 315.466 157.363" fill="#F2DAC5"/>
<path d="M390.457 126.602C392.602 131.492 394.348 136.547 395.677 141.718C425.865 167.304 443.746 135.837 443.746 135.837L446.437 112.31C446.437 112.31 433.703 103.164 444.819 77.2841L430.115 74.2109L409.661 74.505L404.515 74.7109C398.089 80.3426 390.193 92.0766 387.046 99.3847C384.488 105.046 379.37 115.721 390.457 126.602Z" fill="#CFD8DC"/>
<g opacity="0.7">
<path opacity="0.7" d="M390.457 126.602C392.602 131.492 394.348 136.547 395.677 141.718C425.865 167.304 443.746 135.837 443.746 135.837L446.437 112.31C446.437 112.31 433.703 103.164 444.819 77.2841L430.115 74.2109L409.661 74.505L404.515 74.7109C398.089 80.3426 390.193 92.0766 387.046 99.3847C384.488 105.046 379.37 115.721 390.457 126.602Z" fill="white"/>
</g>
<path opacity="0.1" d="M446.334 112.28C446.334 112.28 439.393 107.281 440.246 94.2234L438.423 93.6353C436.952 101.311 439.041 115.206 439.452 119.897C439.864 124.588 439.996 142.865 408.867 146.159C406.945 146.326 405.041 146.661 403.177 147.159C428.733 162.054 443.643 135.881 443.643 135.881L446.334 112.28Z" fill="black"/>
<path d="M443.687 135.881C443.687 135.881 453.142 150.835 457.289 159.525C461.435 168.216 465.141 186.831 457.289 206.785C449.437 226.739 443.981 234.723 443.981 234.723C443.981 234.723 421.028 238.914 406.809 227.224C406.985 225.621 409.426 199.742 409.426 199.742L367.21 222.504L343.242 187.008L391.163 152.82L395.575 141.689C395.575 141.689 402.456 147.321 419.102 145.777C435.747 144.233 443.687 135.881 443.687 135.881Z" fill="#37474F"/>
<path d="M409.426 199.771L410.897 189.478C404.626 186.633 399.31 182.038 395.59 176.244C396.227 179.346 397.484 182.288 399.285 184.893C401.087 187.498 403.396 189.713 406.074 191.404L405.383 198.874L364.52 218.577L367.181 222.533L409.426 199.771Z" fill="#263238"/>
<path d="M437.629 35.8327C434.335 32.5977 429.101 33.5535 426.807 38.1413C426.807 38.1413 422.307 39.5235 411.558 35.8033C402.736 32.7448 392.531 25.9661 390.855 17.7905C387.605 22.8782 385.458 32.8624 386.355 46.1698C387.458 62.6386 393.208 65.2854 395.957 66.2706C398.707 67.2557 403.942 67.344 408.912 66.2706L409.559 74.5344C409.559 74.5344 399.472 87.5182 404.412 96.2085C420.969 90.4297 430.012 74.255 430.012 74.255V51.7133C431.386 52.2491 432.891 52.3531 434.325 52.0116C435.76 51.67 437.056 50.8991 438.041 49.8018C439.602 47.7863 440.414 45.2914 440.339 42.7434C440.264 40.1955 439.306 37.7527 437.629 35.8327Z" fill="#F2DAC5"/>
<path d="M408 38.9648C407.939 39.612 408.136 40.2571 408.55 40.7588C408.963 41.2604 409.559 41.5777 410.206 41.641C410.858 41.6732 411.496 41.4476 411.984 41.0128C412.471 40.5781 412.767 39.9692 412.809 39.3177C412.841 38.9971 412.809 38.6733 412.714 38.3655C412.619 38.0576 412.463 37.7718 412.256 37.5251C412.049 37.2784 411.794 37.0757 411.507 36.929C411.22 36.7823 410.907 36.6946 410.586 36.671C410.264 36.6474 409.942 36.6885 409.636 36.7917C409.331 36.895 409.05 37.0583 408.809 37.2721C408.568 37.486 408.372 37.7459 408.233 38.0366C408.094 38.3273 408.015 38.6429 408 38.9648Z" fill="#263238"/>
<path d="M410.632 31.6124L415.234 34.5533C415.614 33.9158 415.738 33.1585 415.583 32.4332C415.427 31.7078 415.003 31.068 414.396 30.642C414.087 30.4506 413.743 30.3237 413.384 30.269C413.025 30.2143 412.658 30.2328 412.307 30.3235C411.955 30.4142 411.625 30.5751 411.337 30.7966C411.05 31.0182 410.81 31.2957 410.632 31.6124Z" fill="#263238"/>
<path d="M408.691 55.1392L403.412 56.6096C403.496 56.9632 403.65 57.2963 403.866 57.5887C404.081 57.8811 404.354 58.1268 404.668 58.3109C404.981 58.4951 405.328 58.6138 405.689 58.6601C406.049 58.7063 406.415 58.679 406.765 58.58C407.455 58.3469 408.034 57.8659 408.39 57.2302C408.746 56.5946 408.853 55.8494 408.691 55.1392Z" fill="#FFB573"/>
<path d="M387.517 32.9065L392.575 30.6421C392.447 30.3034 392.25 29.9946 391.998 29.7349C391.745 29.4752 391.442 29.2701 391.107 29.1323C390.772 28.9944 390.413 28.9268 390.05 28.9336C389.688 28.9403 389.331 29.0214 389.002 29.1716C388.327 29.4895 387.797 30.0523 387.522 30.7458C387.246 31.4393 387.244 32.2117 387.517 32.9065Z" fill="#263238"/>
<path d="M389.149 37.9795C389.136 38.4196 389.253 38.8538 389.484 39.2283C389.715 39.6028 390.052 39.9013 390.451 40.0867C390.85 40.272 391.295 40.3362 391.731 40.2711C392.166 40.2061 392.573 40.0148 392.9 39.7208C393.228 39.4269 393.462 39.0432 393.574 38.6174C393.686 38.1916 393.67 37.7424 393.529 37.3254C393.388 36.9083 393.128 36.5418 392.781 36.2713C392.434 36.0007 392.015 35.838 391.576 35.8033C391.273 35.7854 390.97 35.8277 390.684 35.9277C390.398 36.0276 390.134 36.1832 389.909 36.3856C389.683 36.5879 389.5 36.833 389.37 37.1066C389.239 37.3802 389.164 37.6769 389.149 37.9795Z" fill="#263238"/>
<path d="M401.192 36.5972L401.383 50.2427L393.267 48.7429L401.192 36.5972Z" fill="#FFB573"/>
<path d="M408.911 66.2118C414.175 65.1972 424.865 61.4035 426.306 56.9922C425.762 59.2167 424.545 61.2193 422.821 62.7269C419.734 65.6677 409.176 69.5055 409.176 69.5055L408.911 66.2118Z" fill="#FFB573"/>
<path d="M422.527 43.8908C423.089 43.8908 423.646 43.7801 424.165 43.5651C424.684 43.35 425.156 43.0348 425.553 42.6375C425.95 42.2402 426.266 41.7685 426.481 41.2493C426.696 40.7302 426.806 40.1738 426.806 39.6118V28.9365H422.527V43.8908Z" fill="#263238"/>
<path d="M391.825 335.991C391.825 335.991 342.301 384.162 308.011 404.837V417.6C345.61 397.396 391.825 342.299 391.825 342.299V335.991Z" fill="#CFD8DC"/>
<path d="M318.833 99.855C308.775 100.737 301.923 104.34 295.835 115.427C290.601 124.999 269.809 166.98 269.809 166.98C269.809 166.98 212.594 164.642 201.272 163.657C189.95 162.672 197.493 186.257 197.493 186.257C197.493 186.257 199.066 189.198 203.272 185.669C207.477 182.14 207.683 180.596 207.683 180.596C207.683 180.596 268.412 190.419 275.94 190.419C283.469 190.419 284.469 187.625 289.468 180.831C296.644 171.068 316.362 132.16 316.362 132.16L318.833 99.855Z" fill="#FFB573"/>
<path d="M320.421 99.9581C320.421 99.9581 314.848 97.8407 306.584 101.649C300.923 104.252 295.644 113.192 291.777 120.662C287.91 128.131 276.161 151.805 276.161 151.805C276.161 151.805 283.013 164.333 301.32 164.172L322.524 127.073L320.421 99.9581Z" fill="#455A64"/>
<path d="M346.168 388.677C346.491 391.926 347.227 399.617 347.212 401.749C347.212 404.44 345.742 428.217 346.33 434.275C347.271 443.244 360.269 443.921 362.152 433.701C363.401 426.893 363.225 404.513 363.313 401.205C363.313 398.808 363.769 391.515 363.901 388.677H346.168Z" fill="#FFB573"/>
<path d="M363.313 401.205C364.147 405.835 364.595 410.528 364.652 415.232C364.813 423.746 366.372 426.761 366.578 433.745C366.813 441.744 365.107 451.626 361.902 456.11C358.696 460.595 349.418 462.963 345.83 455.375C342.242 447.788 342.698 437.906 343.845 430.069C345.036 421.967 345.183 417.497 345.874 411.321C346.477 405.881 347.212 401.749 347.212 401.749C348.418 401.896 348.389 408.057 348.359 411.071L349.918 403.719C350.107 403.192 350.451 402.735 350.905 402.407C351.359 402.079 351.902 401.895 352.462 401.881L357.902 401.734C358.525 401.715 359.137 401.906 359.638 402.277C360.14 402.648 360.502 403.176 360.667 403.778L362.064 411.042C362.314 407.542 362.358 401.396 363.313 401.205Z" fill="#37474F"/>
<path d="M270.941 358.371L255.84 359.18L256.207 356.136L256.34 353.872L257.722 331.742L274.176 332.33L271.838 354.401L271.676 356.107L270.941 358.371Z" fill="#FFB573"/>
<path d="M249.943 388.926C254.237 386.074 255.898 380.56 260.398 377.898C262.502 376.866 264.717 376.077 267 375.546C269.295 374.995 271.321 373.652 272.72 371.752C273.729 369.802 274.04 367.566 273.602 365.414C273.308 363.253 273.397 361.003 273.191 358.886C273.149 357.759 272.986 356.64 272.705 355.548C272.705 355.445 271.867 354.077 271.838 354.357L271.676 356.048C269.676 358.547 259.913 358.4 256.207 356.048C256.169 355.29 256.213 354.531 256.34 353.783C253.987 355.254 252.575 357.724 250.767 359.9C247.539 363.689 243.932 367.138 240.003 370.193C235.592 373.016 230.739 374.899 226.284 377.545C224.924 378.215 223.805 379.288 223.078 380.619C220.814 385.765 227.71 388.559 231.416 389.882C237.033 391.97 244.767 392.411 249.943 388.926Z" fill="#263238"/>
<path d="M384.429 211.24C386.223 223.812 351.491 229.929 327.406 244.575C308.525 256.059 286.131 270.719 286.131 270.719C286.315 278.127 286.089 285.539 285.454 292.922C283.322 311.229 278.411 322.978 273.353 346.064C273.353 346.064 261.413 348.005 256.105 343.873C256.105 343.873 252.987 261.396 254.443 254.574C257.972 237.943 302.864 203.476 311.569 196.109C316.539 191.889 384.429 211.24 384.429 211.24Z" fill="#37474F"/>
<path d="M344.874 391.367C338.993 347.931 332.229 313.008 330.861 298.128C329.258 275.468 331.302 242.045 333.184 226.459C335.067 210.872 385.576 210.917 385.576 210.917C390.384 234.252 363.402 297.539 363.402 297.539C363.769 301.877 365.269 302.333 367.107 321.449C369.269 343.726 365.401 389.691 365.24 391.309C365.225 391.309 354.947 399.631 344.874 391.367Z" fill="#37474F"/>
<path d="M374.401 127.602C379.709 150.585 385.562 210.917 385.562 210.917C375.269 222.121 329.524 220.092 311.57 196.109C309.996 177.567 305.262 163.025 301.277 129.94C299.63 116.706 305.056 104.943 318.922 99.8404L341.743 99.0464L360.226 102.811C369.093 108.075 372.401 118.956 374.401 127.602Z" fill="#F0F0F0"/>
<path opacity="0.1" d="M378.003 147.777L353.168 133.072L356.638 184.302C356.638 184.302 350.433 202.05 343.551 204.888C339.282 206.633 334.648 207.299 330.06 206.827C325.471 206.355 321.07 204.76 317.245 202.182C337.728 220.283 376.224 221.004 385.547 210.843C385.561 210.917 382.062 174.774 378.003 147.777Z" fill="black"/>
<path d="M316.359 69.2043C328.306 67.6355 336.719 56.6788 335.151 44.7317C333.582 32.7846 322.625 24.3714 310.678 25.9402C298.731 27.509 290.318 38.4658 291.886 50.4128C293.455 62.3599 304.412 70.7731 316.359 69.2043Z" fill="#263238"/>
<path d="M352.094 62.8003C352.094 62.8003 349.344 79.5926 348.05 82.3864C347.188 84.1139 345.692 85.4416 343.874 86.0919L343.565 74.3285L352.094 62.8003Z" fill="#263238"/>
<path d="M346.522 39.2001C347.753 39.0007 349.014 39.0837 350.208 39.4429C351.403 39.8021 352.501 40.428 353.418 41.2734C356.476 44.1113 355.285 53.5073 352.095 62.8005L345.463 63.8739L346.522 39.2001Z" fill="#263238"/>
<path d="M343.405 63.9619C344.787 64.6971 346.566 62.0504 348.139 60.2418C349.713 58.4331 354.962 55.8305 357.918 61.3593C360.873 66.8881 356.183 74.8431 352.036 76.3724C344.846 79.0044 343.537 74.3726 343.537 74.3726L344.228 100.723C338.346 108.075 315.481 114.545 320.451 101.149L320.084 93.15C316.835 93.659 313.561 93.983 310.276 94.1204C306.556 94.1204 302.394 91.5178 299.85 83.3275C296.674 73.0345 296.263 59.9036 297.689 46.5668C299.63 28.4952 321.216 26.9954 334.214 34.3475C347.213 41.6996 343.405 63.9619 343.405 63.9619Z" fill="#FFB573"/>
<path d="M343.58 66.2263C344.169 65.9175 346.609 61.8151 348.198 60.2564C350.403 58.0508 346.521 39.1999 346.521 39.1999C346.521 39.1999 348.521 34.3769 343.845 29.7009C341.519 27.2869 338.599 25.5271 335.378 24.598C332.157 23.6689 328.748 23.6031 325.494 24.4074C318.951 25.8778 312.26 27.7452 305.57 26.2748C302.297 25.365 298.966 24.6772 295.6 24.2162C295.204 24.1367 294.792 24.2159 294.453 24.4368C294.309 24.5992 294.203 24.7916 294.142 25.0001C294.081 25.2085 294.067 25.428 294.1 25.6425C294.184 27.8408 294.962 29.9562 296.321 31.686L292.145 30.642C291.866 30.5314 291.556 30.5314 291.277 30.642C291.159 30.7483 291.067 30.8807 291.008 31.0286C290.949 31.1766 290.926 31.3362 290.939 31.4948C290.854 32.9769 291.102 34.4591 291.665 35.833C292.227 37.2069 293.089 38.4377 294.189 39.4351C298.806 43.5376 303.732 44.7434 309.849 44.9934C317.881 45.4315 325.931 44.5625 333.684 42.4201C336.14 41.9643 336.787 44.3317 338.434 50.831C339.875 56.6097 338.39 69.0054 343.58 66.2263Z" fill="#263238"/>
<path d="M346.581 40.6852L354.462 35.9651C354.184 35.4271 353.797 34.9522 353.327 34.57C352.857 34.1878 352.314 33.9066 351.73 33.7438C351.146 33.581 350.536 33.5401 349.936 33.6238C349.336 33.7074 348.759 33.9138 348.242 34.23C347.193 34.8902 346.437 35.9268 346.128 37.1271C345.819 38.3275 345.981 39.6005 346.581 40.6852Z" fill="#263238"/>
<path d="M320.112 93.1644C320.112 93.1644 331.979 90.2236 336.066 87.7532C338.472 86.361 340.396 84.2681 341.581 81.7539C341.072 84.2309 340.072 86.5809 338.64 88.6649C335.699 92.7233 320.303 96.3406 320.303 96.3406L320.112 93.1644Z" fill="#B16668"/>
<path d="M320.127 62.1535C320.171 62.6205 320.35 63.0645 320.644 63.4304C320.937 63.7963 321.332 64.068 321.778 64.2118C322.225 64.3557 322.704 64.3653 323.156 64.2396C323.608 64.1138 324.013 63.8583 324.321 63.5045C324.629 63.1507 324.826 62.7143 324.889 62.2494C324.951 61.7844 324.876 61.3114 324.672 60.8889C324.468 60.4664 324.145 60.113 323.742 59.8726C323.339 59.6321 322.875 59.5151 322.406 59.5361C322.084 59.5566 321.769 59.6408 321.48 59.7838C321.19 59.9268 320.932 60.1257 320.72 60.3691C320.508 60.6125 320.347 60.8956 320.245 61.2019C320.143 61.5081 320.103 61.8316 320.127 62.1535Z" fill="#263238"/>
<path d="M322.156 53.213L327.42 55.8157C327.755 55.0917 327.796 54.2665 327.536 53.5127C327.275 52.759 326.733 52.1352 326.023 51.772C325.319 51.4564 324.518 51.4306 323.795 51.7002C323.071 51.9699 322.483 52.5132 322.156 53.213Z" fill="#263238"/>
<path d="M321.76 78.666L316.363 80.9893C316.654 81.7125 317.22 82.2906 317.937 82.5966C318.654 82.9027 319.463 82.9116 320.186 82.6215C320.909 82.2928 321.476 81.6975 321.769 80.9603C322.062 80.223 322.059 79.4009 321.76 78.666Z" fill="#B16668"/>
<path d="M298.101 56.7716L303.159 53.7131C302.976 53.3728 302.725 53.0735 302.422 52.8335C302.119 52.5935 301.771 52.4179 301.398 52.3174C301.025 52.2169 300.635 52.1936 300.253 52.2491C299.87 52.3045 299.503 52.4374 299.174 52.6397C298.497 53.0577 298.008 53.7205 297.808 54.4903C297.608 55.26 297.713 56.0772 298.101 56.7716Z" fill="#263238"/>
<path d="M300.468 62.8297C300.511 63.2968 300.691 63.7408 300.985 64.1067C301.278 64.4726 301.673 64.7443 302.119 64.8881C302.566 65.0319 303.045 65.0416 303.497 64.9159C303.948 64.7901 304.354 64.5345 304.662 64.1808C304.97 63.827 305.167 63.3906 305.23 62.9256C305.292 62.4607 305.217 61.9877 305.013 61.5652C304.809 61.1427 304.486 60.7893 304.083 60.5488C303.68 60.3084 303.215 60.1914 302.747 60.2124C302.425 60.2329 302.11 60.317 301.821 60.46C301.531 60.603 301.273 60.802 301.061 61.0454C300.849 61.2888 300.687 61.5719 300.586 61.8781C300.484 62.1844 300.444 62.5079 300.468 62.8297Z" fill="#263238"/>
<path d="M313.393 59.7417L315.393 74.1813L306.585 73.6373L313.393 59.7417Z" fill="#B16668"/>
<path d="M308.114 172.685C308.393 174.156 310.702 177.553 315.378 179.773C320.054 181.993 325.215 180.626 324.848 184.714C324.48 188.801 321.304 194.095 316.745 195.301C312.187 196.506 307.82 192.36 305.835 189.419C303.85 186.478 302.262 168.701 307.099 167.171L308.114 172.7" fill="#F2DAC5"/>
<path d="M335.331 258.691C336.155 258.691 342.154 258.22 344.154 250.883C346.154 243.546 349.227 240.458 349.227 240.458C349.227 240.458 382.4 202.359 385.605 191.61C388.811 180.861 380.782 120.5 376.665 114.354C373.724 109.942 368.342 106.443 361.226 105.046C361.226 105.046 354.212 109.34 353.682 121.735C353.094 135.469 357.52 141.748 357.52 141.748L362.52 187.846L330.891 235.429L335.331 258.691Z" fill="#FFB573"/>
<path d="M377.739 172.126C375.68 173.597 376.445 177.494 378.915 180.17C381.137 182.294 383.605 184.145 386.267 185.684V181.875L377.739 172.126Z" fill="#FFB573"/>
<path d="M360.137 102.825C355.977 106.651 353.17 111.723 352.138 117.28C350.859 125.955 358.579 164.966 358.579 164.966C358.579 164.966 376.047 168.95 385.561 161.084C385.561 161.084 382.988 133.145 380.091 122.205C377.194 111.265 374.283 104.649 360.137 102.825Z" fill="#455A64"/>
<path d="M307.981 404.763C303.48 407.574 298.663 409.844 293.63 411.527C282.249 415.056 260.883 403.455 260.883 353.269C261.036 329.368 264.414 305.597 270.926 282.6C273.955 271.881 269.456 258.97 259.81 253.397L234.68 238.943C225.049 233.385 212.006 236.267 207.08 246.295C193.364 274.698 186.514 305.926 187.083 337.462C187.494 371.885 198.625 385.148 206.33 392.662C215.403 401.484 250.546 426.011 287.057 424.158C294.446 423.533 301.606 421.284 308.025 417.571" fill="#CFD8DC"/>
<path opacity="0.2" d="M252.855 392.618C244.135 374.811 239.062 361.121 217.241 348.505C200.493 338.844 190.979 344.476 189.303 360.077C193.008 378.281 200.61 387.03 206.33 392.603C215.403 401.425 250.546 425.952 287.057 424.099C271.794 424.114 261.574 410.424 252.855 392.618Z" fill="black"/>
<path opacity="0.2" d="M235.401 323.978C235.247 324.993 234.883 325.966 234.331 326.832C233.779 327.698 233.051 328.439 232.195 329.007L227.093 331.948C226.322 332.391 225.407 332.512 224.547 332.283C223.688 332.055 222.954 331.495 222.505 330.727L214.962 317.64C213.954 315.718 213.486 313.558 213.609 311.391C214.844 300.274 219.888 263.852 235.107 239.178L256.928 251.736C256.928 251.736 239.209 285.761 235.401 323.978Z" fill="black"/>
<path d="M233.901 323.125C233.755 324.143 233.393 325.118 232.84 325.985C232.288 326.852 231.556 327.591 230.695 328.154L225.608 331.095C225.225 331.316 224.803 331.459 224.366 331.517C223.928 331.574 223.483 331.545 223.057 331.43C222.631 331.315 222.231 331.117 221.882 330.848C221.532 330.578 221.239 330.242 221.02 329.859L213.462 316.787C212.46 314.863 211.998 312.704 212.124 310.538C213.344 299.421 218.388 262.999 233.607 238.325L255.428 250.883C255.428 250.883 237.724 284.894 233.901 323.125Z" fill="#CFD8DC"/>
<path opacity="0.2" d="M233.901 323.125C233.755 324.143 233.393 325.118 232.84 325.985C232.288 326.852 231.556 327.591 230.695 328.154L225.608 331.095C225.225 331.316 224.803 331.459 224.366 331.517C223.928 331.574 223.483 331.545 223.057 331.43C222.631 331.315 222.231 331.117 221.882 330.848C221.532 330.578 221.239 330.242 221.02 329.859L213.462 316.787C212.46 314.863 211.998 312.704 212.124 310.538C213.344 299.421 218.388 262.999 233.607 238.325L255.428 250.883C255.428 250.883 237.724 284.894 233.901 323.125Z" fill="white"/>
<path d="M230.784 312.979C230.654 312.98 230.527 312.944 230.417 312.876L216.947 305.112C216.779 305.011 216.658 304.848 216.608 304.659C216.559 304.469 216.586 304.268 216.683 304.097C216.73 304.013 216.794 303.939 216.87 303.88C216.946 303.821 217.033 303.778 217.127 303.753C217.22 303.729 217.317 303.723 217.413 303.737C217.508 303.75 217.6 303.783 217.683 303.833L231.225 311.655C231.392 311.754 231.514 311.913 231.566 312.099C231.618 312.285 231.596 312.485 231.505 312.655C231.425 312.77 231.316 312.86 231.189 312.917C231.062 312.974 230.922 312.996 230.784 312.979Z" fill="#455A64"/>
<path d="M229.873 317.184C229.745 317.183 229.619 317.153 229.505 317.096L217.315 310.053C217.231 310.006 217.157 309.942 217.098 309.866C217.039 309.789 216.996 309.702 216.971 309.609C216.947 309.516 216.941 309.418 216.954 309.323C216.968 309.227 217.001 309.136 217.05 309.053C217.149 308.886 217.308 308.764 217.494 308.712C217.681 308.66 217.88 308.682 218.05 308.774L230.24 315.817C230.378 315.899 230.486 316.024 230.546 316.172C230.607 316.321 230.617 316.485 230.575 316.64C230.533 316.795 230.442 316.932 230.315 317.03C230.189 317.129 230.033 317.183 229.873 317.184Z" fill="#455A64"/>
<path d="M228.961 321.405C228.832 321.4 228.706 321.365 228.593 321.302L217.756 315.038C217.609 314.931 217.506 314.773 217.469 314.595C217.431 314.417 217.461 314.231 217.553 314.074C217.644 313.916 217.791 313.799 217.964 313.743C218.137 313.688 218.325 313.698 218.491 313.773L229.328 320.023C229.496 320.124 229.618 320.286 229.667 320.476C229.717 320.666 229.69 320.867 229.593 321.037C229.529 321.148 229.437 321.241 229.326 321.305C229.215 321.37 229.089 321.404 228.961 321.405Z" fill="#455A64"/>
<path d="M228.049 325.61C227.919 325.613 227.791 325.577 227.682 325.507L218.197 320.037C218.028 319.94 217.904 319.779 217.853 319.59C217.802 319.401 217.828 319.199 217.925 319.03C218.023 318.86 218.184 318.736 218.373 318.685C218.561 318.634 218.763 318.66 218.933 318.758L228.417 324.228C228.555 324.31 228.662 324.434 228.723 324.583C228.783 324.732 228.793 324.896 228.752 325.051C228.71 325.206 228.619 325.343 228.492 325.441C228.365 325.54 228.21 325.594 228.049 325.595V325.61Z" fill="#455A64"/>
<path d="M246.502 327.624L251.561 330.565C252.424 331.104 253.142 331.845 253.655 332.724C254.167 333.602 254.458 334.593 254.502 335.609C254.424 338.384 254.188 341.153 253.796 343.902C253.35 346.744 251.957 349.352 249.843 351.303C247.729 353.254 245.018 354.434 242.15 354.651H241.944C241.586 354.69 241.224 354.647 240.886 354.525C240.547 354.404 240.241 354.206 239.99 353.948C239.739 353.69 239.55 353.378 239.438 353.036C239.325 352.694 239.292 352.331 239.341 351.975C241.113 344.509 242.429 336.941 243.282 329.315C243.261 328.933 243.351 328.552 243.54 328.219C243.729 327.886 244.01 327.614 244.349 327.436C244.689 327.258 245.072 327.181 245.454 327.214C245.835 327.248 246.199 327.39 246.502 327.624Z" fill="#FAFAFA"/>
<path d="M203.39 302.701L199.758 300.598C199.425 300.367 199.039 300.224 198.636 300.182C198.233 300.14 197.825 300.2 197.452 300.357C197.078 300.514 196.75 300.762 196.498 301.079C196.245 301.396 196.077 301.772 196.008 302.171C195.052 306.024 194.505 309.967 194.376 313.935C194.376 322.007 197.082 327.404 198.876 329.315C200.669 331.227 203.757 332.58 203.713 330.212C203.57 322.671 204.22 315.135 205.654 307.73C205.804 306.762 205.67 305.772 205.268 304.879C204.866 303.987 204.213 303.23 203.39 302.701Z" fill="#FAFAFA"/>
<path d="M297.057 409.586C300.854 408.351 304.527 406.76 308.026 404.837C303.484 407.592 298.651 409.836 293.616 411.527C282.264 415.056 260.884 403.454 260.884 353.269C261.033 329.366 264.416 305.594 270.942 282.6C273.956 271.895 269.471 258.97 259.811 253.397L234.681 238.943C231.881 237.332 228.748 236.389 225.524 236.187C222.3 235.986 219.073 236.531 216.095 237.781C219.324 235.586 223.108 234.348 227.011 234.21C230.913 234.072 234.775 235.04 238.151 237.002L263.266 251.5C272.912 257.073 277.426 269.984 274.397 280.703C267.884 303.705 264.506 327.481 264.354 351.386C264.325 401.513 285.675 413.1 297.057 409.586Z" fill="#CFD8DC"/>
<path opacity="0.1" d="M297.056 409.586C285.675 413.101 264.325 401.514 264.325 351.343C264.476 327.437 267.854 303.661 274.368 280.659C275.707 275.681 275.584 270.423 274.015 265.514L270.589 267.513C272.144 272.406 272.266 277.641 270.942 282.6C264.416 305.595 261.033 329.367 260.884 353.269C260.884 403.455 282.264 415.027 293.616 411.527C298.651 409.836 303.484 407.592 308.026 404.837C304.526 406.761 300.854 408.351 297.056 409.586Z" fill="black"/>
<path opacity="0.4" d="M263.236 251.456L238.121 236.958C234.745 234.996 230.883 234.028 226.98 234.166C223.078 234.304 219.294 235.542 216.064 237.737C219.043 236.487 222.27 235.942 225.493 236.143C228.717 236.345 231.851 237.288 234.651 238.899L259.78 253.397C265.011 256.59 268.857 261.626 270.559 267.513L273.985 265.514C272.272 259.656 268.44 254.644 263.236 251.456Z" fill="white"/>
<path d="M237.534 400.455C232.255 383.177 210.654 368.87 190.48 374.531C187.293 375.432 184.234 376.737 181.378 378.413C161.792 389.706 145.911 417.218 145.911 439.833C145.863 443.637 146.398 447.425 147.499 451.067C152.778 468.359 174.379 482.578 194.553 476.917C197.734 476.013 200.788 474.709 203.64 473.035C223.197 461.713 239.004 434.216 239.004 411.601C239.082 407.832 238.586 404.074 237.534 400.455Z" fill="#455A64"/>
<path d="M203.61 473.021C223.197 461.713 239.004 434.216 239.004 411.601C239.004 388.986 223.123 379.81 203.552 391.103C183.98 402.396 168.085 429.908 168.085 452.523C168.085 475.138 184.024 484.328 203.61 473.021Z" fill="#37474F"/>
<path d="M187.774 471.02C175.79 471.02 174.863 456.772 174.863 452.405C174.863 432.304 189.568 406.822 206.963 396.808C210.71 394.442 215.005 393.084 219.432 392.867C231.416 392.867 232.357 407.116 232.357 411.483C232.357 431.569 217.653 457.066 200.243 467.08C196.495 469.444 192.2 470.801 187.774 471.02Z" fill="#F5F5F5"/>
<path d="M192.126 460.978C182.745 460.978 182.024 450.082 182.024 446.744C182.024 431.937 192.847 413.174 205.669 405.778C208.5 404.003 211.742 402.99 215.08 402.837C224.461 402.837 225.196 413.733 225.196 417.071C225.196 431.878 214.359 450.641 201.537 458.037C198.706 459.811 195.464 460.824 192.126 460.978ZM215.08 404.293C212.001 404.458 209.016 405.404 206.404 407.042C193.979 414.218 183.495 432.393 183.495 446.744C183.495 449.685 184.112 459.507 192.126 459.507C195.207 459.343 198.194 458.391 200.802 456.743C213.227 449.582 223.726 431.407 223.726 417.041C223.726 414.1 223.093 404.337 215.08 404.337V404.293Z" fill="#E0E0E0"/>
<path d="M203.61 416.188C211.139 411.777 217.241 415.365 217.241 424.07C217.241 432.775 211.139 443.332 203.61 447.744C196.082 452.155 189.965 448.567 189.965 439.862C189.965 431.157 196.067 420.541 203.61 416.188Z" fill="#455A64"/>
<path d="M203.611 426.555C206.184 425.084 208.272 426.261 208.272 429.246C208.187 430.866 207.721 432.443 206.911 433.848C206.101 435.254 204.97 436.448 203.611 437.333C201.023 438.803 198.935 437.627 198.935 434.642C199.021 433.021 199.49 431.443 200.302 430.037C201.115 428.632 202.249 427.439 203.611 426.555Z" fill="#37474F"/>
<path d="M232.181 377.619C227.343 374.825 209.36 364.767 204.948 361.915C197.258 356.974 186.406 357.4 174.334 364.37C162.571 371.105 152.101 382.751 144.484 396.043C144.199 396.534 144.014 397.076 143.941 397.638C143.867 398.201 143.906 398.772 144.055 399.32C144.204 399.867 144.46 400.379 144.809 400.826C145.158 401.274 145.593 401.647 146.087 401.925C152.145 405.395 164.012 412.218 170.437 416.012C177.79 420.423 195.435 409.409 212.653 411.056C215.56 411.294 218.417 411.947 221.138 412.997C232.769 417.526 236.783 419.07 241.15 417.482C241.851 417.222 242.468 416.777 242.937 416.194C243.405 415.612 243.708 414.914 243.812 414.174C244.276 411.103 244.512 408.001 244.518 404.895C244.518 391.455 239.812 382.015 232.181 377.619Z" fill="#CFD8DC"/>
<path opacity="0.3" d="M232.181 377.619C227.343 374.825 209.359 364.767 204.948 361.915C197.258 356.974 186.406 357.4 174.334 364.37C168.336 367.913 162.888 372.312 158.159 377.428L218.05 412.012C219.088 412.273 220.109 412.597 221.108 412.983C232.739 417.511 236.754 419.055 241.121 417.467C241.821 417.207 242.439 416.762 242.907 416.18C243.376 415.597 243.678 414.899 243.782 414.159C244.247 411.088 244.483 407.987 244.488 404.881C244.517 391.456 239.812 382.015 232.181 377.619Z" fill="white"/>
<path d="M244.518 404.881C244.5 408.737 244.146 412.585 243.459 416.38C237.915 419.497 234.754 418.276 221.138 412.983C218.417 411.933 215.56 411.279 212.654 411.042C195.391 409.395 177.804 420.364 170.438 415.997C174.421 408.358 179.362 401.257 185.142 394.867C190.15 389.244 195.992 384.424 202.463 380.575C206.269 378.322 210.387 376.642 214.683 375.59C221.403 374.119 227.402 374.825 232.24 377.619C239.812 382.016 244.518 391.456 244.518 404.881Z" fill="#CFD8DC"/>
<path opacity="0.1" d="M244.518 404.881C244.5 408.737 244.146 412.585 243.459 416.38C237.915 419.497 234.754 418.276 221.138 412.983C218.417 411.933 215.56 411.279 212.654 411.042C195.391 409.395 177.804 420.364 170.438 415.997C174.421 408.358 179.362 401.257 185.142 394.867C190.15 389.244 195.992 384.424 202.463 380.575C206.269 378.322 210.387 376.642 214.683 375.59C221.403 374.119 227.402 374.825 232.24 377.619C239.812 382.016 244.518 391.456 244.518 404.881Z" fill="black"/>
<path d="M198.479 188.448L203.272 180.126L182.966 168.362C182.581 168.172 182.151 168.091 181.724 168.127C181.296 168.163 180.887 168.316 180.539 168.568C179.553 169.214 178.733 170.083 178.145 171.105C177.558 172.127 177.219 173.273 177.157 174.45C177.115 174.861 177.179 175.276 177.344 175.654C177.509 176.033 177.769 176.363 178.098 176.612L198.479 188.448Z" fill="#455A64"/>
<path d="M197.493 186.257C197.493 188.419 198.964 189.286 200.875 188.213C201.863 187.568 202.686 186.7 203.276 185.678C203.866 184.656 204.207 183.509 204.272 182.331C204.272 180.17 202.801 179.287 200.875 180.376C199.888 181.02 199.067 181.889 198.479 182.911C197.892 183.933 197.554 185.08 197.493 186.257Z" fill="#37474F"/>
<path d="M201.273 163.657C197.052 163.657 188.392 162.01 183.48 165.774C178.569 169.539 176.922 179.288 179.334 183.42C181.745 187.551 190.95 191.963 194.641 190.992C198.332 190.022 198.464 188.404 198.464 188.404L195.523 186.757C195.523 186.757 193.494 177.611 199.346 177.935L203.228 180.185L207.64 174.2L201.273 163.657Z" fill="#FFB573"/>
<path d="M213.242 192.742L214.55 190.478L201.669 183.067C201.569 183.007 201.455 182.976 201.338 182.976C201.222 182.976 201.108 183.007 201.008 183.067C200.738 183.242 200.514 183.479 200.353 183.757C200.192 184.036 200.099 184.348 200.081 184.669C200.07 184.782 200.089 184.896 200.135 184.999C200.182 185.102 200.254 185.191 200.346 185.258L213.242 192.742Z" fill="#F0F0F0"/>
<path d="M212.977 192.139C212.977 192.727 213.388 192.963 213.903 192.669C214.169 192.494 214.39 192.259 214.548 191.983C214.706 191.707 214.798 191.398 214.815 191.08C214.815 190.478 214.403 190.242 213.903 190.536C213.633 190.712 213.409 190.948 213.248 191.227C213.087 191.505 212.994 191.818 212.977 192.139Z" fill="#E0E0E0"/>
<path d="M279.293 243.354C275.102 243.192 266.206 245.472 263.236 251.412L238.121 236.914C238.121 236.914 240.797 225.636 223.711 212.446L279.293 243.354Z" fill="#CFD8DC"/>
<path opacity="0.2" d="M279.293 243.354C275.102 243.192 266.206 245.472 263.236 251.412L238.121 236.914C238.121 236.914 240.797 225.636 223.711 212.446L279.293 243.354Z" fill="black"/>
<path d="M261.501 237.252L300.864 250.883V241.913L269.809 223.989L261.501 237.252Z" fill="#CFD8DC"/>
<path d="M277.572 219.504L308.628 237.428L300.864 241.913L269.809 223.989L277.572 219.504Z" fill="#CFD8DC"/>
<path opacity="0.4" d="M277.572 219.504L308.628 237.428L300.864 241.913L269.809 223.989L277.572 219.504Z" fill="white"/>
<path d="M300.864 250.883L308.628 246.398V237.428L300.864 241.913V250.883Z" fill="#CFD8DC"/>
<path opacity="0.1" d="M300.864 250.883L308.628 246.398V237.428L300.864 241.913V250.883Z" fill="black"/>
<path d="M236.754 204.961L205.698 187.037L213.462 182.552L244.518 200.476L236.754 204.961Z" fill="#CFD8DC"/>
<path opacity="0.4" d="M236.754 204.961L205.698 187.037L213.462 182.552L244.518 200.476L236.754 204.961Z" fill="white"/>
<path d="M205.698 195.992L228.99 218.401L236.754 204.961L205.698 187.037V195.992Z" fill="#CFD8DC"/>
<path d="M272 213.078C270.508 211.437 268.79 210.016 266.898 208.858L241.665 194.286C240.838 193.843 239.887 193.687 238.961 193.841C238.036 193.995 237.187 194.452 236.548 195.139L233.122 199.036C231.729 200.751 230.617 202.676 229.828 204.741L224.3 220.813C224.016 221.707 224.041 222.671 224.368 223.55C224.696 224.429 225.308 225.174 226.108 225.665L251.341 240.237C252.251 240.704 253.259 240.948 254.282 240.948C255.304 240.948 256.312 240.704 257.222 240.237L259.163 239.105C261.015 237.936 262.583 236.369 263.751 234.517L268.162 226.885C269.331 225.034 270.898 223.466 272.75 222.298L277.603 219.504L272 213.078Z" fill="#CFD8DC"/>
<path opacity="0.1" d="M272 213.078C270.508 211.437 268.79 210.016 266.898 208.858L241.665 194.286C240.838 193.843 239.887 193.687 238.961 193.841C238.036 193.995 237.187 194.452 236.548 195.139L233.122 199.036C231.729 200.751 230.617 202.676 229.828 204.741L224.3 220.813C224.016 221.707 224.041 222.671 224.368 223.55C224.696 224.429 225.308 225.174 226.108 225.665L251.341 240.237C252.251 240.704 253.259 240.948 254.282 240.948C255.304 240.948 256.312 240.704 257.222 240.237L259.163 239.105C261.015 237.936 262.583 236.369 263.751 234.517L268.162 226.885C269.331 225.034 270.898 223.466 272.75 222.298L277.603 219.504L272 213.078Z" fill="black"/>
<path d="M264.236 216.96L267.603 213.078C267.892 212.779 268.107 212.416 268.23 212.019C268.354 211.621 268.382 211.201 268.313 210.79C268.245 210.38 268.081 209.991 267.835 209.656C267.589 209.32 267.268 209.047 266.897 208.858L241.665 194.286C240.837 193.843 239.886 193.687 238.961 193.841C238.035 193.995 237.186 194.452 236.547 195.139L233.121 199.036C232.836 199.337 232.624 199.701 232.504 200.099C232.383 200.496 232.357 200.916 232.427 201.326C232.497 201.735 232.661 202.123 232.907 202.458C233.152 202.793 233.472 203.066 233.842 203.256L259.074 217.828C259.907 218.282 260.869 218.444 261.805 218.287C262.741 218.129 263.597 217.662 264.236 216.96Z" fill="#CFD8DC"/>
<path d="M260.942 222.68L255.384 238.737C255.264 239.134 255.053 239.497 254.768 239.798C254.484 240.099 254.133 240.33 253.744 240.473C253.355 240.616 252.938 240.666 252.526 240.62C252.114 240.574 251.718 240.432 251.37 240.207L226.137 225.709C225.338 225.218 224.725 224.473 224.398 223.594C224.07 222.715 224.046 221.751 224.329 220.856L229.887 204.785C230.007 204.388 230.218 204.025 230.503 203.723C230.788 203.422 231.138 203.191 231.528 203.049C231.917 202.906 232.334 202.856 232.746 202.902C233.158 202.948 233.553 203.089 233.901 203.314L259.134 217.886C259.918 218.378 260.519 219.113 260.845 219.978C261.172 220.844 261.206 221.793 260.942 222.68Z" fill="#455A64"/>
<path d="M252.708 237.914L227.475 223.342C227.223 223.157 227.03 222.903 226.92 222.61C226.811 222.318 226.789 222 226.858 221.695L232.431 205.623C232.435 205.589 232.435 205.554 232.431 205.52L257.766 220.151C258.022 220.332 258.216 220.586 258.324 220.88C258.432 221.174 258.447 221.494 258.369 221.798L252.811 237.855C252.816 237.884 252.816 237.914 252.811 237.943L252.708 237.914Z" fill="#EBEBEB"/>
<path d="M233.607 208.196L228.945 221.945L251.502 235.179L252.457 232.62C252.457 232.62 240.179 226.4 236.753 221.783C233.327 217.166 233.607 208.196 233.607 208.196Z" fill="#FAFAFA"/>
<path d="M222.697 192.375C222.409 192.374 222.129 192.281 221.899 192.108C221.668 191.936 221.499 191.694 221.417 191.419L217.476 178.655L198.846 167.907C198.551 167.739 198.33 167.466 198.229 167.142L193.42 151.511C193.353 151.182 193.41 150.839 193.581 150.55C193.752 150.261 194.025 150.045 194.346 149.946C194.668 149.847 195.014 149.871 195.319 150.014C195.623 150.156 195.864 150.407 195.994 150.717L200.684 165.848L219.315 176.597C219.61 176.764 219.831 177.037 219.932 177.361L224.02 190.595C224.072 190.763 224.091 190.94 224.075 191.115C224.059 191.29 224.008 191.461 223.926 191.616C223.844 191.772 223.733 191.91 223.597 192.023C223.462 192.135 223.306 192.22 223.138 192.272C222.998 192.333 222.849 192.368 222.697 192.375Z" fill="#E0E0E0"/>
<path d="M202.846 141.777L193.42 136.366C193.066 136.105 192.648 135.946 192.21 135.904C191.772 135.863 191.332 135.941 190.935 136.131C190.479 136.41 188.627 137.425 188.141 137.748C187.812 138.008 187.553 138.345 187.389 138.731C187.225 139.116 187.16 139.537 187.2 139.954V144.498C187.269 145.709 187.621 146.887 188.229 147.937C188.837 148.987 189.683 149.879 190.7 150.541L200.081 155.952C200.428 156.208 200.837 156.367 201.266 156.414C201.695 156.46 202.128 156.392 202.522 156.217L205.272 154.629C205.629 154.377 205.913 154.035 206.094 153.637C206.275 153.238 206.347 152.799 206.301 152.364V147.777C206.232 146.577 205.883 145.409 205.284 144.368C204.684 143.326 203.849 142.439 202.846 141.777Z" fill="#E0E0E0"/>
<path d="M190.729 150.541L200.11 155.952C202.037 157.07 203.595 156.173 203.595 153.938V149.409C203.533 148.198 203.185 147.019 202.579 145.968C201.973 144.918 201.127 144.026 200.11 143.365L190.729 137.939C188.803 136.822 187.229 137.733 187.229 139.954V144.497C187.298 145.709 187.65 146.887 188.258 147.937C188.866 148.986 189.713 149.879 190.729 150.541Z" fill="#F0F0F0"/>
<path d="M244.724 222.945C244.649 223.245 244.505 223.524 244.302 223.758C244.1 223.992 243.845 224.176 243.559 224.293C243.272 224.41 242.962 224.459 242.654 224.434C242.345 224.409 242.047 224.312 241.783 224.151C241.199 223.774 240.758 223.214 240.529 222.559C240.3 221.904 240.296 221.191 240.518 220.533C240.596 220.235 240.742 219.958 240.944 219.726C241.147 219.493 241.401 219.311 241.687 219.194C241.972 219.077 242.281 219.028 242.589 219.051C242.896 219.075 243.194 219.169 243.459 219.328C244.043 219.704 244.484 220.264 244.713 220.919C244.942 221.574 244.946 222.287 244.724 222.945Z" fill="#E0E0E0"/>
<path d="M317.422 252.794L318.73 250.545L305.849 243.09C305.749 243.03 305.635 242.999 305.518 242.999C305.402 242.999 305.288 243.03 305.188 243.09C304.918 243.265 304.694 243.502 304.533 243.78C304.372 244.059 304.279 244.371 304.261 244.692C304.252 244.805 304.271 244.918 304.317 245.021C304.363 245.124 304.435 245.213 304.526 245.28L317.422 252.794Z" fill="#F0F0F0"/>
<path d="M317.157 252.177C317.157 252.765 317.569 253 318.084 252.706C318.352 252.529 318.575 252.292 318.736 252.014C318.896 251.736 318.99 251.424 319.01 251.103C319.01 250.515 318.584 250.28 318.084 250.574C317.814 250.749 317.59 250.986 317.429 251.264C317.268 251.543 317.175 251.855 317.157 252.177Z" fill="#E0E0E0"/>
<path d="M331.832 265.131L336.64 256.838L316.334 245.075C315.947 244.883 315.515 244.801 315.084 244.837C314.654 244.874 314.242 245.027 313.893 245.281C312.908 245.928 312.089 246.797 311.502 247.819C310.914 248.841 310.575 249.986 310.511 251.162C310.472 251.571 310.538 251.982 310.703 252.358C310.868 252.733 311.125 253.061 311.452 253.309L331.832 265.131Z" fill="#455A64"/>
<path d="M330.847 262.94C330.847 265.102 332.317 265.984 334.243 264.896C335.231 264.251 336.051 263.383 336.639 262.36C337.227 261.338 337.565 260.192 337.625 259.014C337.625 256.853 336.155 255.971 334.243 257.059C333.252 257.7 332.427 258.568 331.836 259.59C331.246 260.613 330.907 261.761 330.847 262.94Z" fill="#263238"/>
<path d="M330.846 235.429C328.685 237.428 321.773 238.737 316.862 242.501C311.951 246.266 310.304 256.015 312.701 260.147C315.098 264.279 324.317 268.69 328.023 267.734C331.728 266.778 331.831 265.146 331.831 265.146L328.89 263.499C328.89 263.499 326.832 254.294 332.684 254.588L336.61 256.853L341.021 250.898L330.846 235.429Z" fill="#FFB573"/>
<path d="M330.45 243.354C330.213 243.355 329.98 243.294 329.774 243.178L298.292 225.003L294.88 232.267C294.804 232.426 294.697 232.569 294.566 232.687C294.434 232.805 294.281 232.896 294.114 232.955C293.948 233.013 293.771 233.039 293.595 233.029C293.418 233.02 293.246 232.976 293.086 232.899C292.927 232.823 292.784 232.716 292.666 232.585C292.548 232.453 292.457 232.3 292.399 232.133C292.34 231.967 292.315 231.79 292.324 231.614C292.334 231.438 292.378 231.265 292.454 231.105L296.542 222.548C296.622 222.38 296.736 222.232 296.878 222.112C297.021 221.993 297.187 221.906 297.365 221.856C297.54 221.799 297.725 221.78 297.908 221.8C298.09 221.82 298.266 221.88 298.424 221.974L329.906 240.149L333.376 232.899C333.53 232.578 333.806 232.33 334.142 232.212C334.479 232.093 334.848 232.113 335.17 232.267C335.492 232.421 335.739 232.697 335.858 233.033C335.976 233.37 335.956 233.739 335.802 234.061L331.641 242.619C331.56 242.783 331.446 242.928 331.307 243.047C331.168 243.166 331.007 243.255 330.832 243.31C330.708 243.345 330.579 243.359 330.45 243.354Z" fill="#E0E0E0"/>
<path d="M341.934 222.092L332.553 216.666C332.197 216.409 331.779 216.253 331.342 216.211C330.905 216.17 330.465 216.246 330.068 216.431C329.597 216.71 327.744 217.724 327.259 218.048C326.935 218.311 326.68 218.649 326.519 219.034C326.357 219.419 326.293 219.838 326.333 220.254V224.797C326.398 226.007 326.748 227.185 327.354 228.235C327.959 229.285 328.803 230.178 329.818 230.841L339.199 236.267C339.551 236.519 339.963 236.674 340.394 236.718C340.824 236.762 341.259 236.692 341.655 236.517C342.14 236.252 343.919 235.208 344.39 234.929C344.751 234.684 345.038 234.344 345.219 233.948C345.401 233.551 345.47 233.112 345.419 232.679V228.135C345.357 226.924 345.008 225.745 344.403 224.695C343.797 223.644 342.951 222.752 341.934 222.092Z" fill="#E0E0E0"/>
<path d="M329.846 230.841L339.228 236.267C341.169 237.37 342.727 236.473 342.727 234.252V229.709C342.661 228.497 342.31 227.318 341.701 226.268C341.093 225.218 340.246 224.326 339.228 223.665L329.846 218.239C327.92 217.137 326.361 218.034 326.361 220.254V224.798C326.427 226.008 326.777 227.186 327.382 228.235C327.988 229.285 328.832 230.178 329.846 230.841Z" fill="#F0F0F0"/>
<path d="M477.493 165.966C477.493 165.289 477.198 126.926 483.168 109.266C489.138 91.606 497.873 87.3418 503.357 98.3112C508.842 109.281 509.107 143.233 506.504 158.334C503.902 173.435 477.493 165.966 477.493 165.966Z" fill="#F0997A"/>
<g opacity="0.8">
<path opacity="0.8" d="M500.549 100.576L499.813 101.149C499.328 101.502 498.652 102.002 497.843 102.62L496.534 103.517C496.064 103.811 495.608 104.178 495.064 104.487L492.02 106.604L490.476 107.707C489.976 108.075 489.462 108.428 489.006 108.795L487.609 109.825C487.183 110.163 486.756 110.472 486.344 110.766C485.58 111.369 484.874 111.824 484.403 112.236C483.933 112.648 483.609 112.751 483.609 112.751L483.992 111.898C484.344 111.15 484.757 110.432 485.227 109.751C485.521 109.339 485.844 108.884 486.227 108.428C486.609 107.972 486.991 107.501 487.462 107.06C487.932 106.619 488.374 106.134 488.932 105.722C489.491 105.31 489.991 104.884 490.535 104.472C491.079 104.061 491.667 103.693 492.255 103.37C492.844 103.046 493.432 102.752 494.005 102.473C495.059 101.979 496.151 101.571 497.27 101.252C498.334 100.906 499.434 100.679 500.549 100.576Z" fill="#FFBDA7"/>
</g>
<g opacity="0.8">
<path opacity="0.8" d="M502.564 110.619C502.564 110.619 502.24 110.913 501.637 111.354C501.034 111.795 500.255 112.442 499.255 113.192C497.299 114.662 494.653 116.544 492.006 118.383L484.654 123.382L482.169 125.058C481.566 125.485 481.184 125.705 481.184 125.705C481.326 125.334 481.487 124.971 481.669 124.617C481.857 124.208 482.079 123.814 482.331 123.441C482.631 122.933 482.96 122.442 483.316 121.97C485.217 119.502 487.501 117.352 490.08 115.603C492.632 113.832 495.425 112.436 498.373 111.457C499.333 111.136 500.316 110.891 501.314 110.722C502.211 110.633 502.564 110.619 502.564 110.619Z" fill="#FFBDA7"/>
</g>
<g opacity="0.8">
<path opacity="0.8" d="M502.034 123.367C502.034 123.367 501.711 123.676 501.137 124.161C500.564 124.646 499.785 125.323 498.814 126.117C496.903 127.676 494.3 129.587 491.668 131.41L489.683 132.749C489.05 133.204 488.374 133.601 487.756 134.028L484.272 136.278L481.698 137.851C481.066 138.248 480.654 138.454 480.654 138.454C480.782 138.069 480.93 137.691 481.095 137.322C481.272 136.9 481.478 136.493 481.713 136.101C481.999 135.594 482.313 135.103 482.654 134.631C484.501 132.091 486.774 129.892 489.374 128.131C491.937 126.35 494.766 124.985 497.755 124.088C498.76 123.793 499.788 123.587 500.829 123.47C501.228 123.412 501.631 123.378 502.034 123.367Z" fill="#FFBDA7"/>
</g>
<g opacity="0.8">
<path opacity="0.8" d="M502.034 136.233C502.034 136.233 501.711 136.557 501.137 137.042C500.564 137.527 499.785 138.204 498.814 138.983C496.903 140.542 494.3 142.453 491.668 144.277L489.683 145.615C489.05 146.085 488.374 146.482 487.756 146.909L484.272 149.144L481.698 150.717C481.066 151.099 480.654 151.305 480.654 151.305C480.654 151.305 480.787 150.894 481.095 150.188C481.274 149.763 481.481 149.351 481.713 148.953C481.998 148.445 482.313 147.954 482.654 147.482C484.497 144.939 486.771 142.74 489.374 140.983C491.937 139.201 494.766 137.836 497.755 136.939C498.762 136.648 499.789 136.437 500.829 136.307C501.593 136.233 502.034 136.233 502.034 136.233Z" fill="#FFBDA7"/>
</g>
<path d="M474.846 214.46L476.625 212.99L483.095 245.663C480.61 246.201 478.028 246.095 475.596 245.354L461.627 240.575C456.696 238.584 452.639 234.897 450.187 230.179L436.791 201.667L474.846 214.46Z" fill="#B16668"/>
<path opacity="0.5" d="M474.846 214.46L476.625 212.99L483.095 245.663C480.61 246.201 478.028 246.095 475.596 245.354L461.627 240.575C456.696 238.584 452.639 234.897 450.187 230.179L436.791 201.667L474.846 214.46Z" fill="#9A4A4D"/>
<path d="M476.522 214.74L482.61 245.751C485.112 245.308 487.46 244.235 489.433 242.634L530.296 206.947C532.142 205.161 533.577 202.993 534.499 200.596C535.421 198.198 535.808 195.629 535.634 193.066L532.355 166.245C532.404 167.12 532.23 167.994 531.849 168.783C531.469 169.573 530.894 170.253 530.178 170.759L483.345 211.623C481.372 213.224 479.024 214.297 476.522 214.74Z" fill="#B16668"/>
<path d="M531.472 161.716L528.178 162.363L499.637 152.599C497.199 151.908 494.632 151.804 492.145 152.295C489.659 152.785 487.323 153.857 485.33 155.423L439.144 195.948L435.688 196.624L436.556 201.035C436.811 201.911 437.296 202.703 437.961 203.329C438.625 203.955 439.445 204.391 440.335 204.594L469.023 214.416C471.463 215.103 474.031 215.207 476.519 214.719C479.007 214.231 481.345 213.165 483.345 211.608L530.149 170.759C530.864 170.252 531.439 169.573 531.82 168.783C532.2 167.993 532.374 167.12 532.325 166.245C532.32 166.211 532.32 166.176 532.325 166.142L531.472 161.716Z" fill="#9A4A4D"/>
<path d="M462.259 170.554L457.774 174.48L437.85 191.978C434.35 195.051 435.086 198.742 439.482 200.242L468.17 210.079C470.604 210.813 473.184 210.919 475.669 210.388C478.167 209.932 480.512 208.86 482.492 207.27L502.505 189.802L507.004 185.861L462.259 170.554Z" fill="#B16668"/>
<path d="M531.501 161.893C531.552 162.766 531.379 163.638 530.998 164.425C530.617 165.213 530.041 165.89 529.325 166.392L507.004 185.861L462.259 170.554L484.477 151.056C486.467 149.49 488.8 148.419 491.285 147.931C493.77 147.442 496.335 147.551 498.77 148.247L527.708 158.07C528.638 158.28 529.489 158.751 530.161 159.429C530.833 160.106 531.298 160.961 531.501 161.893Z" fill="#9A4A4D"/>
<path d="M525.649 169.598C525.914 169.377 528.193 159.481 530.06 152.761C533.619 140.351 525.531 136.116 526.369 132.499C527.693 126.867 530.06 117.427 530.06 117.427L520.841 114.692C520.841 114.692 518.076 125.794 516.885 129.955C515.915 133.41 506.592 131.249 502.975 144.659C499.358 158.07 495.432 168.877 495.432 168.877L506.945 185.802L525.649 169.598Z" fill="#CFD8DC"/>
<path opacity="0.45" d="M525.649 169.598C525.914 169.377 528.193 159.481 530.06 152.761C533.619 140.351 525.531 136.116 526.369 132.499C527.693 126.867 530.06 117.427 530.06 117.427L520.841 114.692C520.841 114.692 518.076 125.794 516.885 129.955C515.915 133.41 506.592 131.249 502.975 144.659C499.358 158.07 495.432 168.877 495.432 168.877L506.945 185.802L525.649 169.598Z" fill="black"/>
<path d="M530.149 152.761C530.386 151.929 530.578 151.085 530.722 150.232C529.355 147.438 523.753 144.086 515.753 142.527L510.475 160.848C516.282 161.609 521.749 164.023 526.223 167.804C527.473 163.039 529.017 156.599 530.149 152.761Z" fill="#EBEBEB"/>
<path d="M520.209 117.427C520.591 115.956 529.884 118.471 529.502 119.897L530.973 113.589C531.722 110.986 522.371 108.295 521.621 110.898L520.209 117.427Z" fill="#37474F"/>
<path d="M522.458 155.834C522.618 156.668 522.61 157.525 522.436 158.355C522.262 159.185 521.924 159.973 521.444 160.672L507.725 189.537L462.994 174.244L476.596 145.365C476.968 144.416 477.525 143.551 478.235 142.819C478.945 142.087 479.793 141.504 480.73 141.103C481.668 140.702 482.675 140.492 483.695 140.484C484.714 140.476 485.725 140.67 486.668 141.057L521.738 152.188C521.738 152.188 522.135 154.143 522.458 155.834Z" fill="#9A4A4D"/>
<path d="M521.738 152.188C521.897 153.021 521.889 153.878 521.715 154.709C521.541 155.539 521.204 156.327 520.723 157.026L507.004 185.89L462.259 170.583L475.875 141.704C476.247 140.755 476.805 139.889 477.514 139.158C478.224 138.426 479.072 137.843 480.01 137.442C480.947 137.041 481.954 136.83 482.974 136.823C483.993 136.815 485.004 137.009 485.947 137.395L517.959 148.424C518.879 148.632 519.722 149.096 520.39 149.762C521.059 150.428 521.526 151.269 521.738 152.188Z" fill="#B16668"/>
<path d="M507.034 185.876L502.52 189.802H502.505L457.774 174.48L462.259 170.554L507.004 185.861L507.034 185.876Z" fill="#9A4A4D"/>
<path d="M446.275 143.777L457.774 174.48L462.259 170.554L451.231 140.219L446.275 143.777Z" fill="#9A4A4D"/>
<path d="M472.023 142.41L451.246 140.219C451.246 140.219 423.072 160.672 415.955 164.51C414.191 165.04 411.926 163.466 410.191 162.819C405.368 161.025 402.089 161.349 397.354 160.834C393.664 160.452 391.796 159.114 391.326 159.908C390.87 160.881 390.8 161.992 391.13 163.015C391.46 164.038 392.166 164.898 393.105 165.422C395.128 166.62 397.285 167.577 399.531 168.275C395.763 168.814 391.952 169.002 388.149 168.833C378.489 168.569 372.445 173.347 382.106 180.994C388.12 185.758 395.56 187.934 410.265 184.42C417.087 182.788 451.363 164.481 451.363 164.481C458.715 160.834 465.685 156.673 469.464 152.394C473.243 148.115 473.552 144.307 472.023 142.41Z" fill="#F2DAC5"/>
<path d="M443.055 76.9019C450.201 77.0636 455.466 79.1957 458.745 86.5626C462.024 93.9294 472.728 138.866 473.934 144.953C475.14 151.041 463.435 157.29 463.435 157.29L451.245 140.218L441.923 108.928C441.923 108.928 433.424 84.4599 443.055 76.9019Z" fill="#F2DAC5"/>
<path d="M507.004 185.861C507.004 185.861 490.903 158.276 484.565 148.188C478.228 138.101 465.141 125.206 450.157 134.822C448.661 135.729 447.483 137.076 446.785 138.68C446.087 140.284 445.904 142.065 446.261 143.777L451.231 140.219C458.083 137.484 469.008 135.807 479.639 152.659C491.079 170.701 502.49 189.802 502.49 189.802L507.004 185.861Z" fill="#9A4A4D"/>
</svg>
