<svg width="640" height="640" viewBox="0 0 640 640" fill="none" xmlns="http://www.w3.org/2000/svg">
<path d="M640 489.472H0V489.792H640V489.472Z" fill="#EBEBEB"/>
<path d="M210.675 509.209H168.281V509.529H210.675V509.209Z" fill="#EBEBEB"/>
<path d="M331.316 505.741H320.192V506.061H331.316V505.741Z" fill="#EBEBEB"/>
<path d="M91.7116 500.339H67.1484V500.659H91.7116V500.339Z" fill="#EBEBEB"/>
<path d="M532.199 498.188H498.816V498.508H532.199V498.188Z" fill="#EBEBEB"/>
<path d="M487.411 498.188H457.408V498.508H487.411V498.188Z" fill="#EBEBEB"/>
<path d="M575.885 513.549H455.975V513.869H575.885V513.549Z" fill="#EBEBEB"/>
<path d="M303.36 432.384H56.2052C54.269 432.381 52.4133 431.609 51.0454 430.239C49.6775 428.868 48.9092 427.011 48.9092 425.075V77.6447C48.926 75.7196 49.7017 73.8789 51.0678 72.5224C52.4339 71.1659 54.28 70.4032 56.2052 70.3999H303.36C305.299 70.3999 307.158 71.1699 308.529 72.5406C309.899 73.9113 310.669 75.7703 310.669 77.7087V425.075C310.669 427.014 309.899 428.873 308.529 430.243C307.158 431.614 305.299 432.384 303.36 432.384ZM56.2052 70.6559C54.3539 70.6593 52.5795 71.3971 51.2716 72.7074C49.9637 74.0177 49.2292 75.7934 49.2292 77.6447V425.075C49.2292 426.926 49.9637 428.702 51.2716 430.012C52.5795 431.323 54.3539 432.061 56.2052 432.064H303.36C305.213 432.061 306.989 431.323 308.298 430.013C309.608 428.703 310.346 426.928 310.349 425.075V77.6447C310.346 75.7922 309.608 74.0165 308.298 72.7066C306.989 71.3967 305.213 70.6593 303.36 70.6559H56.2052Z" fill="#EBEBEB"/>
<path d="M580.237 432.384H333.069C331.131 432.381 329.274 431.609 327.904 430.24C326.534 428.87 325.763 427.013 325.76 425.075V77.6447C325.78 75.7184 326.559 73.8778 327.927 72.5216C329.295 71.1655 331.142 70.4032 333.069 70.3999H580.237C582.16 70.4066 584.002 71.1708 585.366 72.5269C586.729 73.883 587.503 75.7218 587.52 77.6447V425.075C587.52 427.009 586.753 428.864 585.388 430.234C584.023 431.604 582.171 432.377 580.237 432.384ZM333.069 70.6559C331.216 70.6593 329.44 71.3967 328.13 72.7066C326.821 74.0165 326.083 75.7922 326.08 77.6447V425.075C326.083 426.928 326.821 428.703 328.13 430.013C329.44 431.323 331.216 432.061 333.069 432.064H580.237C582.089 432.061 583.865 431.323 585.175 430.013C586.485 428.703 587.222 426.928 587.225 425.075V77.6447C587.222 75.7922 586.485 74.0165 585.175 72.7066C583.865 71.3967 582.089 70.6593 580.237 70.6559H333.069Z" fill="#EBEBEB"/>
<path d="M407.808 485.658H437.952V353.766H407.808V485.658Z" fill="#F0F0F0"/>
<path d="M299.456 489.472H432.18V485.657H299.456V489.472Z" fill="#F0F0F0"/>
<path d="M407.808 353.766H293.657V485.657H407.808V353.766Z" fill="#F5F5F5"/>
<path d="M395.956 361.165H305.511V416.768H395.956V361.165Z" fill="#F0F0F0"/>
<path d="M395.956 422.656H305.511V478.259H395.956V422.656Z" fill="#F0F0F0"/>
<path d="M374.183 370.854H327.296C325.83 370.856 324.378 370.568 323.024 370.006C321.669 369.445 320.439 368.621 319.405 367.583C318.37 366.544 317.55 365.311 316.993 363.955C316.437 362.599 316.154 361.146 316.16 359.68H385.28C385.287 361.143 385.005 362.592 384.451 363.946C383.896 365.3 383.08 366.531 382.05 367.569C381.019 368.607 379.793 369.431 378.443 369.995C377.093 370.559 375.646 370.851 374.183 370.854Z" fill="#F5F5F5"/>
<path d="M374.182 432.345H327.296C324.346 432.345 321.517 431.173 319.431 429.087C317.345 427.001 316.173 424.172 316.173 421.222H385.293C385.293 424.17 384.123 426.997 382.039 429.083C379.956 431.169 377.13 432.342 374.182 432.345Z" fill="#F5F5F5"/>
<path d="M530.919 485.658H561.062V353.766H530.919V485.658Z" fill="#F0F0F0"/>
<path d="M422.553 489.472H555.276V485.657H422.553V489.472Z" fill="#F0F0F0"/>
<path d="M530.918 353.766H416.768V485.657H530.918V353.766Z" fill="#F5F5F5"/>
<path d="M519.066 361.165H428.621V416.768H519.066V361.165Z" fill="#F0F0F0"/>
<path d="M519.066 422.656H428.621V478.259H519.066V422.656Z" fill="#F0F0F0"/>
<path d="M497.28 370.854H450.394C447.444 370.854 444.614 369.682 442.528 367.596C440.442 365.51 439.271 362.681 439.271 359.731H508.391C508.391 362.679 507.22 365.506 505.137 367.592C503.054 369.677 500.228 370.851 497.28 370.854Z" fill="#F5F5F5"/>
<path d="M497.28 432.345H450.394C447.444 432.345 444.614 431.173 442.528 429.087C440.442 427.001 439.271 424.172 439.271 421.222H508.391C508.391 424.17 507.22 426.997 505.137 429.083C503.054 431.169 500.228 432.342 497.28 432.345Z" fill="#F5F5F5"/>
<path d="M142.618 176.563H194.253V116.877H142.618V176.563Z" fill="#E6E6E6"/>
<path d="M136.729 176.563H192.87V116.877H136.729V176.563Z" fill="#F5F5F5"/>
<path d="M188.16 171.865V121.587H141.427V171.865H188.16Z" fill="white"/>
<path d="M176.844 159.68V157.849C176.841 151.465 174.303 145.343 169.789 140.828C165.274 136.314 159.152 133.776 152.768 133.772V135.603C152.768 141.988 155.304 148.112 159.82 152.628C164.335 157.143 170.459 159.68 176.844 159.68Z" fill="#F5F5F5"/>
<path d="M366.899 289.216H561.075V107.584L366.899 107.584V289.216Z" fill="#E6E6E6"/>
<path d="M360.884 289.216H558.26V107.584L360.884 107.584V289.216Z" fill="#F0F0F0"/>
<path d="M366.899 295.693H561.075V289.216H366.899V295.693Z" fill="#E6E6E6"/>
<path d="M350.848 295.693H548.224V289.216H350.848V295.693Z" fill="#F0F0F0"/>
<path d="M549.824 279.462V117.337L369.293 117.337V279.462H549.824Z" fill="#FAFAFA"/>
<path d="M498.636 279.475L468.569 117.337H419.033L449.1 279.475H498.636Z" fill="white"/>
<path d="M545.933 224.46C546.104 224.447 546.263 224.367 546.375 224.238C546.488 224.109 546.545 223.94 546.535 223.769V123.686C546.535 123.527 546.471 123.373 546.358 123.261C546.246 123.148 546.093 123.084 545.933 123.084C545.773 123.084 545.62 123.148 545.508 123.261C545.395 123.373 545.331 123.527 545.331 123.686V223.769C545.321 223.94 545.378 224.109 545.49 224.238C545.603 224.367 545.762 224.447 545.933 224.46Z" fill="#F0F0F0"/>
<path d="M438.452 279.475L408.397 117.337H389.082L419.136 279.475H438.452Z" fill="white"/>
<path d="M370.368 279.462V117.337H369.293V279.462H370.368Z" fill="#E6E6E6"/>
<path opacity="0.4" d="M358.887 129.818H553.05L553.831 121.139H359.655L358.887 129.818Z" fill="#E6E6E6"/>
<path opacity="0.4" d="M358.887 139.814H553.05L553.831 131.123H359.655L358.887 139.814Z" fill="#E6E6E6"/>
<path opacity="0.4" d="M358.887 149.799H553.05L553.831 141.12H359.655L358.887 149.799Z" fill="#E6E6E6"/>
<path opacity="0.4" d="M358.887 159.795H553.05L553.831 151.104H359.655L358.887 159.795Z" fill="#E6E6E6"/>
<path opacity="0.4" d="M358.887 169.779H553.05L553.831 161.101H359.655L358.887 169.779Z" fill="#E6E6E6"/>
<path opacity="0.4" d="M358.887 179.776H553.05L553.831 171.084H359.655L358.887 179.776Z" fill="#E6E6E6"/>
<path opacity="0.4" d="M358.887 189.76H553.05L553.831 181.082H359.655L358.887 189.76Z" fill="#E6E6E6"/>
<path opacity="0.4" d="M358.887 199.757H553.05L553.831 191.065H359.655L358.887 199.757Z" fill="#E6E6E6"/>
<path opacity="0.4" d="M358.887 209.741H553.05L553.831 201.062H359.655L358.887 209.741Z" fill="#E6E6E6"/>
<path d="M106.009 273.933H146.291V227.712H106.009V273.933Z" fill="#E6E6E6"/>
<path d="M101.453 273.933H144.935V227.712H101.453V273.933Z" fill="#F5F5F5"/>
<path d="M141.299 270.285V231.347H105.1V270.285H141.299Z" fill="white"/>
<path d="M132.518 251.533V250.112C132.518 248.887 132.277 247.674 131.808 246.543C131.339 245.412 130.651 244.384 129.785 243.518C128.918 242.653 127.889 241.967 126.757 241.499C125.625 241.032 124.412 240.792 123.187 240.793C120.725 240.807 118.368 241.795 116.631 243.541C114.895 245.287 113.92 247.649 113.92 250.112V251.533C113.92 254.004 114.902 256.374 116.649 258.122C118.397 259.869 120.767 260.851 123.238 260.851C125.703 260.841 128.063 259.855 129.803 258.108C131.542 256.362 132.518 253.997 132.518 251.533Z" fill="#F5F5F5"/>
<path d="M206.476 257.37H261.785V193.651H206.476V257.37Z" fill="#E6E6E6"/>
<path d="M200.205 257.37H260.135V193.651H200.205V257.37Z" fill="#F5F5F5"/>
<path d="M255.117 252.365V198.694H205.223V252.365H255.117Z" fill="white"/>
<path d="M232.256 215.565L241.728 231.974C241.94 232.34 242.051 232.756 242.051 233.178C242.051 233.601 241.939 234.016 241.728 234.382C241.516 234.748 241.212 235.051 240.846 235.263C240.48 235.474 240.064 235.584 239.642 235.584H220.698C220.275 235.584 219.86 235.474 219.494 235.263C219.128 235.051 218.824 234.748 218.612 234.382C218.401 234.016 218.289 233.601 218.289 233.178C218.289 232.756 218.4 232.34 218.611 231.974L228.083 215.565C228.297 215.201 228.602 214.9 228.968 214.69C229.334 214.48 229.748 214.37 230.17 214.37C230.592 214.37 231.006 214.48 231.372 214.69C231.738 214.9 232.043 215.201 232.256 215.565Z" fill="#F5F5F5"/>
<path d="M115.226 489.459H145.626V393.613H115.226L115.226 489.459Z" fill="#E6E6E6"/>
<path d="M120.998 489.472H115.226V473.049H127.053L120.998 489.472Z" fill="#F0F0F0"/>
<path d="M228.826 489.459H259.226V393.613H228.826V489.459Z" fill="#E6E6E6"/>
<path d="M115.239 479.386H233.869V393.613H115.239L115.239 479.386Z" fill="#F0F0F0"/>
<path d="M119.706 399.002V458.867H172.608V399.002H119.706Z" fill="#E6E6E6"/>
<path d="M176.486 399.002V458.867H229.389V399.002H176.486Z" fill="#E6E6E6"/>
<path d="M197.709 403.597H208.167C210.413 403.603 212.637 403.153 214.703 402.273C216.769 401.392 218.635 400.101 220.186 398.477H185.626C187.184 400.11 189.059 401.407 191.138 402.287C193.216 403.168 195.452 403.614 197.709 403.597Z" fill="#F0F0F0"/>
<path d="M140.391 403.597H150.861C153.107 403.603 155.331 403.152 157.397 402.272C159.463 401.391 161.329 400.1 162.88 398.477H128.32C129.877 400.107 131.751 401.402 133.827 402.283C135.902 403.163 138.136 403.61 140.391 403.597Z" fill="#F0F0F0"/>
<path d="M228.096 489.472H233.869V473.049H222.042L228.096 489.472Z" fill="#F0F0F0"/>
<path d="M196.8 380.775C196.797 382.079 197.182 383.355 197.905 384.44C198.627 385.526 199.656 386.373 200.86 386.874C202.065 387.375 203.39 387.507 204.67 387.254C205.95 387.001 207.125 386.374 208.049 385.453C208.972 384.532 209.601 383.357 209.856 382.078C210.112 380.799 209.982 379.473 209.483 378.268C208.985 377.062 208.14 376.032 207.055 375.307C205.971 374.582 204.696 374.195 203.392 374.195C201.647 374.199 199.974 374.893 198.739 376.125C197.504 377.358 196.807 379.029 196.8 380.775Z" fill="#E0E0E0"/>
<path d="M206.374 383.078C210.008 383.078 212.953 380.133 212.953 376.499C212.953 372.866 210.008 369.92 206.374 369.92C202.741 369.92 199.795 372.866 199.795 376.499C199.795 380.133 202.741 383.078 206.374 383.078Z" fill="#E0E0E0"/>
<path d="M163.84 381.837C163.84 383.138 164.226 384.41 164.949 385.492C165.672 386.574 166.699 387.417 167.901 387.915C169.103 388.413 170.426 388.543 171.703 388.289C172.979 388.035 174.151 387.409 175.071 386.489C175.991 385.569 176.618 384.396 176.872 383.12C177.126 381.844 176.995 380.521 176.497 379.319C175.999 378.117 175.156 377.089 174.074 376.366C172.992 375.643 171.72 375.257 170.419 375.257C168.674 375.257 167.001 375.95 165.767 377.184C164.533 378.418 163.84 380.092 163.84 381.837Z" fill="#E0E0E0"/>
<path d="M215.18 385.651C219.641 385.651 223.257 382.035 223.257 377.574C223.257 373.114 219.641 369.498 215.18 369.498C210.72 369.498 207.104 373.114 207.104 377.574C207.104 382.035 210.72 385.651 215.18 385.651Z" fill="#E0E0E0"/>
<path d="M191.104 370.138C191.101 371.736 191.573 373.299 192.458 374.628C193.344 375.958 194.605 376.996 196.081 377.609C197.556 378.222 199.181 378.384 200.748 378.074C202.316 377.763 203.756 376.995 204.887 375.866C206.018 374.737 206.788 373.298 207.101 371.731C207.414 370.164 207.254 368.539 206.644 367.063C206.033 365.586 204.997 364.324 203.669 363.436C202.34 362.548 200.778 362.074 199.18 362.074C197.041 362.077 194.991 362.927 193.477 364.439C191.964 365.95 191.11 367.999 191.104 370.138Z" fill="#E0E0E0"/>
<path d="M178.304 372.198C178.301 373.796 178.773 375.359 179.659 376.689C180.545 378.019 181.805 379.056 183.281 379.669C184.756 380.283 186.381 380.444 187.948 380.134C189.516 379.824 190.956 379.056 192.087 377.927C193.218 376.798 193.989 375.359 194.301 373.791C194.614 372.224 194.455 370.6 193.844 369.123C193.233 367.647 192.198 366.384 190.869 365.496C189.541 364.608 187.979 364.134 186.381 364.134C184.241 364.134 182.188 364.983 180.674 366.495C179.16 368.007 178.307 370.058 178.304 372.198Z" fill="#E0E0E0"/>
<path d="M183.719 378.714C183.719 380.233 184.169 381.718 185.013 382.98C185.857 384.243 187.056 385.228 188.46 385.809C189.863 386.39 191.407 386.542 192.897 386.246C194.387 385.95 195.755 385.218 196.829 384.144C197.903 383.07 198.635 381.702 198.931 380.212C199.228 378.722 199.075 377.178 198.494 375.775C197.913 374.371 196.928 373.172 195.666 372.328C194.403 371.484 192.918 371.034 191.399 371.034C189.362 371.034 187.408 371.843 185.968 373.283C184.528 374.723 183.719 376.677 183.719 378.714Z" fill="#E0E0E0"/>
<path d="M170.355 378.214C170.355 379.855 170.842 381.458 171.753 382.822C172.665 384.186 173.96 385.25 175.476 385.877C176.991 386.505 178.659 386.669 180.268 386.349C181.877 386.029 183.355 385.239 184.515 384.079C185.675 382.919 186.465 381.441 186.785 379.832C187.105 378.223 186.941 376.556 186.313 375.04C185.685 373.525 184.622 372.229 183.258 371.318C181.894 370.406 180.29 369.92 178.65 369.92C176.45 369.92 174.34 370.794 172.785 372.349C171.229 373.905 170.355 376.015 170.355 378.214Z" fill="#E0E0E0"/>
<path d="M228.058 380.774C228.058 380.774 227.162 393.574 192.512 393.574C157.863 393.574 156.954 380.774 156.954 380.774H228.058Z" fill="#F0F0F0"/>
<path d="M320 547.277C457.065 547.277 568.179 540.79 568.179 532.787C568.179 524.785 457.065 518.298 320 518.298C182.934 518.298 71.8203 524.785 71.8203 532.787C71.8203 540.79 182.934 547.277 320 547.277Z" fill="#F5F5F5"/>
<path d="M393.945 153.472C392.905 150.033 391.524 146.705 389.824 143.539L392.384 135.155L375.833 118.592L367.449 121.152C364.283 119.452 360.956 118.071 357.517 117.031L353.395 109.351H329.971L325.862 117.031C322.422 118.069 319.094 119.45 315.929 121.152L307.545 118.592L290.982 135.155L293.542 143.539C291.852 146.708 290.476 150.035 289.433 153.472L281.689 157.594V181.018L289.433 185.127C290.473 188.565 291.849 191.892 293.542 195.059L290.982 203.443L307.545 220.007L315.929 217.447C319.097 219.139 322.424 220.516 325.862 221.555L329.971 229.235H353.395L357.517 221.555C360.954 220.513 364.281 219.137 367.449 217.447L375.833 220.007L392.397 203.443L389.837 195.059C391.539 191.895 392.92 188.567 393.958 185.127L401.702 181.018V157.594L393.945 153.472ZM341.683 202.573C335.101 202.573 328.667 200.621 323.194 196.964C317.721 193.307 313.455 188.11 310.936 182.029C308.417 175.948 307.758 169.256 309.042 162.8C310.327 156.345 313.496 150.415 318.151 145.76C322.805 141.106 328.735 137.937 335.19 136.652C341.646 135.368 348.338 136.027 354.419 138.546C360.5 141.065 365.697 145.331 369.354 150.804C373.011 156.276 374.963 162.711 374.963 169.293C374.963 178.119 371.457 186.584 365.216 192.825C358.974 199.067 350.509 202.573 341.683 202.573Z" fill="#FF8E4E"/>
<path opacity="0.2" d="M393.945 153.472C392.905 150.033 391.524 146.705 389.824 143.539L392.384 135.155L375.833 118.592L367.449 121.152C364.283 119.452 360.956 118.071 357.517 117.031L353.395 109.351H329.971L325.862 117.031C322.422 118.069 319.094 119.45 315.929 121.152L307.545 118.592L290.982 135.155L293.542 143.539C291.852 146.708 290.476 150.035 289.433 153.472L281.689 157.594V181.018L289.433 185.127C290.473 188.565 291.849 191.892 293.542 195.059L290.982 203.443L307.545 220.007L315.929 217.447C319.097 219.139 322.424 220.516 325.862 221.555L329.971 229.235H353.395L357.517 221.555C360.954 220.513 364.281 219.137 367.449 217.447L375.833 220.007L392.397 203.443L389.837 195.059C391.539 191.895 392.92 188.567 393.958 185.127L401.702 181.018V157.594L393.945 153.472ZM341.683 202.573C335.101 202.573 328.667 200.621 323.194 196.964C317.721 193.307 313.455 188.11 310.936 182.029C308.417 175.948 307.758 169.256 309.042 162.8C310.327 156.345 313.496 150.415 318.151 145.76C322.805 141.106 328.735 137.937 335.19 136.652C341.646 135.368 348.338 136.027 354.419 138.546C360.5 141.065 365.697 145.331 369.354 150.804C373.011 156.276 374.963 162.711 374.963 169.293C374.963 178.119 371.457 186.584 365.216 192.825C358.974 199.067 350.509 202.573 341.683 202.573Z" fill="white"/>
<path d="M341.683 158.272C339.501 158.272 337.368 158.919 335.553 160.131C333.739 161.344 332.324 163.067 331.489 165.083C330.654 167.099 330.436 169.318 330.861 171.458C331.287 173.598 332.338 175.564 333.881 177.108C335.424 178.651 337.39 179.701 339.53 180.127C341.671 180.553 343.889 180.334 345.905 179.499C347.922 178.664 349.645 177.25 350.857 175.436C352.07 173.621 352.717 171.488 352.717 169.306C352.717 166.379 351.554 163.573 349.485 161.504C347.416 159.434 344.609 158.272 341.683 158.272Z" fill="#FF8E4E"/>
<path d="M560.64 190.63C559.153 185.713 557.185 180.954 554.765 176.422L558.426 164.442L534.784 140.8L522.79 144.474C518.275 142.026 513.518 140.053 508.595 138.586L502.72 127.526H469.248L463.36 138.586C458.439 140.057 453.683 142.03 449.165 144.474L437.184 140.8L413.517 164.467L417.178 176.448C414.747 180.975 412.779 185.735 411.302 190.656L400.23 196.531V230.003L411.29 235.891C412.764 240.809 414.732 245.565 417.165 250.086L413.504 262.054L437.171 285.722L449.152 282.061C453.675 284.496 458.436 286.461 463.36 287.923L469.248 298.995H502.72L508.595 287.936C513.514 286.458 518.27 284.485 522.79 282.048L534.784 285.709L558.451 262.042L554.791 250.061C557.204 245.534 559.163 240.779 560.64 235.866L571.699 229.978V196.506L560.64 190.63ZM485.978 273.92C473.975 273.92 462.243 270.361 452.263 263.693C442.283 257.025 434.505 247.547 429.912 236.458C425.319 225.37 424.117 213.168 426.459 201.396C428.8 189.624 434.58 178.811 443.067 170.325C451.554 161.838 462.367 156.058 474.139 153.716C485.91 151.375 498.112 152.577 509.201 157.17C520.289 161.763 529.767 169.541 536.435 179.52C543.103 189.5 546.663 201.233 546.663 213.235C546.663 221.204 545.093 229.096 542.043 236.458C538.993 243.821 534.523 250.511 528.888 256.146C523.253 261.781 516.563 266.251 509.201 269.301C501.838 272.35 493.947 273.92 485.978 273.92Z" fill="#FF8E4E"/>
<path d="M485.978 161.062C475.657 161.065 465.568 164.128 456.988 169.864C448.408 175.599 441.721 183.751 437.773 193.286C433.826 202.822 432.794 213.315 434.809 223.437C436.824 233.559 441.795 242.856 449.094 250.153C456.393 257.45 465.691 262.419 475.814 264.432C485.937 266.444 496.429 265.41 505.964 261.46C515.499 257.51 523.648 250.821 529.382 242.24C535.116 233.658 538.176 223.569 538.176 213.248C538.159 199.411 532.654 186.145 522.868 176.362C513.082 166.578 499.815 161.076 485.978 161.062ZM485.978 258.483C477.03 258.486 468.283 255.835 460.843 250.866C453.402 245.897 447.602 238.833 444.177 230.568C440.751 222.302 439.853 213.207 441.597 204.431C443.341 195.655 447.648 187.594 453.974 181.267C460.3 174.939 468.36 170.629 477.135 168.883C485.91 167.137 495.006 168.032 503.273 171.455C511.539 174.878 518.604 180.676 523.576 188.115C528.547 195.555 531.2 204.301 531.2 213.248C531.186 225.239 526.418 236.735 517.94 245.215C509.463 253.695 497.968 258.466 485.978 258.483Z" fill="#FF8E4E"/>
<path opacity="0.2" d="M485.978 161.062C475.657 161.065 465.568 164.128 456.988 169.864C448.408 175.599 441.721 183.751 437.773 193.286C433.826 202.822 432.794 213.315 434.809 223.437C436.824 233.559 441.795 242.856 449.094 250.153C456.393 257.45 465.691 262.419 475.814 264.432C485.937 266.444 496.429 265.41 505.964 261.46C515.499 257.51 523.648 250.821 529.382 242.24C535.116 233.658 538.176 223.569 538.176 213.248C538.159 199.411 532.654 186.145 522.868 176.362C513.082 166.578 499.815 161.076 485.978 161.062ZM485.978 258.483C477.03 258.486 468.283 255.835 460.843 250.866C453.402 245.897 447.602 238.833 444.177 230.568C440.751 222.302 439.853 213.207 441.597 204.431C443.341 195.655 447.648 187.594 453.974 181.267C460.3 174.939 468.36 170.629 477.135 168.883C485.91 167.137 495.006 168.032 503.273 171.455C511.539 174.878 518.604 180.676 523.576 188.115C528.547 195.555 531.2 204.301 531.2 213.248C531.186 225.239 526.418 236.735 517.94 245.215C509.463 253.695 497.968 258.466 485.978 258.483Z" fill="black"/>
<path d="M366.08 302.285C365.74 302.285 365.415 302.15 365.175 301.91C364.935 301.67 364.8 301.345 364.8 301.005V298.445C364.8 298.106 364.935 297.78 365.175 297.54C365.415 297.3 365.74 297.165 366.08 297.165C366.419 297.165 366.745 297.3 366.985 297.54C367.225 297.78 367.36 298.106 367.36 298.445V301.005C367.36 301.345 367.225 301.67 366.985 301.91C366.745 302.15 366.419 302.285 366.08 302.285Z" fill="#FF8E4E"/>
<path d="M346.151 269.21C344.975 268.454 344.056 267.361 343.514 266.074C343.38 265.761 343.127 265.515 342.811 265.389C342.496 265.263 342.143 265.268 341.831 265.402C341.518 265.536 341.272 265.789 341.146 266.104C341.02 266.42 341.025 266.773 341.159 267.085C341.911 268.833 343.162 270.32 344.755 271.36C344.961 271.493 345.201 271.564 345.447 271.565C345.724 271.567 345.994 271.479 346.217 271.314C346.44 271.15 346.603 270.917 346.683 270.652C346.762 270.386 346.753 270.102 346.657 269.842C346.561 269.582 346.383 269.36 346.151 269.21Z" fill="#FF8E4E"/>
<path d="M341.683 253.223C342.023 253.223 342.348 253.088 342.588 252.848C342.828 252.608 342.963 252.282 342.963 251.943V247.04C342.963 246.701 342.828 246.375 342.588 246.135C342.348 245.895 342.023 245.76 341.683 245.76C341.344 245.76 341.018 245.895 340.778 246.135C340.538 246.375 340.403 246.701 340.403 247.04V251.943C340.403 252.282 340.538 252.608 340.778 252.848C341.018 253.088 341.344 253.223 341.683 253.223Z" fill="#FF8E4E"/>
<path d="M355.008 270.336H350.092C349.753 270.336 349.427 270.471 349.187 270.711C348.947 270.951 348.812 271.276 348.812 271.616C348.812 271.955 348.947 272.281 349.187 272.521C349.427 272.761 349.753 272.896 350.092 272.896H355.008C355.347 272.896 355.673 272.761 355.913 272.521C356.153 272.281 356.288 271.955 356.288 271.616C356.288 271.276 356.153 270.951 355.913 270.711C355.673 270.471 355.347 270.336 355.008 270.336Z" fill="#FF8E4E"/>
<path d="M342.963 261.76V256.858C342.963 256.518 342.828 256.193 342.588 255.953C342.348 255.712 342.023 255.578 341.683 255.578C341.344 255.578 341.018 255.712 340.778 255.953C340.538 256.193 340.403 256.518 340.403 256.858V261.76C340.403 262.1 340.538 262.425 340.778 262.665C341.018 262.905 341.344 263.04 341.683 263.04C342.023 263.04 342.348 262.905 342.588 262.665C342.828 262.425 342.963 262.1 342.963 261.76Z" fill="#FF8E4E"/>
<path d="M367.283 278.656C367.238 278.321 367.062 278.016 366.794 277.81C366.525 277.603 366.185 277.512 365.849 277.556C365.683 277.583 365.523 277.644 365.38 277.734C365.237 277.824 365.113 277.941 365.015 278.079C364.917 278.217 364.848 278.373 364.811 278.538C364.774 278.703 364.77 278.874 364.8 279.04C364.841 279.337 364.862 279.637 364.864 279.936V283.776C364.864 284.116 364.999 284.441 365.239 284.681C365.479 284.922 365.804 285.056 366.144 285.056C366.483 285.056 366.809 284.922 367.049 284.681C367.289 284.441 367.424 284.116 367.424 283.776V279.936C367.405 279.507 367.358 279.08 367.283 278.656Z" fill="#FF8E4E"/>
<path d="M366.08 287.347C365.74 287.347 365.415 287.482 365.175 287.722C364.935 287.962 364.8 288.288 364.8 288.627V293.542C364.8 293.882 364.935 294.207 365.175 294.447C365.415 294.688 365.74 294.822 366.08 294.822C366.419 294.822 366.745 294.688 366.985 294.447C367.225 294.207 367.36 293.882 367.36 293.542V288.627C367.36 288.288 367.225 287.962 366.985 287.722C366.745 287.482 366.419 287.347 366.08 287.347Z" fill="#FF8E4E"/>
<path d="M364.966 273.574C363.713 272.143 362.058 271.122 360.217 270.643C360.054 270.601 359.885 270.592 359.718 270.615C359.551 270.639 359.391 270.695 359.246 270.78C359.101 270.866 358.974 270.979 358.873 271.114C358.772 271.248 358.698 271.402 358.656 271.565C358.614 271.728 358.604 271.897 358.628 272.064C358.651 272.231 358.708 272.391 358.793 272.536C358.879 272.681 358.992 272.808 359.127 272.909C359.261 273.011 359.414 273.084 359.577 273.126C360.923 273.473 362.132 274.218 363.046 275.264C363.166 275.4 363.314 275.51 363.479 275.585C363.645 275.66 363.824 275.699 364.006 275.699C364.252 275.699 364.493 275.628 364.699 275.494C364.906 275.361 365.07 275.17 365.171 274.946C365.272 274.722 365.307 274.473 365.271 274.23C365.234 273.987 365.129 273.759 364.966 273.574Z" fill="#FF8E4E"/>
<path d="M341.683 243.354C341.344 243.354 341.018 243.219 340.778 242.979C340.538 242.739 340.403 242.413 340.403 242.074V239.514C340.403 239.174 340.538 238.849 340.778 238.609C341.018 238.369 341.344 238.234 341.683 238.234C342.023 238.234 342.348 238.369 342.588 238.609C342.828 238.849 342.963 239.174 342.963 239.514V242.074C342.963 242.413 342.828 242.739 342.588 242.979C342.348 243.219 342.023 243.354 341.683 243.354Z" fill="#FF8E4E"/>
<path d="M426.714 366.733H130.343V371.482H426.714V366.733Z" fill="#FF8E4E"/>
<path d="M426.714 371.482H491.021V366.733H426.714V371.482Z" fill="#FF8E4E"/>
<path opacity="0.2" d="M426.714 371.482H491.021V366.733H426.714V371.482Z" fill="black"/>
<path d="M469.543 376.564H151.821L141.197 371.482H480.167L469.543 376.564Z" fill="#FF8E4E"/>
<path opacity="0.6" d="M469.543 376.564H151.821L141.197 371.482H480.167L469.543 376.564Z" fill="white"/>
<path d="M161.421 376.563V528.039H165.491L170.611 376.563H161.421Z" fill="#FF8E4E"/>
<path d="M209.473 376.563V528.039H213.543L218.663 376.563H209.473Z" fill="#FF8E4E"/>
<path d="M469.543 376.563V528.039H465.485L460.353 376.563H469.543Z" fill="#FF8E4E"/>
<path d="M421.505 376.563V528.039H417.434L412.314 376.563H421.505Z" fill="#FF8E4E"/>
<path d="M324.787 309.235L311.411 363.725L311.04 366.733H403.302L403.686 363.725L417.05 309.235H324.787Z" fill="#FF8E4E"/>
<path opacity="0.3" d="M324.787 309.235L311.411 363.725L311.04 366.733H403.302L403.686 363.725L417.05 309.235H324.787Z" fill="black"/>
<path d="M414.221 309.235H321.946L308.583 363.725H400.845L414.221 309.235Z" fill="#FF8E4E"/>
<path d="M398.886 361.229L411.046 311.731H323.904L311.757 361.229H398.886Z" fill="white"/>
<path d="M376.807 363.725L376.423 366.733H274.829L275.2 363.725H376.807Z" fill="#FF8E4E"/>
<path opacity="0.6" d="M376.807 363.725L376.423 366.733H274.829L275.2 363.725H376.807Z" fill="white"/>
<path d="M184.883 356.826C184.819 354.876 184.055 353.015 182.732 351.581C181.409 350.148 179.615 349.238 177.677 349.018V347.546C177.675 347.461 177.657 347.377 177.622 347.299C177.588 347.221 177.538 347.151 177.476 347.092C177.414 347.034 177.341 346.988 177.261 346.958C177.181 346.929 177.096 346.915 177.011 346.918H163.187C163.101 346.915 163.016 346.929 162.935 346.958C162.855 346.988 162.781 347.033 162.718 347.091C162.655 347.15 162.604 347.22 162.568 347.298C162.532 347.376 162.512 347.46 162.509 347.546V366.746H177.677V364.646C179.618 364.429 181.416 363.518 182.74 362.081C184.063 360.644 184.824 358.778 184.883 356.826ZM177.677 362.163V351.501C178.956 351.689 180.125 352.332 180.97 353.31C181.815 354.289 182.28 355.539 182.28 356.832C182.28 358.125 181.815 359.375 180.97 360.354C180.125 361.333 178.956 361.975 177.677 362.163Z" fill="#FF8E4E"/>
<path d="M443.598 366.733H456.449L452.647 338.586H443.598V366.733Z" fill="#263238"/>
<path d="M424.756 366.733H449.101L453.62 333.786H429.287L424.756 366.733Z" fill="#FF8E4E"/>
<path opacity="0.3" d="M424.756 366.733H449.101L453.62 333.786H429.287L424.756 366.733Z" fill="black"/>
<path d="M421.504 366.733H446.835L451.366 333.786H426.035L421.504 366.733Z" fill="#FF8E4E"/>
<path opacity="0.4" d="M444.595 364.135L448.41 336.384H428.275L424.461 364.135H444.595Z" fill="white"/>
<path d="M252.851 318.093L251.802 319.219L250.675 320.499C249.92 321.37 249.165 322.253 248.448 323.162C247.015 324.979 245.632 326.835 244.339 328.742C241.767 332.431 239.62 336.399 237.939 340.57C237.156 342.552 236.548 344.599 236.122 346.688C235.917 347.866 235.789 348.378 235.725 348.877C235.654 349.275 235.654 349.682 235.725 350.08C235.94 350.706 236.276 351.282 236.716 351.777C237.155 352.271 237.689 352.673 238.285 352.96C239.149 353.492 240.057 353.951 240.999 354.33C241.494 354.534 242.006 354.726 242.535 354.905C243.021 355.085 243.635 355.264 244.019 355.418V362.47C243.123 362.598 242.471 362.701 241.715 362.752C240.96 362.803 240.231 362.816 239.475 362.752C237.923 362.721 236.378 362.523 234.867 362.163C233.165 361.763 231.534 361.107 230.029 360.218C228.259 359.182 226.739 357.771 225.575 356.083C224.376 354.287 223.581 352.252 223.245 350.118C223.159 349.619 223.104 349.114 223.079 348.608C223.053 348.122 223.053 347.635 223.079 347.149V346.432C223.064 346.24 223.064 346.048 223.079 345.856L223.181 344.73C223.508 341.804 224.126 338.918 225.024 336.115C226.758 330.731 229.198 325.6 232.282 320.858C233.763 318.529 235.374 316.285 237.107 314.138C237.965 313.062 238.848 312.013 239.77 310.976C240.218 310.451 240.691 309.939 241.178 309.427C241.664 308.915 242.112 308.467 242.778 307.827L252.851 318.093Z" fill="#B55B52"/>
<path d="M241.473 355.264L247.437 350.887L250.829 363.149C250.829 363.149 245.543 365.107 241.511 362.471L241.473 355.264Z" fill="#B55B52"/>
<path d="M255.718 347.942L258.048 358.208L250.829 363.149L247.437 350.886L255.718 347.942Z" fill="#B55B52"/>
<path d="M293.44 271.04C293.171 271.795 293.363 272.551 293.862 272.717C294.362 272.883 294.976 272.423 295.232 271.667C295.488 270.912 295.309 270.144 294.822 269.978C294.336 269.811 293.709 270.272 293.44 271.04Z" fill="#263238"/>
<path d="M293.3 272.525C293.399 275.161 293.86 277.771 294.669 280.282C294.024 280.466 293.347 280.51 292.685 280.408C292.022 280.306 291.389 280.062 290.829 279.693L293.3 272.525Z" fill="#A02724"/>
<path d="M292.211 265.895C292.307 265.927 292.41 265.927 292.506 265.895C293.067 265.707 293.665 265.656 294.251 265.745C294.836 265.834 295.392 266.061 295.872 266.407C295.968 266.476 296.088 266.507 296.206 266.493C296.324 266.48 296.432 266.422 296.51 266.331C296.587 266.241 296.628 266.125 296.624 266.006C296.619 265.887 296.57 265.774 296.487 265.69C295.886 265.242 295.187 264.944 294.447 264.822C293.708 264.699 292.95 264.756 292.237 264.986C292.144 265.018 292.063 265.078 292.005 265.158C291.948 265.239 291.917 265.335 291.917 265.434C291.917 265.532 291.948 265.629 292.005 265.709C292.063 265.789 292.144 265.85 292.237 265.882L292.211 265.895Z" fill="#263238"/>
<path d="M265.37 273.831C266.803 281.114 268.224 294.464 263.13 299.328C263.13 299.328 265.127 306.714 278.669 306.714C293.555 306.714 285.786 299.328 285.786 299.328C277.658 297.383 277.863 291.354 279.283 285.696L265.37 273.831Z" fill="#B55B52"/>
<path d="M261.184 301.863C260.109 299.52 258.944 296.845 261.363 296.013C264.039 295.091 278.682 294.144 283.725 295.872C284.392 296.054 285.016 296.366 285.56 296.792C286.105 297.217 286.559 297.747 286.896 298.35C287.233 298.953 287.447 299.617 287.525 300.304C287.602 300.991 287.542 301.686 287.347 302.349L261.184 301.863Z" fill="#263238"/>
<path d="M312.32 314.355C315.456 320 318.822 325.811 322.227 331.392C325.632 336.973 329.203 342.528 333.018 347.597C333.965 348.877 334.95 350.093 335.923 351.309C336.41 351.936 336.922 352.448 337.421 353.024L338.163 353.869L338.355 354.087L338.445 354.189L338.534 354.304C339.131 354.881 339.848 355.318 340.634 355.584C341.843 356.005 343.091 356.31 344.358 356.493C350.58 357.121 356.853 357.048 363.059 356.275L365.005 363.06C363.277 363.828 361.664 364.34 359.949 364.98C358.234 365.62 356.544 366.042 354.829 366.477C351.193 367.389 347.466 367.887 343.718 367.962C341.615 367.996 339.514 367.785 337.459 367.335C334.936 366.834 332.557 365.775 330.496 364.237L329.638 363.533L329.434 363.354L329.306 363.226L329.062 362.983L328.064 361.997C327.411 361.344 326.694 360.717 326.106 360.026C324.826 358.682 323.622 357.338 322.509 355.955C318.037 350.551 313.911 344.869 310.157 338.944C308.288 336.026 306.487 333.078 304.755 330.099C303.014 327.091 301.338 324.147 299.712 320.973L312.32 314.355Z" fill="#B55B52"/>
<path d="M245.3 301.581C235.956 303.719 225.255 329.178 225.255 329.178L244.007 341.978C248.671 335.29 252.809 328.25 256.384 320.922C261.927 309.325 254.848 299.392 245.3 301.581Z" fill="#FF8E4E"/>
<path opacity="0.2" d="M251.981 317.811L243.123 341.414L243.993 342.029C243.993 342.029 247.833 336.64 251.981 329.369V317.811Z" fill="black"/>
<path d="M301.108 302.08C301.108 302.08 311.706 314.061 301.697 388.173H248.41C248.052 379.994 253.185 340.109 245.3 301.568C251.189 300.434 257.144 299.682 263.13 299.315C270.676 298.873 278.241 298.873 285.786 299.315C290.958 299.836 296.08 300.76 301.108 302.08Z" fill="#FF8E4E"/>
<path opacity="0.2" d="M295.181 323.52C296.571 331.932 300.206 339.812 305.702 346.33C305.92 341.555 306.009 337.267 305.997 333.44L295.181 323.52Z" fill="black"/>
<path d="M290.56 310.17C289.28 319.603 307.84 343.693 307.84 343.693L326.516 330.893C326.516 330.893 321.332 317.619 312.615 308.915C302.682 298.931 292.02 299.904 290.56 310.17Z" fill="#FF8E4E"/>
<path d="M360.96 356.34L368.563 353.216L376.384 359.13C376.384 359.13 368.922 365.735 362.138 363.162L360.96 356.34Z" fill="#B55B52"/>
<path d="M373.581 352.909L379.316 357.005L376.346 359.13L368.525 353.216L373.581 352.909Z" fill="#B55B52"/>
<path d="M268.685 260.621C266.022 270.144 263.974 275.584 267.021 281.997C271.59 291.661 284.582 291.392 290.061 282.867C294.976 275.187 298.509 260.902 290.675 254.029C288.955 252.501 286.873 251.438 284.627 250.942C282.381 250.445 280.045 250.532 277.842 251.192C275.638 251.853 273.64 253.066 272.037 254.716C270.435 256.366 269.281 258.399 268.685 260.621Z" fill="#B55B52"/>
<path d="M288.96 260.723C285.12 271.654 280.602 283.661 269.568 281.382C262.451 279.91 261.888 268.454 259.328 263.245C257.063 258.675 257.203 249.485 261.888 249.37C259.789 246.323 270.4 235.174 277.645 241.062C279.501 238.502 292.877 230.963 302.784 242.931C312.115 254.246 307.546 263.68 288.96 260.723Z" fill="#263238"/>
<path d="M280.32 267.712C280.064 270.154 280.612 272.612 281.882 274.714C283.584 277.453 286.08 276.403 287.002 273.6C287.821 271.04 287.911 266.624 285.543 264.845C283.175 263.066 280.679 264.768 280.32 267.712Z" fill="#B55B52"/>
<path d="M362.086 520.807C363.366 520.807 364.646 520.627 365.018 520.051C365.123 519.899 365.18 519.718 365.18 519.533C365.18 519.348 365.123 519.167 365.018 519.015C364.847 518.745 364.583 518.549 364.275 518.464C362.611 518.016 359.155 520 358.989 520.09C358.945 520.112 358.91 520.147 358.889 520.191C358.868 520.236 358.863 520.285 358.874 520.333C358.882 520.379 358.903 520.421 358.935 520.455C358.967 520.489 359.008 520.514 359.053 520.525C360.054 520.707 361.069 520.802 362.086 520.807ZM363.674 518.874C363.822 518.853 363.973 518.853 364.122 518.874C364.218 518.892 364.31 518.931 364.389 518.989C364.469 519.046 364.535 519.121 364.582 519.207C364.749 519.501 364.698 519.642 364.582 519.719C364.122 520.371 361.6 520.384 359.744 520.115C360.961 519.451 362.296 519.029 363.674 518.874Z" fill="#FF8E4E"/>
<path d="M359.078 520.525H359.181C360.384 519.987 362.765 517.837 362.573 516.685C362.573 516.416 362.342 516.096 361.702 516.019C361.473 515.999 361.241 516.025 361.021 516.096C360.802 516.166 360.598 516.279 360.422 516.429C359.142 517.466 358.886 520.154 358.874 520.269C358.869 520.31 358.875 520.351 358.89 520.389C358.906 520.427 358.931 520.461 358.963 520.486C358.999 520.507 359.038 520.52 359.078 520.525ZM361.51 516.493H361.651C362.074 516.493 362.099 516.71 362.112 516.762C362.227 517.44 360.602 519.13 359.373 519.859C359.475 518.732 359.922 517.664 360.653 516.8C360.891 516.596 361.197 516.487 361.51 516.493Z" fill="#FF8E4E"/>
<path d="M347.494 520.295H357.453L359.718 497.216H349.76L347.494 520.295Z" fill="#B55B52"/>
<path d="M358.016 519.143H347.149C346.949 519.144 346.755 519.213 346.599 519.338C346.443 519.464 346.335 519.638 346.291 519.834L344.32 528.64C344.269 528.855 344.268 529.078 344.317 529.293C344.366 529.508 344.463 529.709 344.601 529.881C344.74 530.052 344.915 530.19 345.115 530.284C345.315 530.377 345.533 530.423 345.754 530.419C349.671 530.355 355.341 530.125 360.269 530.125C366.042 530.125 371.021 530.432 377.779 530.432C381.875 530.432 383.015 526.298 381.299 525.927C373.504 524.224 367.143 524.045 360.41 519.885C359.695 519.422 358.867 519.165 358.016 519.143Z" fill="#263238"/>
<path opacity="0.2" d="M359.706 497.229L358.554 509.12H348.583L349.748 497.229H359.706Z" fill="black"/>
<path d="M322.163 520.794C322.585 520.849 323.015 520.82 323.425 520.708C323.836 520.596 324.221 520.403 324.557 520.141C324.674 519.979 324.738 519.784 324.738 519.584C324.738 519.384 324.674 519.189 324.557 519.027C324.481 518.887 324.375 518.764 324.247 518.669C324.119 518.574 323.971 518.509 323.814 518.477C322.355 518.131 319.603 520.013 319.488 520.09C319.451 520.118 319.423 520.155 319.405 520.198C319.387 520.241 319.38 520.287 319.386 520.333C319.395 520.377 319.416 520.418 319.448 520.449C319.48 520.481 319.521 520.503 319.565 520.512C320.418 520.698 321.289 520.793 322.163 520.794ZM323.443 518.899C323.537 518.886 323.631 518.886 323.725 518.899C323.816 518.913 323.903 518.948 323.979 519.001C324.055 519.054 324.117 519.125 324.16 519.207C324.378 519.603 324.25 519.757 324.16 519.821C323.738 520.371 321.702 520.384 320.205 520.141C321.168 519.489 322.266 519.065 323.418 518.899H323.443Z" fill="#FF8E4E"/>
<path d="M319.629 520.525H319.731C320.768 519.962 322.765 517.786 322.547 516.685C322.515 516.509 322.421 516.35 322.283 516.235C322.145 516.12 321.971 516.058 321.792 516.058C321.613 516.036 321.432 516.052 321.26 516.105C321.088 516.158 320.929 516.246 320.794 516.365C319.642 517.312 319.399 520.205 319.386 520.307C319.385 520.35 319.395 520.393 319.415 520.431C319.436 520.469 319.465 520.501 319.501 520.525C319.543 520.538 319.587 520.538 319.629 520.525ZM321.639 516.493H321.741C322.048 516.493 322.074 516.672 322.087 516.736C322.215 517.389 320.935 519.04 319.911 519.821C319.979 518.685 320.39 517.596 321.088 516.698C321.241 516.566 321.437 516.493 321.639 516.493Z" fill="#FF8E4E"/>
<path d="M308.211 520.295H318.169L323.174 497.216H313.216L308.211 520.295Z" fill="#B55B52"/>
<path d="M318.874 519.142H307.686C307.488 519.144 307.296 519.213 307.142 519.339C306.988 519.465 306.882 519.639 306.842 519.833L304.87 528.64C304.824 528.856 304.827 529.08 304.879 529.295C304.932 529.509 305.032 529.71 305.172 529.881C305.312 530.052 305.489 530.189 305.689 530.282C305.89 530.375 306.109 530.422 306.33 530.419C310.234 530.355 312.141 530.125 317.056 530.125C320.09 530.125 323.968 530.432 328.154 530.432C332.339 530.432 332.877 526.297 331.162 525.926C323.482 524.249 322.957 521.933 320.499 519.718C320.046 519.334 319.468 519.129 318.874 519.142Z" fill="#263238"/>
<g opacity="0.2">
<path opacity="0.2" d="M313.216 497.229H323.175L320.589 509.12H310.631L313.216 497.229Z" fill="black"/>
</g>
<path d="M301.697 388.186C301.697 388.186 376.321 396.083 375.501 434.15C374.973 458.058 370.376 481.7 361.908 504.064H347.111C347.111 504.064 347.866 479.91 347.367 440.934C347.213 429.248 323.623 425.395 300.57 424.038C290.808 423.425 281.412 420.095 273.442 414.425C265.471 408.755 259.244 400.97 255.463 391.949L253.889 388.186H301.697Z" fill="#263238"/>
<path d="M365.53 500.096C365.606 500.096 364.57 507.098 364.57 507.098H344.09L343.526 500.851L365.53 500.096Z" fill="#FF8E4E"/>
<path d="M285.722 388.186C285.722 388.186 339.814 406.106 341.184 428.326C343.744 469.21 323.635 504.064 323.635 504.064H308.698C308.698 504.064 314.368 486.784 316.378 449.741C318.938 403.213 232.115 449.664 248.384 388.186H285.722Z" fill="#263238"/>
<path d="M328.154 500.096C328.23 500.096 326.272 507.098 326.272 507.098H305.792L306.163 500.851L328.154 500.096Z" fill="#FF8E4E"/>
<path d="M324.736 427.379H241.536C241.536 424.861 242.537 422.445 244.318 420.664C246.099 418.882 248.515 417.882 251.034 417.882H315.239C317.757 417.882 320.173 418.882 321.954 420.664C323.736 422.445 324.736 424.861 324.736 427.379Z" fill="#FF8E4E"/>
<path d="M245.389 427.367L232.845 532.531H235.533L251.443 427.367H245.389Z" fill="#FF8E4E"/>
<path opacity="0.4" d="M245.389 427.367L232.845 532.531H235.533L251.443 427.367H245.389Z" fill="black"/>
<path d="M262.17 427.367L261.927 532.531H264.602L268.224 427.367H262.17Z" fill="#FF8E4E"/>
<path opacity="0.4" d="M262.17 427.367L261.927 532.531H264.602L268.224 427.367H262.17Z" fill="black"/>
<path d="M320.883 427.367L333.427 532.531H330.739L314.842 427.367H320.883Z" fill="#FF8E4E"/>
<path opacity="0.4" d="M320.883 427.367L333.427 532.531H330.739L314.842 427.367H320.883Z" fill="black"/>
<path d="M304.102 427.367L304.345 532.531H301.67L298.048 427.367H304.102Z" fill="#FF8E4E"/>
<path opacity="0.4" d="M304.102 427.367L304.345 532.531H301.67L298.048 427.367H304.102Z" fill="black"/>
</svg>
