<svg id="Layer_1" data-name="Layer 1" xmlns="http://www.w3.org/2000/svg" viewBox="0 0 356.04 356.16"><defs><style>.cls-1{fill:none;stroke:#fff;stroke-width:3px;}.cls-2{fill:#fff;}</style></defs><path class="cls-1" d="M338.26,338.26a158,158,0,1,0-223.51,0A158,158,0,0,0,338.26,338.26Z" transform="translate(-66.96 -29.89)"/><path class="cls-1" d="M359.27,225.33s0-.72-.11-2.14,0-3.54-.28-6.31A131.54,131.54,0,0,0,355.11,193a129.74,129.74,0,0,0-5.44-16.63,128.23,128.23,0,0,0-9.22-18.65,134.32,134.32,0,0,0-33.68-37.6,132.15,132.15,0,0,0-55.72-24.71,135,135,0,0,0-51.85.6,144.84,144.84,0,0,0-17.68,5,132.53,132.53,0,0,0-61.5,46.1,128.19,128.19,0,0,0-10.78,17.36c-1.63,3-3,6.17-4.39,9.33a96.17,96.17,0,0,0-3.65,9.78,126.65,126.65,0,0,0-5,20.49,131.31,131.31,0,0,0,0,42.55,128.77,128.77,0,0,0,5,20.49c1,3.33,2.37,6.55,3.64,9.77a101,101,0,0,0,4.39,9.35A128,128,0,0,0,120,303.61a132.47,132.47,0,0,0,61.5,46.1,143.12,143.12,0,0,0,17.68,5.06,134.22,134.22,0,0,0,17.74,2.47,132.19,132.19,0,0,0,89.83-26.58,133.91,133.91,0,0,0,33.68-37.61,128.12,128.12,0,0,0,9.22-18.64,131.52,131.52,0,0,0,9.21-40.55c.25-2.76.21-4.88.28-6.31s.11-2.15.11-2.15v2.15c0,1.43,0,3.55-.21,6.31a129.6,129.6,0,0,1-9,40.68,126.94,126.94,0,0,1-9.19,18.73,134.1,134.1,0,0,1-33.68,37.81,133.62,133.62,0,0,1-108,24.34,140.38,140.38,0,0,1-17.79-5.06A133.2,133.2,0,0,1,119.46,304a130.07,130.07,0,0,1-10.84-17.44c-1.64-3-3-6.24-4.48-9.42a89.46,89.46,0,0,1-3.66-9.82,129.9,129.9,0,0,1-5.06-20.58,131.85,131.85,0,0,1,0-42.79,130.31,130.31,0,0,1,5.06-20.5c1.07-3.35,2.39-6.58,3.68-9.82a91.8,91.8,0,0,1,4.46-9.4,133.14,133.14,0,0,1,72.71-63.75,140.13,140.13,0,0,1,17.77-5.07A134,134,0,0,1,216.94,93a132.78,132.78,0,0,1,90.2,26.81A133.18,133.18,0,0,1,355.46,193a131.31,131.31,0,0,1,3.64,24c.22,2.76.15,4.88.21,6.3A11,11,0,0,1,359.27,225.33Z" transform="translate(-66.96 -29.89)"/><path class="cls-2" d="M418.33,123H387.5a60.65,60.65,0,0,1-53.58-32l-5.71-10.68a51.23,51.23,0,0,0-26.65-23.61V48.51a18.69,18.69,0,0,0-37.37,0v8.15a51.23,51.23,0,0,0-26.65,23.61L231.83,91a60.65,60.65,0,0,1-53.58,32H147.42a4.66,4.66,0,0,0-4.67,4.65v18.62a4.68,4.68,0,0,0,4.67,4.66h30.7l-15.29,41.89h-6.07a4.7,4.7,0,0,0-3.3,1.36,4.65,4.65,0,0,0-1.37,3.3,37.37,37.37,0,0,0,74.74,0,4.66,4.66,0,0,0-4.68-4.66h-6.07L200.8,150.92h11.39A56.16,56.16,0,0,0,249.1,137.1l12.29-10.72a32.36,32.36,0,0,1,2.8-2.18V247.57l-7.56,15.06H245.51a4.6,4.6,0,0,0-2.09.5,4.65,4.65,0,0,0-1.65,1.37l-12.61,16.75h-21a4.68,4.68,0,0,0-4.67,4.66v18.62a4.63,4.63,0,0,0,1.37,3.29,4.69,4.69,0,0,0,3.3,1.36H357.61a4.66,4.66,0,0,0,4.67-4.65V285.91a4.68,4.68,0,0,0-4.67-4.66h-21L324,264.5a4.65,4.65,0,0,0-1.65-1.37,4.6,4.6,0,0,0-2.09-.5H309.12l-7.56-15.06V124.2a30.9,30.9,0,0,1,2.8,2.18h0l12.29,10.72a56.16,56.16,0,0,0,36.91,13.82H365l-15.28,41.89H343.6a4.64,4.64,0,0,0-4.67,4.66,37.37,37.37,0,0,0,74.73,0,4.66,4.66,0,0,0-4.67-4.66h-6.07l-15.29-41.89h30.7a4.68,4.68,0,0,0,4.67-4.66V127.64a4.66,4.66,0,0,0-4.67-4.65ZM273.53,48.51a9.35,9.35,0,0,1,18.69,0V54a51.5,51.5,0,0,0-18.69,0ZM189.46,225.4a28.06,28.06,0,0,1-27.64-23.28h55.27a28,28,0,0,1-27.63,23.28Zm16.68-32.59H172.77l15.29-41.89h2.8Zm146.8,107.06H212.81v-9.31H352.94Zm-28-18.62H240.84l7-9.31h70.07Zm-32.2-30.5,6,11.88H267.08l6-11.88a4.58,4.58,0,0,0,.49-2.08v-129a32.67,32.67,0,0,1,18.69,0v129a4.71,4.71,0,0,0,.49,2.08Zm83.58-25.35a28,28,0,0,1-27.63-23.28h55.27a28.06,28.06,0,0,1-27.64,23.28ZM393,192.81H359.61l15.28-41.89h2.8Zm20.68-51.2h-60.1a46.78,46.78,0,0,1-30.76-11.52l-12.29-10.72h0a42.07,42.07,0,0,0-55.27,0L243,130.09a46.76,46.76,0,0,1-30.76,11.52h-60.1V132.3h26.16a69.94,69.94,0,0,0,61.82-37l5.71-10.68a42.1,42.1,0,0,1,74.19,0l5.71,10.68a69.94,69.94,0,0,0,61.82,37h26.16Z" transform="translate(-66.96 -29.89)"/><path class="cls-2" d="M226.5,167.29a8,8,0,0,0-7.39,4.94,8,8,0,0,0,14,7.51,8,8,0,0,0-6.65-12.45Zm0,10.67a2.69,2.69,0,0,1-2.62-3.19,2.67,2.67,0,0,1,4.84-1A2.67,2.67,0,0,1,226.5,178Z" transform="translate(-66.96 -29.89)"/></svg>