<svg width="126" height="126" viewBox="0 0 126 126" fill="none" xmlns="http://www.w3.org/2000/svg">
<path d="M112.875 47.25H60.3749C53.1297 47.2586 47.2586 53.1299 47.25 60.3749V78.75H52.4999V60.3749C52.4999 56.0257 56.0257 52.4999 60.3749 52.4999H112.875C117.224 52.4999 120.75 56.0257 120.75 60.3749V112.875C120.75 117.224 117.224 120.75 112.875 120.75H60.3749C56.0257 120.75 52.4999 117.224 52.4999 112.875V102.375H47.25V112.875C47.2586 120.12 53.1299 125.991 60.3749 126H112.875C120.12 125.991 125.991 120.12 126 112.875V60.3749C125.991 53.1299 120.12 47.2586 112.875 47.25Z" fill="black"/>
<path d="M107.625 57.7501H65.625C61.2758 57.7501 57.75 61.2758 57.75 65.6251V76.1251H62.9999V65.6251C62.9999 64.1753 64.1753 63 65.625 63H107.625C109.075 63 110.25 64.1753 110.25 65.6251V97.1251C110.25 98.5748 109.075 99.7501 107.625 99.7501H65.625C64.1753 99.7501 62.9999 98.5748 62.9999 97.1251H57.75C57.75 101.474 61.2758 105 65.625 105H107.625C111.974 105 115.5 101.474 115.5 97.1251V65.6251C115.5 61.2758 111.974 57.7501 107.625 57.7501Z" fill="black"/>
<path d="M68.2501 110.25H57.75V115.5H68.2501V110.25Z" fill="black"/>
<path d="M84.0001 110.25H73.5V115.5H84.0001V110.25Z" fill="black"/>
<path d="M99.7501 110.25H89.25V115.5H99.7501V110.25Z" fill="black"/>
<path d="M115.5 110.25H105V115.5H115.5V110.25Z" fill="black"/>
<path d="M28.1069 0.769806C27.0819 -0.25542 25.4198 -0.255666 24.3945 0.769314L0.769531 24.3943L4.48136 28.1061L23.6255 8.96177V20.9999C23.6255 22.4497 22.4501 23.625 21.0004 23.625H13.1254V28.8749H21.0004C25.3496 28.8749 28.8754 25.3492 28.8754 20.9999V2.62511C28.8754 1.92915 28.5988 1.26175 28.1069 0.769806Z" fill="black"/>
<path d="M81.3768 0H26.2518C25.5556 0.000246094 24.8882 0.276855 24.396 0.769043L0.770996 24.394C0.278809 24.8862 0.00195312 25.5539 0.00195312 26.2498V102.375C0.0105664 109.62 5.88187 115.491 13.1269 115.5H42.0018V110.25H13.1266C8.77741 110.25 5.25163 106.724 5.25163 102.375V27.3368L27.3383 5.25016H81.3765C85.7257 5.25016 89.2515 8.77595 89.2515 13.1252V42.0001H94.5017V13.1249C94.4931 5.87992 88.6218 0.00861328 81.3768 0Z" fill="black"/>
<path d="M90.3369 81.375L77.981 69.0192C76.9561 67.9944 75.2944 67.9944 74.2692 69.0192L52.5 90.7884L43.856 82.1443C43.3638 81.6519 42.6961 81.3753 42.0002 81.3753H13.125V86.625H40.9132L50.644 96.3558C51.1362 96.8479 51.8038 97.1248 52.4998 97.1248C53.196 97.1246 53.8634 96.8479 54.3556 96.3558L76.1248 74.5865L87.3939 85.8557C87.8861 86.3481 88.5537 86.6247 89.2497 86.6247H105V81.3748H90.3369V81.375Z" fill="black"/>
<path d="M72.5674 13.6343C68.4365 10.027 62.45 9.49671 57.7494 12.3219C53.0458 9.50041 47.0593 10.0359 42.9313 13.6476C42.6062 13.9348 42.2991 14.2419 42.0119 14.567C38.164 18.9228 38.5755 25.5733 42.9313 29.4212L55.9802 41.3152C56.464 41.7562 57.095 42.0005 57.7494 42.0003C58.4057 41.9968 59.0369 41.7478 59.5185 41.3021L72.5674 29.4082C72.8925 29.121 73.1996 28.8138 73.4868 28.4888C77.3347 24.1327 76.9233 17.4822 72.5674 13.6343ZM69.0367 25.5386L57.7491 35.8206L46.4694 25.5516C46.261 25.3735 46.0668 25.179 45.8884 24.9706C43.9977 22.759 44.2578 19.4335 46.4694 17.5428C47.7769 16.3745 49.4728 15.7352 51.2259 15.75C52.9793 15.7305 54.6769 16.3649 55.9876 17.5297C56.9899 18.4442 58.5238 18.4442 59.5262 17.5297C62.2462 15.1406 66.3166 15.1406 69.0365 17.5297C69.2449 17.7079 69.4391 17.9023 69.6175 18.1107C71.5085 20.3221 71.2483 23.6478 69.0367 25.5386Z" fill="black"/>
<path d="M39.3751 68.2499H13.125V73.4999H39.3751V68.2499Z" fill="black"/>
<path d="M39.3751 55.125H13.125V60.3749H39.3751V55.125Z" fill="black"/>
<path d="M39.375 42.0001H23.625V47.25H39.375V42.0001Z" fill="black"/>
<path d="M18.3749 42.0001H13.125V47.25H18.3749V42.0001Z" fill="black"/>
</svg>
