<svg width="156" height="156" viewBox="0 0 156 156" fill="none" xmlns="http://www.w3.org/2000/svg">
<path d="M110.025 97.5H102.375V90.689C102.373 88.6174 101.549 86.6313 100.084 85.1664C98.619 83.7015 96.6329 82.8774 94.5613 82.875H82.8427C85.2158 82.8724 87.5368 82.1797 89.5232 80.8813C91.5095 79.583 93.0755 77.735 94.0302 75.5625H107.25V70.6875H95.0625C95.0625 70.6765 95.0625 70.6659 95.0625 70.6552V51.2198C95.0625 51.2091 95.0625 51.1985 95.0625 51.1875H107.25V46.3125H94.0302C93.0755 44.14 91.5095 42.292 89.5232 40.9937C87.5368 39.6953 85.2158 39.0026 82.8427 39H73.1576C70.7845 39.0026 68.4634 39.6953 66.477 40.9936C64.4906 42.292 62.9246 44.14 61.9698 46.3125H51.1336C48.5629 46.3154 46.0984 47.3379 44.2806 49.1556C42.4629 50.9734 41.4404 53.4379 41.4375 56.0086V65.8664C41.4404 68.4371 42.4629 70.9016 44.2806 72.7194C46.0984 74.5371 48.5629 75.5596 51.1336 75.5625H61.9698C62.9246 77.735 64.4906 79.583 66.477 80.8814C68.4634 82.1797 70.7845 82.8724 73.1576 82.875H61.439C59.3673 82.8773 57.3812 83.7014 55.9163 85.1663C54.4514 86.6312 53.6273 88.6173 53.625 90.689V97.5H45.9755C44.1262 97.502 42.3531 98.2375 41.0454 99.5452C39.7377 100.853 39.0021 102.626 39 104.475V148.688C39 149.334 39.2568 149.954 39.7139 150.411C40.171 150.868 40.791 151.125 41.4375 151.125H114.562C115.209 151.125 115.829 150.868 116.286 150.411C116.743 149.954 117 149.334 117 148.688V126.547C119.737 126.035 122.209 124.583 123.989 122.442C125.77 120.301 126.746 117.605 126.75 114.821V58.5H130.107C131.802 58.4981 133.427 57.8239 134.625 56.6253C135.824 55.4268 136.498 53.8017 136.5 52.1067V30.7683C136.498 29.0733 135.824 27.4482 134.625 26.2497C133.427 25.0511 131.802 24.3769 130.107 24.375H126.75V17.0625H141.375V95.0625H146.25V7.3125H141.375V12.1875H117V7.3125H112.125V14.625C112.125 15.2715 112.382 15.8915 112.839 16.3486C113.296 16.8057 113.916 17.0625 114.562 17.0625H121.875V24.375H118.519C116.824 24.3769 115.198 25.051 114 26.2496C112.801 27.4481 112.127 29.0732 112.125 30.7683V52.1067C112.127 53.8018 112.801 55.4269 114 56.6254C115.198 57.824 116.824 58.4981 118.519 58.5H121.875V114.821C121.873 116.31 121.401 117.761 120.525 118.965C119.65 120.17 118.416 121.067 117 121.529V104.475C116.998 102.626 116.262 100.853 114.955 99.5453C113.647 98.2376 111.874 97.5021 110.025 97.5ZM73.1576 43.875H82.8427C84.79 43.8772 86.6569 44.6517 88.0338 46.0286C89.4108 47.4056 90.1853 49.2725 90.1875 51.2198V58.776C89.4251 58.1515 88.811 57.3655 88.3894 56.4747C87.9679 55.5839 87.7495 54.6105 87.75 53.625C87.75 52.9785 87.4932 52.3585 87.0361 51.9014C86.579 51.4443 85.959 51.1875 85.3125 51.1875H70.6875C70.041 51.1875 69.421 51.4443 68.9639 51.9014C68.5068 52.3585 68.25 52.9785 68.25 53.625C68.2507 54.6107 68.0324 55.5843 67.6108 56.4753C67.1893 57.3664 66.5751 58.1526 65.8125 58.7773V51.221C65.8144 49.2735 66.5889 47.4063 67.9659 46.0291C69.3429 44.6519 71.2101 43.8772 73.1576 43.875ZM51.1336 70.6875C49.8554 70.686 48.63 70.1776 47.7262 69.2738C46.8224 68.37 46.314 67.1446 46.3125 65.8664V56.0086C46.314 54.7304 46.8224 53.505 47.7262 52.6012C48.63 51.6973 49.8554 51.1889 51.1336 51.1875H60.9375C60.9375 51.1985 60.9375 51.2091 60.9375 51.2198V70.6552C60.9375 70.6659 60.9375 70.6765 60.9375 70.6875H51.1336ZM65.8125 70.6552V64.6794L67.9834 63.2321C70.4831 61.5698 72.2351 58.9973 72.8663 56.0625H83.1343C83.7656 58.9973 85.5176 61.5697 88.0172 63.2321L90.1881 64.6794V70.6552C90.1859 72.6026 89.4113 74.4696 88.0342 75.8466C86.6572 77.2235 84.7901 77.998 82.8427 78H73.1576C71.2103 77.9978 69.3433 77.2233 67.9663 75.8464C66.5893 74.4694 65.8148 72.6025 65.8125 70.6552ZM118.519 29.25H130.107C130.509 29.2504 130.895 29.4105 131.18 29.6951C131.465 29.9798 131.625 30.3657 131.625 30.7683V37.6956L127.982 40.124C127.722 40.2966 127.41 40.3741 127.1 40.3434C126.789 40.3126 126.499 40.1755 126.277 39.9552C125.699 39.377 125.013 38.9183 124.257 38.6054C123.502 38.2924 122.692 38.1313 121.875 38.1313C121.057 38.1313 120.247 38.2924 119.492 38.6054C118.736 38.9183 118.05 39.377 117.472 39.9552L117 40.4278V30.7692C117 30.3664 117.16 29.9802 117.445 29.6953C117.73 29.4105 118.116 29.2503 118.519 29.25ZM117 52.1067V47.3231L120.92 43.4033C121.173 43.1503 121.517 43.0082 121.875 43.0082C122.233 43.0082 122.577 43.1503 122.83 43.4033C123.85 44.418 125.188 45.0495 126.62 45.1909C128.051 45.3324 129.488 44.9752 130.686 44.1797L131.625 43.5545V52.1067C131.625 52.5093 131.465 52.8952 131.18 53.1799C130.895 53.4645 130.509 53.6246 130.107 53.625H118.519C118.116 53.6247 117.73 53.4646 117.445 53.18C117.161 52.8953 117 52.5093 117 52.1067ZM112.125 104.475V112.125H102.375V102.375H110.025C110.582 102.376 111.115 102.597 111.509 102.991C111.903 103.384 112.124 103.918 112.125 104.475ZM97.5 102.375V117H92.625V102.375H97.5ZM92.625 131.625H97.5V134.062C97.5 134.709 97.2432 135.329 96.7861 135.786C96.329 136.243 95.709 136.5 95.0625 136.5C94.416 136.5 93.796 136.243 93.3389 135.786C92.8818 135.329 92.625 134.709 92.625 134.062V131.625ZM97.5 126.75H92.625V121.875H97.5V126.75ZM81.8653 87.75L78 91.6153L74.1347 87.75H81.8653ZM58.5 90.689C58.5009 89.9098 58.8108 89.1628 59.3618 88.6118C59.9128 88.0608 60.6598 87.7509 61.439 87.75H67.2403L76.2764 96.7861C76.5027 97.0125 76.7714 97.192 77.0672 97.3145C77.3629 97.437 77.6799 97.5001 78 97.5001C78.3201 97.5001 78.6371 97.437 78.9328 97.3145C79.2286 97.192 79.4973 97.0125 79.7236 96.7861L88.7597 87.75H94.5613C95.3405 87.7509 96.0875 88.0608 96.6384 88.6118C97.1893 89.1628 97.4992 89.9098 97.5 90.689V97.5H58.5V90.689ZM43.875 146.25V104.475C43.8756 103.918 44.0971 103.384 44.4909 102.991C44.8847 102.597 45.4186 102.375 45.9755 102.375H87.75V112.125H48.75V117H87.75V134.062C87.75 136.002 88.5204 137.862 89.8918 139.233C91.2631 140.605 93.1231 141.375 95.0625 141.375C97.0019 141.375 98.8619 140.605 100.233 139.233C101.605 137.862 102.375 136.002 102.375 134.062V117H112.125V121.875H107.25V126.75H112.125V146.25H43.875Z" fill="black"/>
<path d="M31.6875 46.2211V99.9375H36.5625V46.2211C36.5655 43.6604 37.584 41.2054 39.3947 39.3947C41.2054 37.584 43.6604 36.5655 46.2211 36.5625H107.25V31.6875H46.2211C42.3679 31.6919 38.6738 33.2246 35.9492 35.9492C33.2246 38.6738 31.6919 42.3679 31.6875 46.2211Z" fill="black"/>
</svg>
