<svg width="500" height="500" viewBox="0 0 500 500" fill="none" xmlns="http://www.w3.org/2000/svg">
<path d="M199.7 73.06C127.83 93.82 47.9999 171.93 75.3199 252.79C102.82 334.06 230.54 368.79 255.38 266.2C259.97 247.25 251.54 222.7 264.2 206.55C276.86 190.4 306.94 192 326 189.13C365 183.22 391.23 160.91 371 119.33C343.6 62.86 251.24 58.18 199.7 73.06Z" fill="#11CDA0"/>
<path opacity="0.8" d="M199.7 73.06C127.83 93.82 47.9999 171.93 75.3199 252.79C102.82 334.06 230.54 368.79 255.38 266.2C259.97 247.25 251.54 222.7 264.2 206.55C276.86 190.4 306.94 192 326 189.13C365 183.22 391.23 160.91 371 119.33C343.6 62.86 251.24 58.18 199.7 73.06Z" fill="white"/>
<path d="M250 427.56C357.083 427.56 443.89 422.492 443.89 416.24C443.89 409.988 357.083 404.92 250 404.92C142.918 404.92 56.1101 409.988 56.1101 416.24C56.1101 422.492 142.918 427.56 250 427.56Z" fill="#F5F5F5"/>
<path d="M267.11 407C266.797 406.999 266.493 406.89 266.251 406.692C266.009 406.493 265.842 406.217 265.78 405.91L246.78 312.35H213.69L194.69 405.91C194.599 406.243 194.385 406.53 194.091 406.711C193.797 406.892 193.446 406.955 193.107 406.886C192.769 406.817 192.469 406.622 192.269 406.341C192.069 406.059 191.983 405.712 192.03 405.37L211.25 310.72C211.314 310.414 211.481 310.139 211.723 309.94C211.965 309.742 212.267 309.632 212.58 309.63H247.88C248.193 309.631 248.497 309.739 248.739 309.938C248.981 310.137 249.148 310.413 249.21 310.72L268.44 405.37C268.511 405.723 268.439 406.089 268.24 406.389C268.042 406.689 267.732 406.898 267.38 406.97L267.11 407Z" fill="#11CDA0"/>
<path d="M214 407C213.687 406.997 213.385 406.888 213.143 406.69C212.901 406.491 212.734 406.216 212.67 405.91L193.67 312.35H160.58L141.58 405.91C141.555 406.094 141.492 406.271 141.396 406.431C141.299 406.59 141.172 406.727 141.02 406.835C140.868 406.943 140.696 407.018 140.514 407.057C140.332 407.095 140.144 407.096 139.962 407.059C139.779 407.022 139.607 406.948 139.454 406.842C139.302 406.735 139.172 406.599 139.075 406.44C138.977 406.282 138.913 406.105 138.886 405.921C138.86 405.737 138.871 405.549 138.92 405.37L158.15 310.72C158.212 310.413 158.378 310.137 158.621 309.938C158.863 309.739 159.167 309.631 159.48 309.63H194.78C195.092 309.631 195.394 309.74 195.635 309.939C195.875 310.138 196.04 310.414 196.1 310.72L215.33 405.37C215.401 405.723 215.329 406.089 215.13 406.389C214.932 406.689 214.622 406.898 214.27 406.97L214 407Z" fill="#11CDA0"/>
<path d="M221.43 311H160.63C155.049 311.001 149.691 308.814 145.704 304.908C141.718 301.002 139.422 295.689 139.31 290.11L137.05 197.71C137.007 195.645 137.377 193.591 138.138 191.671C138.899 189.75 140.035 188.001 141.48 186.525C142.926 185.049 144.651 183.876 146.555 183.075C148.459 182.274 150.504 181.861 152.57 181.86H190.69C194.505 181.862 198.186 183.268 201.031 185.809C203.877 188.35 205.688 191.849 206.12 195.64L221.43 311Z" fill="#11CDA0"/>
<path d="M188.27 299.3H247.77C249.979 299.3 252.098 300.177 253.66 301.74C255.222 303.302 256.1 305.421 256.1 307.63V307.92C256.1 308.715 255.784 309.479 255.221 310.041C254.659 310.604 253.896 310.92 253.1 310.92H188.27V299.3Z" fill="#11CDA0"/>
<g opacity="0.3">
<path opacity="0.3" d="M267.11 407C266.797 406.999 266.493 406.89 266.251 406.692C266.009 406.493 265.842 406.217 265.78 405.91L246.78 312.35H213.69L194.69 405.91C194.599 406.243 194.385 406.53 194.091 406.711C193.797 406.892 193.446 406.955 193.107 406.886C192.769 406.817 192.469 406.622 192.269 406.341C192.069 406.059 191.983 405.712 192.03 405.37L211.25 310.72C211.314 310.414 211.481 310.139 211.723 309.94C211.965 309.742 212.267 309.632 212.58 309.63H247.88C248.193 309.631 248.497 309.739 248.739 309.938C248.981 310.137 249.148 310.413 249.21 310.72L268.44 405.37C268.511 405.723 268.439 406.089 268.24 406.389C268.042 406.689 267.732 406.898 267.38 406.97L267.11 407Z" fill="black"/>
<path opacity="0.3" d="M214 407C213.687 406.997 213.385 406.888 213.143 406.69C212.901 406.491 212.734 406.216 212.67 405.91L193.67 312.35H160.58L141.58 405.91C141.555 406.094 141.492 406.271 141.396 406.431C141.299 406.59 141.172 406.727 141.02 406.835C140.868 406.943 140.696 407.018 140.514 407.057C140.332 407.095 140.144 407.096 139.962 407.059C139.779 407.022 139.607 406.948 139.454 406.842C139.302 406.735 139.172 406.599 139.075 406.44C138.977 406.282 138.913 406.105 138.886 405.921C138.86 405.737 138.871 405.549 138.92 405.37L158.15 310.72C158.212 310.413 158.378 310.137 158.621 309.938C158.863 309.739 159.167 309.631 159.48 309.63H194.78C195.092 309.631 195.394 309.74 195.635 309.939C195.875 310.138 196.04 310.414 196.1 310.72L215.33 405.37C215.401 405.723 215.329 406.089 215.13 406.389C214.932 406.689 214.622 406.898 214.27 406.97L214 407Z" fill="black"/>
<path opacity="0.3" d="M221.43 311H160.63C155.049 311.001 149.691 308.814 145.704 304.908C141.718 301.002 139.422 295.689 139.31 290.11L137.05 197.71C137.007 195.645 137.377 193.591 138.138 191.671C138.899 189.75 140.035 188.001 141.48 186.525C142.926 185.049 144.651 183.876 146.555 183.075C148.459 182.274 150.504 181.861 152.57 181.86H190.69C194.505 181.862 198.186 183.268 201.031 185.809C203.877 188.35 205.688 191.849 206.12 195.64L221.43 311Z" fill="black"/>
<path opacity="0.3" d="M188.27 299.3H247.77C249.979 299.3 252.098 300.177 253.66 301.74C255.222 303.302 256.1 305.421 256.1 307.63V307.92C256.1 308.715 255.784 309.479 255.221 310.041C254.659 310.604 253.896 310.92 253.1 310.92H188.27V299.3Z" fill="black"/>
</g>
<path d="M204.51 176.76C204.51 176.76 213.01 187.86 207.51 209.96C202.01 232.06 173.63 220.06 171.91 200.14C169.91 176.66 196.27 192.85 200.91 171.97L204.51 176.76Z" fill="#263238"/>
<path d="M198.34 170.17C194.65 172.77 193.19 176.55 197.27 180.25C201.35 183.95 207.17 183.83 208.93 182.31C210.69 180.79 210.34 173.07 210.34 173.07L198.34 170.17Z" fill="#11CDA0"/>
<path opacity="0.8" d="M198.34 170.17C194.65 172.77 193.19 176.55 197.27 180.25C201.35 183.95 207.17 183.83 208.93 182.31C210.69 180.79 210.34 173.07 210.34 173.07L198.34 170.17Z" fill="white"/>
<path d="M244.94 219.36C245.04 219.81 245.21 220.51 245.37 221.1L245.85 222.98C246.19 224.24 246.56 225.5 246.95 226.76C247.69 229.3 248.51 231.83 249.37 234.36C250.23 236.89 251.11 239.36 252.07 241.92C252.54 243.17 253.01 244.43 253.51 245.68L254.09 247.18C254.206 247.436 254.357 247.675 254.54 247.89C255.964 249.33 257.698 250.424 259.61 251.09C261.946 252.03 264.353 252.779 266.81 253.33C269.35 253.92 271.96 254.41 274.6 254.82C277.24 255.23 279.95 255.56 282.55 255.82L282.64 261.2C276.935 261.79 271.185 261.79 265.48 261.2C262.498 260.893 259.55 260.32 256.67 259.49C255.11 259.019 253.592 258.42 252.13 257.7C250.447 256.882 248.907 255.798 247.57 254.49C246.794 253.717 246.121 252.846 245.57 251.9C245.42 251.66 245.29 251.39 245.15 251.14L244.89 250.6L244.43 249.6C243.81 248.33 243.19 247.06 242.62 245.77C241.46 243.19 240.33 240.59 239.32 237.94C238.31 235.29 237.32 232.62 236.48 229.94C236.07 228.56 235.67 227.19 235.3 225.78L234.75 223.67C234.59 222.91 234.44 222.28 234.28 221.38L244.94 219.36Z" fill="#E58A7B"/>
<path d="M241.54 208C245.83 209.09 248.82 226.73 248.82 226.73L237.01 234.73C237.01 234.73 225.68 216.93 229.01 212.22C232.42 207.38 235.28 206.44 241.54 208Z" fill="#11CDA0"/>
<path opacity="0.5" d="M241.54 208C245.83 209.09 248.82 226.73 248.82 226.73L237.01 234.73C237.01 234.73 225.68 216.93 229.01 212.22C232.42 207.38 235.28 206.44 241.54 208Z" fill="white"/>
<path opacity="0.2" d="M240 212.44L229.73 220.58C231.73 225.525 234.163 230.283 237 234.8L245.19 229.23L240 212.44Z" fill="#11CDA0"/>
<path d="M241.54 208C241.54 208 246.54 209.74 236.54 270.77H194.32C195.03 253.58 195.05 242.98 186.84 207.69C192.752 206.472 198.744 205.683 204.77 205.33C211.158 204.874 217.571 204.874 223.96 205.33C232.2 206.12 241.54 208 241.54 208Z" fill="#11CDA0"/>
<path opacity="0.5" d="M241.54 208C241.54 208 246.54 209.74 236.54 270.77H194.32C195.03 253.58 195.05 242.98 186.84 207.69C192.752 206.472 198.744 205.683 204.77 205.33C211.158 204.874 217.571 204.874 223.96 205.33C232.2 206.12 241.54 208 241.54 208Z" fill="white"/>
<path d="M281 255.77L288.37 248.29L289.37 258.83C289.37 258.83 283.84 262.57 280.02 260.56L281 255.77Z" fill="#E58A7B"/>
<path d="M297.07 247.18L297.4 256.04L289.36 258.83L288.39 248.29L297.07 247.18Z" fill="#E58A7B"/>
<path d="M284.46 397.3H294.86L296.46 373.21H286.06L284.46 397.3Z" fill="#E58A7B"/>
<path d="M244.21 397.3H254.61L257.95 373.21H247.55L244.21 397.3Z" fill="#E58A7B"/>
<path d="M255.26 396.09H243.57C243.369 396.086 243.173 396.156 243.02 396.287C242.866 396.418 242.767 396.6 242.74 396.8L241.41 406.05C241.386 406.284 241.412 406.52 241.485 406.743C241.558 406.966 241.677 407.171 241.834 407.346C241.992 407.52 242.184 407.659 242.398 407.755C242.613 407.85 242.845 407.9 243.08 407.9C247.15 407.83 249.08 407.59 254.25 407.59C257.41 407.59 265.52 407.92 269.89 407.92C274.26 407.92 274.49 403.6 272.67 403.21C264.52 401.45 259.74 399.04 256.99 396.73C256.508 396.318 255.894 396.091 255.26 396.09Z" fill="#263238"/>
<path d="M295.67 396.09H284C283.799 396.088 283.604 396.159 283.452 396.289C283.299 396.42 283.199 396.601 283.17 396.8L281.84 406.05C281.816 406.284 281.842 406.52 281.915 406.743C281.988 406.966 282.107 407.171 282.264 407.346C282.422 407.52 282.614 407.659 282.828 407.755C283.043 407.85 283.275 407.9 283.51 407.9C287.58 407.83 289.51 407.59 294.68 407.59C297.85 407.59 304.38 407.92 308.75 407.92C313.12 407.92 313.35 403.6 311.53 403.21C303.38 401.45 300.17 399.04 297.43 396.73C296.938 396.314 296.314 396.087 295.67 396.09Z" fill="#263238"/>
<path d="M233.25 162.72C236.99 162.96 238.89 181.72 227.92 180.63C216.95 179.54 233.25 162.72 233.25 162.72Z" fill="#263238"/>
<path d="M296.46 373.21L295.63 385.63H285.23L286.05 373.21H296.46Z" fill="#CF6F64"/>
<path d="M247.55 373.21H257.96L256.23 385.63H245.82L247.55 373.21Z" fill="#CF6F64"/>
<path opacity="0.2" d="M191.06 227.31C192.06 232.43 192.77 236.85 193.31 240.83L195.78 221.72L191.06 227.31Z" fill="#11CDA0"/>
<path d="M206.67 183.77C207.88 189.94 209.09 201.25 204.77 205.37C204.77 205.37 206.46 211.63 217.93 211.63C230.54 211.63 223.93 205.37 223.93 205.37C217.04 203.73 217.22 198.62 218.42 193.83L206.67 183.77Z" fill="#E58A7B"/>
<path d="M215.65 212.97L219.49 211.59L218.98 210.54L215.65 212.97Z" fill="#263238"/>
<path d="M223.1 212.17L219.49 211.59L220.27 210.42L223.1 212.17Z" fill="#263238"/>
<path d="M206.17 202.46L203.56 205C203.482 205.08 203.438 205.188 203.438 205.3C203.438 205.412 203.482 205.52 203.56 205.6L214.56 218.13C215.083 215.154 216.677 212.472 219.04 210.59C209.94 207.15 207.57 203.59 206.76 202.59C206.741 202.532 206.707 202.48 206.662 202.439C206.617 202.398 206.562 202.369 206.502 202.356C206.443 202.343 206.38 202.345 206.322 202.364C206.264 202.382 206.211 202.415 206.17 202.46Z" fill="#11CDA0"/>
<path d="M221.89 204.38L225.13 205.26C225.227 205.287 225.315 205.339 225.385 205.411C225.456 205.483 225.505 205.572 225.53 205.67C226.445 209.779 226.273 214.057 225.03 218.08C224.57 216.38 223.03 212.31 220.27 210.42C223.27 208.35 222.06 205.68 221.63 204.67C221.616 204.632 221.613 204.591 221.62 204.552C221.628 204.513 221.646 204.476 221.672 204.446C221.699 204.416 221.734 204.394 221.772 204.383C221.81 204.371 221.851 204.37 221.89 204.38Z" fill="#11CDA0"/>
<path d="M211.48 187.87L218.48 193.82C218.189 194.935 217.992 196.072 217.89 197.22C215.26 196.84 211.65 193.96 211.37 191.22C211.198 190.106 211.236 188.97 211.48 187.87Z" fill="#CF6F64"/>
<path d="M206 167.51C204.81 177.76 204.08 182.08 208.28 188.2C214.58 197.41 227.44 196.63 231.67 186.94C235.48 178.22 236.78 162.94 227.58 157.1C225.556 155.808 223.236 155.055 220.839 154.913C218.442 154.771 216.049 155.243 213.887 156.287C211.724 157.33 209.864 158.908 208.484 160.873C207.104 162.837 206.248 165.122 206 167.51Z" fill="#E58A7B"/>
<path d="M229.44 150.58C212.49 143.89 199.76 151.44 197.13 162.17C193 178.83 206.19 180 206.19 180L207.84 175.74C210.21 177.17 216.84 176.54 214.84 164.17C213.66 157.17 222.52 166.92 233.76 165.83C236.75 165.54 240.84 155.08 229.44 150.58Z" fill="#263238"/>
<path d="M235.21 154.7C232.98 151.27 228.42 148.33 218.97 146.94C218.97 146.94 223.88 148.05 225.47 151.64C227.06 155.23 237.9 158.83 235.21 154.7Z" fill="#263238"/>
<path d="M202.74 176.38C202.671 177.366 202.797 178.355 203.111 179.292C203.425 180.229 203.921 181.095 204.57 181.84C206.32 183.84 208.62 182.61 209.34 180.21C209.98 178.04 209.85 174.4 207.51 173.3C205.17 172.2 202.93 173.94 202.74 176.38Z" fill="#E58A7B"/>
<path d="M236.57 270.81C236.57 270.81 306.31 277.3 305.63 309.01C304.92 342.01 297.86 383.23 297.86 383.23H283.45C283.45 383.23 282.22 348.35 281.8 315.86C281.59 298.94 214.2 295.55 214.2 295.55L205.5 270.81H236.57Z" fill="#263238"/>
<path d="M225.41 270.81C225.41 270.81 270.48 285.76 271.62 304.26C273.71 338.32 258.74 383.26 258.74 383.26H244.55C244.55 383.26 245.36 353.46 247.05 322.6C249.19 283.82 180.77 322.06 194.32 270.84L225.41 270.81Z" fill="#263238"/>
<path d="M220.83 173.1C220.68 173.92 221 174.67 221.54 174.77C222.08 174.87 222.63 174.27 222.78 173.45C222.93 172.63 222.61 171.87 222.07 171.78C221.53 171.69 221 172.27 220.83 173.1Z" fill="#263238"/>
<path d="M230.16 174.77C230.01 175.59 230.33 176.34 230.87 176.44C231.41 176.54 231.97 175.94 232.12 175.12C232.27 174.3 231.95 173.54 231.41 173.45C230.87 173.36 230.31 173.94 230.16 174.77Z" fill="#263238"/>
<path d="M231.16 173.45L233.25 173.23C233.25 173.23 232 174.6 231.16 173.45Z" fill="#263238"/>
<path d="M227.44 175.74C227.84 177.755 228.513 179.706 229.44 181.54C228.969 181.754 228.457 181.865 227.94 181.865C227.422 181.865 226.911 181.754 226.44 181.54L227.44 175.74Z" fill="#DF5753"/>
<path d="M223 184.21C221.903 184.036 220.862 183.606 219.962 182.954C219.062 182.303 218.328 181.448 217.82 180.46C217.803 180.422 217.802 180.378 217.817 180.339C217.832 180.299 217.862 180.267 217.9 180.25C217.94 180.236 217.983 180.238 218.022 180.254C218.061 180.271 218.092 180.302 218.11 180.34C218.591 181.274 219.283 182.082 220.132 182.7C220.982 183.318 221.964 183.729 223 183.9C223.041 183.91 223.078 183.934 223.102 183.97C223.126 184.005 223.136 184.048 223.13 184.09C223.122 184.121 223.106 184.148 223.083 184.17C223.06 184.191 223.031 184.205 223 184.21Z" fill="#263238"/>
<path d="M218.64 169.41C218.597 169.411 218.553 169.403 218.514 169.386C218.474 169.369 218.438 169.343 218.41 169.31C218.38 169.282 218.356 169.248 218.339 169.21C218.322 169.172 218.314 169.131 218.314 169.09C218.314 169.048 218.322 169.008 218.339 168.97C218.356 168.932 218.38 168.898 218.41 168.87C218.949 168.343 219.606 167.954 220.326 167.735C221.047 167.516 221.809 167.473 222.55 167.61C222.628 167.633 222.695 167.685 222.735 167.756C222.776 167.827 222.789 167.91 222.77 167.99C222.761 168.03 222.743 168.068 222.719 168.102C222.695 168.135 222.664 168.163 222.629 168.185C222.593 168.206 222.554 168.22 222.513 168.226C222.472 168.232 222.43 168.23 222.39 168.22C221.751 168.107 221.094 168.149 220.475 168.342C219.856 168.535 219.292 168.874 218.83 169.33C218.776 169.375 218.71 169.403 218.64 169.41Z" fill="#263238"/>
<path d="M235.26 171.05C235.198 171.052 235.137 171.035 235.085 171.001C235.033 170.967 234.993 170.918 234.97 170.86C234.726 170.26 234.343 169.726 233.853 169.302C233.362 168.878 232.779 168.576 232.15 168.42C232.068 168.405 231.996 168.36 231.947 168.293C231.899 168.225 231.878 168.142 231.89 168.06C231.905 167.977 231.952 167.902 232.021 167.854C232.09 167.805 232.176 167.786 232.26 167.8C232.992 167.97 233.673 168.314 234.244 168.803C234.815 169.292 235.26 169.912 235.54 170.61C235.574 170.687 235.576 170.774 235.546 170.853C235.516 170.932 235.456 170.995 235.38 171.03L235.26 171.05Z" fill="#263238"/>
<path d="M193.15 222.78C192.24 225.78 191.26 228.78 190.39 231.86C189.52 234.94 188.6 237.94 187.81 240.99C187.02 244.04 186.27 247.06 185.71 249.99C185.44 251.47 185.19 252.94 185.05 254.32C184.97 255.01 184.93 255.66 184.92 256.26C184.92 256.4 184.92 256.26 184.82 256.03C184.698 255.759 184.529 255.512 184.32 255.3C183.81 254.86 183.62 254.94 183.85 255.01C184.269 255.112 184.699 255.155 185.13 255.14C186.476 255.094 187.815 254.923 189.13 254.63C192.109 253.974 195.044 253.135 197.92 252.12C203.83 250.12 209.83 247.68 215.67 245.19L218.25 249.9C212.709 253.532 206.918 256.767 200.92 259.58C197.814 261.045 194.61 262.291 191.33 263.31C189.504 263.866 187.629 264.244 185.73 264.44C184.544 264.561 183.348 264.531 182.17 264.35C181.388 264.233 180.625 264.014 179.9 263.7C178.963 263.295 178.114 262.71 177.4 261.98C176.013 260.518 175.219 258.594 175.17 256.58C175.12 255.58 175.11 254.58 175.17 253.68C175.24 251.83 175.41 250.08 175.64 248.37C176.12 244.95 176.74 241.65 177.5 238.37C178.26 235.09 179.07 231.92 179.96 228.74C180.85 225.56 181.81 222.44 182.96 219.26L193.15 222.78Z" fill="#E58A7B"/>
<path d="M258.82 397.84C257.899 397.817 256.983 397.69 256.09 397.46C256.057 397.454 256.026 397.437 256.002 397.413C255.978 397.389 255.961 397.359 255.955 397.325C255.949 397.292 255.952 397.258 255.966 397.226C255.979 397.195 256.001 397.168 256.03 397.15C256.38 396.92 259.5 394.9 260.69 395.43C260.815 395.486 260.922 395.576 260.999 395.689C261.077 395.801 261.122 395.933 261.13 396.07C261.18 396.292 261.171 396.523 261.104 396.74C261.038 396.958 260.916 397.154 260.75 397.31C260.189 397.709 259.506 397.896 258.82 397.84ZM256.57 397.22C258.5 397.62 259.95 397.57 260.51 397.05C260.632 396.932 260.721 396.784 260.77 396.621C260.819 396.459 260.826 396.286 260.79 396.12C260.786 396.041 260.761 395.965 260.717 395.9C260.673 395.835 260.612 395.783 260.54 395.75C259.78 395.41 257.67 396.54 256.57 397.22Z" fill="#11CDA0"/>
<path d="M256.13 397.47H256.04C256.012 397.454 255.989 397.43 255.973 397.402C255.957 397.374 255.949 397.342 255.95 397.31C255.95 397.19 255.95 394.23 257.07 393.25C257.201 393.124 257.36 393.031 257.533 392.977C257.707 392.923 257.891 392.91 258.07 392.94C258.25 392.938 258.425 392.999 258.566 393.112C258.706 393.225 258.803 393.383 258.84 393.56C259.05 394.64 257.31 396.85 256.22 397.47H256.13ZM257.89 393.25C257.67 393.251 257.459 393.337 257.3 393.49C256.51 394.19 256.35 396.17 256.3 396.96C257.3 396.24 258.64 394.42 258.47 393.61C258.47 393.48 258.37 393.31 258.01 393.26L257.89 393.25Z" fill="#11CDA0"/>
<path d="M299.58 397.84C298.481 397.816 297.387 397.692 296.31 397.47C296.275 397.461 296.243 397.442 296.218 397.416C296.193 397.389 296.176 397.356 296.17 397.32C296.165 397.283 296.172 397.246 296.19 397.213C296.208 397.181 296.236 397.155 296.27 397.14C296.73 396.9 300.84 394.8 302.09 395.48C302.199 395.54 302.29 395.627 302.357 395.732C302.423 395.836 302.462 395.956 302.47 396.08C302.498 396.288 302.475 396.501 302.401 396.698C302.328 396.895 302.207 397.071 302.05 397.21C301.323 397.696 300.451 397.918 299.58 397.84ZM296.89 397.22C298.23 397.45 300.89 397.78 301.81 396.96C301.925 396.853 302.013 396.72 302.067 396.572C302.12 396.424 302.139 396.266 302.12 396.11C302.119 396.042 302.1 395.976 302.065 395.918C302.03 395.86 301.98 395.812 301.92 395.78C301.1 395.34 298.34 396.51 296.89 397.22Z" fill="#11CDA0"/>
<path d="M296.35 397.47C296.317 397.48 296.282 397.48 296.25 397.47C296.226 397.451 296.206 397.427 296.192 397.399C296.178 397.371 296.171 397.341 296.17 397.31C296.17 397.19 296.42 394.42 297.7 393.31C297.879 393.157 298.088 393.043 298.313 392.974C298.539 392.905 298.776 392.883 299.01 392.91C299.65 392.97 299.83 393.29 299.88 393.54C300.06 394.69 297.64 396.89 296.42 397.44L296.35 397.47ZM298.82 393.25C298.491 393.249 298.174 393.37 297.93 393.59C296.99 394.37 296.66 396.24 296.56 396.99C297.87 396.26 299.66 394.38 299.56 393.61C299.56 393.53 299.56 393.31 299.01 393.26L298.82 393.25Z" fill="#11CDA0"/>
<path d="M215.43 245.35L225.29 242.85L220.59 252.32C220.59 252.32 213.92 252.61 211.72 248.89L215.43 245.35Z" fill="#E58A7B"/>
<path d="M233.26 246.44L228.9 254.16L220.59 252.32L225.29 242.85L233.26 246.44Z" fill="#E58A7B"/>
<path d="M221.82 171.78L223.91 171.56C223.91 171.56 222.62 172.93 221.82 171.78Z" fill="#263238"/>
<path d="M193.69 268.33L193.35 272.11C193.21 272.41 193.55 272.71 194.04 272.71H236.78C237.16 272.71 237.47 272.52 237.5 272.28L237.88 268.5C237.88 268.24 237.57 268.02 237.16 268.02H194.38C194.248 268.009 194.115 268.031 193.995 268.086C193.874 268.14 193.769 268.224 193.69 268.33Z" fill="#11CDA0"/>
<path d="M199.44 273.12H198.29C198.06 273.12 197.89 273 197.9 272.86L198.44 267.94C198.44 267.8 198.66 267.68 198.89 267.68H200C200.23 267.68 200.4 267.8 200.39 267.94L199.85 272.86C199.86 273 199.66 273.12 199.44 273.12Z" fill="#263238"/>
<path d="M233.56 273.12H232.41C232.18 273.12 232.01 273 232.02 272.86L232.56 267.94C232.56 267.8 232.78 267.68 233.01 267.68H234.15C234.38 267.68 234.55 267.8 234.54 267.94L234 272.86C234 273 233.78 273.12 233.56 273.12Z" fill="#263238"/>
<path d="M216.5 273.12H215.35C215.12 273.12 214.95 273 214.96 272.86L215.5 267.94C215.5 267.8 215.72 267.68 215.95 267.68H217.09C217.32 267.68 217.49 267.8 217.48 267.94L216.94 272.86C216.92 273 216.73 273.12 216.5 273.12Z" fill="#263238"/>
<path d="M186.84 207.73C182.6 209.02 177.52 223.59 177.52 223.59L191.17 236.92C191.17 236.92 199.93 223.17 198.17 217.7C196.3 212 191.67 206.27 186.84 207.73Z" fill="#11CDA0"/>
<path opacity="0.5" d="M186.84 207.73C182.6 209.02 177.52 223.59 177.52 223.59L191.17 236.92C191.17 236.92 199.93 223.17 198.17 217.7C196.3 212 191.67 206.27 186.84 207.73Z" fill="white"/>
<path d="M413.66 260.42H334.1V415.17H413.66V260.42Z" fill="#11CDA0"/>
<path opacity="0.6" d="M413.66 260.42H334.1V415.17H413.66V260.42Z" fill="white"/>
<path d="M259.53 260.42H179.97V415.17H259.53V260.42Z" fill="#11CDA0"/>
<path opacity="0.6" d="M259.53 260.42H179.97V415.17H259.53V260.42Z" fill="white"/>
<path d="M416.64 260.42H410.08V415.17H416.64V260.42Z" fill="#11CDA0"/>
<path opacity="0.3" d="M416.64 260.42H410.08V415.17H416.64V260.42Z" fill="black"/>
<path d="M260.48 272.03H418.67V260.42H260.48V272.03Z" fill="#11CDA0"/>
<path opacity="0.3" d="M260.48 272.03H418.67V260.42H260.48V272.03Z" fill="black"/>
<path d="M262.52 260.42H255.96V415.17H262.52V260.42Z" fill="#11CDA0"/>
<path opacity="0.3" d="M262.52 260.42H255.96V415.17H262.52V260.42Z" fill="black"/>
<path d="M260.1 297.44H413.36V264.01H260.1V297.44Z" fill="#11CDA0"/>
<path opacity="0.3" d="M260.1 297.44H413.36V264.01H260.1V297.44Z" fill="black"/>
<path d="M413.7 419.67H369.53C366.531 419.667 363.656 418.475 361.536 416.354C359.415 414.234 358.223 411.359 358.22 408.36V269C358.22 266.348 357.166 263.804 355.291 261.929C353.416 260.054 350.872 259 348.22 259H335V258H348.21C351.127 258 353.925 259.159 355.988 261.222C358.051 263.285 359.21 266.083 359.21 269V408.36C359.213 411.094 360.3 413.714 362.233 415.647C364.166 417.58 366.786 418.667 369.52 418.67H413.7C414.452 418.671 415.185 418.435 415.795 417.996C416.405 417.556 416.86 416.935 417.096 416.221C417.332 415.507 417.337 414.737 417.11 414.02C416.882 413.304 416.434 412.677 415.83 412.23L416.42 411.43C417.192 412.003 417.763 412.804 418.053 413.72C418.344 414.636 418.338 415.62 418.036 416.533C417.735 417.445 417.154 418.239 416.376 418.803C415.597 419.366 414.661 419.669 413.7 419.67Z" fill="#11CDA0"/>
<path opacity="0.3" d="M413.7 419.67H369.53C366.531 419.667 363.656 418.475 361.536 416.354C359.415 414.234 358.223 411.359 358.22 408.36V269C358.22 266.348 357.166 263.804 355.291 261.929C353.416 260.054 350.872 259 348.22 259H335V258H348.21C351.127 258 353.925 259.159 355.988 261.222C358.051 263.285 359.21 266.083 359.21 269V408.36C359.213 411.094 360.3 413.714 362.233 415.647C364.166 417.58 366.786 418.667 369.52 418.67H413.7C414.452 418.671 415.185 418.435 415.795 417.996C416.405 417.556 416.86 416.935 417.096 416.221C417.332 415.507 417.337 414.737 417.11 414.02C416.882 413.304 416.434 412.677 415.83 412.23L416.42 411.43C417.192 412.003 417.763 412.804 418.053 413.72C418.344 414.636 418.338 415.62 418.036 416.533C417.735 417.445 417.154 418.239 416.376 418.803C415.597 419.366 414.661 419.669 413.7 419.67Z" fill="black"/>
<path d="M420.14 306.08H419.14V325.41H420.14V306.08Z" fill="#11CDA0"/>
<path opacity="0.3" d="M420.14 306.08H419.14V325.41H420.14V306.08Z" fill="black"/>
<path d="M420.14 294.67H419.14V299.75H420.14V294.67Z" fill="#11CDA0"/>
<path opacity="0.3" d="M420.14 294.67H419.14V299.75H420.14V294.67Z" fill="black"/>
<path d="M346.9 214.22H272.76L262.02 258H336.15L346.9 214.22Z" fill="#11CDA0"/>
<path opacity="0.4" d="M346.9 214.22H272.76L262.02 258H336.15L346.9 214.22Z" fill="white"/>
<path d="M264.29 258L263.99 260.42H234.9L235.2 258H264.29Z" fill="#11CDA0"/>
<path opacity="0.4" d="M264.29 258L263.99 260.42H234.9L235.2 258H264.29Z" fill="white"/>
<path d="M338.43 258L338.13 260.42H263.99L264.29 258H338.43Z" fill="#11CDA0"/>
<path opacity="0.5" d="M338.43 258L338.13 260.42H263.99L264.29 258H338.43Z" fill="black"/>
<path d="M349.18 214.22H275.04L264.3 258H338.43L349.18 214.22Z" fill="#11CDA0"/>
<path opacity="0.5" d="M349.18 214.22H275.04L264.3 258H338.43L349.18 214.22Z" fill="black"/>
<path d="M377.81 249.39C377.81 249.39 366.9 230.58 382 215.61C382 215.61 385.95 218.19 385.89 221.61C385.83 225.03 381.66 225.95 382.55 228.83C383.44 231.71 387.39 234.56 384.8 236.95C382.21 239.34 385.22 241.46 385.04 244.38C384.86 247.3 377.81 249.39 377.81 249.39Z" fill="#11CDA0"/>
<path d="M378.64 251.11C378.64 251.11 383.06 229.82 363.98 220.39C363.98 220.39 361.04 224.08 362.19 227.39C363.34 230.7 367.57 230.17 367.63 233.2C367.69 236.23 364.85 240.15 368.06 241.6C371.27 243.05 369.06 246.02 370.17 248.74C371.28 251.46 378.64 251.11 378.64 251.11Z" fill="#11CDA0"/>
<path opacity="0.5" d="M378.64 251.11C378.64 251.11 383.06 229.82 363.98 220.39C363.98 220.39 361.04 224.08 362.19 227.39C363.34 230.7 367.57 230.17 367.63 233.2C367.69 236.23 364.85 240.15 368.06 241.6C371.27 243.05 369.06 246.02 370.17 248.74C371.28 251.46 378.64 251.11 378.64 251.11Z" fill="black"/>
<path d="M361.92 246.39C361.92 246.39 362.29 260.39 376.2 260.39C390.11 260.39 390.47 246.39 390.47 246.39H361.92Z" fill="#11CDA0"/>
<path opacity="0.5" d="M361.92 246.39C361.92 246.39 362.29 260.39 376.2 260.39C390.11 260.39 390.47 246.39 390.47 246.39H361.92Z" fill="black"/>
<path d="M287.15 154.66L275.27 139.31L263.39 154.66H268.98V174.53H281.56V154.66H287.15Z" fill="#11CDA0"/>
<path d="M322 172.71C322 165.284 324.95 158.162 330.201 152.911C335.452 147.66 342.574 144.71 350 144.71V152C347.282 151.999 344.591 152.533 342.079 153.572C339.568 154.611 337.286 156.135 335.363 158.056C333.441 159.978 331.916 162.259 330.876 164.77C329.835 167.281 329.3 169.972 329.3 172.69L322 172.71Z" fill="#11CDA0"/>
<path d="M322 172.71H329.3C329.3 178.2 331.481 183.465 335.363 187.347C339.245 191.229 344.51 193.41 350 193.41C353.632 193.417 357.201 192.457 360.34 190.63L364 197C359.743 199.458 354.915 200.751 350 200.751C345.085 200.751 340.256 199.457 335.999 197C331.743 194.542 328.208 191.007 325.751 186.75C323.293 182.494 322 177.665 322 172.75V172.71Z" fill="#11CDA0"/>
<path opacity="0.5" d="M322 172.71H329.3C329.3 178.2 331.481 183.465 335.363 187.347C339.245 191.229 344.51 193.41 350 193.41C353.632 193.417 357.201 192.457 360.34 190.63L364 197C359.743 199.458 354.915 200.751 350 200.751C345.085 200.751 340.256 199.457 335.999 197C331.743 194.542 328.208 191.007 325.751 186.75C323.293 182.494 322 177.665 322 172.75V172.71Z" fill="white"/>
<path d="M350 152V144.69C356.183 144.667 362.201 146.69 367.113 150.446C372.025 154.202 375.556 159.478 377.155 165.451C378.754 171.424 378.33 177.759 375.95 183.466C373.571 189.173 369.369 193.932 364 197L360.35 190.67C364.326 188.407 367.439 184.889 369.203 180.668C370.968 176.447 371.283 171.76 370.1 167.34C368.917 162.921 366.303 159.018 362.666 156.243C359.029 153.467 354.575 151.975 350 152Z" fill="#11CDA0"/>
<path opacity="0.7" d="M350 152V144.69C356.183 144.667 362.201 146.69 367.113 150.446C372.025 154.202 375.556 159.478 377.155 165.451C378.754 171.424 378.33 177.759 375.95 183.466C373.571 189.173 369.369 193.932 364 197L360.35 190.67C364.326 188.407 367.439 184.889 369.203 180.668C370.968 176.447 371.283 171.76 370.1 167.34C368.917 162.921 366.303 159.018 362.666 156.243C359.029 153.467 354.575 151.975 350 152Z" fill="black"/>
<path d="M323.71 104H298.2C297.29 104 296.418 104.361 295.775 105.005C295.131 105.648 294.77 106.52 294.77 107.43V154.6C294.778 155.504 295.143 156.369 295.785 157.006C296.428 157.643 297.296 158 298.2 158H330.85C331.758 157.997 332.628 157.635 333.269 156.992C333.91 156.349 334.27 155.478 334.27 154.57V114.57L323.71 104Z" fill="#263238"/>
<path d="M322.21 153.31H301C300.602 153.31 300.221 153.152 299.939 152.87C299.658 152.589 299.5 152.208 299.5 151.81C299.503 151.414 299.662 151.035 299.943 150.756C300.224 150.476 300.604 150.32 301 150.32H322.22C322.616 150.32 322.996 150.476 323.277 150.756C323.558 151.035 323.717 151.414 323.72 151.81C323.717 152.209 323.557 152.59 323.274 152.871C322.991 153.152 322.609 153.31 322.21 153.31Z" fill="#11CDA0"/>
<path d="M312.21 111.73H301C300.604 111.73 300.224 111.574 299.943 111.294C299.662 111.015 299.503 110.636 299.5 110.24C299.5 109.842 299.658 109.461 299.939 109.18C300.221 108.898 300.602 108.74 301 108.74H312.22C312.618 108.74 312.999 108.898 313.281 109.18C313.562 109.461 313.72 109.842 313.72 110.24C313.719 110.437 313.679 110.632 313.602 110.814C313.525 110.995 313.414 111.16 313.274 111.298C313.133 111.436 312.967 111.546 312.785 111.62C312.602 111.694 312.407 111.732 312.21 111.73Z" fill="#11CDA0"/>
<path d="M319.54 117.67H301C300.604 117.67 300.224 117.514 299.943 117.234C299.662 116.955 299.503 116.576 299.5 116.18C299.5 115.782 299.658 115.401 299.939 115.12C300.221 114.838 300.602 114.68 301 114.68H319.55C319.946 114.683 320.325 114.842 320.604 115.123C320.883 115.404 321.04 115.784 321.04 116.18C321.04 116.377 321.001 116.571 320.926 116.753C320.85 116.934 320.739 117.099 320.6 117.237C320.461 117.376 320.295 117.485 320.113 117.56C319.931 117.634 319.737 117.671 319.54 117.67Z" fill="#11CDA0"/>
<path d="M328.06 123.61H301C300.604 123.61 300.224 123.453 299.943 123.174C299.662 122.895 299.503 122.516 299.5 122.12C299.5 121.722 299.658 121.341 299.939 121.059C300.221 120.778 300.602 120.62 301 120.62H328.07C328.468 120.62 328.849 120.778 329.131 121.059C329.412 121.341 329.57 121.722 329.57 122.12C329.569 122.317 329.529 122.512 329.452 122.693C329.375 122.875 329.264 123.039 329.124 123.178C328.983 123.316 328.817 123.426 328.635 123.5C328.452 123.574 328.257 123.611 328.06 123.61Z" fill="#11CDA0"/>
<path d="M328.06 129.55H312.32C311.924 129.55 311.544 129.393 311.263 129.114C310.982 128.835 310.823 128.456 310.82 128.06C310.82 127.662 310.978 127.281 311.259 126.999C311.541 126.718 311.922 126.56 312.32 126.56H328.06C328.458 126.56 328.839 126.718 329.121 126.999C329.402 127.281 329.56 127.662 329.56 128.06C329.557 128.456 329.398 128.835 329.117 129.114C328.836 129.393 328.456 129.55 328.06 129.55Z" fill="#11CDA0"/>
<path d="M305.1 129.55H301C300.604 129.55 300.224 129.393 299.943 129.114C299.662 128.835 299.503 128.456 299.5 128.06C299.5 127.662 299.658 127.281 299.939 126.999C300.221 126.718 300.602 126.56 301 126.56H305.11C305.508 126.56 305.889 126.718 306.171 126.999C306.452 127.281 306.61 127.662 306.61 128.06C306.609 128.257 306.569 128.452 306.492 128.633C306.415 128.815 306.304 128.979 306.164 129.118C306.023 129.256 305.857 129.366 305.675 129.44C305.492 129.514 305.297 129.551 305.1 129.55Z" fill="#11CDA0"/>
<path d="M328.06 135.49H301C300.602 135.49 300.221 135.332 299.939 135.051C299.658 134.769 299.5 134.388 299.5 133.99C299.503 133.594 299.662 133.215 299.943 132.936C300.224 132.657 300.604 132.5 301 132.5H328.07C328.466 132.5 328.846 132.657 329.127 132.936C329.408 133.215 329.567 133.594 329.57 133.99C329.57 134.188 329.531 134.384 329.455 134.566C329.379 134.749 329.267 134.915 329.127 135.054C328.987 135.194 328.82 135.304 328.637 135.379C328.454 135.453 328.258 135.491 328.06 135.49Z" fill="#11CDA0"/>
<path d="M317.61 141.43H301C300.602 141.43 300.221 141.272 299.939 140.991C299.658 140.709 299.5 140.328 299.5 139.93C299.503 139.534 299.662 139.155 299.943 138.876C300.224 138.597 300.604 138.44 301 138.44H317.62C318.016 138.44 318.396 138.597 318.677 138.876C318.958 139.155 319.117 139.534 319.12 139.93C319.12 140.128 319.081 140.324 319.005 140.506C318.929 140.689 318.817 140.855 318.677 140.994C318.537 141.134 318.37 141.244 318.187 141.319C318.004 141.393 317.808 141.431 317.61 141.43Z" fill="#11CDA0"/>
<path d="M328.06 141.43H323.62C323.224 141.427 322.845 141.268 322.566 140.987C322.287 140.706 322.13 140.326 322.13 139.93C322.13 139.535 322.287 139.156 322.567 138.876C322.846 138.597 323.225 138.44 323.62 138.44H328.06C328.456 138.44 328.836 138.597 329.117 138.876C329.398 139.155 329.557 139.534 329.56 139.93C329.56 140.328 329.402 140.709 329.121 140.991C328.839 141.272 328.458 141.43 328.06 141.43Z" fill="#11CDA0"/>
<path d="M328.06 147.37H301C300.602 147.37 300.221 147.212 299.939 146.931C299.658 146.649 299.5 146.268 299.5 145.87C299.503 145.474 299.662 145.095 299.943 144.816C300.224 144.537 300.604 144.38 301 144.38H328.07C328.466 144.38 328.846 144.537 329.127 144.816C329.408 145.095 329.567 145.474 329.57 145.87C329.57 146.068 329.531 146.264 329.455 146.446C329.379 146.629 329.267 146.795 329.127 146.934C328.987 147.074 328.82 147.184 328.637 147.259C328.454 147.333 328.258 147.371 328.06 147.37Z" fill="#11CDA0"/>
<g opacity="0.5">
<path opacity="0.5" d="M322.21 153.31H301C300.602 153.31 300.221 153.152 299.939 152.87C299.658 152.589 299.5 152.208 299.5 151.81C299.503 151.414 299.662 151.035 299.943 150.756C300.224 150.476 300.604 150.32 301 150.32H322.22C322.616 150.32 322.996 150.476 323.277 150.756C323.558 151.035 323.717 151.414 323.72 151.81C323.717 152.209 323.557 152.59 323.274 152.871C322.991 153.152 322.609 153.31 322.21 153.31Z" fill="white"/>
</g>
<g opacity="0.5">
<path opacity="0.5" d="M312.21 111.73H301C300.604 111.73 300.224 111.574 299.943 111.294C299.662 111.015 299.503 110.636 299.5 110.24C299.5 109.842 299.658 109.461 299.939 109.18C300.221 108.898 300.602 108.74 301 108.74H312.22C312.618 108.74 312.999 108.898 313.281 109.18C313.562 109.461 313.72 109.842 313.72 110.24C313.719 110.437 313.679 110.632 313.602 110.814C313.525 110.995 313.414 111.16 313.274 111.298C313.133 111.436 312.967 111.546 312.785 111.62C312.602 111.694 312.407 111.732 312.21 111.73Z" fill="white"/>
</g>
<g opacity="0.5">
<path opacity="0.5" d="M319.54 117.67H301C300.604 117.67 300.224 117.514 299.943 117.234C299.662 116.955 299.503 116.576 299.5 116.18C299.5 115.782 299.658 115.401 299.939 115.12C300.221 114.838 300.602 114.68 301 114.68H319.55C319.946 114.683 320.325 114.842 320.604 115.123C320.883 115.404 321.04 115.784 321.04 116.18C321.04 116.377 321.001 116.571 320.926 116.753C320.85 116.934 320.739 117.099 320.6 117.237C320.461 117.376 320.295 117.485 320.113 117.56C319.931 117.634 319.737 117.671 319.54 117.67Z" fill="white"/>
</g>
<g opacity="0.5">
<path opacity="0.5" d="M328.06 123.61H301C300.604 123.61 300.224 123.453 299.943 123.174C299.662 122.895 299.503 122.516 299.5 122.12C299.5 121.722 299.658 121.341 299.939 121.059C300.221 120.778 300.602 120.62 301 120.62H328.07C328.468 120.62 328.849 120.778 329.131 121.059C329.412 121.341 329.57 121.722 329.57 122.12C329.569 122.317 329.529 122.512 329.452 122.693C329.375 122.875 329.264 123.039 329.124 123.178C328.983 123.316 328.817 123.426 328.635 123.5C328.452 123.574 328.257 123.611 328.06 123.61Z" fill="white"/>
</g>
<g opacity="0.5">
<path opacity="0.5" d="M328.06 129.55H312.32C311.924 129.55 311.544 129.393 311.263 129.114C310.982 128.835 310.823 128.456 310.82 128.06C310.82 127.662 310.978 127.281 311.259 126.999C311.541 126.718 311.922 126.56 312.32 126.56H328.06C328.458 126.56 328.839 126.718 329.121 126.999C329.402 127.281 329.56 127.662 329.56 128.06C329.557 128.456 329.398 128.835 329.117 129.114C328.836 129.393 328.456 129.55 328.06 129.55Z" fill="white"/>
</g>
<g opacity="0.5">
<path opacity="0.5" d="M305.1 129.55H301C300.604 129.55 300.224 129.393 299.943 129.114C299.662 128.835 299.503 128.456 299.5 128.06C299.5 127.662 299.658 127.281 299.939 126.999C300.221 126.718 300.602 126.56 301 126.56H305.11C305.508 126.56 305.889 126.718 306.171 126.999C306.452 127.281 306.61 127.662 306.61 128.06C306.609 128.257 306.569 128.452 306.492 128.633C306.415 128.815 306.304 128.979 306.164 129.118C306.023 129.256 305.857 129.366 305.675 129.44C305.492 129.514 305.297 129.551 305.1 129.55Z" fill="white"/>
</g>
<g opacity="0.5">
<path opacity="0.5" d="M328.06 135.49H301C300.602 135.49 300.221 135.332 299.939 135.051C299.658 134.769 299.5 134.388 299.5 133.99C299.503 133.594 299.662 133.215 299.943 132.936C300.224 132.657 300.604 132.5 301 132.5H328.07C328.466 132.5 328.846 132.657 329.127 132.936C329.408 133.215 329.567 133.594 329.57 133.99C329.57 134.188 329.531 134.384 329.455 134.566C329.379 134.749 329.267 134.915 329.127 135.054C328.987 135.194 328.82 135.304 328.637 135.379C328.454 135.453 328.258 135.491 328.06 135.49Z" fill="white"/>
</g>
<g opacity="0.5">
<path opacity="0.5" d="M317.61 141.43H301C300.602 141.43 300.221 141.272 299.939 140.991C299.658 140.709 299.5 140.328 299.5 139.93C299.503 139.534 299.662 139.155 299.943 138.876C300.224 138.597 300.604 138.44 301 138.44H317.62C318.016 138.44 318.396 138.597 318.677 138.876C318.958 139.155 319.117 139.534 319.12 139.93C319.12 140.128 319.081 140.324 319.005 140.506C318.929 140.689 318.817 140.855 318.677 140.994C318.537 141.134 318.37 141.244 318.187 141.319C318.004 141.393 317.808 141.431 317.61 141.43Z" fill="white"/>
</g>
<g opacity="0.5">
<path opacity="0.5" d="M328.06 141.43H323.62C323.224 141.427 322.845 141.268 322.566 140.987C322.287 140.706 322.13 140.326 322.13 139.93C322.13 139.535 322.287 139.156 322.567 138.876C322.846 138.597 323.225 138.44 323.62 138.44H328.06C328.456 138.44 328.836 138.597 329.117 138.876C329.398 139.155 329.557 139.534 329.56 139.93C329.56 140.328 329.402 140.709 329.121 140.991C328.839 141.272 328.458 141.43 328.06 141.43Z" fill="white"/>
</g>
<g opacity="0.5">
<path opacity="0.5" d="M328.06 147.37H301C300.602 147.37 300.221 147.212 299.939 146.931C299.658 146.649 299.5 146.268 299.5 145.87C299.503 145.474 299.662 145.095 299.943 144.816C300.224 144.537 300.604 144.38 301 144.38H328.07C328.466 144.38 328.846 144.537 329.127 144.816C329.408 145.095 329.567 145.474 329.57 145.87C329.57 146.068 329.531 146.264 329.455 146.446C329.379 146.629 329.267 146.795 329.127 146.934C328.987 147.074 328.82 147.184 328.637 147.259C328.454 147.333 328.258 147.371 328.06 147.37Z" fill="white"/>
</g>
<path d="M323.71 104V111.14C323.709 111.591 323.797 112.037 323.969 112.454C324.141 112.871 324.393 113.25 324.712 113.568C325.031 113.887 325.409 114.14 325.826 114.312C326.243 114.483 326.689 114.571 327.14 114.57H334.27L323.71 104Z" fill="#11CDA0"/>
<path opacity="0.5" d="M323.71 104V111.14C323.709 111.591 323.797 112.037 323.969 112.454C324.141 112.871 324.393 113.25 324.712 113.568C325.031 113.887 325.409 114.14 325.826 114.312C326.243 114.483 326.689 114.571 327.14 114.57H334.27L323.71 104Z" fill="white"/>
</svg>
