<svg width="26" height="26" viewBox="0 0 26 26" fill="none" xmlns="http://www.w3.org/2000/svg">
<path d="M12.5334 0L14.2686 5.69336C14.6474 6.94449 15.3195 8.08237 16.2266 9.00835C17.1337 9.93433 18.2484 10.6204 19.474 11.0071L25.0668 12.7942L19.4431 14.7394C18.3021 15.137 17.2652 15.7953 16.4114 16.6641C15.5576 17.533 14.9095 18.5893 14.5165 19.7527L12.5334 25.5884L10.3335 19.4839C9.91909 18.3463 9.25996 17.3182 8.40464 16.4752C7.54932 15.6322 6.51961 14.9958 5.39139 14.6129L0 12.7942L5.31395 10.9597C6.40965 10.5762 7.40998 9.95285 8.24493 9.13331C9.07988 8.31376 9.72926 7.31783 10.1476 6.21522L12.5334 0Z" fill="#FFC100"/>
</svg>
