<svg width="136" height="136" viewBox="0 0 136 136" fill="none" xmlns="http://www.w3.org/2000/svg">
<g clip-path="url(#clip0)">
<path d="M135.937 99.7765L126.781 58.4872C126.628 57.7995 126.209 57.2005 125.614 56.822C125.02 56.4435 124.301 56.3165 123.612 56.4689L115.196 58.3355C116.687 55.6176 117.504 52.535 117.504 49.3579C117.504 39.0681 109.133 30.6967 98.8428 30.6967C96.5403 30.6967 94.2528 31.1254 92.1174 31.9486C86.9824 25.3821 79.1422 21.5244 70.7219 21.5244C64.6093 21.5244 58.7493 23.558 53.9835 27.2935C49.5611 23.9442 44.1708 22.1226 38.5703 22.1226C27.0624 22.1226 17.3081 29.7689 14.1177 40.2475H8.26359C6.79681 40.2475 5.60734 41.4367 5.60734 42.9037C5.60734 44.3708 6.79681 45.56 8.26359 45.56H13.1033C13.0456 46.2589 13.0148 46.9652 13.0148 47.6784C13.0148 50.9551 13.6199 54.1232 14.8166 57.1213C10.8099 61.7586 8.62352 67.6143 8.62352 73.8005C8.62352 77.6871 9.51708 81.5384 11.2107 85.0093C3.84705 99.373 0 115.833 0 133.313C0 134.781 1.18947 135.97 2.65625 135.97H15.785C17.2518 135.97 18.4413 134.781 18.4413 133.313C18.4413 117.941 21.3292 108.657 24.45 100.914C24.8582 99.9016 25.3072 98.9137 25.7866 97.9463C28.475 98.8826 31.2896 99.3568 34.1796 99.3568C38.2306 99.3568 42.207 98.3989 45.7863 96.573C50.1072 99.6684 55.3246 101.355 60.6687 101.355C64.213 101.355 67.6141 100.629 70.7163 99.3058V102.254C70.7163 103.721 71.9058 104.91 73.3725 104.91C74.8393 104.91 76.0288 103.721 76.0288 102.254V97.7574H119.414L119.415 130.657H108.495V111.737C108.495 110.27 107.305 109.081 105.838 109.081H89.6057C88.1389 109.081 86.9494 110.27 86.9494 111.737V130.657H76.0293V126.16C76.0293 124.693 74.8398 123.504 73.3731 123.504C71.9063 123.504 70.7168 124.693 70.7168 126.16V133.313C70.7168 134.018 70.9968 134.693 71.4948 135.191C71.9931 135.689 72.6686 135.969 73.3731 135.969H122.071C122.776 135.969 123.451 135.689 123.949 135.191C124.447 134.693 124.727 134.018 124.727 133.313L124.727 98.0116L131.917 102.592C132.353 102.869 132.849 103.008 133.344 103.008C133.878 103.008 134.411 102.847 134.868 102.527C135.747 101.911 136.17 100.825 135.937 99.7765ZM92.2617 114.394H103.182V130.657H92.2617V114.394ZM13.1548 130.657H5.34358C5.81666 110.531 11.6742 91.9612 22.3563 76.8041C33.1266 61.5219 47.9782 50.7437 65.3058 45.6346C66.241 45.3589 67.2204 45.8695 67.5341 46.8023L67.5583 46.8738C67.8414 47.7169 67.4778 48.6317 66.6937 49.0492L66.5367 49.1329C59.8177 52.7117 52.8703 56.4118 47.3288 62.0163C46.4812 62.8734 46.3168 64.1939 46.929 65.2325C47.5408 66.271 48.7743 66.7678 49.9362 66.441C52.4474 65.7353 54.9892 65.2022 57.4911 64.8563C58.1631 64.7636 58.8248 64.9514 59.3555 65.3857C59.9 65.8309 60.2238 66.4628 60.2677 67.1646C60.3473 68.4444 59.4246 69.5887 58.1668 69.7696C56.7024 69.98 55.2152 70.2339 53.7455 70.5242C46.1688 72.0205 39.0092 75.4333 33.0419 80.3943C27.0911 85.3411 22.4164 91.7498 19.5226 98.928C15.2918 109.425 13.3949 118.789 13.1548 130.657ZM47.7243 91.3612C46.8539 90.636 45.6174 90.5428 44.6486 91.1301C41.5002 93.0365 37.8802 94.0443 34.1796 94.0443C32.2389 94.0443 30.3439 93.7688 28.5154 93.236C34.5589 84.2196 43.9176 77.8799 54.7748 75.7361C56.1539 75.4638 57.5493 75.2255 58.9225 75.0279C62.9008 74.456 65.8205 70.8568 65.5695 66.8342C65.4349 64.6722 64.3957 62.6455 62.7191 61.2738C61.6064 60.3635 60.2671 59.7882 58.8667 59.5948C62.0564 57.5384 65.493 55.7079 69.0338 53.822L69.1911 53.7383C72.2763 52.0949 73.7075 48.4967 72.5927 45.1778L72.5685 45.106C71.3426 41.4577 67.4932 39.4512 63.8034 40.5392C54.6282 43.2445 46.0219 47.4895 38.2234 53.1563C30.4701 58.7908 23.6704 65.7175 18.0139 73.7436C16.8183 75.4399 15.683 77.1781 14.6025 78.9523C14.1634 77.2775 13.9358 75.544 13.9358 73.8007C13.9358 68.4125 16.0299 63.3415 19.8324 59.5207C20.6284 58.7207 20.8324 57.5049 20.3402 56.4891C19.0044 53.7309 18.3271 50.7668 18.3271 47.6786C18.3271 46.9633 18.3656 46.2567 18.4384 45.5603H34C35.4668 45.5603 36.6562 44.3711 36.6562 42.904C36.6562 41.437 35.4668 40.2478 34 40.2478H19.7463C22.7157 32.7526 30.0313 27.4353 38.5706 27.4353C43.6337 27.4353 48.4797 29.3149 52.2163 32.7274C53.239 33.6611 54.8067 33.6526 55.8195 32.7085C59.8783 28.9223 65.1708 26.8371 70.7221 26.8371C78.1158 26.8371 84.9538 30.5354 89.0141 36.7301C89.7709 37.885 91.286 38.2667 92.4999 37.6098C94.4345 36.5627 96.6277 36.0094 98.843 36.0094C106.204 36.0094 112.192 41.9977 112.192 49.3582C112.192 53.6663 110.094 57.7336 106.579 60.2379C106.574 60.2416 106.57 60.2461 106.564 60.2499L82.3233 65.6256C81.2746 65.858 80.469 66.6995 80.2822 67.7577C80.0955 68.816 80.5649 69.882 81.4714 70.4592L90.5582 76.2474C88.3285 77.8255 85.6431 78.7031 82.8761 78.7108C81.66 78.7143 80.6015 79.5433 80.3064 80.7232C78.0531 89.7433 69.9776 96.0431 60.6687 96.0431C55.9465 96.0428 51.3493 94.3803 47.7243 91.3612ZM80.0769 92.4452C82.186 89.985 83.8456 87.103 84.9092 83.907C88.7581 83.4743 92.3966 81.8436 95.2866 79.259L115.987 92.4452H80.0769ZM89.734 69.4235L122.169 62.2306L129.362 94.6658L89.734 69.4235Z" fill="black"/>
<path d="M105.713 16.3885H127.69C132.2 16.3885 135.869 12.7194 135.869 8.2094C135.869 3.69935 132.199 0.0302734 127.69 0.0302734C126.223 0.0302734 125.033 1.21948 125.033 2.68652C125.033 4.15357 126.223 5.34277 127.69 5.34277C129.27 5.34277 130.556 6.62866 130.556 8.2094C130.556 9.79013 129.27 11.076 127.69 11.076H105.713C104.246 11.076 103.057 12.2652 103.057 13.7323C103.057 15.1993 104.246 16.3885 105.713 16.3885Z" fill="black"/>
<path d="M78.459 16.3885H93.2737C94.7405 16.3885 95.9299 15.1993 95.9299 13.7323C95.9299 12.2652 94.7405 11.076 93.2737 11.076H78.459C76.9922 11.076 75.8027 12.2652 75.8027 13.7323C75.8027 15.1993 76.9922 16.3885 78.459 16.3885Z" fill="black"/>
<path d="M47.1428 110.621H32.3281C30.8613 110.621 29.6719 111.81 29.6719 113.277C29.6719 114.744 30.8613 115.933 32.3281 115.933H47.1428C48.6096 115.933 49.7991 114.744 49.7991 113.277C49.7991 111.81 48.6096 110.621 47.1428 110.621Z" fill="black"/>
<path d="M73.373 116.864C74.8401 116.864 76.0293 115.674 76.0293 114.207C76.0293 112.74 74.8401 111.551 73.373 111.551C71.906 111.551 70.7168 112.74 70.7168 114.207C70.7168 115.674 71.906 116.864 73.373 116.864Z" fill="black"/>
</g>
<defs>
<clipPath id="clip0">
<rect width="136" height="136" fill="white"/>
</clipPath>
</defs>
</svg>
