<svg width="395" height="395" viewBox="0 0 395 395" fill="none" xmlns="http://www.w3.org/2000/svg">
<path d="M95.8094 80.0406L83.4863 90.5801L99.9353 109.813L112.258 99.2733L95.8094 80.0406Z" stroke="white" stroke-width="3"/>
<path d="M106.46 78.5457L81.102 100.329L63.3203 79.6077C70.3138 69.7909 78.6542 62.3829 88.6394 57.8242L106.46 78.5457Z" stroke="white" stroke-width="3"/>
<path d="M85.3763 96.6774C85.2338 96.8069 80.9471 92.0927 75.7926 86.1742C70.6381 80.2556 66.5716 75.3601 66.727 75.2306C66.8824 75.1011 71.1562 79.8153 76.3106 85.7338C81.4651 91.6524 85.5188 96.5608 85.3763 96.6774Z" stroke="white" stroke-width="3"/>
<path d="M90.168 92.5327C89.1432 91.5357 88.1911 90.4667 87.3188 89.3338C85.6093 87.3264 83.2911 84.542 80.7398 81.4338L74.2643 73.456L72.3217 71.0342C71.8554 70.4384 71.6094 70.1665 71.6094 70.1276C71.8684 69.8945 76.1811 74.8029 81.2837 81.0064C83.8739 84.1146 86.1015 86.9509 87.7592 89.036C88.6636 90.1283 89.4696 91.2985 90.168 92.5327V92.5327Z" stroke="white" stroke-width="3"/>
<path d="M96.6444 87.0026C95.6043 86.0088 94.6389 84.9396 93.7563 83.8037C92.0338 81.7704 89.7027 78.9341 87.1384 75.7871L80.6629 67.6798L78.7203 65.2062C78.4687 64.9113 78.2433 64.5949 78.0469 64.2607C79.1594 65.18 80.1592 66.2277 81.0256 67.3819C82.7739 69.3893 85.131 72.2126 87.6823 75.3597C90.2337 78.5068 92.526 81.3948 94.1578 83.5058C95.0834 84.5995 95.9152 85.7692 96.6444 87.0026V87.0026Z" stroke="white" stroke-width="3"/>
<path d="M102.485 81.8223C102.343 81.9389 98.0818 77.1859 92.9662 71.2026C87.8506 65.2192 83.8358 60.259 83.9783 60.1295C84.1207 60 88.3686 64.766 93.4843 70.7623C98.5999 76.7585 102.628 81.7058 102.485 81.8223Z" stroke="white" stroke-width="3"/>
<path d="M312.815 93.1323L301.612 81.4097L283.317 98.8932L294.519 110.616L312.815 93.1323Z" stroke="white" stroke-width="3"/>
<path d="M313.351 104.667L290.272 80.514L309.997 61.6704C320.15 68.1459 327.998 76.0848 333.062 85.8239L313.351 104.667Z" stroke="white" stroke-width="3"/>
<path d="M294.133 84.5677C294.003 84.4253 298.471 79.8924 304.118 74.4401C309.764 68.9878 314.479 64.6751 314.569 64.8046C314.66 64.9341 310.231 69.4669 304.584 74.9322C298.937 80.3975 294.262 84.6972 294.133 84.5677Z" stroke="white" stroke-width="3"/>
<path d="M298.535 89.1655C299.455 88.0779 300.46 87.0646 301.54 86.1349C303.444 84.3218 306.111 81.8482 309.077 79.1285L316.705 72.2256L319.024 70.1535C319.58 69.6614 319.852 69.4153 319.891 69.4023C320.137 69.6484 315.462 74.2201 309.53 79.6336C306.565 82.3403 303.845 84.814 301.851 86.4846C300.818 87.464 299.709 88.3604 298.535 89.1655V89.1655Z" stroke="white" stroke-width="3"/>
<path d="M304.389 95.2907C305.321 94.193 306.338 93.1709 307.432 92.2343C309.362 90.4082 312.069 87.9217 315.086 85.202L322.857 78.2862L325.227 76.214C325.516 75.9565 325.819 75.7144 326.133 75.4888C325.277 76.6509 324.286 77.7073 323.18 78.6358C321.264 80.4878 318.557 82.9874 315.552 85.707C312.548 88.4267 309.776 90.8874 307.782 92.5969C306.722 93.5807 305.587 94.4813 304.389 95.2907V95.2907Z" stroke="white" stroke-width="3"/>
<path d="M309.868 100.873C309.738 100.731 314.271 96.2367 319.983 90.8103C325.694 85.3838 330.434 81.11 330.563 81.2525C330.693 81.3949 326.16 85.8889 320.449 91.3024C314.737 96.7159 309.997 100.99 309.868 100.873Z" stroke="white" stroke-width="3"/>
<path d="M209.42 37.1675H190.227V67.123H209.42V37.1675Z" stroke="white" stroke-width="3"/>
<path d="M219.678 46.1289H180.178V13.8423C194.022 10.4232 207.232 10.216 219.717 13.8423L219.678 46.1289Z" stroke="white" stroke-width="3"/>
<path d="M220.182 13.9719C219.719 14.2614 219.229 14.5043 218.718 14.6972C217.366 15.2927 215.977 15.8031 214.561 16.2254C212.439 16.8789 210.276 17.3895 208.086 17.7536C205.425 18.1758 202.737 18.4009 200.043 18.427C197.351 18.431 194.663 18.2319 192.001 17.8313C189.811 17.4917 187.648 17.0028 185.525 16.3678C184.107 15.953 182.715 15.4557 181.355 14.8785C180.841 14.7002 180.349 14.461 179.892 14.1662C179.892 14.0496 182.067 14.9432 185.655 15.9016C187.76 16.458 189.896 16.8905 192.052 17.1967C194.688 17.5533 197.345 17.735 200.004 17.7406C202.666 17.7104 205.322 17.5027 207.956 17.119C210.103 16.8085 212.23 16.3761 214.328 15.8239C218.006 14.7749 220.13 13.8554 220.182 13.9719Z" stroke="white" stroke-width="3"/>
<path d="M193.232 46.0387C193.051 46.0387 192.896 39.8352 192.896 32.1941C192.896 24.5531 193.051 18.3496 193.232 18.3496C193.414 18.3496 193.569 24.5402 193.569 32.1941C193.569 39.8481 193.427 46.0387 193.232 46.0387Z" stroke="white" stroke-width="3"/>
<path d="M200.756 46.2202C200.574 46.2202 200.419 39.9908 200.419 32.3109C200.419 24.631 200.574 18.4146 200.756 18.4146C200.937 18.4146 201.092 24.631 201.092 32.3109C201.092 39.9908 200.95 46.2202 200.756 46.2202Z" stroke="white" stroke-width="3"/>
<path d="M208.28 46.1038C208.099 46.1038 207.943 39.8743 207.943 32.1944C207.943 24.5145 208.099 18.2852 208.28 18.2852C208.461 18.2852 208.617 24.5145 208.617 32.1944C208.617 39.8743 208.474 46.1038 208.28 46.1038Z" stroke="white" stroke-width="3"/>
<path d="M214.497 46.1033C214.303 46.1033 214.16 39.3688 214.16 31.0673C214.16 22.7657 214.303 16.0312 214.497 16.0312C214.691 16.0312 214.834 22.7657 214.834 31.0673C214.834 39.3688 214.73 46.1033 214.497 46.1033Z" stroke="white" stroke-width="3"/>
<path d="M186.121 45.9095C185.94 45.9095 185.784 39.175 185.784 30.8734C185.784 22.5719 185.94 15.8374 186.121 15.8374C186.302 15.8374 186.458 22.5719 186.458 30.8734C186.458 39.175 186.315 45.9095 186.121 45.9095Z" stroke="white" stroke-width="3"/>
<path d="M296.252 296.253C350.788 241.716 350.788 153.295 296.252 98.758C241.715 44.2213 153.294 44.2213 98.7571 98.758C44.2205 153.295 44.2205 241.716 98.7571 296.253C153.294 350.789 241.715 350.789 296.252 296.253Z" stroke="white" stroke-width="3"/>
<path d="M197.506 313.682C262.28 313.682 314.79 261.173 314.79 196.399C314.79 131.625 262.28 79.1152 197.506 79.1152C132.732 79.1152 80.2227 131.625 80.2227 196.399C80.2227 261.173 132.732 313.682 197.506 313.682Z" stroke="white" stroke-width="3"/>
<path d="M314.789 196.399C314.789 196.399 314.789 195.764 314.698 194.508C314.607 193.252 314.698 191.374 314.452 188.926C313.99 181.785 312.871 174.701 311.111 167.765C309.842 162.758 308.236 157.843 306.306 153.052C304.037 147.341 301.308 141.823 298.147 136.553C290.412 123.678 280.304 112.388 268.36 103.282C253.863 92.2524 236.987 84.766 219.081 81.4207C203.905 78.6282 188.33 78.8086 173.222 81.9517C167.917 83.1033 162.691 84.5958 157.577 86.4198C135.818 94.3462 116.891 108.537 103.184 127.202C99.6066 132.063 96.4194 137.199 93.6517 142.562C92.2141 145.243 90.9838 148.027 89.7664 150.825C88.549 153.622 87.4611 156.523 86.5416 159.476C84.554 165.385 83.0637 171.45 82.0865 177.607C81.1035 183.833 80.5883 190.123 80.5453 196.425C80.591 202.731 81.1017 209.025 82.0735 215.256C83.0654 221.41 84.5553 227.474 86.5287 233.387C87.4611 236.327 88.6267 239.176 89.7534 242.025C90.8802 244.874 92.24 247.62 93.6387 250.301C96.4061 255.667 99.5978 260.803 103.184 265.661C116.888 284.333 135.815 298.528 157.577 306.456C162.691 308.28 167.917 309.772 173.222 310.924C178.395 312.005 183.635 312.736 188.906 313.113C198.994 313.875 209.138 313.318 219.081 311.455C236.987 308.11 253.863 300.623 268.36 289.594C280.308 280.492 290.416 269.201 298.147 256.323C301.306 251.052 304.034 245.534 306.306 239.823C310.906 228.373 313.656 216.264 314.452 203.949C314.672 201.502 314.633 199.624 314.698 198.368C314.763 197.111 314.789 196.464 314.789 196.464C314.789 196.464 314.789 197.111 314.789 198.368C314.789 199.624 314.789 201.502 314.607 203.949C313.898 216.298 311.2 228.451 306.617 239.94C304.361 245.678 301.641 251.222 298.483 256.517C290.767 269.457 280.658 280.81 268.696 289.97C254.148 301.066 237.206 308.606 219.224 311.986C209.235 313.873 199.043 314.448 188.906 313.696C183.609 313.32 178.343 312.589 173.144 311.507C167.807 310.359 162.551 308.862 157.409 307.026C135.52 299.069 116.48 284.806 102.691 266.036C99.0926 261.153 95.8879 255.99 93.1077 250.599C91.6572 247.905 90.4139 245.082 89.1447 242.271C87.8755 239.461 86.8395 236.547 85.907 233.581C83.9203 227.644 82.4217 221.554 81.426 215.372C79.371 202.833 79.371 190.043 81.426 177.504C82.4267 171.349 83.9253 165.285 85.907 159.372C86.8524 156.407 88.018 153.544 89.1577 150.682C90.2974 147.82 91.6572 145.062 93.1077 142.368C95.8972 136.978 99.1059 131.817 102.704 126.93C116.487 108.163 135.524 93.9032 157.409 85.9535C162.547 84.1192 167.799 82.6224 173.131 81.4725C178.335 80.3915 183.605 79.6603 188.906 79.2838C199.039 78.5311 209.227 79.1059 219.211 80.9933C237.198 84.3588 254.143 91.8999 268.683 103.01C280.645 112.175 290.754 123.532 298.471 136.475C304.272 146.245 308.634 156.801 311.422 167.816C313.149 174.777 314.229 181.883 314.646 189.043C314.841 191.491 314.776 193.369 314.828 194.625C314.879 195.881 314.789 196.399 314.789 196.399Z" stroke="white" stroke-width="3"/>
<path d="M297.577 192.151C293.86 192.307 290.829 192.151 290.816 191.828C290.803 191.504 293.795 191.064 297.512 190.856C301.229 190.649 304.26 190.779 304.285 191.167C304.311 191.556 301.268 191.996 297.577 192.151Z" stroke="white" stroke-width="3"/>
<path d="M295.077 219.154C291.451 218.299 288.602 217.354 288.602 217.03C288.602 216.706 291.684 217.095 295.323 217.885C298.962 218.675 301.799 219.633 301.799 220.009C301.799 220.384 298.677 219.996 295.077 219.154Z" stroke="white" stroke-width="3"/>
<path d="M285.403 244.473C282.127 242.686 279.614 240.989 279.77 240.704C279.925 240.419 282.722 241.598 286.012 243.294C289.301 244.991 291.827 246.739 291.646 247.076C291.464 247.413 288.667 246.273 285.403 244.473Z" stroke="white" stroke-width="3"/>
<path d="M269.28 266.282C266.612 263.692 264.63 261.387 264.863 261.102C265.096 260.817 267.454 262.746 270.173 265.311C272.893 267.875 274.849 270.167 274.59 270.491C274.331 270.815 271.935 268.885 269.28 266.282Z" stroke="white" stroke-width="3"/>
<path d="M247.91 282.989C246.046 279.764 244.75 277.019 245.035 276.85C245.32 276.682 247.107 279.143 249.024 282.329C250.941 285.515 252.236 288.26 251.912 288.467C251.589 288.675 249.788 286.188 247.91 282.989Z" stroke="white" stroke-width="3"/>
<path d="M222.851 293.337C221.918 289.724 221.413 286.732 221.737 286.654C222.061 286.576 223.109 289.413 224.107 293C225.104 296.588 225.596 299.579 225.221 299.683C224.845 299.786 223.783 296.937 222.851 293.337Z" stroke="white" stroke-width="3"/>
<path d="M195.925 296.549C195.925 292.819 196.301 289.801 196.625 289.801C196.948 289.801 197.22 292.832 197.22 296.549C197.22 300.266 196.897 303.296 196.521 303.296C196.145 303.296 195.86 300.292 195.925 296.549Z" stroke="white" stroke-width="3"/>
<path d="M169.168 292.495C170.23 288.921 171.344 286.11 171.668 286.201C171.991 286.292 171.422 289.27 170.372 292.858C169.323 296.445 168.249 299.333 167.873 299.152C167.497 298.971 168.041 296.07 169.168 292.495Z" stroke="white" stroke-width="3"/>
<path d="M144.394 281.344C146.375 278.197 148.201 275.775 148.486 275.944C148.771 276.112 147.424 278.845 145.494 282.031C143.565 285.216 141.726 287.625 141.402 287.431C141.078 287.237 142.412 284.504 144.394 281.344Z" stroke="white" stroke-width="3"/>
<path d="M123.555 263.99C126.313 261.478 128.735 259.639 128.942 259.885C129.15 260.131 127.155 262.384 124.435 264.935C121.716 267.487 119.32 269.326 119.048 269.054C118.776 268.782 120.809 266.503 123.555 263.99Z" stroke="white" stroke-width="3"/>
<path d="M108.118 241.689C111.446 240.018 114.269 238.891 114.412 239.176C114.554 239.461 112.016 241.106 108.713 242.841C105.411 244.577 102.601 245.703 102.419 245.354C102.238 245.004 104.802 243.372 108.118 241.689Z" stroke="white" stroke-width="3"/>
<path d="M99.2328 216.072C102.898 215.346 105.916 215.022 105.98 215.346C106.045 215.67 103.144 216.564 99.5048 217.341C95.8656 218.118 92.8351 218.442 92.7574 218.066C92.6797 217.69 95.6066 216.797 99.2328 216.072Z" stroke="white" stroke-width="3"/>
<path d="M97.5899 189.055C101.307 189.327 104.298 189.819 104.286 190.143C104.273 190.467 101.229 190.558 97.5122 190.338C93.7953 190.117 90.7907 189.638 90.8166 189.25C90.8425 188.861 93.873 188.719 97.5899 189.055Z" stroke="white" stroke-width="3"/>
<path d="M103.222 162.467C106.732 163.762 109.478 165.058 109.374 165.329C109.27 165.601 106.318 164.902 102.795 163.685C99.2723 162.467 96.5267 161.198 96.6432 160.836C96.7598 160.473 99.7255 161.198 103.222 162.467Z" stroke="white" stroke-width="3"/>
<path d="M115.798 138.444C118.828 140.607 121.133 142.575 120.978 142.847C120.823 143.119 118.155 141.617 115.085 139.506C112.016 137.395 109.711 135.426 109.905 135.102C110.099 134.779 112.754 136.281 115.798 138.444Z" stroke="white" stroke-width="3"/>
<path d="M134.33 118.655C136.674 121.543 138.371 124.055 138.125 124.275C137.879 124.496 135.716 122.333 133.333 119.471C130.95 116.609 129.241 114.109 129.539 113.863C129.836 113.617 131.986 115.767 134.33 118.655Z" stroke="white" stroke-width="3"/>
<path d="M157.513 104.538C158.989 107.957 159.961 110.833 159.65 111.014C159.339 111.195 157.863 108.501 156.334 105.108C154.806 101.715 153.835 98.8399 154.185 98.6327C154.534 98.4255 155.998 101.132 157.513 104.538Z" stroke="white" stroke-width="3"/>
<path d="M183.596 97.195C184.101 100.886 184.256 103.917 183.919 103.968C183.583 104.02 182.87 101.067 182.314 97.3892C181.757 93.7112 181.601 90.6677 181.977 90.6159C182.352 90.5641 183.091 93.504 183.596 97.195Z" stroke="white" stroke-width="3"/>
<path d="M210.715 97.1041C210.223 100.795 209.562 103.761 209.238 103.722C208.915 103.683 208.992 100.64 209.433 96.9487C209.873 93.2577 210.534 90.2789 210.909 90.3307C211.285 90.3825 211.207 93.4001 210.715 97.1041Z" stroke="white" stroke-width="3"/>
<path d="M236.862 104.266C235.399 107.698 233.961 110.366 233.65 110.237C233.339 110.107 234.259 107.219 235.671 103.761C237.082 100.303 238.533 97.6484 238.883 97.8039C239.232 97.9593 238.339 100.847 236.862 104.266Z" stroke="white" stroke-width="3"/>
<path d="M260.123 118.214C257.792 121.128 255.694 123.317 255.435 123.109C255.176 122.902 256.821 120.351 259.113 117.411C261.405 114.471 263.491 112.231 263.801 112.529C264.112 112.826 262.416 115.313 260.123 118.214Z" stroke="white" stroke-width="3"/>
<path d="M278.81 137.874C275.78 140.05 273.177 141.604 272.982 141.332C272.788 141.06 275.055 139.052 278.046 136.825C281.038 134.597 283.641 133.056 283.874 133.367C284.107 133.678 281.841 135.698 278.81 137.874Z" stroke="white" stroke-width="3"/>
<path d="M291.541 161.859C288.044 163.154 285.066 163.918 284.988 163.621C284.91 163.323 287.578 161.976 291.088 160.642C294.598 159.308 297.486 158.518 297.628 158.881C297.771 159.243 295.038 160.564 291.541 161.859Z" stroke="white" stroke-width="3"/>
<path d="M194.953 187.152L237.575 115.378L211.854 196.412L204.634 188.447L194.953 187.152Z" stroke="white" stroke-width="3"/>
<path d="M198.71 214.051C206.285 214.051 212.425 207.911 212.425 200.336C212.425 192.762 206.285 186.621 198.71 186.621C191.136 186.621 184.995 192.762 184.995 200.336C184.995 207.911 191.136 214.051 198.71 214.051Z" stroke="white" stroke-width="3"/>
<path d="M212.425 200.336C212.302 199.221 212.116 198.114 211.868 197.02C211.074 194.067 209.314 191.463 206.869 189.626C205.072 188.274 202.966 187.394 200.742 187.066C198.519 186.738 196.248 186.972 194.138 187.748C192.923 188.178 191.783 188.794 190.758 189.574C189.666 190.366 188.708 191.328 187.921 192.423C186.238 194.718 185.33 197.49 185.33 200.336C185.33 203.182 186.238 205.954 187.921 208.249C189.494 210.383 191.654 212.012 194.138 212.937C195.91 213.587 197.799 213.859 199.682 213.737C201.566 213.614 203.403 213.099 205.076 212.225C206.749 211.351 208.221 210.136 209.397 208.66C210.574 207.183 211.428 205.477 211.907 203.651C212.157 202.558 212.343 201.451 212.464 200.336C212.544 201.471 212.443 202.612 212.166 203.716C211.458 206.804 209.7 209.551 207.192 211.487C205.473 212.821 203.463 213.731 201.326 214.142C198.867 214.612 196.327 214.415 193.97 213.572C192.689 213.13 191.487 212.487 190.408 211.668C189.263 210.84 188.257 209.835 187.429 208.689C185.646 206.289 184.684 203.378 184.684 200.388C184.684 197.397 185.646 194.487 187.429 192.086C188.261 190.944 189.266 189.939 190.408 189.107C191.492 188.3 192.693 187.662 193.97 187.217C196.326 186.367 198.867 186.17 201.326 186.647C203.937 187.149 206.349 188.393 208.272 190.231C210.194 192.068 211.546 194.421 212.166 197.008C212.424 198.097 212.512 199.22 212.425 200.336V200.336Z" stroke="white" stroke-width="3"/>
<path d="M208.758 202.392C209.875 196.868 206.302 191.484 200.777 190.367C195.253 189.25 189.869 192.823 188.752 198.347C187.635 203.872 191.208 209.256 196.732 210.373C202.257 211.49 207.641 207.917 208.758 202.392Z" stroke="white" stroke-width="3"/>
</svg>
