<svg width="215" height="166" viewBox="0 0 215 166" fill="none" xmlns="http://www.w3.org/2000/svg">
<path d="M182.446 1.73463L182.035 3.12844C181.949 3.435 181.935 3.75808 181.996 4.07096C182.056 4.38384 182.189 4.67749 182.383 4.92766L183.282 6.05722L181.882 5.6896C181.599 5.60717 181.3 5.59362 181.011 5.65001C180.721 5.7064 180.448 5.83116 180.214 6.01434L179.039 6.92369L179.4 5.38065C179.473 5.0952 179.48 4.79622 179.42 4.50749C179.361 4.21876 179.236 3.94825 179.056 3.71739L178.212 2.58797L179.522 2.95098C179.795 3.02726 180.082 3.04163 180.362 2.9931C180.642 2.94457 180.908 2.83431 181.142 2.66999L182.446 1.73463Z" fill="white"/>
<path d="M195.787 32.319L195.376 33.7128C195.287 34.0191 195.272 34.3428 195.333 34.6561C195.394 34.9695 195.528 35.2631 195.724 35.512L196.623 36.6416L195.211 36.2652C194.928 36.1849 194.632 36.1732 194.344 36.2311C194.057 36.2891 193.787 36.415 193.555 36.5987L192.38 37.5081L192.741 35.965C192.811 35.6755 192.816 35.3735 192.756 35.0817C192.695 34.7898 192.571 34.5157 192.392 34.2798L191.54 33.1635L192.863 33.5353C193.135 33.6128 193.42 33.6269 193.699 33.5768C193.977 33.5266 194.241 33.4134 194.47 33.2455L195.787 32.319Z" fill="white"/>
<path d="M3.06748 158.85L3.48581 160.242C3.57919 160.547 3.74351 160.824 3.96475 161.05C4.18599 161.276 4.45758 161.443 4.75621 161.539L6.11951 161.966L4.7407 162.456C4.46247 162.55 4.2096 162.709 4.00243 162.92C3.79526 163.132 3.63958 163.39 3.54779 163.674L3.06748 165.097L2.52528 163.61C2.42786 163.331 2.2679 163.078 2.05816 162.872C1.84842 162.666 1.59465 162.513 1.31687 162.424L0 161.966L1.30136 161.523C1.56967 161.432 1.81473 161.282 2.0185 161.082C2.22226 160.882 2.37956 160.638 2.47881 160.368L3.06748 158.85Z" fill="white"/>
<path d="M120.872 136.788L121.306 138.18C121.398 138.483 121.56 138.759 121.778 138.984C121.996 139.21 122.265 139.379 122.561 139.476L123.939 139.903L122.561 140.378C122.284 140.478 122.032 140.639 121.823 140.849C121.615 141.06 121.454 141.314 121.352 141.596L120.872 143.019L120.33 141.532C120.221 141.257 120.053 141.011 119.839 140.811C119.624 140.611 119.368 140.463 119.09 140.378L117.773 139.935L119.059 139.492C119.327 139.397 119.572 139.245 119.777 139.046C119.983 138.847 120.145 138.605 120.252 138.338L120.872 136.788Z" fill="white"/>
<path d="M153.438 32.2245L151.765 37.9531C151.401 39.2058 151.34 40.5298 151.586 41.8121C151.832 43.0944 152.378 44.2968 153.178 45.3168L156.871 49.9756L151.13 48.4083C149.966 48.0887 148.746 48.0435 147.563 48.2761C146.379 48.5086 145.263 49.0129 144.299 49.7507L139.473 53.4931L140.979 47.2509C141.261 46.0708 141.277 44.8408 141.026 43.6535C140.775 42.4661 140.264 41.3523 139.531 40.3958L136.053 35.8077L141.48 37.3128C142.599 37.6214 143.771 37.6744 144.912 37.4681C146.053 37.2617 147.136 36.8011 148.083 36.119L153.438 32.2245Z" fill="white"/>
<path d="M63.6272 139.145L65.3623 144.838C65.7411 146.089 66.4133 147.227 67.3204 148.153C68.2275 149.079 69.3421 149.765 70.5678 150.152L76.1606 151.939L70.5368 153.884C69.3959 154.282 68.359 154.94 67.5052 155.809C66.6514 156.678 66.0033 157.734 65.6102 158.897L63.6272 164.733L61.4272 158.629C61.0128 157.491 60.3537 156.463 59.4984 155.62C58.6431 154.777 57.6134 154.14 56.4851 153.758L51.0938 151.939L56.4077 150.104C57.5034 149.721 58.5037 149.098 59.3387 148.278C60.1736 147.458 60.823 146.462 61.2413 145.36L63.6272 139.145Z" fill="white"/>
<path d="M111.069 8.47037L110.388 10.8416C110.237 11.3584 110.21 11.905 110.31 12.4347C110.411 12.9643 110.636 13.4612 110.965 13.8828L112.486 15.799L110.116 15.1482C109.635 15.0202 109.132 15.0048 108.644 15.1031C108.157 15.2013 107.697 15.4107 107.3 15.7157L105.298 17.2589L105.932 14.6463C106.044 14.1584 106.048 13.6511 105.944 13.1614C105.839 12.6717 105.629 12.212 105.329 11.8157L103.89 9.91714L106.131 10.5369C106.591 10.6634 107.073 10.6859 107.543 10.603C108.013 10.5201 108.46 10.3338 108.852 10.0569L111.069 8.47037Z" fill="white"/>
<path d="M209.699 82.1424L209.018 84.5137C208.864 85.0286 208.837 85.5744 208.94 86.1025C209.042 86.6307 209.27 87.125 209.604 87.5417L211.129 89.4799L208.759 88.8291C208.276 88.6966 207.771 88.6781 207.281 88.7749C206.791 88.8717 206.329 89.0813 205.93 89.3877L203.937 90.9178L204.562 88.3184C204.675 87.829 204.68 87.3201 204.577 86.8283C204.474 86.3366 204.266 85.8742 203.967 85.4746L202.519 83.5892L204.761 84.209C205.221 84.3354 205.703 84.358 206.173 84.2751C206.643 84.1922 207.09 84.0059 207.482 83.729L209.699 82.1424Z" fill="white"/>
<path d="M169.174 129.643L169.903 131.999C170.058 132.515 170.334 132.984 170.707 133.367C171.079 133.75 171.537 134.035 172.041 134.198L174.349 134.941L172.025 135.747C171.556 135.911 171.13 136.181 170.778 136.537C170.427 136.893 170.159 137.326 169.996 137.803L169.174 140.223L168.26 137.693C168.093 137.223 167.823 136.798 167.472 136.45C167.12 136.103 166.696 135.841 166.231 135.684L164 134.941L166.2 134.182C166.652 134.022 167.065 133.763 167.41 133.425C167.755 133.086 168.024 132.676 168.198 132.221L169.174 129.643Z" fill="white"/>
</svg>
