<svg width="215" height="162" viewBox="0 0 215 162" fill="none" xmlns="http://www.w3.org/2000/svg">
<path d="M182.446 1.69927L182.035 3.06467C181.949 3.36498 181.935 3.68147 181.996 3.98798C182.056 4.29448 182.189 4.58214 182.383 4.82721L183.282 5.93375L181.882 5.57362C181.599 5.49287 181.3 5.4796 181.011 5.53484C180.721 5.59007 180.448 5.71229 180.214 5.89174L179.039 6.78255L179.4 5.27097C179.473 4.99134 179.48 4.69845 179.42 4.4156C179.361 4.13276 179.236 3.86776 179.056 3.64162L178.212 2.53521L179.522 2.89083C179.795 2.96556 180.082 2.97963 180.362 2.93209C180.642 2.88455 180.908 2.77653 181.142 2.61556L182.446 1.69927Z" fill="#FFC100"/>
<path d="M195.787 31.6601L195.376 33.0254C195.287 33.3255 195.272 33.6425 195.333 33.9495C195.394 34.2565 195.528 34.5442 195.724 34.788L196.623 35.8945L195.211 35.5258C194.928 35.4471 194.632 35.4357 194.344 35.4924C194.057 35.5492 193.787 35.6725 193.555 35.8525L192.38 36.7433L192.741 35.2317C192.811 34.9481 192.816 34.6523 192.756 34.3664C192.695 34.0805 192.571 33.812 192.392 33.5809L191.54 32.4874L192.863 32.8516C193.135 32.9274 193.42 32.9413 193.699 32.8922C193.977 32.843 194.241 32.7322 194.47 32.5677L195.787 31.6601Z" fill="#FFC100"/>
<path d="M3.06748 155.612L3.4858 156.975C3.57918 157.274 3.7435 157.546 3.96474 157.767C4.18599 157.988 4.45757 158.152 4.7562 158.246L6.11949 158.664L4.74069 159.144C4.46246 159.236 4.20959 159.392 4.00242 159.599C3.79526 159.806 3.63958 160.059 3.54779 160.337L3.06748 161.732L2.52528 160.275C2.42785 160.001 2.2679 159.753 2.05816 159.552C1.84842 159.35 1.59465 159.2 1.31687 159.113L0 158.664L1.30136 158.23C1.56967 158.142 1.81473 157.994 2.01849 157.798C2.22226 157.603 2.37955 157.364 2.4788 157.099L3.06748 155.612Z" fill="#FFC100"/>
<path d="M120.872 134L121.306 135.363C121.398 135.66 121.56 135.93 121.778 136.152C121.996 136.373 122.265 136.538 122.561 136.633L123.939 137.052L122.561 137.517C122.284 137.614 122.032 137.772 121.823 137.978C121.615 138.184 121.454 138.434 121.352 138.709L120.872 140.104L120.33 138.647C120.221 138.378 120.053 138.137 119.839 137.941C119.624 137.745 119.368 137.6 119.09 137.517L117.773 137.083L119.059 136.649C119.327 136.556 119.572 136.407 119.777 136.212C119.983 136.017 120.145 135.78 120.252 135.518L120.872 134Z" fill="#FFC100"/>
<path d="M153.438 31.5673L151.765 37.1792C151.401 38.4063 151.34 39.7034 151.586 40.9595C151.832 42.2157 152.378 43.3936 153.178 44.3928L156.871 48.9566L151.13 47.4213C149.966 47.1082 148.746 47.0639 147.563 47.2917C146.379 47.5195 145.263 48.0135 144.299 48.7363L139.473 52.4024L140.979 46.2874C141.261 45.1314 141.277 43.9265 141.026 42.7634C140.775 41.6002 140.264 40.5091 139.531 39.5721L136.053 35.0776L141.48 36.552C142.599 36.8543 143.771 36.9062 144.912 36.7041C146.053 36.5019 147.136 36.0507 148.083 35.3825L153.438 31.5673Z" fill="#FFC100"/>
<path d="M63.6272 136.308L65.3623 141.885C65.7412 143.111 66.4133 144.226 67.3204 145.133C68.2275 146.04 69.3422 146.712 70.5678 147.091L76.1606 148.842L70.5368 150.747C69.3959 151.137 68.359 151.781 67.5052 152.633C66.6514 153.484 66.0033 154.518 65.6102 155.658L63.6272 161.375L61.4272 155.395C61.0128 154.28 60.3537 153.273 59.4984 152.447C58.6431 151.622 57.6134 150.998 56.4851 150.623L51.0938 148.842L56.4077 147.044C57.5034 146.669 58.5037 146.058 59.3387 145.255C60.1736 144.452 60.823 143.477 61.2413 142.397L63.6272 136.308Z" fill="#FFC100"/>
<path d="M111.069 8.29774L110.388 10.6206C110.237 11.1269 110.21 11.6624 110.31 12.1812C110.411 12.7001 110.636 13.1869 110.965 13.5998L112.486 15.477L110.116 14.8395C109.635 14.7141 109.132 14.699 108.644 14.7952C108.157 14.8915 107.697 15.0966 107.3 15.3953L105.298 16.9072L105.932 14.3478C106.044 13.8698 106.048 13.3729 105.944 12.8932C105.839 12.4135 105.629 11.9631 105.329 11.5749L103.89 9.71502L106.131 10.3222C106.591 10.446 107.073 10.4681 107.543 10.3869C108.013 10.3057 108.46 10.1232 108.852 9.85198L111.069 8.29774Z" fill="#FFC100"/>
<path d="M209.699 80.4679L209.018 82.7908C208.864 83.2953 208.837 83.8299 208.94 84.3473C209.042 84.8647 209.27 85.3489 209.604 85.7571L211.129 87.6558L208.759 87.0183C208.276 86.8885 207.771 86.8703 207.281 86.9652C206.791 87.06 206.329 87.2653 205.93 87.5655L203.937 89.0644L204.562 86.518C204.675 86.0385 204.68 85.54 204.577 85.0583C204.474 84.5765 204.266 84.1236 203.967 83.7321L202.519 81.8852L204.761 82.4923C205.221 82.6162 205.703 82.6383 206.173 82.5571C206.643 82.4759 207.09 82.2934 207.482 82.0221L209.699 80.4679Z" fill="#FFC100"/>
<path d="M169.174 127L169.903 129.308C170.058 129.813 170.334 130.273 170.707 130.648C171.079 131.023 171.537 131.302 172.041 131.462L174.349 132.19L172.025 132.98C171.556 133.14 171.13 133.405 170.778 133.753C170.427 134.102 170.159 134.527 169.996 134.994L169.174 137.364L168.26 134.886C168.093 134.426 167.823 134.01 167.472 133.669C167.12 133.328 166.696 133.071 166.231 132.918L164 132.19L166.2 131.446C166.652 131.289 167.065 131.036 167.41 130.705C167.755 130.373 168.024 129.971 168.198 129.525L169.174 127Z" fill="#FFC100"/>
</svg>
